<?xml version="1.0" encoding="utf-8"?>
<!-- Generator: Adobe Illustrator 16.0.0, SVG Export Plug-In . SVG Version: 6.00 Build 0)  -->
<!DOCTYPE svg PUBLIC "-//W3C//DTD SVG 1.1//EN" "http://www.w3.org/Graphics/SVG/1.1/DTD/svg11.dtd">
<svg version="1.1" id="Layer_1" xmlns="http://www.w3.org/2000/svg" xmlns:xlink="http://www.w3.org/1999/xlink" x="0px" y="0px"
	 width="2000px" height="330px" viewBox="0 0 2000 330" enable-background="new 0 0 2000 330" xml:space="preserve">
<rect fill="#7AD69C" width="2000" height="330"/>
<g id="Layer_2">
</g>
<circle fill="#7AD69C" stroke="#0FA1D6" stroke-width="3" stroke-miterlimit="10" cx="1005.254" cy="100" r="70"/>
<path fill="none" stroke="#0FA1D6" stroke-width="3" stroke-miterlimit="10" d="M1075.247,100h87.288c12,0,17.99,8.316,26,21
	c8.262,13.084,5.467,8.124,13.51,22.055c8.891,15.4,15.159,16.334,25.416,16.334s91.741,0,103.956,0c12,0,17,9,26,21l75.243,106.199
	"/>
<path fill="none" stroke="#0FA1D6" stroke-width="3" stroke-miterlimit="10" d="M725.618,185.102c0,0,11.066,0.115,24.816,0.115
	s21.789-3.406,30.048-7.958c12.4-6.834,79.791-61.853,86.706-67.089c10.826-8.199,15.979-10.17,27.229-10.17s39.837,0,39.837,0"/>
<g>
	<g>
		<rect x="798.413" y="115.941" fill="#6EBF8C" width="3.729" height="14.23"/>
		<g>
			<path fill="#6EBF8C" d="M810.971,116.847c0.756,2.066-0.425,3.756-2.625,3.756H792.37c-2.2,0-3.381-1.69-2.625-3.756
				l9.237-25.243c0.757-2.066,1.994-2.066,2.75,0L810.971,116.847z"/>
		</g>
		<polygon fill="#6EBF8C" points="800.197,111.076 808.858,111.076 812.265,120.604 800.197,120.604 		"/>
		<polygon fill="#6EBF8C" points="800.432,111.076 791.857,111.076 788.363,120.604 800.432,120.604 		"/>
	</g>
	<g>
		<rect x="749.113" y="116.559" fill="#6EBF8C" width="3.729" height="14.23"/>
		<g>
			<path fill="#6EBF8C" d="M761.671,117.464c0.756,2.066-0.425,3.756-2.625,3.756h-15.975c-2.2,0-3.382-1.69-2.625-3.756
				l9.237-25.243c0.756-2.066,1.993-2.066,2.749,0L761.671,117.464z"/>
		</g>
		<polygon fill="#6EBF8C" points="750.896,111.692 759.559,111.692 762.965,121.221 750.896,121.221 		"/>
		<polygon fill="#6EBF8C" points="751.131,111.692 742.557,111.692 739.062,121.221 751.131,121.221 		"/>
	</g>
	<g>
		<polygon fill="#6EBF8C" points="775.509,113.262 784.171,113.262 787.577,122.789 775.509,122.789 		"/>
		<polygon fill="#6EBF8C" points="775.742,113.262 767.171,113.262 763.674,122.789 775.742,122.789 		"/>
	</g>
	<g>
		<rect x="763.059" y="114.259" fill="#6EBF8C" width="3.729" height="14.229"/>
	</g>
	<g>
		<rect x="785.136" y="110.465" fill="#6EBF8C" width="3.729" height="14.23"/>
		<g>
			<path fill="#6EBF8C" d="M777.13,117.542c0.756,2.066-0.425,3.756-2.625,3.756H758.53c-2.2,0-3.382-1.69-2.625-3.756l9.236-25.242
				c0.756-2.066,1.993-2.066,2.75,0L777.13,117.542z"/>
		</g>
		<g>
			<path fill="#6EBF8C" d="M786.498,115.2c0.756,2.066-0.425,3.756-2.625,3.756h-15.976c-2.199,0-3.381-1.69-2.625-3.756
				l9.237-25.242c0.756-2.066,1.993-2.066,2.75,0L786.498,115.2z"/>
		</g>
	</g>
	<g>
		<rect x="781.738" y="122.291" fill="#71B087" width="3.729" height="14.229"/>
		<g>
			<path fill="#71B087" d="M794.297,123.196c0.756,2.066-0.425,3.756-2.625,3.756h-15.975c-2.2,0-3.382-1.69-2.625-3.756
				l9.237-25.242c0.756-2.066,1.993-2.066,2.749,0L794.297,123.196z"/>
		</g>
		<polygon fill="#71B087" points="783.522,117.424 792.185,117.424 795.591,126.952 783.522,126.952 		"/>
		<polygon fill="#71B087" points="783.755,117.424 775.183,117.424 771.687,126.952 783.755,126.952 		"/>
	</g>
	<g>
		<rect x="765.674" y="128.32" fill="#71B087" width="3.729" height="14.23"/>
		<g>
			<path fill="#71B087" d="M778.231,129.226c0.757,2.066-0.425,3.756-2.625,3.756h-15.975c-2.2,0-3.381-1.69-2.625-3.756
				l9.238-25.243c0.756-2.066,1.993-2.066,2.749,0L778.231,129.226z"/>
		</g>
		<polygon fill="#71B087" points="767.458,123.454 776.12,123.454 779.526,132.982 767.458,132.982 		"/>
		<polygon fill="#71B087" points="767.69,123.454 759.118,123.454 755.623,132.982 767.69,132.982 		"/>
	</g>
</g>
<g>
	<g>
		<rect x="1307.312" y="100.26" fill="#6EBF8C" width="3.729" height="14.23"/>
		<g>
			<path fill="#6EBF8C" d="M1319.868,101.166c0.757,2.066-0.426,3.756-2.625,3.756h-15.976c-2.2,0-3.381-1.69-2.625-3.756
				l9.238-25.243c0.756-2.066,1.993-2.066,2.75,0L1319.868,101.166z"/>
		</g>
		<polygon fill="#6EBF8C" points="1309.095,95.395 1317.757,95.395 1321.163,104.922 1309.095,104.922 		"/>
		<polygon fill="#6EBF8C" points="1309.329,95.395 1300.755,95.395 1297.261,104.922 1309.329,104.922 		"/>
	</g>
	<g>
		<rect x="1258.011" y="100.877" fill="#6EBF8C" width="3.729" height="14.23"/>
		<g>
			<path fill="#6EBF8C" d="M1270.567,101.783c0.758,2.066-0.425,3.756-2.625,3.756h-15.975c-2.2,0-3.381-1.69-2.625-3.756
				l9.238-25.243c0.756-2.066,1.993-2.066,2.75,0L1270.567,101.783z"/>
		</g>
		<polygon fill="#6EBF8C" points="1259.794,96.011 1268.456,96.011 1271.862,105.539 1259.794,105.539 		"/>
		<polygon fill="#6EBF8C" points="1260.028,96.011 1251.454,96.011 1247.96,105.539 1260.028,105.539 		"/>
	</g>
	<g>
		<polygon fill="#6EBF8C" points="1284.407,97.58 1293.069,97.58 1296.476,107.107 1284.407,107.107 		"/>
		<polygon fill="#6EBF8C" points="1284.64,97.58 1276.069,97.58 1272.571,107.107 1284.64,107.107 		"/>
	</g>
	<g>
		<rect x="1271.956" y="98.577" fill="#6EBF8C" width="3.729" height="14.229"/>
	</g>
	<g>
		<rect x="1294.034" y="94.783" fill="#6EBF8C" width="3.727" height="14.23"/>
		<g>
			<path fill="#6EBF8C" d="M1286.028,101.86c0.756,2.066-0.426,3.756-2.625,3.756h-15.976c-2.2,0-3.382-1.69-2.625-3.756
				l9.236-25.242c0.757-2.066,1.994-2.066,2.75,0L1286.028,101.86z"/>
		</g>
		<g>
			<path fill="#6EBF8C" d="M1295.396,99.518c0.756,2.066-0.425,3.756-2.625,3.756h-15.975c-2.2,0-3.382-1.69-2.625-3.756
				l9.236-25.242c0.757-2.066,1.994-2.066,2.75,0L1295.396,99.518z"/>
		</g>
	</g>
	<g>
		<rect x="1290.636" y="106.609" fill="#71B087" width="3.73" height="14.229"/>
		<g>
			<path fill="#71B087" d="M1303.194,107.514c0.756,2.066-0.426,3.756-2.625,3.756h-15.976c-2.2,0-3.382-1.69-2.625-3.756
				l9.236-25.242c0.757-2.066,1.994-2.066,2.75,0L1303.194,107.514z"/>
		</g>
		<polygon fill="#71B087" points="1292.421,101.742 1301.083,101.742 1304.489,111.271 1292.421,111.271 		"/>
		<polygon fill="#71B087" points="1292.653,101.742 1284.081,101.742 1280.585,111.271 1292.653,111.271 		"/>
	</g>
	<g>
		<rect x="1274.571" y="112.639" fill="#71B087" width="3.729" height="14.23"/>
		<g>
			<path fill="#71B087" d="M1287.13,113.544c0.756,2.066-0.425,3.756-2.625,3.756h-15.975c-2.2,0-3.383-1.69-2.625-3.756
				l9.235-25.243c0.757-2.066,1.994-2.066,2.75,0L1287.13,113.544z"/>
		</g>
		<polygon fill="#71B087" points="1276.356,107.772 1285.019,107.772 1288.425,117.301 1276.356,117.301 		"/>
		<polygon fill="#71B087" points="1276.589,107.772 1268.017,107.772 1264.521,117.301 1276.589,117.301 		"/>
	</g>
</g>
<g>
	<g>

			<line fill="none" stroke="#6EBF8C" stroke-width="4.7886" stroke-linecap="round" stroke-miterlimit="10" x1="1171.969" y1="154.566" x2="1171.969" y2="134.016"/>
		<path fill="none" stroke="#6EBF8C" stroke-width="3.5914" stroke-linecap="round" stroke-miterlimit="10" d="M1170.972,142.246
			c-3.892,0-6.136-0.15-6.136-4.189v-4.488"/>
		<path fill="none" stroke="#6EBF8C" stroke-width="3.5914" stroke-linecap="round" stroke-miterlimit="10" d="M1172.168,145.539
			c0,0,2.244-0.15,4.041-0.15c1.795,0,2.692-0.873,2.692-7.729"/>
	</g>
	<rect x="1165.244" y="154.18" fill="#7AD69C" width="14.146" height="7.717"/>
</g>
<g>
	<path fill="none" stroke="#6EBF8C" stroke-width="2.9089" stroke-linecap="round" stroke-miterlimit="10" d="M1151.08,63.316
		c0,0,5.108-0.3,6.912,2.104c0,0,1.802-3.605,6.909-3.605"/>
	<path fill="none" stroke="#6EBF8C" stroke-width="2.9089" stroke-linecap="round" stroke-miterlimit="10" d="M1134.253,75.035
		c0,0,5.107-0.3,6.911,2.104c0,0,1.803-3.605,6.911-3.605"/>
</g>
<g>
	<g>

			<line fill="none" stroke="#6EBF8C" stroke-width="4.7886" stroke-linecap="round" stroke-miterlimit="10" x1="558.34" y1="261.264" x2="558.34" y2="240.713"/>
		<path fill="none" stroke="#6EBF8C" stroke-width="3.5914" stroke-linecap="round" stroke-miterlimit="10" d="M557.343,248.943
			c-3.892,0-6.136-0.15-6.136-4.189v-4.488"/>
		<path fill="none" stroke="#6EBF8C" stroke-width="3.5914" stroke-linecap="round" stroke-miterlimit="10" d="M558.539,252.236
			c0,0,2.244-0.15,4.041-0.15c1.795,0,2.692-0.873,2.692-7.729"/>
	</g>
	<rect x="551.615" y="260.877" fill="#7AD69C" width="14.146" height="7.717"/>
</g>
<g>
	<g>

			<line fill="none" stroke="#6EBF8C" stroke-width="4.7886" stroke-linecap="round" stroke-miterlimit="10" x1="884.037" y1="137.027" x2="884.037" y2="116.476"/>
		<path fill="none" stroke="#6EBF8C" stroke-width="3.5914" stroke-linecap="round" stroke-miterlimit="10" d="M883.04,124.706
			c-3.893,0-6.136-0.149-6.136-4.189v-4.488"/>
		<path fill="none" stroke="#6EBF8C" stroke-width="3.5914" stroke-linecap="round" stroke-miterlimit="10" d="M884.235,127.999
			c0,0,2.244-0.15,4.041-0.15c1.796,0,2.693-0.872,2.693-7.728"/>
	</g>
	<rect x="877.312" y="136.64" fill="#7AD69C" width="14.147" height="7.717"/>
</g>
<path fill="none" stroke="#6EBF8C" stroke-width="2.9089" stroke-linecap="round" stroke-miterlimit="10" d="M551.573,205.969
	c0,0,5.108-0.3,6.912,2.104c0,0,1.802-3.605,6.909-3.605"/>
<path fill="none" stroke="#6EBF8C" stroke-width="2.9089" stroke-linecap="round" stroke-miterlimit="10" d="M534.746,217.688
	c0,0,5.107-0.299,6.911,2.104c0,0,1.803-3.604,6.91-3.604"/>
<g>
	<g>
		<g>
			<g>
				<path fill="#77BA8E" d="M1404.137,203.064c0-0.08,0.022-0.162,0.064-0.233l1.772-3.071c0.083-0.146,0.238-0.236,0.405-0.236
					h3.547c0.169,0,0.323,0.091,0.407,0.236l1.772,3.071c0.083,0.146,0.083,0.323,0,0.47l-1.772,3.07
					c-0.084,0.146-0.238,0.234-0.407,0.234h-3.547c-0.167,0-0.322-0.09-0.405-0.234l-1.772-3.07
					C1404.159,203.229,1404.137,203.146,1404.137,203.064z"/>
			</g>
		</g>
		<g>
			<g>
				<path fill="#77BA8E" d="M1392.17,203.064c0-0.08,0.021-0.162,0.063-0.233l1.772-3.071c0.084-0.146,0.239-0.236,0.406-0.236
					h3.547c0.168,0,0.321,0.091,0.407,0.236l1.772,3.071c0.083,0.146,0.083,0.323,0,0.47l-1.772,3.07
					c-0.086,0.146-0.239,0.234-0.407,0.234h-3.547c-0.167,0-0.322-0.09-0.406-0.234l-1.772-3.07
					C1392.192,203.229,1392.17,203.146,1392.17,203.064z"/>
			</g>
		</g>
		<g>
			<g>
				<path fill="#77BA8E" d="M1402.171,201.098c-0.081,0-0.163-0.021-0.235-0.062l-3.07-1.771c-0.146-0.086-0.234-0.24-0.234-0.408
					v-3.545c0-0.17,0.089-0.324,0.234-0.408l3.07-1.771c0.146-0.085,0.323-0.085,0.471,0l3.07,1.771
					c0.146,0.084,0.235,0.238,0.235,0.408v3.545c0,0.168-0.091,0.322-0.235,0.408l-3.07,1.771
					C1402.333,201.076,1402.252,201.098,1402.171,201.098z"/>
			</g>
		</g>
		<g>
			<g>
				<path fill="#77BA8E" d="M1402.171,213.064c-0.081,0-0.163-0.021-0.235-0.062l-3.07-1.773c-0.146-0.084-0.234-0.238-0.234-0.406
					v-3.547c0-0.168,0.089-0.322,0.234-0.406l3.07-1.771c0.146-0.086,0.323-0.086,0.471,0l3.07,1.771
					c0.146,0.084,0.235,0.238,0.235,0.406v3.547c0,0.168-0.091,0.322-0.235,0.406l-3.07,1.773
					C1402.333,213.043,1402.252,213.064,1402.171,213.064z"/>
			</g>
		</g>
	</g>
	<circle fill="#7AD69C" cx="1402.171" cy="203.064" r="3.889"/>
</g>
<g>
	<g>
		<g>
			<g>
				<path fill="#77BA8E" d="M642.057,293.889c0-0.08,0.022-0.162,0.064-0.232l1.772-3.071c0.083-0.146,0.238-0.235,0.405-0.235
					h3.547c0.169,0,0.323,0.09,0.407,0.235l1.773,3.071c0.082,0.145,0.082,0.322,0,0.47l-1.773,3.069
					c-0.084,0.146-0.238,0.234-0.407,0.234h-3.547c-0.167,0-0.322-0.089-0.405-0.234l-1.772-3.069
					C642.079,294.053,642.057,293.971,642.057,293.889z"/>
			</g>
		</g>
		<g>
			<g>
				<path fill="#77BA8E" d="M630.09,293.889c0-0.08,0.022-0.162,0.064-0.232l1.771-3.071c0.084-0.146,0.239-0.235,0.406-0.235h3.547
					c0.168,0,0.322,0.09,0.407,0.235l1.772,3.071c0.083,0.145,0.083,0.322,0,0.47l-1.772,3.069
					c-0.085,0.146-0.239,0.234-0.407,0.234h-3.547c-0.167,0-0.322-0.089-0.406-0.234l-1.771-3.069
					C630.112,294.053,630.09,293.971,630.09,293.889z"/>
			</g>
		</g>
		<g>
			<g>
				<path fill="#77BA8E" d="M640.091,291.922c-0.081,0-0.163-0.021-0.235-0.062l-3.07-1.772c-0.146-0.085-0.234-0.239-0.234-0.407
					v-3.546c0-0.169,0.089-0.323,0.234-0.407l3.07-1.771c0.146-0.085,0.323-0.085,0.471,0l3.07,1.771
					c0.146,0.084,0.235,0.238,0.235,0.407v3.546c0,0.168-0.091,0.322-0.235,0.407l-3.07,1.772
					C640.253,291.9,640.172,291.922,640.091,291.922z"/>
			</g>
		</g>
		<g>
			<g>
				<path fill="#77BA8E" d="M640.091,303.889c-0.081,0-0.163-0.021-0.235-0.062l-3.07-1.772c-0.146-0.085-0.234-0.24-0.234-0.408
					V298.1c0-0.168,0.089-0.322,0.234-0.406l3.07-1.772c0.146-0.085,0.323-0.085,0.471,0l3.07,1.772
					c0.146,0.084,0.235,0.238,0.235,0.406v3.547c0,0.168-0.091,0.322-0.235,0.406l-3.07,1.773
					C640.253,303.867,640.172,303.889,640.091,303.889z"/>
			</g>
		</g>
	</g>
	<circle fill="#7AD69C" cx="640.09" cy="293.889" r="3.889"/>
</g>
<path fill="none" stroke="#0FA1D6" stroke-width="3" stroke-miterlimit="10" d="M564.941,311.871
	c25.167-35.5,61.237-86.43,69.234-97.994c17.771-25.703,29.388-28.775,54.721-28.775c13.846,0,17.634,0,17.634,0"/>
<path fill="#0FA1D6" d="M550.254,330h3.679c11.603-16.359,29.207-41.189,45.229-63.831l-2.461-1.717
	C580.107,287.9,561.813,313.703,550.254,330z"/>
<polygon fill="#0FA1D6" points="1465.254,330 1394.498,230.133 1392.051,231.867 1461.578,330 "/>
<g>
	<g>
		<path fill="#6EBF8C" d="M713.802,197.43l-14.979-14.272c-2.85-1.779-3.669-2.531-8.194-2.531c-4.526,0-5.771,1.199-8.196,2.531
			l-14.854,14.551C663.479,200.949,719.562,203.875,713.802,197.43z"/>
	</g>
	<g>
		<path fill="#6EBF8C" d="M750.782,190.938l-18.841-17.953c-3.581-2.237-4.614-3.183-10.306-3.183c-5.693,0-7.259,1.509-10.31,3.183
			l-18.682,18.303C687.49,195.363,758.026,199.043,750.782,190.938z"/>
	</g>
	<g>
		<path fill="#71B087" d="M757.578,211.057l-22.335-21.283c-4.248-2.653-5.474-3.772-12.22-3.772c-6.749,0-8.604,1.787-12.221,3.772
			l-22.146,21.697C682.544,216.305,766.165,220.666,757.578,211.057z"/>
	</g>
</g>
<g>
	<g>
		<path fill="#6EBF8C" d="M1310.116,257.081l-14.979-14.274c-2.849-1.779-3.669-2.529-8.194-2.529s-5.771,1.199-8.195,2.529
			l-14.854,14.553C1259.793,260.602,1315.876,263.525,1310.116,257.081z"/>
	</g>
	<g>
		<path fill="#6EBF8C" d="M1347.097,250.588l-18.84-17.952c-3.582-2.237-4.615-3.183-10.306-3.183c-5.693,0-7.26,1.508-10.311,3.183
			l-18.681,18.302C1283.805,255.016,1354.341,258.695,1347.097,250.588z"/>
	</g>
	<g>
		<path fill="#71B087" d="M1353.893,270.707l-22.335-21.283c-4.248-2.652-5.473-3.773-12.219-3.773
			c-6.749,0-8.604,1.789-12.221,3.773l-22.147,21.697C1278.858,275.956,1362.479,280.316,1353.893,270.707z"/>
	</g>
</g>
</svg>
