<?xml version="1.0" encoding="utf-8"?>
<!-- Generator: Adobe Illustrator 16.0.0, SVG Export Plug-In . SVG Version: 6.00 Build 0)  -->
<!DOCTYPE svg PUBLIC "-//W3C//DTD SVG 1.1//EN" "http://www.w3.org/Graphics/SVG/1.1/DTD/svg11.dtd">
<svg version="1.1" id="Layer_2" xmlns="http://www.w3.org/2000/svg" xmlns:xlink="http://www.w3.org/1999/xlink" x="0px" y="0px"
	 width="640px" height="710px" viewBox="0 0 640 710" enable-background="new 0 0 640 710" xml:space="preserve">
<rect fill="#7AD69C" width="640" height="710"/>
<rect x="452.551" y="258.475" fill="#0FA1D6" width="187.449" height="5.681"/>
<g>
	<g>
		<g>
			<g>
				<path fill="#77BA8E" d="M180.55,126.818c0-0.142,0.04-0.285,0.113-0.411l3.118-5.399c0.146-0.257,0.42-0.415,0.713-0.415h6.235
					c0.297,0,0.568,0.157,0.717,0.415l3.118,5.399c0.146,0.253,0.146,0.569,0,0.826l-3.118,5.399
					c-0.149,0.255-0.42,0.412-0.717,0.412h-6.235c-0.293,0-0.567-0.157-0.713-0.412l-3.118-5.399
					C180.59,127.105,180.55,126.961,180.55,126.818z"/>
			</g>
		</g>
		<g>
			<g>
				<path fill="#77BA8E" d="M159.512,126.818c0-0.142,0.04-0.285,0.113-0.411l3.117-5.399c0.146-0.257,0.421-0.415,0.714-0.415
					h6.236c0.296,0,0.567,0.157,0.716,0.415l3.117,5.399c0.146,0.253,0.146,0.569,0,0.826l-3.117,5.399
					c-0.149,0.255-0.42,0.412-0.716,0.412h-6.236c-0.293,0-0.567-0.157-0.714-0.412l-3.117-5.399
					C159.552,127.105,159.512,126.961,159.512,126.818z"/>
			</g>
		</g>
		<g>
			<g>
				<path fill="#77BA8E" d="M177.094,123.36c-0.144,0-0.287-0.037-0.415-0.111l-5.399-3.116c-0.255-0.15-0.413-0.421-0.413-0.716
					v-6.234c0-0.297,0.157-0.569,0.413-0.716l5.399-3.116c0.254-0.15,0.57-0.15,0.827,0l5.4,3.116
					c0.253,0.147,0.413,0.419,0.413,0.716v6.234c0,0.295-0.16,0.566-0.413,0.716l-5.4,3.116
					C177.38,123.323,177.236,123.36,177.094,123.36z"/>
			</g>
		</g>
		<g>
			<g>
				<path fill="#77BA8E" d="M177.094,144.398c-0.144,0-0.287-0.038-0.415-0.111l-5.399-3.116c-0.255-0.149-0.413-0.421-0.413-0.717
					v-6.233c0-0.297,0.157-0.569,0.413-0.717l5.399-3.116c0.254-0.149,0.57-0.149,0.827,0l5.4,3.116
					c0.253,0.148,0.413,0.42,0.413,0.717v6.233c0,0.295-0.16,0.568-0.413,0.717l-5.4,3.116
					C177.38,144.36,177.236,144.398,177.094,144.398z"/>
			</g>
		</g>
	</g>
	<circle fill="#7AD69C" cx="177.094" cy="126.818" r="6.837"/>
</g>
<g>
	<g>

			<line fill="none" stroke="#6EBF8C" stroke-width="9.0676" stroke-linecap="round" stroke-miterlimit="10" x1="489.75" y1="165.272" x2="489.75" y2="126.355"/>
		<path fill="none" stroke="#6EBF8C" stroke-width="6.8006" stroke-linecap="round" stroke-miterlimit="10" d="M487.863,141.94
			c-7.37,0-11.62-0.283-11.62-7.933v-8.499"/>
		<path fill="none" stroke="#6EBF8C" stroke-width="6.8006" stroke-linecap="round" stroke-miterlimit="10" d="M490.127,148.176
			c0,0,4.25-0.285,7.652-0.285c3.398,0,5.1-1.651,5.1-14.633"/>
	</g>
	<rect x="477.017" y="164.538" fill="#7AD69C" width="26.791" height="14.612"/>
</g>
<path fill="none" stroke="#6EBF8C" stroke-width="5.5082" stroke-linecap="round" stroke-miterlimit="10" d="M540.606,79.174
	c0,0,9.676-0.568,13.089,3.982c0,0,3.414-6.827,13.085-6.827"/>
<path fill="none" stroke="#6EBF8C" stroke-width="5.5082" stroke-linecap="round" stroke-miterlimit="10" d="M508.745,101.364
	c0,0,9.671-0.568,13.085,3.982c0,0,3.414-6.827,13.089-6.827"/>
<g>
	<g>
		<rect x="155.34" y="355.861" fill="#6EBF8C" width="6.106" height="23.306"/>
		<g>
			<path fill="#6EBF8C" d="M175.555,356.383c1.432,3.912-0.806,7.113-4.971,7.113h-24.118c-4.166,0-6.403-3.201-4.971-7.113
				l14.427-39.419c1.432-3.912,3.775-3.912,5.207,0L175.555,356.383z"/>
		</g>
		<polygon fill="#6EBF8C" points="158.262,347.892 172.447,347.892 178.025,363.496 158.262,363.496 		"/>
		<polygon fill="#6EBF8C" points="158.646,347.892 144.604,347.892 138.881,363.496 158.646,363.496 		"/>
	</g>
	<g>
		<rect x="74.598" y="356.871" fill="#6EBF8C" width="6.107" height="23.306"/>
		<g>
			<path fill="#6EBF8C" d="M94.812,357.394c1.432,3.912-0.806,7.113-4.971,7.113H65.725c-4.166,0-6.403-3.201-4.971-7.113
				l14.427-39.419c1.432-3.912,3.774-3.912,5.206,0L94.812,357.394z"/>
		</g>
		<polygon fill="#6EBF8C" points="77.519,348.902 91.705,348.902 97.284,364.507 77.519,364.507 		"/>
		<polygon fill="#6EBF8C" points="77.902,348.902 63.86,348.902 58.137,364.507 77.902,364.507 		"/>
	</g>
	<g>
		<polygon fill="#6EBF8C" points="117.828,351.473 132.015,351.473 137.593,367.076 117.828,367.076 		"/>
		<polygon fill="#6EBF8C" points="118.21,351.473 104.172,351.473 98.445,367.076 118.21,367.076 		"/>
	</g>
	<g>
		<rect x="97.438" y="353.105" fill="#6EBF8C" width="6.108" height="23.305"/>
	</g>
	<g>
		<rect x="133.595" y="346.892" fill="#6EBF8C" width="6.104" height="23.306"/>
		<g>
			<path fill="#6EBF8C" d="M120.131,357.521c1.432,3.912-0.805,7.113-4.971,7.113H91.045c-4.166,0-6.403-3.201-4.971-7.113
				l14.424-39.419c1.432-3.912,3.774-3.912,5.207,0L120.131,357.521z"/>
		</g>
		<g>
			<path fill="#6EBF8C" d="M135.475,353.685c1.432,3.912-0.806,7.113-4.971,7.113h-24.116c-4.166,0-6.403-3.201-4.971-7.113
				l14.424-39.419c1.432-3.912,3.774-3.912,5.206,0L135.475,353.685z"/>
		</g>
	</g>
	<g>
		<rect x="128.031" y="366.259" fill="#71B087" width="6.108" height="23.306"/>
		<g>
			<path fill="#71B087" d="M148.246,366.781c1.432,3.912-0.806,7.113-4.971,7.113h-24.117c-4.166,0-6.403-3.201-4.971-7.113
				l14.426-39.419c1.432-3.912,3.774-3.912,5.206,0L148.246,366.781z"/>
		</g>
		<polygon fill="#71B087" points="130.953,358.29 145.139,358.29 150.718,373.895 130.953,373.895 		"/>
		<polygon fill="#71B087" points="131.333,358.29 117.293,358.29 111.568,373.895 131.333,373.895 		"/>
	</g>
	<g>
		<rect x="101.72" y="376.135" fill="#71B087" width="6.107" height="23.306"/>
		<g>
			<path fill="#71B087" d="M121.936,376.656c1.432,3.912-0.806,7.113-4.971,7.113H92.849c-4.166,0-6.403-3.201-4.971-7.113
				l14.426-39.42c1.432-3.912,3.774-3.912,5.206,0L121.936,376.656z"/>
		</g>
		<polygon fill="#71B087" points="104.643,368.165 118.829,368.165 124.408,383.77 104.643,383.77 		"/>
		<polygon fill="#71B087" points="105.023,368.165 90.984,368.165 85.26,383.77 105.023,383.77 		"/>
	</g>
</g>
<g>
	<g>
		<path fill="#6EBF8C" d="M524.127,330.352L503.83,311.01c-3.861-2.411-4.975-3.428-11.106-3.428s-7.818,1.624-11.104,3.428
			l-20.127,19.719C455.936,335.121,531.931,339.086,524.127,330.352z"/>
	</g>
	<g>
		<path fill="#6EBF8C" d="M574.236,321.554l-25.528-24.327c-4.854-3.032-6.254-4.312-13.965-4.312
			c-7.715,0-9.836,2.043-13.971,4.312l-25.312,24.799C488.472,327.552,584.052,332.539,574.236,321.554z"/>
	</g>
	<g>
		<path fill="#71B087" d="M583.445,348.815l-30.266-28.84c-5.755-3.595-7.415-5.112-16.556-5.112
			c-9.146,0-11.659,2.422-16.562,5.112l-30.01,29.401C481.771,355.928,595.081,361.838,583.445,348.815z"/>
	</g>
</g>
<g>
	<circle fill="#7AD69C" cx="320" cy="261.314" r="132.551"/>
	<path fill="#0FA1D6" d="M320,396.708c-74.655,0-135.392-60.737-135.392-135.394c0-74.655,60.736-135.392,135.392-135.392
		c74.656,0,135.392,60.736,135.392,135.392C455.392,335.971,394.656,396.708,320,396.708z M320,131.604
		c-71.523,0-129.711,58.188-129.711,129.711c0,71.523,58.188,129.713,129.711,129.713c71.523,0,129.711-58.189,129.711-129.713
		C449.711,189.792,391.523,131.604,320,131.604z"/>
</g>
<path fill="#0FA1D6" d="M123.481,258.475c-21.769,0-32.224,3.893-53.274,19.833c-3.167,2.398-12.814,10.135-26.167,20.843
	c-12.364,9.914-27.872,22.349-44.04,35.2v7.254c17.451-13.853,34.325-27.382,47.593-38.022
	c13.318-10.679,22.939-18.395,26.044-20.746c20.057-15.189,29.373-18.681,49.844-18.681h64.24v-5.681H123.481z"/>
</svg>
