<?xml version="1.0" encoding="utf-8"?>
<!-- Generator: Adobe Illustrator 16.0.0, SVG Export Plug-In . SVG Version: 6.00 Build 0)  -->
<!DOCTYPE svg PUBLIC "-//W3C//DTD SVG 1.1//EN" "http://www.w3.org/Graphics/SVG/1.1/DTD/svg11.dtd">
<svg version="1.1" id="Layer_1" xmlns="http://www.w3.org/2000/svg" xmlns:xlink="http://www.w3.org/1999/xlink" x="0px" y="0px"
	 width="46px" height="46px" viewBox="0 0 46 46" enable-background="new 0 0 46 46" xml:space="preserve">
<g>
	<circle fill="#FFFFFF" cx="23" cy="23" r="23"/>
	<g>
		<path fill="#7AD69C" d="M22.822,35.008c-0.223,0-0.411-0.076-0.565-0.23l-8.009-7.727c-0.085-0.068-0.203-0.18-0.353-0.334
			s-0.387-0.434-0.712-0.84s-0.616-0.824-0.873-1.252s-0.486-0.945-0.687-1.553c-0.201-0.607-0.302-1.198-0.302-1.771
			c0-1.882,0.543-3.354,1.63-4.415c1.087-1.061,2.588-1.591,4.505-1.591c0.53,0,1.071,0.092,1.624,0.276
			c0.552,0.184,1.065,0.432,1.54,0.744c0.475,0.312,0.883,0.605,1.226,0.879s0.667,0.565,0.976,0.873
			c0.308-0.308,0.633-0.599,0.975-0.873s0.751-0.567,1.227-0.879c0.475-0.312,0.988-0.56,1.539-0.744
			c0.553-0.184,1.094-0.276,1.624-0.276c1.917,0,3.419,0.53,4.505,1.591c1.087,1.061,1.631,2.533,1.631,4.415
			c0,1.891-0.98,3.816-2.939,5.775l-7.996,7.701C23.232,34.932,23.044,35.008,22.822,35.008z"/>
	</g>
</g>
</svg>
