<?xml version="1.0" encoding="utf-8"?>
<!-- Generator: Adobe Illustrator 16.0.0, SVG Export Plug-In . SVG Version: 6.00 Build 0)  -->
<!DOCTYPE svg PUBLIC "-//W3C//DTD SVG 1.1//EN" "http://www.w3.org/Graphics/SVG/1.1/DTD/svg11.dtd">
<svg version="1.1" id="Layer_1" xmlns="http://www.w3.org/2000/svg" xmlns:xlink="http://www.w3.org/1999/xlink" x="0px" y="0px"
	 width="46px" height="46px" viewBox="0 0 46 46" enable-background="new 0 0 46 46" xml:space="preserve">
<g>
	<circle fill="#FFFFFF" cx="23" cy="23" r="23"/>
	<g>
		<g>
			<g>
				<g>
					<path fill="none" stroke="#7AD69C" stroke-width="1.5" stroke-miterlimit="10" d="M13.878,33.674
						c-0.123,0-0.246-0.031-0.357-0.096l-4.66-2.689c-0.219-0.129-0.355-0.363-0.355-0.619v-5.379c0-0.256,0.137-0.49,0.355-0.617
						l4.66-2.689c0.221-0.127,0.492-0.127,0.713,0l4.66,2.689c0.221,0.127,0.355,0.361,0.355,0.617v5.379
						c0,0.256-0.135,0.49-0.355,0.619l-4.66,2.689C14.124,33.643,14.001,33.674,13.878,33.674z"/>
				</g>
				<g>
					<path fill="none" stroke="#7AD69C" stroke-width="1.5" stroke-miterlimit="10" d="M32.028,33.674
						c-0.123,0-0.246-0.031-0.355-0.096l-4.66-2.689c-0.219-0.129-0.355-0.363-0.355-0.619v-5.379c0-0.256,0.137-0.49,0.355-0.617
						l4.66-2.689c0.221-0.127,0.492-0.127,0.713,0l4.66,2.689c0.219,0.127,0.355,0.361,0.355,0.617v5.379
						c0,0.256-0.137,0.49-0.355,0.619l-4.66,2.689C32.274,33.643,32.151,33.674,32.028,33.674z"/>
				</g>
				<g>
					<path fill="none" stroke="#7AD69C" stroke-width="1.5" stroke-miterlimit="10" d="M23.001,19.234
						c-0.123,0-0.246-0.03-0.357-0.094l-4.66-2.689c-0.219-0.13-0.355-0.365-0.355-0.619v-5.38c0-0.255,0.137-0.489,0.355-0.617
						l4.66-2.689c0.221-0.128,0.492-0.128,0.713,0l4.66,2.689c0.221,0.128,0.355,0.362,0.355,0.617v5.38
						c0,0.254-0.135,0.489-0.355,0.619l-4.66,2.689C23.247,19.204,23.124,19.234,23.001,19.234z"/>
				</g>
			</g>

				<line fill="none" stroke="#7AD69C" stroke-width="1.5" stroke-miterlimit="10" x1="16.409" y1="22.799" x2="20.241" y2="17.771"/>

				<line fill="none" stroke="#7AD69C" stroke-width="1.5" stroke-miterlimit="10" x1="25.745" y1="17.771" x2="29.577" y2="22.799"/>
		</g>
	</g>
</g>
</svg>
