<?xml version="1.0" encoding="utf-8"?>
<!-- Generator: Adobe Illustrator 16.0.0, SVG Export Plug-In . SVG Version: 6.00 Build 0)  -->
<!DOCTYPE svg PUBLIC "-//W3C//DTD SVG 1.1//EN" "http://www.w3.org/Graphics/SVG/1.1/DTD/svg11.dtd">
<svg version="1.1" id="Layer_2" xmlns="http://www.w3.org/2000/svg" xmlns:xlink="http://www.w3.org/1999/xlink" x="0px" y="0px"
	 width="25px" height="25px" viewBox="-1.5 -1.5 25 25" enable-background="new -1.5 -1.5 25 25" xml:space="preserve">
<g>
	<g>
		<path fill="#FFFFFF" d="M19,5.374v0.751c0,0.11-0.034,0.197-0.102,0.268c-0.068,0.072-0.156,0.106-0.263,0.106h-1.092v11.11
			c0,0.649-0.178,1.211-0.533,1.683C16.654,19.764,16.227,20,15.727,20H6.272c-0.5,0-0.928-0.229-1.284-0.688
			c-0.356-0.457-0.534-1.008-0.534-1.658V6.499H3.363c-0.106,0-0.193-0.034-0.261-0.106C3.034,6.322,3,6.235,3,6.125V5.374
			c0-0.11,0.034-0.201,0.102-0.271C3.17,5.035,3.257,4.999,3.363,4.999h3.512L7.67,3.041c0.114-0.288,0.318-0.535,0.614-0.738
			C8.58,2.101,8.879,2,9.182,2h3.636c0.303,0,0.602,0.101,0.896,0.303c0.295,0.203,0.5,0.45,0.614,0.738l0.795,1.958h3.512
			c0.105,0,0.193,0.036,0.263,0.104C18.966,5.173,19,5.264,19,5.374z M8.455,4.999h5.09L13,3.626
			c-0.055-0.068-0.117-0.112-0.193-0.127H9.205c-0.076,0.015-0.14,0.059-0.193,0.127L8.455,4.999z"/>
	</g>
	<path fill="#0FA1D6" d="M8.818,9.124v6.751c0,0.107-0.034,0.199-0.102,0.27c-0.068,0.069-0.155,0.104-0.261,0.104H7.728
		c-0.106,0-0.193-0.034-0.262-0.104c-0.068-0.069-0.102-0.16-0.102-0.27V9.124c0-0.11,0.034-0.199,0.102-0.269
		c0.069-0.072,0.156-0.106,0.262-0.106h0.727c0.106,0,0.193,0.034,0.261,0.106C8.784,8.925,8.818,9.014,8.818,9.124z"/>
	<path fill="#0FA1D6" d="M11.727,9.124v6.751c0,0.107-0.031,0.199-0.102,0.27c-0.068,0.069-0.155,0.104-0.262,0.104h-0.727
		c-0.106,0-0.194-0.034-0.262-0.104c-0.068-0.069-0.102-0.16-0.102-0.27V9.124c0-0.11,0.034-0.199,0.102-0.269
		c0.068-0.072,0.155-0.106,0.262-0.106h0.727c0.106,0,0.194,0.034,0.262,0.106C11.693,8.925,11.727,9.014,11.727,9.124z"/>
	<path fill="#0FA1D6" d="M14.637,9.124v6.751c0,0.107-0.035,0.199-0.103,0.27c-0.068,0.069-0.155,0.104-0.261,0.104h-0.729
		c-0.104,0-0.192-0.034-0.261-0.104c-0.068-0.069-0.104-0.16-0.104-0.27V9.124c0-0.11,0.034-0.199,0.104-0.269
		c0.066-0.072,0.154-0.106,0.261-0.106h0.729c0.104,0,0.191,0.034,0.261,0.106C14.602,8.925,14.637,9.014,14.637,9.124z"/>
</g>
</svg>
