<?xml version="1.0" encoding="utf-8"?>
<!-- Generator: Adobe Illustrator 16.0.0, SVG Export Plug-In . SVG Version: 6.00 Build 0)  -->
<!DOCTYPE svg PUBLIC "-//W3C//DTD SVG 1.1//EN" "http://www.w3.org/Graphics/SVG/1.1/DTD/svg11.dtd">
<svg version="1.1" id="Layer_1" xmlns="http://www.w3.org/2000/svg" xmlns:xlink="http://www.w3.org/1999/xlink" x="0px" y="0px"
	 width="25px" height="25px" viewBox="0 0 25 25" enable-background="new 0 0 25 25" xml:space="preserve">
<g>
	<g>
		<g>
			<path fill="#0FA1D6" stroke="#FFFFFF" stroke-width="1.4348" stroke-miterlimit="10" d="M11.045,23.876
				c-0.118,0-0.236-0.031-0.343-0.092l-4.469-2.58c-0.212-0.123-0.342-0.35-0.342-0.594v-5.162c0-0.244,0.13-0.469,0.342-0.592
				l4.469-2.581c0.213-0.123,0.474-0.123,0.685,0l4.471,2.581c0.211,0.123,0.342,0.348,0.342,0.592v5.162
				c0,0.244-0.131,0.471-0.342,0.594l-4.471,2.58C11.28,23.845,11.163,23.876,11.045,23.876z"/>
		</g>
	</g>
	<g>
		<g>
			<path fill="#0FA1D6" stroke="#FFFFFF" stroke-width="1.4348" stroke-miterlimit="10" d="M18.404,12.651
				c-0.117,0-0.236-0.033-0.342-0.092l-4.469-2.582c-0.212-0.121-0.343-0.348-0.343-0.592V4.223c0-0.244,0.131-0.469,0.343-0.592
				l4.469-2.582c0.213-0.121,0.473-0.121,0.684,0l4.471,2.582c0.213,0.123,0.342,0.348,0.342,0.592v5.162
				c0,0.244-0.129,0.471-0.342,0.592l-4.471,2.582C18.641,12.618,18.523,12.651,18.404,12.651z"/>
		</g>
	</g>
	<path fill="#FFFFFF" d="M4.516,7.42H0.441V5.629h4.074V1.516h1.841v4.113h4.085V7.42H6.356v4.096H4.516V7.42z"/>
	<polygon fill="#FFFFFF" points="13.876,9.286 23.047,4.211 23.535,6.292 23.23,9.409 18.461,12.405 14.242,10.264 	"/>
	<polygon fill="#FFFFFF" points="6.479,20.536 15.648,15.462 16.139,17.54 15.832,20.659 11.063,23.653 6.846,21.515 	"/>
</g>
</svg>
