<?xml version="1.0" encoding="utf-8"?>
<!-- Generator: Adobe Illustrator 16.0.0, SVG Export Plug-In . SVG Version: 6.00 Build 0)  -->
<!DOCTYPE svg PUBLIC "-//W3C//DTD SVG 1.1//EN" "http://www.w3.org/Graphics/SVG/1.1/DTD/svg11.dtd">
<svg version="1.1" id="Layer_1" xmlns="http://www.w3.org/2000/svg" xmlns:xlink="http://www.w3.org/1999/xlink" x="0px" y="0px"
	 width="25px" height="25px" viewBox="-1.5 -1.5 25 25" enable-background="new -1.5 -1.5 25 25" xml:space="preserve">
<g enable-background="new    ">
	<path fill="#FFFFFF" d="M11.75,5.615l4.875,4.875l-9.75,9.75H2v-4.875L11.75,5.615z M6.254,18.74l1.066-1.066L4.566,14.92
		L3.5,15.986v1.254H5v1.5H6.254z M12.383,7.865c0-0.172-0.086-0.258-0.258-0.258c-0.078,0-0.145,0.027-0.199,0.082l-6.352,6.352
		c-0.055,0.055-0.082,0.121-0.082,0.199c0,0.172,0.086,0.258,0.258,0.258c0.078,0,0.145-0.027,0.199-0.082l6.352-6.352
		C12.355,8.01,12.383,7.943,12.383,7.865z M19.754,6.74c0,0.414-0.145,0.766-0.434,1.055L17.375,9.74L12.5,4.865l1.945-1.934
		c0.281-0.297,0.633-0.445,1.055-0.445c0.414,0,0.77,0.148,1.066,0.445l2.754,2.742C19.609,5.979,19.754,6.334,19.754,6.74z"/>
</g>
</svg>
