<?xml version="1.0" encoding="utf-8"?>
<!-- Generator: Adobe Illustrator 16.0.0, SVG Export Plug-In . SVG Version: 6.00 Build 0)  -->
<!DOCTYPE svg PUBLIC "-//W3C//DTD SVG 1.1//EN" "http://www.w3.org/Graphics/SVG/1.1/DTD/svg11.dtd">
<svg version="1.1" id="Layer_3" xmlns="http://www.w3.org/2000/svg" xmlns:xlink="http://www.w3.org/1999/xlink" x="0px" y="0px"
	 width="25px" height="25px" viewBox="0 0 25 25" enable-background="new 0 0 25 25" xml:space="preserve">
<g>
	<path fill="#0FA1D6" d="M20.035,9.209c0.477,1.109,0.715,2.273,0.715,3.492s-0.238,2.383-0.715,3.492s-1.117,2.066-1.922,2.871
		s-1.762,1.445-2.871,1.922s-2.273,0.715-3.492,0.715c-1.343,0-2.621-0.283-3.832-0.85s-2.242-1.365-3.094-2.396
		c-0.055-0.078-0.08-0.166-0.076-0.264s0.037-0.178,0.1-0.24l1.605-1.617c0.078-0.07,0.176-0.105,0.293-0.105
		c0.125,0.016,0.215,0.062,0.27,0.141c0.57,0.742,1.27,1.316,2.098,1.723s1.707,0.609,2.636,0.609c0.812,0,1.587-0.158,2.326-0.475
		s1.377-0.744,1.916-1.283s0.967-1.178,1.283-1.916s0.475-1.514,0.475-2.326s-0.158-1.588-0.475-2.326s-0.744-1.377-1.283-1.916
		s-1.178-0.967-1.916-1.283s-1.513-0.475-2.326-0.475c-0.765,0-1.5,0.139-2.203,0.416S8.22,7.791,7.673,8.307l1.605,1.617
		c0.242,0.234,0.297,0.504,0.164,0.809c-0.133,0.312-0.363,0.469-0.691,0.469h-5.25c-0.203,0-0.379-0.074-0.527-0.223
		s-0.223-0.324-0.223-0.527v-5.25c0-0.328,0.156-0.559,0.469-0.691c0.305-0.133,0.574-0.078,0.809,0.164l1.523,1.512
		c0.836-0.789,1.791-1.4,2.865-1.834s2.186-0.65,3.333-0.65c1.219,0,2.382,0.238,3.492,0.715s2.066,1.117,2.871,1.922
		S19.559,8.1,20.035,9.209z"/>
</g>
</svg>
