<?xml version="1.0" encoding="utf-8"?>
<!-- Generator: Adobe Illustrator 16.0.0, SVG Export Plug-In . SVG Version: 6.00 Build 0)  -->
<!DOCTYPE svg PUBLIC "-//W3C//DTD SVG 1.1//EN" "http://www.w3.org/Graphics/SVG/1.1/DTD/svg11.dtd">
<svg version="1.1" id="Layer_1" xmlns="http://www.w3.org/2000/svg" xmlns:xlink="http://www.w3.org/1999/xlink" x="0px" y="0px"
	 width="130px" height="130px" viewBox="-35 0 130 130" enable-background="new -35 0 130 130" xml:space="preserve">
<g id="Layer_2">
	<path fill="#7AD69C" d="M60.971,45.029c-3.547-4.033-5.584-8.184-5.584-8.184l-33.178-0.467L5.545,75.006
		c0,0-0.625,6.852,2.335,9.344c2.959,2.492,36.446,2.18,39.251,1.402c2.802-0.781,3.736-1.248,6.853-11.525
		C57.099,63.947,64.398,48.924,60.971,45.029z"/>
</g>
<g id="Layer_3">
	<path fill="#FFFFFF" d="M63.11,46.588c-0.508-0.676-1.221-1.197-2.14-1.559c0.049,0.846-0.012,1.535-0.183,2.067l-10.88,35.8
		c-0.194,0.629-0.617,1.131-1.271,1.506s-1.33,0.562-2.031,0.562H13.125c-2.901,0-4.642-0.846-5.223-2.539
		c-0.24-0.654-0.229-1.174,0.037-1.561c0.265-0.363,0.725-0.543,1.378-0.543H40.84c2.249,0,3.803-0.418,4.661-1.252
		c0.859-0.836,1.723-2.689,2.592-5.568l9.94-32.862c0.531-1.79,0.314-3.36-0.653-4.716c-0.967-1.354-2.347-2.031-4.135-2.031H25.639
		c-0.314,0-0.931,0.109-1.85,0.326c-0.866,0.037-1.272-0.558-2.783-0.094c-1.51,0.465-2.706,4.18-4.217,6.66
		s-0.753,1.35-0.798,3.373c-0.045,2.023-1.465,5.172-2.787,6.739c-1.322,1.566-1.384,1.683-1.258,3.656
		c0.126,1.975-1.762,6.21-3.063,7.704s-0.398,4.367-2.726,8.43s-2.014,3.482-1.824,4.818c0.189,1.334-0.312,2.785-0.312,2.785
		c-0.531,1.449-0.507,2.986,0.073,4.605c0.677,1.887,1.879,3.477,3.608,4.771c1.729,1.295,3.525,1.939,5.387,1.939h33.48
		c1.573,0,3.053-0.525,4.443-1.578s2.316-2.352,2.777-3.898l9.973-32.863C64.295,49.525,64.078,47.967,63.11,46.588z M24.514,46.661
		l0.764-2.321c0.096-0.314,0.295-0.586,0.598-0.816c0.303-0.229,0.61-0.344,0.925-0.344h22.055c0.338,0,0.581,0.115,0.727,0.344
		c0.146,0.23,0.168,0.502,0.071,0.816l-0.762,2.321c-0.099,0.315-0.297,0.587-0.598,0.815c-0.303,0.23-0.612,0.346-0.925,0.346
		H25.313c-0.339,0-0.581-0.115-0.727-0.346C24.442,47.248,24.418,46.975,24.514,46.661z M21.505,55.947l0.762-2.322
		c0.097-0.314,0.295-0.586,0.599-0.816c0.303-0.229,0.61-0.344,0.925-0.344h22.055c0.338,0,0.58,0.115,0.725,0.344
		c0.146,0.23,0.171,0.504,0.073,0.816l-0.762,2.322c-0.097,0.314-0.296,0.586-0.6,0.814c-0.301,0.23-0.61,0.346-0.924,0.346H22.302
		c-0.338,0-0.58-0.113-0.726-0.345C21.432,56.533,21.407,56.262,21.505,55.947z"/>
</g>
</svg>
