<?xml version="1.0" encoding="utf-8"?>
<!-- Generator: Adobe Illustrator 16.0.0, SVG Export Plug-In . SVG Version: 6.00 Build 0)  -->
<!DOCTYPE svg PUBLIC "-//W3C//DTD SVG 1.1//EN" "http://www.w3.org/Graphics/SVG/1.1/DTD/svg11.dtd">
<svg version="1.1" id="Layer_2" xmlns="http://www.w3.org/2000/svg" xmlns:xlink="http://www.w3.org/1999/xlink" x="0px" y="0px"
	 width="2000px" height="300px" viewBox="0 0 2000 300" enable-background="new 0 0 2000 300" xml:space="preserve">
<g id="header__x2B__bg">
	<rect fill="#7AD69C" width="2000" height="300"/>
</g>
<path fill="none" stroke="#0FA1D6" stroke-width="4" stroke-miterlimit="10" d="M633.191,281.016
	c2.497-1.895,5.591-4.111,8.143-6.049c27.168-20.617,56.109-42.596,57.834-43.847c20.367-14.763,25.894-17.097,51.832-17.397
	c2.71-0.031,21.304,0,24.5,0c32.314,0,34.587-3.679,43.812-19.916c11.187-19.688,11.024-19.77,15.396-28.354
	c11.917-23.402,21.815-31.73,68.291-31.73c0,0,232.347-0.001,247.001-0.001c22.361,0,24.653,3.497,32.021,16.351
	c5.22,9.104,21.225,36.63,31.312,54.106c9.528,16.503,15.367,14.214,45.192,14.214c19.167,0,33.229,0,42.472,0
	c33.835,0,38.78,2.814,68.51,19.767c7.88,4.491,48.934,35.834,58.165,43.229"/>
<path fill="#0FA1D6" d="M610.465,300c3.926-2.861,8.057-5.875,11.99-8.745c6.359-4.641,12.182-8.89,15.707-11.444l-1.115-4.049
	c-3.527,2.557-9.355,6.812-15.719,11.454c-5.534,4.038-11.977,8.739-17.538,12.784H610.465z"/>
<path fill="#0FA1D6" d="M1423.424,275.762c3.927,2.861,8.06,5.875,11.99,8.745c6.359,4.642,17.839,12.938,21.364,15.493h-6.772
	c-3.524-2.557-9.354-6.811-15.719-11.454c-5.534-4.038-11.977-8.739-17.539-12.784H1423.424z"/>
<g>
	<g>
		<g>
			<g>
				<path fill="#77BA8E" d="M576.675,92.121c0-0.08,0.022-0.161,0.064-0.232l1.773-3.072c0.083-0.146,0.239-0.235,0.406-0.235h3.546
					c0.169,0,0.323,0.089,0.408,0.235l1.773,3.072c0.083,0.145,0.083,0.322,0,0.469l-1.773,3.07
					c-0.085,0.146-0.239,0.235-0.408,0.235h-3.546c-0.167,0-0.323-0.089-0.406-0.235l-1.773-3.07
					C576.698,92.285,576.675,92.203,576.675,92.121z"/>
			</g>
		</g>
		<g>
			<g>
				<path fill="#77BA8E" d="M564.708,92.121c0-0.08,0.022-0.161,0.064-0.232l1.773-3.072c0.083-0.146,0.239-0.235,0.406-0.235h3.546
					c0.169,0,0.323,0.089,0.408,0.235l1.773,3.072c0.083,0.145,0.083,0.322,0,0.469l-1.773,3.07
					c-0.085,0.146-0.239,0.235-0.408,0.235h-3.546c-0.167,0-0.323-0.089-0.406-0.235l-1.773-3.07
					C564.73,92.285,564.708,92.203,564.708,92.121z"/>
			</g>
		</g>
		<g>
			<g>
				<path fill="#77BA8E" d="M574.709,90.154c-0.082,0-0.163-0.021-0.235-0.062l-3.072-1.773c-0.145-0.084-0.234-0.239-0.234-0.407
					v-3.546c0-0.168,0.089-0.323,0.234-0.407l3.072-1.772c0.145-0.084,0.324-0.084,0.47,0l3.071,1.772
					c0.145,0.084,0.235,0.239,0.235,0.407v3.546c0,0.168-0.091,0.323-0.235,0.407l-3.071,1.773
					C574.872,90.134,574.79,90.154,574.709,90.154z"/>
			</g>
		</g>
		<g>
			<g>
				<path fill="#77BA8E" d="M574.709,102.121c-0.082,0-0.163-0.021-0.235-0.062l-3.072-1.772c-0.145-0.085-0.234-0.239-0.234-0.407
					v-3.546c0-0.169,0.089-0.323,0.234-0.407l3.072-1.773c0.145-0.084,0.324-0.084,0.47,0l3.071,1.773
					c0.145,0.084,0.235,0.238,0.235,0.407v3.546c0,0.168-0.091,0.322-0.235,0.407l-3.071,1.772
					C574.872,102.1,574.79,102.121,574.709,102.121z"/>
			</g>
		</g>
	</g>
	<circle fill="#7AD69C" cx="574.709" cy="92.121" r="3.889"/>
</g>
<g>
	<g>
		<g>
			<g>
				<path fill="#77BA8E" d="M1130.966,82.499c0-0.081,0.022-0.161,0.064-0.233l1.771-3.072c0.083-0.146,0.238-0.234,0.405-0.234
					h3.547c0.169,0,0.323,0.089,0.407,0.234l1.771,3.072c0.082,0.145,0.082,0.323,0,0.47l-1.771,3.07
					c-0.084,0.146-0.238,0.235-0.407,0.235h-3.547c-0.167,0-0.322-0.09-0.405-0.235l-1.771-3.07
					C1130.988,82.662,1130.966,82.58,1130.966,82.499z"/>
			</g>
		</g>
		<g>
			<g>
				<path fill="#77BA8E" d="M1118.999,82.499c0-0.081,0.022-0.161,0.064-0.233l1.771-3.072c0.084-0.146,0.239-0.234,0.406-0.234
					h3.547c0.168,0,0.322,0.089,0.407,0.234l1.771,3.072c0.083,0.145,0.083,0.323,0,0.47l-1.771,3.07
					c-0.085,0.146-0.239,0.235-0.407,0.235h-3.547c-0.167,0-0.322-0.09-0.406-0.235l-1.771-3.07
					C1119.021,82.662,1118.999,82.58,1118.999,82.499z"/>
			</g>
		</g>
		<g>
			<g>
				<path fill="#77BA8E" d="M1129,80.531c-0.081,0-0.163-0.021-0.235-0.062l-3.068-1.772c-0.146-0.085-0.234-0.24-0.234-0.408
					v-3.545c0-0.169,0.089-0.324,0.234-0.408l3.068-1.772c0.146-0.084,0.323-0.084,0.473,0l3.068,1.772
					c0.146,0.084,0.235,0.239,0.235,0.408v3.545c0,0.168-0.091,0.323-0.235,0.408l-3.068,1.772
					C1129.162,80.512,1129.081,80.531,1129,80.531z"/>
			</g>
		</g>
		<g>
			<g>
				<path fill="#77BA8E" d="M1129,92.499c-0.081,0-0.163-0.021-0.235-0.063l-3.068-1.771c-0.146-0.086-0.234-0.24-0.234-0.408V86.71
					c0-0.169,0.089-0.323,0.234-0.407l3.068-1.772c0.146-0.085,0.323-0.085,0.473,0l3.068,1.772
					c0.146,0.084,0.235,0.238,0.235,0.407v3.546c0,0.168-0.091,0.322-0.235,0.408l-3.068,1.771
					C1129.162,92.478,1129.081,92.499,1129,92.499z"/>
			</g>
		</g>
	</g>
	<circle fill="#7AD69C" cx="1129" cy="82.499" r="3.889"/>
</g>
<g>
	<g>
		<g>
			<g>
				<path fill="#77BA8E" d="M1419.23,249.641c0-0.08,0.021-0.16,0.062-0.229l1.773-3.072c0.083-0.146,0.235-0.233,0.402-0.233h3.548
					c0.169,0,0.322,0.09,0.406,0.233l1.773,3.072c0.083,0.146,0.083,0.319,0,0.469l-1.773,3.07
					c-0.084,0.146-0.237,0.233-0.406,0.233h-3.548c-0.167,0-0.319-0.09-0.402-0.233l-1.773-3.07
					C1419.253,249.805,1419.23,249.723,1419.23,249.641z"/>
			</g>
		</g>
		<g>
			<g>
				<path fill="#77BA8E" d="M1407.264,249.641c0-0.08,0.022-0.16,0.064-0.229l1.771-3.072c0.084-0.146,0.239-0.233,0.406-0.233
					h3.547c0.168,0,0.322,0.09,0.407,0.233l1.773,3.072c0.083,0.146,0.083,0.319,0,0.469l-1.773,3.07
					c-0.085,0.146-0.239,0.233-0.407,0.233h-3.547c-0.167,0-0.322-0.09-0.406-0.233l-1.771-3.07
					C1407.286,249.805,1407.264,249.723,1407.264,249.641z"/>
			</g>
		</g>
		<g>
			<g>
				<path fill="#77BA8E" d="M1417.265,247.674c-0.081,0-0.163-0.021-0.232-0.062l-3.071-1.771c-0.146-0.084-0.234-0.237-0.234-0.405
					v-3.545c0-0.17,0.092-0.324,0.234-0.408l3.071-1.771c0.145-0.084,0.322-0.084,0.47,0l3.071,1.771
					c0.145,0.084,0.232,0.238,0.232,0.408v3.545c0,0.168-0.091,0.321-0.232,0.405l-3.071,1.771
					C1417.427,247.652,1417.346,247.674,1417.265,247.674z"/>
			</g>
		</g>
		<g>
			<g>
				<path fill="#77BA8E" d="M1417.265,259.641c-0.081,0-0.163-0.021-0.232-0.062l-3.071-1.772c-0.146-0.084-0.234-0.238-0.234-0.406
					v-3.547c0-0.168,0.092-0.32,0.234-0.406l3.071-1.771c0.145-0.084,0.322-0.084,0.47,0l3.071,1.771
					c0.145,0.086,0.232,0.238,0.232,0.406v3.547c0,0.168-0.091,0.322-0.232,0.406l-3.071,1.772
					C1417.427,259.619,1417.346,259.641,1417.265,259.641z"/>
			</g>
		</g>
	</g>
	<circle fill="#7AD69C" cx="1417.264" cy="249.641" r="3.889"/>
</g>
<g>
	<g>
		
			<line fill="none" stroke="#6EBF8C" stroke-width="4.7886" stroke-linecap="round" stroke-miterlimit="10" x1="1166.801" y1="183.416" x2="1166.801" y2="162.865"/>
		<path fill="none" stroke="#6EBF8C" stroke-width="3.5914" stroke-linecap="round" stroke-miterlimit="10" d="M1165.804,171.096
			c-3.892,0-6.136-0.15-6.136-4.188v-4.488"/>
		<path fill="none" stroke="#6EBF8C" stroke-width="3.5914" stroke-linecap="round" stroke-miterlimit="10" d="M1167,174.389
			c0,0,2.244-0.147,4.041-0.147c1.795,0,2.693-0.873,2.693-7.729"/>
	</g>
	<rect x="1160.076" y="183.029" fill="#7AD69C" width="14.146" height="7.717"/>
</g>
<g>
	<g>
		
			<line fill="none" stroke="#6EBF8C" stroke-width="4.7886" stroke-linecap="round" stroke-miterlimit="10" x1="610.922" y1="249.977" x2="610.922" y2="229.424"/>
		<path fill="none" stroke="#6EBF8C" stroke-width="3.5914" stroke-linecap="round" stroke-miterlimit="10" d="M609.925,237.654
			c-3.892,0-6.136-0.149-6.136-4.189v-4.488"/>
		<path fill="none" stroke="#6EBF8C" stroke-width="3.5914" stroke-linecap="round" stroke-miterlimit="10" d="M611.121,240.947
			c0,0,2.244-0.15,4.041-0.15c1.795,0,2.693-0.872,2.693-7.729"/>
	</g>
	<rect x="604.197" y="249.588" fill="#7AD69C" width="14.147" height="7.717"/>
</g>
<g>
	<path fill="none" stroke="#6EBF8C" stroke-width="2.9089" stroke-linecap="round" stroke-miterlimit="10" d="M1337.341,130.058
		c0,0,5.109-0.3,6.912,2.103c0,0,1.802-3.605,6.91-3.605"/>
	<path fill="none" stroke="#6EBF8C" stroke-width="2.9089" stroke-linecap="round" stroke-miterlimit="10" d="M1320.514,141.776
		c0,0,5.108-0.3,6.911,2.103c0,0,1.803-3.605,6.911-3.605"/>
</g>
<g>
	<path fill="none" stroke="#6EBF8C" stroke-width="2.9089" stroke-linecap="round" stroke-miterlimit="10" d="M786.38,109.94
		c0,0,5.109-0.3,6.912,2.103c0,0,1.802-3.605,6.91-3.605"/>
	<path fill="none" stroke="#6EBF8C" stroke-width="2.9089" stroke-linecap="round" stroke-miterlimit="10" d="M769.553,121.659
		c0,0,5.108-0.3,6.911,2.103c0,0,1.803-3.605,6.911-3.605"/>
</g>
<g>
	<g>
		<rect x="1449.942" y="168.203" fill="#6EBF8C" width="3.729" height="14.23"/>
		<g>
			<path fill="#6EBF8C" d="M1462.5,169.109c0.757,2.062-0.425,3.756-2.625,3.756h-15.976c-2.2,0-3.385-1.69-2.625-3.756
				l9.235-25.243c0.757-2.065,1.993-2.065,2.75,0L1462.5,169.109z"/>
		</g>
		<polygon fill="#6EBF8C" points="1451.727,163.338 1460.388,163.338 1463.794,172.865 1451.727,172.865 		"/>
		<polygon fill="#6EBF8C" points="1451.961,163.338 1443.387,163.338 1439.893,172.865 1451.961,172.865 		"/>
	</g>
	<g>
		<rect x="1400.643" y="168.82" fill="#6EBF8C" width="3.729" height="14.229"/>
		<g>
			<path fill="#6EBF8C" d="M1413.199,169.727c0.757,2.064-0.425,3.756-2.625,3.756H1394.6c-2.197,0-3.382-1.688-2.625-3.756
				l9.237-25.244c0.757-2.065,1.993-2.065,2.75,0L1413.199,169.727z"/>
		</g>
		<polygon fill="#6EBF8C" points="1402.426,163.954 1411.088,163.954 1414.494,173.482 1402.426,173.482 		"/>
		<polygon fill="#6EBF8C" points="1402.66,163.954 1394.086,163.954 1390.592,173.482 1402.66,173.482 		"/>
	</g>
	<g>
		<polygon fill="#6EBF8C" points="1427.038,165.523 1435.7,165.523 1439.106,175.051 1427.038,175.051 		"/>
		<polygon fill="#6EBF8C" points="1427.271,165.523 1418.7,165.523 1415.203,175.051 1427.271,175.051 		"/>
	</g>
	<g>
		<rect x="1414.588" y="166.521" fill="#6EBF8C" width="3.729" height="14.229"/>
	</g>
	<g>
		<rect x="1436.665" y="162.727" fill="#6EBF8C" width="3.728" height="14.23"/>
		<g>
			<path fill="#6EBF8C" d="M1428.659,169.803c0.757,2.066-0.425,3.758-2.625,3.758h-15.975c-2.197,0-3.382-1.688-2.625-3.758
				l9.236-25.242c0.757-2.066,1.993-2.066,2.75,0L1428.659,169.803z"/>
		</g>
		<g>
			<path fill="#6EBF8C" d="M1438.027,167.461c0.757,2.066-0.428,3.757-2.625,3.757h-15.978c-2.2,0-3.382-1.69-2.625-3.757
				l9.236-25.242c0.757-2.066,1.993-2.066,2.75,0L1438.027,167.461z"/>
		</g>
	</g>
	<g>
		<rect x="1433.268" y="174.553" fill="#71B087" width="3.729" height="14.229"/>
		<g>
			<path fill="#71B087" d="M1445.825,175.457c0.757,2.066-0.425,3.757-2.625,3.757h-15.978c-2.197,0-3.382-1.69-2.625-3.757
				l9.237-25.242c0.757-2.066,1.993-2.066,2.75,0L1445.825,175.457z"/>
		</g>
		<polygon fill="#71B087" points="1435.052,169.686 1443.714,169.686 1447.12,179.214 1435.052,179.214 		"/>
		<polygon fill="#71B087" points="1435.284,169.686 1426.712,169.686 1423.216,179.214 1435.284,179.214 		"/>
	</g>
	<g>
		<rect x="1417.203" y="180.582" fill="#71B087" width="3.729" height="14.23"/>
		<g>
			<path fill="#71B087" d="M1429.761,181.486c0.757,2.063-0.425,3.758-2.625,3.758h-15.975c-2.2,0-3.382-1.691-2.625-3.758
				l9.237-25.242c0.757-2.064,1.99-2.064,2.75,0L1429.761,181.486z"/>
		</g>
		<polygon fill="#71B087" points="1418.987,175.716 1427.649,175.716 1431.056,185.244 1418.987,185.244 		"/>
		<polygon fill="#71B087" points="1419.22,175.716 1410.646,175.716 1407.152,185.244 1419.22,185.244 		"/>
	</g>
</g>
<g>
	<g>
		<rect x="741.941" y="171.729" fill="#6EBF8C" width="3.729" height="14.23"/>
		<g>
			<path fill="#6EBF8C" d="M754.499,172.635c0.757,2.065-0.425,3.756-2.625,3.756h-15.976c-2.2,0-3.382-1.688-2.625-3.756
				l9.238-25.243c0.757-2.065,1.993-2.065,2.75,0L754.499,172.635z"/>
		</g>
		<polygon fill="#6EBF8C" points="743.726,166.863 752.387,166.863 755.793,176.391 743.726,176.391 		"/>
		<polygon fill="#6EBF8C" points="743.96,166.863 735.386,166.863 731.892,176.391 743.96,176.391 		"/>
	</g>
	<g>
		<rect x="692.642" y="172.346" fill="#6EBF8C" width="3.729" height="14.23"/>
		<g>
			<path fill="#6EBF8C" d="M705.198,173.251c0.757,2.065-0.425,3.757-2.625,3.757h-15.975c-2.2,0-3.382-1.691-2.625-3.757
				l9.237-25.243c0.757-2.065,1.993-2.065,2.75,0L705.198,173.251z"/>
		</g>
		<polygon fill="#6EBF8C" points="694.425,167.479 703.087,167.479 706.493,177.008 694.425,177.008 		"/>
		<polygon fill="#6EBF8C" points="694.659,167.479 686.085,167.479 682.591,177.008 694.659,177.008 		"/>
	</g>
	<g>
		<polygon fill="#6EBF8C" points="719.037,169.049 727.699,169.049 731.105,178.576 719.037,178.576 		"/>
		<polygon fill="#6EBF8C" points="719.271,169.049 710.699,169.049 707.202,178.576 719.271,178.576 		"/>
	</g>
	<g>
		<rect x="706.587" y="170.046" fill="#6EBF8C" width="3.729" height="14.229"/>
	</g>
	<g>
		<rect x="728.664" y="166.252" fill="#6EBF8C" width="3.728" height="14.23"/>
		<g>
			<path fill="#6EBF8C" d="M720.658,173.328c0.757,2.066-0.425,3.757-2.625,3.757h-15.975c-2.2,0-3.382-1.69-2.625-3.757
				l9.236-25.242c0.757-2.066,1.993-2.066,2.75,0L720.658,173.328z"/>
		</g>
		<g>
			<path fill="#6EBF8C" d="M730.026,170.986c0.757,2.063-0.425,3.757-2.625,3.757h-15.975c-2.2,0-3.382-1.69-2.625-3.757
				l9.236-25.242c0.757-2.066,1.993-2.066,2.75,0L730.026,170.986z"/>
		</g>
	</g>
	<g>
		<rect x="725.267" y="178.078" fill="#71B087" width="3.729" height="14.229"/>
		<g>
			<path fill="#71B087" d="M737.824,178.982c0.757,2.063-0.425,3.756-2.625,3.756h-15.975c-2.2,0-3.382-1.689-2.625-3.756
				l9.237-25.242c0.757-2.066,1.993-2.066,2.75,0L737.824,178.982z"/>
		</g>
		<polygon fill="#71B087" points="727.051,173.211 735.713,173.211 739.119,182.738 727.051,182.738 		"/>
		<polygon fill="#71B087" points="727.283,173.211 718.711,173.211 715.215,182.738 727.283,182.738 		"/>
	</g>
	<g>
		<rect x="709.202" y="184.107" fill="#71B087" width="3.729" height="14.229"/>
		<g>
			<path fill="#71B087" d="M721.76,185.014c0.757,2.064-0.425,3.756-2.625,3.756H703.16c-2.2,0-3.382-1.688-2.625-3.756
				l9.237-25.244c0.757-2.062,1.993-2.062,2.75,0L721.76,185.014z"/>
		</g>
		<polygon fill="#71B087" points="710.986,179.241 719.648,179.241 723.055,188.77 710.986,188.77 		"/>
		<polygon fill="#71B087" points="711.219,179.241 702.646,179.241 699.151,188.77 711.219,188.77 		"/>
	</g>
</g>
<g>
	<g>
		<path fill="#6EBF8C" d="M790.978,256.125l-14.979-14.273c-2.849-1.776-3.669-2.531-8.194-2.531c-4.526,0-5.771,1.199-8.196,2.531
			l-14.854,14.551C740.655,259.645,796.737,262.57,790.978,256.125z"/>
	</g>
	<g>
		<path fill="#6EBF8C" d="M827.958,249.633l-18.839-17.953c-3.583-2.238-4.616-3.183-10.306-3.183c-5.693,0-7.26,1.508-10.311,3.183
			l-18.681,18.303C764.666,254.059,835.202,257.738,827.958,249.633z"/>
	</g>
	<g>
		<path fill="#71B087" d="M834.754,269.751l-22.335-21.282c-4.247-2.654-5.472-3.773-12.218-3.773c-6.75,0-8.604,1.787-12.223,3.773
			l-22.146,21.696C759.72,275,843.341,279.361,834.754,269.751z"/>
	</g>
</g>
<g>
	<g>
		<path fill="#6EBF8C" d="M1267.5,172.389l-14.979-14.271c-2.853-1.779-3.673-2.531-8.195-2.531c-4.525,0-5.771,1.199-8.195,2.531
			l-14.854,14.551C1217.178,175.908,1273.26,178.834,1267.5,172.389z"/>
	</g>
	<g>
		<path fill="#6EBF8C" d="M1304.48,165.896l-18.842-17.956c-3.583-2.238-4.613-3.183-10.306-3.183c-5.693,0-7.259,1.508-10.31,3.183
			l-18.684,18.302C1241.188,170.322,1311.725,174.002,1304.48,165.896z"/>
	</g>
	<g>
		<path fill="#71B087" d="M1311.277,186.016l-22.336-21.283c-4.247-2.651-5.475-3.771-12.221-3.771
			c-6.749,0-8.604,1.787-12.222,3.771l-22.146,21.697C1236.242,191.264,1319.863,195.625,1311.277,186.016z"/>
	</g>
</g>
</svg>
