<?xml version="1.0" encoding="utf-8"?>
<!-- Generator: Adobe Illustrator 16.0.0, SVG Export Plug-In . SVG Version: 6.00 Build 0)  -->
<!DOCTYPE svg PUBLIC "-//W3C//DTD SVG 1.1//EN" "http://www.w3.org/Graphics/SVG/1.1/DTD/svg11.dtd">
<svg version="1.1" id="Layer_1" xmlns="http://www.w3.org/2000/svg" xmlns:xlink="http://www.w3.org/1999/xlink" x="0px" y="0px"
	 width="60px" height="55px" viewBox="0 0 60 55" enable-background="new 0 0 60 55" xml:space="preserve">
<g id="Layer_2">
	<path fill="#7AD69C" d="M56.946,10.995c-3.523-3.981-5.546-8.079-5.546-8.079L18.444,2.454L1.892,40.589
		c0,0-0.621,6.764,2.319,9.225c2.939,2.46,36.201,2.151,38.987,1.384c2.784-0.771,3.711-1.232,6.807-11.378
		C53.1,29.671,60.35,14.84,56.946,10.995z"/>
</g>
<g id="Layer_3">
	<path fill="#FFFFFF" d="M59.07,12.534c-0.504-0.667-1.212-1.182-2.125-1.539c0.048,0.835-0.012,1.516-0.182,2.041L45.956,48.378
		c-0.193,0.621-0.613,1.117-1.262,1.487c-0.65,0.37-1.321,0.554-2.018,0.554H9.421c-2.881,0-4.611-0.835-5.188-2.506
		c-0.238-0.645-0.228-1.159,0.037-1.542c0.263-0.357,0.72-0.536,1.369-0.536H36.95c2.234,0,3.778-0.413,4.63-1.236
		c0.853-0.826,1.711-2.654,2.574-5.497l9.874-32.442c0.527-1.768,0.312-3.318-0.649-4.656C52.418,0.668,51.047,0,49.271,0h-27.42
		c-0.312,0-0.925,0.107-1.837,0.321c-0.86,0.037-1.264-0.55-2.765-0.092c-1.5,0.459-2.688,4.127-4.188,6.575
		c-1.501,2.448-0.748,1.332-0.792,3.33c-0.045,1.997-1.456,5.105-2.769,6.652c-1.313,1.546-1.375,1.662-1.25,3.609
		c0.125,1.95-1.75,6.131-3.042,7.605c-1.292,1.475-0.396,4.312-2.708,8.322c-2.312,4.011-2,3.438-1.812,4.757
		c0.188,1.317-0.31,2.75-0.31,2.75c-0.527,1.431-0.503,2.948,0.072,4.546c0.672,1.863,1.867,3.432,3.584,4.71
		C5.752,54.365,7.536,55,9.385,55H42.64c1.562,0,3.033-0.518,4.414-1.558c1.38-1.039,2.3-2.321,2.758-3.848l9.906-32.443
		C60.247,15.433,60.032,13.895,59.07,12.534z M20.734,12.606l0.758-2.292c0.096-0.31,0.293-0.579,0.594-0.806
		c0.301-0.226,0.605-0.339,0.918-0.339h21.907c0.335,0,0.577,0.113,0.722,0.339c0.145,0.227,0.167,0.496,0.07,0.806l-0.757,2.292
		c-0.099,0.311-0.295,0.58-0.594,0.805c-0.301,0.227-0.607,0.341-0.918,0.341H21.527c-0.337,0-0.577-0.113-0.722-0.341
		C20.662,13.186,20.638,12.916,20.734,12.606z M17.745,21.773l0.757-2.292c0.096-0.31,0.293-0.579,0.595-0.806
		c0.301-0.226,0.606-0.34,0.919-0.34h21.907c0.335,0,0.576,0.114,0.72,0.34c0.145,0.227,0.17,0.498,0.073,0.806l-0.757,2.292
		c-0.096,0.31-0.293,0.579-0.595,0.804c-0.299,0.228-0.606,0.342-0.918,0.342H18.536c-0.335,0-0.576-0.111-0.721-0.34
		C17.672,22.352,17.647,22.084,17.745,21.773z"/>
</g>
</svg>
