<?xml version="1.0" encoding="utf-8"?>
<!-- Generator: Adobe Illustrator 16.0.0, SVG Export Plug-In . SVG Version: 6.00 Build 0)  -->
<!DOCTYPE svg PUBLIC "-//W3C//DTD SVG 1.1//EN" "http://www.w3.org/Graphics/SVG/1.1/DTD/svg11.dtd">
<svg version="1.1" id="Layer_1" xmlns="http://www.w3.org/2000/svg" xmlns:xlink="http://www.w3.org/1999/xlink" x="0px" y="0px"
	 width="2000px" height="300px" viewBox="0 0 2000 300" enable-background="new 0 0 2000 300" xml:space="preserve">
<g id="pathway_page">
</g>
<g id="HEADER_pathway_page">
</g>
<g id="header__x2B__bg">
	<rect fill="#0FA1D6" width="2000" height="300"/>
</g>
<path fill="#7AD69C" d="M552.188,221c-3.812,0-5.961-0.33-9.096-2.129c-1.254-0.721-1.922-1.104-2.978-1.713
	c-2.717-1.569-4.114-2.27-4.114-7.27s0-13.438,0-17.188s-0.601-4.2-3.477-5.851c-1.201-0.688-2.491-1.433-3.476-2
	c-2.497-1.44-3.985-1.765-8.047-1.765s-5.75,0-8.333,0c-4.583,0-5.339-0.088-9.686-2.592c-0.892-0.515-1.788-1.027-2.553-1.468
	c-2.712-1.555-3.428-2.275-3.428-6.164s0-12.334,0-16.861s0.723-5.098,4.897-7.499c0.716-0.412,1.452-0.833,2.163-1.241
	c3.261-1.87,4.396-2.26,9.96-2.26s70.576,0,74.576,0c5.738,0,8.841,1.392,11.864,3.119c2.722,1.555,5.92,3.382,8.242,4.71
	c4.899,2.799,7.298,4.377,7.298,10.599c0,6.223,0,30.159,0,37.885c0,7.727-2.254,9.004-7.504,12.035
	c-0.781,0.449-2.243,1.291-3.921,2.254c-4.066,2.336-9.403,5.397-18.325,5.397S556,221,552.188,221z"/>
<path fill="#7AD69C" d="M486.313,231.201c1.941-1.121,6.303-3.637,8.916-5.146c1.925-1.109,2.503-1.479,2.503-4.416
	c0-2.937,0-11.75,0-14.541c0-2.793-1.887-3.951-3.763-5.043c-3.381-1.965-7.849-4.548-9.137-5.291
	c-2.993-1.729-5.292-1.67-8.189-0.002c-1.273,0.732-5.933,3.328-9.355,5.293c-1.947,1.118-3.692,2.426-3.692,5.043
	c0,0,0,11.729,0,14.572c0,2.844,1.053,3.539,2.561,4.396c2.667,1.516,6.756,3.846,8.969,5.135
	C479.195,233.57,482.083,233.643,486.313,231.201z"/>
<path fill="#7AD69C" d="M1511.409,99.936c-1.901-1.092-4.167-2.393-6.991-4.016c-2.286-1.312-5.395-3.032-5.395-7.907
	c0-3.562,0-6.5,0-10.875s2.545-6.169,5.365-7.821c2.356-1.379,4.494-2.63,5.965-3.478c3.383-1.953,5.778-4.619,5.778-8.951
	c0-3.333,0-56.888,0-56.888H476c0,0,0,41.318,0,48.652s6.289,10.857,14.733,15.715c15.045,8.655,36.93,21.25,42.267,24.349
	C541.333,93.555,543.573,94,550.083,94h60.083c6.5,0,9.034,1.617,13.604,4.284s0.252,0.106,5.772,3.386
	c5.52,3.28,7.457,4.447,7.457,9.28v40.375c0,6.25,1.312,6.938,7.131,10.237c2.377,1.351,4.921,2.85,6.816,3.918
	c7.366,4.155,8.803,4.511,16.486,4.511c1.688,0,3.13,0,3.755,0c7.938,0,9.375,0.021,16.753,4.014
	c2.212,1.196,4.505,2.599,6.397,3.695c5.107,2.961,7.763,6.854,7.763,12.358s0,31.385,0,36.016c0,7.308-2.959,9.473-7.611,12.324
	c-2.649,1.625-3.248,1.858-7.147,4.104c-3.899,2.244-5.834,3.494-12.56,3.494H532.932c-7.833,0-11.917,0.555-16.333,2.724
	c-1.937,1.104-6.821,3.907-8.797,5.094c-5.537,3.324-7.802,6.699-7.802,16.324c0,2.457,0,29.861,0,29.861h999.969
	c0,0,0.031-64.072,0.031-70.342s-0.244-9.047-5.791-12.232c-1.717-0.986-8.08-4.662-9.897-5.705
	c-4.896-2.812-10.343-3.137-22.343-3.137h-46.987c-11.472,0-17.645-2.469-23.704-5.941c-2.754-1.58-11.897-6.841-17.145-9.847
	c-6.3-3.61-8.562-7.418-8.562-15.905v-28.083c0-6.093,3.099-9.191,8.596-12.348c4.247-2.439,18.295-10.497,24.456-14.046
	c4.523-2.606,7.684-2.434,12.4,0.29c3.197,1.848,15.11,8.758,23.678,13.685c6.219,3.577,8.868,6.42,8.868,12.5
	c0,6.082,0,4.5,0,9.167c0,4.666,1.758,7.674,6.146,10.197c3.048,1.752,5.153,2.949,8.124,4.665c4.96,2.864,9.324,4.081,14.991,4.081
	h14.5c6.667,0,10.948-1.994,14.617-4.111c1.859-1.074,4.581-2.578,8.008-4.572c3.329-1.938,6.177-4.26,6.177-10.26
	c0,0,0-44.917,0-49.479S1514.851,101.912,1511.409,99.936z"/>
<polygon fill="#0FA1D6" points="1333.739,224.217 1333.739,226.498 1331.458,224.529 "/>
<path fill="#E3F9FF" d="M1349.271,299.178c0-1.928-1.562-3.49-3.488-3.49c-0.34,0-0.668,0.052-0.979,0.143
	c-0.391-2.619-2.646-4.627-5.375-4.627c-2.506,0-4.613,1.697-5.241,4.006c-0.604-0.326-1.294-0.51-2.026-0.51
	c-2.357,0-4.27,1.908-4.27,4.269c0,0.495,0.084,0.593,0.239,1.032h20.93C1349.198,299.625,1349.271,299.6,1349.271,299.178z"/>
<path fill="none" stroke="#0FA1D6" stroke-width="3" stroke-miterlimit="10" d="M1103.667,121.388c19,0,70.333,0,109.333,0
	s120.037,0,129.9,0c6.934,0,9.695,1.108,15.14,4.117c5.884,3.253,14.062,8.107,21.74,12.7"/>
<g>
	<g>
		<g>
			<path fill="#77BA8E" d="M1192.25,39.714c3.225,0,3.225-5,0-5S1189.025,39.714,1192.25,39.714L1192.25,39.714z"/>
		</g>
	</g>
	<g>
		<g>
			<path fill="#77BA8E" d="M1203.25,41.627c3.225,0,3.225-5,0-5S1200.025,41.627,1203.25,41.627L1203.25,41.627z"/>
		</g>
	</g>
	<g>
		<g>
			<path fill="#77BA8E" d="M1202.293,30.149c3.225,0,3.225-5,0-5S1199.068,30.149,1202.293,30.149L1202.293,30.149z"/>
		</g>
	</g>
</g>
<g>
	<g>
		<g>
			<path fill="#77BA8E" d="M1475.816,101.819c3.225,0,3.225-5,0-5C1472.591,96.819,1472.592,101.819,1475.816,101.819
				L1475.816,101.819z"/>
		</g>
	</g>
	<g>
		<g>
			<path fill="#77BA8E" d="M1486.816,103.732c3.225,0,3.225-5,0-5C1483.591,98.732,1483.592,103.732,1486.816,103.732
				L1486.816,103.732z"/>
		</g>
	</g>
	<g>
		<g>
			<path fill="#77BA8E" d="M1485.859,92.253c3.225,0,3.225-5,0-5C1482.634,87.253,1482.635,92.253,1485.859,92.253L1485.859,92.253z
				"/>
		</g>
	</g>
</g>
<g>
	<g>
		<g>
			<path fill="#77BA8E" d="M1294.083,261.048c3.225,0,3.225-5,0-5S1290.858,261.048,1294.083,261.048L1294.083,261.048z"/>
		</g>
	</g>
	<g>
		<g>
			<path fill="#77BA8E" d="M1305.083,262.961c3.225,0,3.225-5,0-5S1301.858,262.961,1305.083,262.961L1305.083,262.961z"/>
		</g>
	</g>
	<g>
		<g>
			<path fill="#77BA8E" d="M1304.127,251.482c3.225,0,3.225-5,0-5S1300.902,251.482,1304.127,251.482L1304.127,251.482z"/>
		</g>
	</g>
</g>
<g>
	<g>
		<g>
			<path fill="#77BA8E" d="M1117.75,245.215c3.225,0,3.225-5,0-5S1114.525,245.215,1117.75,245.215L1117.75,245.215z"/>
		</g>
	</g>
	<g>
		<g>
			<path fill="#77BA8E" d="M1128.75,247.127c3.225,0,3.225-5,0-5S1125.525,247.127,1128.75,247.127L1128.75,247.127z"/>
		</g>
	</g>
	<g>
		<g>
			<path fill="#77BA8E" d="M1127.793,235.648c3.225,0,3.225-5,0-5S1124.568,235.648,1127.793,235.648L1127.793,235.648z"/>
		</g>
	</g>
</g>
<g>
	<g>
		<g>
			<path fill="#77BA8E" d="M540.75,274.715c3.224,0,3.224-5,0-5S537.526,274.715,540.75,274.715L540.75,274.715z"/>
		</g>
	</g>
	<g>
		<g>
			<path fill="#77BA8E" d="M551.75,276.627c3.224,0,3.224-5,0-5S548.526,276.627,551.75,276.627L551.75,276.627z"/>
		</g>
	</g>
	<g>
		<g>
			<path fill="#77BA8E" d="M550.793,265.148c3.224,0,3.224-5,0-5S547.569,265.148,550.793,265.148L550.793,265.148z"/>
		</g>
	</g>
</g>
<g>
	<g>
		<g>
			<path fill="#77BA8E" d="M816.728,143.695c3.224,0,3.224-5,0-5S813.503,143.695,816.728,143.695L816.728,143.695z"/>
		</g>
	</g>
	<g>
		<g>
			<path fill="#77BA8E" d="M827.728,145.608c3.224,0,3.224-5,0-5S824.503,145.608,827.728,145.608L827.728,145.608z"/>
		</g>
	</g>
	<g>
		<g>
			<path fill="#77BA8E" d="M826.771,134.13c3.224,0,3.224-5,0-5S823.547,134.13,826.771,134.13L826.771,134.13z"/>
		</g>
	</g>
</g>
<g>
	<g>
		<g>
			<path fill="#77BA8E" d="M770.583,275.381c3.224,0,3.224-5,0-5S767.359,275.381,770.583,275.381L770.583,275.381z"/>
		</g>
	</g>
	<g>
		<g>
			<path fill="#77BA8E" d="M781.583,277.295c3.224,0,3.224-5,0-5S778.359,277.295,781.583,277.295L781.583,277.295z"/>
		</g>
	</g>
	<g>
		<g>
			<path fill="#77BA8E" d="M780.627,265.816c3.224,0,3.224-5,0-5S777.403,265.816,780.627,265.816L780.627,265.816z"/>
		</g>
	</g>
</g>
<path fill="none" stroke="#0FA1D6" stroke-width="3" stroke-linecap="round" stroke-linejoin="round" stroke-miterlimit="10" d="
	M1176.333,121.388c12,0,17,9,26,21c9,12,41,63,58,88"/>
<path fill="#0FA1D6" stroke="#0FA1D6" stroke-width="3" stroke-linecap="round" stroke-linejoin="round" stroke-miterlimit="10" d="
	M1222.588,172.285c3.971,5.956,10.362,10.71,22.281,13.016c21.131,4.088,15.997,24.645,32.464,32.422
	c5.998,2.832,6.001,4.332,17.334,5c-6,1.666-17.497,7.998-29.667,7.666c-11.696-0.32-31.16-5.6-30.499-20.38
	S1222.588,172.285,1222.588,172.285z"/>
<path fill="none" stroke="#0FA1D6" stroke-width="3" stroke-linecap="round" stroke-linejoin="round" stroke-miterlimit="10" d="
	M1269.666,216.365c19.667,8,25.746,7.191,34.729,3.787c8.98-3.405,12.961,2.056,18.282,3.385c2.543,0.636,4.031,0.766,4.922,0.766
	c0.339,0,4.771,0,5.143,0"/>
<rect x="1327.623" y="225.264" fill="#59C0E6" width="6.13" height="69.232"/>
<polygon fill="#0FA1D6" points="1327.623,271.24 1327.623,294.496 1333.753,294.496 1333.753,266.37 "/>
<line fill="none" stroke="#0FA1D6" stroke-linecap="round" stroke-miterlimit="10" x1="1330.666" y1="253.879" x2="1330.666" y2="257.796"/>
<line fill="none" stroke="#0FA1D6" stroke-linecap="round" stroke-miterlimit="10" x1="1331.938" y1="243.93" x2="1331.938" y2="247.846"/>
<line fill="none" stroke="#0FA1D6" stroke-linecap="round" stroke-miterlimit="10" x1="1331.938" y1="232.467" x2="1331.938" y2="239.732"/>
<line fill="none" stroke="#0FA1D6" stroke-linecap="round" stroke-miterlimit="10" x1="1330.666" y1="266.094" x2="1330.666" y2="270.01"/>
<line fill="none" stroke="#0FA1D6" stroke-linecap="round" stroke-miterlimit="10" x1="1330.666" y1="262.428" x2="1330.666" y2="263.844"/>
<path fill="#FFFFFF" d="M1341.167,298.716c0-2.347-1.901-4.247-4.247-4.247c-0.413,0-0.812,0.061-1.189,0.17
	c-0.477-3.188-3.224-5.631-6.543-5.631c-3.051,0-5.616,2.066-6.382,4.875c-0.732-0.396-1.573-0.621-2.467-0.621
	c-2.87,0-5.196,2.326-5.196,5.197c0,0.602,0.104,1.004,0.292,1.541h25.478C1341.077,299.545,1341.167,299.229,1341.167,298.716z"/>
<g>
	<path fill="#71B087" d="M865.734,212.832l-9.594-29.598c-2.094-2.051-2.348-5.248-5.246-5.248s-3.695,2.486-5.248,5.248
		l-9.512,30.174C833.514,220.131,869.422,226.195,865.734,212.832z"/>
	<path fill="#FFFFFF" d="M857.23,186.566c-0.652-1.844-1.076-3.4-1.076-3.4c-0.929-3.609-2.35-5.248-5.248-5.248
		c-2.898,0-4.352,1.7-5.247,5.248l-1.144,3.623c-0.666,1.932,1.732,2.545,2.347,1.562c0.615-0.983,1.722-3.567,2.46-2.707
		c0.738,0.86,1.969,1.846,2.645,0.922c0.676-0.922,2.152-3.012,3.014-1.782C855.841,186.014,856.098,186.506,857.23,186.566z"/>
</g>
<path fill="#71B087" d="M591.666,192.201l-9.748-30.082c0-2.945-2.388-5.333-5.333-5.333s-5.333,2.388-5.333,5.333l-9.667,30.667
	C558.918,199.619,595.414,205.783,591.666,192.201z"/>
<path fill="#FFFFFF" d="M582.996,165.264c-0.662-1.875-1.094-3.457-1.094-3.457c-0.943-3.668-2.388-5.334-5.333-5.334
	c-2.945,0-4.422,1.729-5.333,5.334l-1.162,3.685c-0.678,1.962,1.76,2.587,2.385,1.587s1.75-3.625,2.5-2.75s2,1.875,2.688,0.938
	s2.188-3.062,3.062-1.812S581.846,165.201,582.996,165.264z"/>
<g>
	<path fill="#71B087" d="M753.925,100.482l-9.591-29.598c0-2.898-2.35-5.248-5.248-5.248c-2.897,0-5.247,2.35-5.247,5.248
		l-9.511,30.173C721.705,107.78,757.612,113.845,753.925,100.482z"/>
	<path fill="#FFFFFF" d="M745.188,74.412c-0.629-1.784-1.041-3.289-1.041-3.289c-0.897-3.488-2.271-5.072-5.073-5.072
		c-2.801,0-4.206,1.644-5.072,5.072l-1.105,3.504c-0.645,1.866,1.674,2.46,2.269,1.509c0.594-0.951,1.664-3.448,2.377-2.615
		c0.714,0.832,1.902,1.783,2.556,0.892c0.654-0.892,2.081-2.913,2.913-1.724C743.845,73.877,744.094,74.353,745.188,74.412z"/>
</g>
<g>
	<path fill="#71B087" d="M1311.859,141.073c0,0-9.479,0-18.525,0c-7.237,5.654-22.919,3.317-21.712-3.091
		c1.207-6.408,6.021-25.369,6.021-25.369c0.458-2.492,1.854-4.144,4.145-4.144s3.544,1.531,4.145,4.144l1.474,4.612
		c0.714,1.955,1.575,3.519,3.52,3.519c1.945,0,2.562-1.237,3.521-3.519l7.228-18.444c1.392-2.884,2.16-4.825,4.825-4.825
		c2.664,0,3.521,1.658,4.825,4.825l6.333,21.108l3.254,11.459C1324.524,141.751,1311.859,141.073,1311.859,141.073z"/>
	<path fill="#7AD69C" d="M1317.496,142.647l-5.731-17.688c0-1.732-1.402-3.136-3.136-3.136c-1.732,0-3.136,1.404-3.136,3.136
		l-5.687,18.031C1298.241,147.009,1319.699,150.633,1317.496,142.647z"/>
	<path fill="#7AD69C" d="M1302.625,144.884l-3.989-12.31c0-1.206-0.977-2.183-2.182-2.183s-2.183,0.977-2.183,2.183l-3.955,12.549
		C1289.224,147.92,1304.158,150.442,1302.625,144.884z"/>
	<path fill="#7AD69C" d="M1288.11,145.063l-2.686-8.286c0-0.811-0.659-1.469-1.47-1.469c-0.812,0-1.468,0.658-1.468,1.469
		l-2.665,8.447C1279.091,147.106,1289.143,148.804,1288.11,145.063z"/>
	<path fill="#FFFFFF" d="M1311.319,98.781c-1.139-3.676-2.161-4.825-4.825-4.825c-2.665,0-3.549,1.658-4.825,4.825l-1.241,3.169
		c1.218,0.619,2.462-0.908,2.857-1.982c0.396-1.075,1.639,0.905,1.979,2.262c0.339,1.357,1.582,0.791,2.204-0.679
		c0.622-1.47,2.488-0.735,3.279,1.074c0.581,1.327,2.206,1.357,2.206,1.357L1311.319,98.781z"/>
	<path fill="#FFFFFF" d="M1285.931,112.613c-0.601-2.613-1.854-4.144-4.145-4.144s-3.687,1.652-4.145,4.144
		c0,0-0.18,0.716-0.482,1.915c-0.373,1.479,0.908,0.499,1.55-0.708c0.64-1.206,1.218-2.34,1.281-1.281
		c0.227,3.769,1.675,4.998,2.262,3.43c0.679-1.809,1.716-3.675,2.317-2.318c0.603,1.357,1.111,1.877,2.206,1.753
		C1286.549,114.423,1285.931,112.613,1285.931,112.613z"/>
</g>
<path fill="#7AD69C" d="M568.648,197.764l-4.409-13.605c0-1.332-1.08-2.412-2.413-2.412c-1.332,0-2.412,1.08-2.412,2.412
	l-4.373,13.871C553.835,201.119,570.343,203.908,568.648,197.764z"/>
<path fill="#7AD69C" d="M577.85,201.824l-4.409-13.607c0-1.333-1.08-2.412-2.413-2.412c-1.332,0-2.412,1.079-2.412,2.412
	l-4.373,13.871C563.037,205.18,579.545,207.967,577.85,201.824z"/>
<path fill="#7AD69C" d="M586.24,199.658l-4.409-13.607c0-1.332-1.08-2.412-2.413-2.412c-1.332,0-2.412,1.08-2.412,2.412
	l-4.373,13.871C571.427,203.014,587.936,205.802,586.24,199.658z"/>
<path fill="#0FA1D6" stroke="#0FA1D6" stroke-width="3" stroke-linecap="round" stroke-linejoin="round" stroke-miterlimit="10" d="
	M1367.279,130.854c5.486,4.059,4.095,7.541,1.388,11.201c-2.707,3.659,10.333-3.417,10.333-3.417s6.833-3.917,4.333-6.333
	C1380.833,133.638,1373.812,135.688,1367.279,130.854z"/>
<g>
	<path fill="#71B087" d="M1389.562,230.852c0-11.609-2.341-21.023-5.226-21.023s-5.223,9.414-5.223,21.023
		c0,2.395,0.1,4.69,0.28,6.834h9.884C1389.461,235.542,1389.562,233.244,1389.562,230.852z"/>
	<path fill="#71B087" d="M1379.396,237.686c0.45,5.273,1.14,12.037,1.14,12.037h7.624c0,0,0.412-3.781,1.119-12.037H1379.396z"/>
	<polygon fill="#71B087" points="1383.411,221.71 1383.354,226.629 1387.306,226.629 1387.234,221.71 	"/>
	<path fill="#7AD69C" d="M1389.043,221.71h-1.809l0.069,4.919h2.148C1389.366,224.904,1389.229,223.254,1389.043,221.71z"/>
	<path fill="#7AD69C" d="M1379.632,221.71c-0.184,1.544-0.323,3.194-0.409,4.919h4.131l0.06-4.919H1379.632z"/>
	<path fill="#71B087" d="M1379.223,226.629c-0.067,1.365-0.105,2.775-0.105,4.223c0,0.133,0.003,0.26,0.003,0.394h4.18l0.056-4.614
		L1379.223,226.629L1379.223,226.629z"/>
	<polygon fill="#7AD69C" points="1383.354,226.629 1383.298,231.243 1387.372,231.243 1387.306,226.629 	"/>
	<path fill="#71B087" d="M1389.562,230.852c0-1.447-0.038-2.855-0.107-4.223h-2.148l0.066,4.614h2.185
		C1389.559,231.111,1389.562,230.984,1389.562,230.852z"/>
	<path fill="#7AD69C" d="M1379.118,231.243c0.008,1.743,0.067,3.434,0.177,5.05h3.943l0.06-5.05H1379.118z"/>
	<polygon fill="#71B087" points="1383.298,231.243 1383.238,236.293 1387.446,236.293 1387.372,231.243 	"/>
	<path fill="#7AD69C" d="M1389.557,231.243h-2.185l0.074,5.05h1.936C1389.487,234.677,1389.549,232.986,1389.557,231.243z"/>
</g>
<g>
	<circle fill="#71B087" cx="1384.183" cy="256.717" r="3.02"/>
	<circle fill="#71B087" cx="1384.938" cy="262.506" r="5.285"/>
	<circle fill="#71B087" cx="1378.385" cy="289.564" r="5.285"/>
	<circle fill="#71B087" cx="1380.072" cy="259.485" r="2.433"/>
	<circle fill="#71B087" cx="1379.904" cy="279.316" r="2.433"/>
	<circle fill="#71B087" cx="1381.75" cy="269.385" r="6.125"/>
	<circle fill="#71B087" cx="1386.7" cy="276.014" r="3.524"/>
	<circle fill="#71B087" cx="1374.263" cy="283.576" r="3.524"/>
</g>
<polygon fill="#71B087" points="1377.188,247.764 1380.562,247.764 1380.562,241.764 1378.75,241.764 "/>
<polygon fill="#71B087" points="1391.5,247.764 1388.125,247.764 1388.125,241.764 1389.938,241.764 "/>
<path fill="#71B087" d="M1382.208,251.098c-0.436,1.814,1.989,4.625,1.989,4.625s2.705-2.521,2.705-4.553
	C1383.667,251.17,1382.208,251.098,1382.208,251.098z"/>
<path fill="#0FA1D6" stroke="#0FA1D6" stroke-width="3" stroke-linecap="round" stroke-linejoin="round" stroke-miterlimit="10" d="
	M710.399,196.391c-6.827,0-9.303,5.273-9.303,9.825s-4.005-14.538-4.005-14.538l3.89-2.344
	C700.982,189.334,702.271,196.391,710.399,196.391z"/>
<path fill="none" stroke="#0FA1D6" stroke-width="3" stroke-miterlimit="10" d="M694,196.389c0,0,15.77,0,45.77,0
	c22.634,0,25.157,0.527,43.573,11.543c10.95,6.551,29.432,16.938,41.6,24.006c12.825,7.453,26.382,17.451,45.382,17.451
	s-0.326,0,35.674,0c6.81,0,11.638-2.102,18.804-6.064c3.771-2.086,16.481-9.541,21.106-12.338"/>
<circle fill="none" stroke="#0FA1D6" stroke-width="3" stroke-miterlimit="10" cx="1000" cy="140.389" r="106"/>
<g>
	<path fill="#71B087" d="M814.045,234.52l-8.606-26.559c-1-2.699-2.108-4.709-4.709-4.709s-2.771,1.346-4.708,4.709l-11.645,26.584
		C782.021,240.578,817.354,246.512,814.045,234.52z"/>
	<path fill="#FFFFFF" d="M806.39,210.736c-0.585-1.656-0.966-3.053-0.966-3.053c-0.833-3.238-2.108-4.709-4.708-4.709
		c-2.6,0-3.565,1.467-4.708,4.709l-1.203,3.07c-0.599,1.73,1.731,2.463,2.283,1.58c0.552-0.883,1.545-3.2,2.207-2.428
		c0.663,0.771,1.766,1.654,2.374,0.826c0.606-0.826,1.931-2.705,2.704-1.601C805.143,210.24,805.374,210.682,806.39,210.736z"/>
</g>
<g>
	<g>
		<g>
			<g>
				<path fill="#77BA8E" d="M764.202,183.389c0-0.061,0.016-0.121,0.048-0.176l1.329-2.305c0.063-0.108,0.18-0.176,0.306-0.176h2.66
					c0.126,0,0.242,0.065,0.306,0.176l1.329,2.305c0.063,0.107,0.063,0.242,0,0.352l-1.329,2.306
					c-0.063,0.106-0.18,0.176-0.306,0.176h-2.66c-0.126,0-0.243-0.065-0.306-0.176l-1.329-2.306
					C764.218,183.51,764.202,183.449,764.202,183.389z"/>
			</g>
		</g>
		<g>
			<g>
				<path fill="#77BA8E" d="M755.226,183.389c0-0.061,0.016-0.121,0.048-0.176l1.329-2.305c0.063-0.108,0.18-0.176,0.306-0.176h2.66
					c0.126,0,0.242,0.065,0.306,0.176l1.33,2.305c0.063,0.107,0.063,0.242,0,0.352l-1.33,2.306
					c-0.063,0.106-0.179,0.176-0.306,0.176h-2.66c-0.126,0-0.243-0.065-0.306-0.176l-1.329-2.306
					C755.242,183.51,755.226,183.449,755.226,183.389z"/>
			</g>
		</g>
		<g>
			<g>
				<path fill="#77BA8E" d="M762.727,181.912c-0.061,0-0.122-0.016-0.177-0.047l-2.303-1.33c-0.109-0.062-0.176-0.18-0.176-0.305
					v-2.66c0-0.127,0.067-0.242,0.176-0.305l2.303-1.33c0.109-0.062,0.243-0.062,0.353,0l2.303,1.33
					c0.109,0.062,0.176,0.178,0.176,0.305v2.66c0,0.125-0.067,0.242-0.176,0.305l-2.303,1.33
					C762.848,181.896,762.787,181.912,762.727,181.912z"/>
			</g>
		</g>
		<g>
			<g>
				<path fill="#77BA8E" d="M762.727,190.889c-0.061,0-0.122-0.017-0.177-0.048l-2.303-1.329c-0.109-0.062-0.176-0.18-0.176-0.307
					v-2.658c0-0.127,0.067-0.242,0.176-0.307l2.303-1.329c0.109-0.063,0.243-0.063,0.353,0l2.303,1.329
					c0.109,0.062,0.176,0.18,0.176,0.307v2.658c0,0.127-0.067,0.243-0.176,0.307l-2.303,1.329
					C762.848,190.872,762.787,190.889,762.727,190.889z"/>
			</g>
		</g>
	</g>
	<circle fill="#7AD69C" cx="762.727" cy="183.39" r="2.917"/>
</g>
<g>
	<g>
		<g>
			<g>
				<path fill="#77BA8E" d="M880.53,276.443c0-0.062,0.017-0.121,0.048-0.176l1.329-2.305c0.062-0.107,0.18-0.177,0.306-0.177h2.66
					c0.125,0,0.241,0.065,0.305,0.177l1.33,2.305c0.062,0.107,0.062,0.241,0,0.354l-1.33,2.303c-0.062,0.109-0.18,0.176-0.305,0.176
					h-2.66c-0.126,0-0.242-0.064-0.306-0.176l-1.329-2.303C880.547,276.566,880.53,276.505,880.53,276.443z"/>
			</g>
		</g>
		<g>
			<g>
				<path fill="#77BA8E" d="M871.555,276.443c0-0.062,0.018-0.121,0.048-0.176l1.329-2.305c0.063-0.107,0.182-0.177,0.308-0.177
					h2.659c0.127,0,0.24,0.065,0.307,0.177l1.329,2.305c0.062,0.107,0.062,0.241,0,0.354l-1.329,2.303
					c-0.064,0.109-0.18,0.176-0.307,0.176h-2.659c-0.126,0-0.242-0.064-0.308-0.176l-1.329-2.303
					C871.57,276.566,871.555,276.505,871.555,276.443z"/>
			</g>
		</g>
		<g>
			<g>
				<path fill="#77BA8E" d="M879.055,274.969c-0.061,0-0.121-0.016-0.176-0.048l-2.304-1.329c-0.108-0.062-0.176-0.18-0.176-0.307
					v-2.658c0-0.127,0.065-0.242,0.176-0.307l2.304-1.329c0.109-0.063,0.242-0.063,0.354,0l2.304,1.329
					c0.107,0.062,0.177,0.18,0.177,0.307v2.658c0,0.127-0.066,0.242-0.177,0.307l-2.304,1.329
					C879.177,274.953,879.115,274.969,879.055,274.969z"/>
			</g>
		</g>
		<g>
			<g>
				<path fill="#77BA8E" d="M879.055,283.943c-0.061,0-0.121-0.018-0.176-0.047l-2.304-1.33c-0.108-0.062-0.176-0.18-0.176-0.305
					v-2.66c0-0.127,0.065-0.242,0.176-0.307l2.304-1.33c0.109-0.062,0.242-0.062,0.354,0l2.304,1.33
					c0.107,0.062,0.177,0.18,0.177,0.307v2.66c0,0.125-0.066,0.24-0.177,0.305l-2.304,1.33
					C879.177,283.928,879.115,283.943,879.055,283.943z"/>
			</g>
		</g>
	</g>
	<circle fill="#7AD69C" cx="879.056" cy="276.442" r="2.917"/>
</g>
<g>
	<g>
		<g>
			<g>
				<path fill="#77BA8E" d="M1209.025,271.922c0-0.061,0.017-0.121,0.048-0.176l1.33-2.303c0.062-0.109,0.18-0.178,0.305-0.178h2.66
					c0.126,0,0.242,0.066,0.306,0.178l1.329,2.303c0.063,0.109,0.063,0.243,0,0.354l-1.329,2.303
					c-0.062,0.109-0.18,0.178-0.306,0.178h-2.66c-0.125,0-0.242-0.064-0.305-0.178l-1.33-2.303
					C1209.042,272.045,1209.025,271.982,1209.025,271.922z"/>
			</g>
		</g>
		<g>
			<g>
				<path fill="#77BA8E" d="M1200.051,271.922c0-0.061,0.018-0.121,0.047-0.176l1.33-2.303c0.062-0.109,0.182-0.178,0.307-0.178
					h2.658c0.127,0,0.242,0.066,0.308,0.178l1.329,2.303c0.062,0.109,0.062,0.243,0,0.354l-1.329,2.303
					c-0.063,0.109-0.18,0.178-0.308,0.178h-2.658c-0.125,0-0.242-0.064-0.307-0.178l-1.33-2.303
					C1200.066,272.045,1200.051,271.982,1200.051,271.922z"/>
			</g>
		</g>
		<g>
			<g>
				<path fill="#77BA8E" d="M1207.551,270.447c-0.061,0-0.122-0.016-0.177-0.049l-2.304-1.328c-0.108-0.063-0.178-0.18-0.178-0.307
					v-2.658c0-0.127,0.067-0.242,0.178-0.309l2.304-1.329c0.108-0.062,0.243-0.062,0.353,0l2.306,1.329
					c0.106,0.062,0.177,0.182,0.177,0.309v2.658c0,0.127-0.068,0.241-0.177,0.307l-2.306,1.328
					C1207.673,270.432,1207.611,270.447,1207.551,270.447z"/>
			</g>
		</g>
		<g>
			<g>
				<path fill="#77BA8E" d="M1207.551,279.422c-0.061,0-0.122-0.016-0.177-0.047l-2.304-1.33c-0.108-0.062-0.178-0.179-0.178-0.305
					v-2.66c0-0.126,0.067-0.242,0.178-0.305l2.304-1.33c0.108-0.062,0.243-0.062,0.353,0l2.306,1.33
					c0.106,0.062,0.177,0.179,0.177,0.305v2.66c0,0.126-0.068,0.242-0.177,0.305l-2.306,1.33
					C1207.673,279.406,1207.611,279.422,1207.551,279.422z"/>
			</g>
		</g>
	</g>
	<circle fill="#7AD69C" cx="1207.551" cy="271.922" r="2.917"/>
</g>
<g>
	<g>
		<g>
			<g>
				<path fill="#77BA8E" d="M928.382,30.388c0-0.068,0.021-0.136,0.054-0.197l1.492-2.585c0.07-0.123,0.201-0.198,0.342-0.198h2.985
					c0.142,0,0.271,0.076,0.343,0.198l1.492,2.585c0.07,0.122,0.07,0.272,0,0.396l-1.492,2.585
					c-0.069,0.122-0.201,0.197-0.343,0.197h-2.985c-0.141,0-0.271-0.075-0.342-0.197l-1.492-2.585
					C928.4,30.525,928.382,30.457,928.382,30.388z"/>
			</g>
		</g>
		<g>
			<g>
				<path fill="#77BA8E" d="M918.31,30.388c0-0.068,0.021-0.136,0.056-0.197l1.492-2.585c0.068-0.123,0.199-0.198,0.342-0.198h2.983
					c0.144,0,0.271,0.076,0.345,0.198l1.49,2.585c0.07,0.122,0.07,0.272,0,0.396l-1.49,2.585c-0.071,0.122-0.201,0.197-0.345,0.197
					h-2.983c-0.143,0-0.271-0.075-0.342-0.197l-1.492-2.585C918.328,30.525,918.31,30.457,918.31,30.388z"/>
			</g>
		</g>
		<g>
			<g>
				<path fill="#77BA8E" d="M926.727,28.732c-0.066,0-0.137-0.018-0.196-0.053l-2.585-1.492c-0.122-0.071-0.197-0.201-0.197-0.343
					V23.86c0-0.142,0.075-0.272,0.197-0.343l2.585-1.492c0.122-0.071,0.271-0.071,0.396,0l2.585,1.492
					c0.122,0.071,0.198,0.201,0.198,0.343v2.984c0,0.142-0.076,0.272-0.198,0.343l-2.585,1.492
					C926.863,28.715,926.795,28.732,926.727,28.732z"/>
			</g>
		</g>
		<g>
			<g>
				<path fill="#77BA8E" d="M926.727,38.805c-0.066,0-0.137-0.018-0.196-0.053l-2.585-1.492c-0.122-0.071-0.197-0.201-0.197-0.343
					v-2.984c0-0.142,0.075-0.272,0.197-0.343l2.585-1.492c0.122-0.071,0.271-0.071,0.396,0l2.585,1.492
					c0.122,0.071,0.198,0.201,0.198,0.343v2.984c0,0.142-0.076,0.272-0.198,0.343l-2.585,1.492
					C926.863,38.787,926.795,38.805,926.727,38.805z"/>
			</g>
		</g>
	</g>
	<circle fill="#7AD69C" cx="926.727" cy="30.388" r="3.273"/>
</g>
<g>
	<g>
		<g>
			<g>
				<path fill="#77BA8E" d="M1262.051,36.269c0-0.061,0.019-0.122,0.048-0.176l1.33-2.304c0.062-0.109,0.182-0.176,0.307-0.176
					h2.659c0.125,0,0.241,0.067,0.307,0.176l1.329,2.304c0.062,0.109,0.062,0.243,0,0.353l-1.329,2.303
					c-0.063,0.109-0.182,0.176-0.307,0.176h-2.659c-0.125,0-0.242-0.067-0.307-0.176l-1.33-2.303
					C1262.067,36.391,1262.051,36.33,1262.051,36.269z"/>
			</g>
		</g>
		<g>
			<g>
				<path fill="#77BA8E" d="M1253.076,36.269c0-0.061,0.016-0.122,0.047-0.176l1.33-2.304c0.062-0.109,0.18-0.176,0.305-0.176h2.66
					c0.126,0,0.242,0.067,0.306,0.176l1.329,2.304c0.063,0.109,0.063,0.243,0,0.353l-1.329,2.303
					c-0.062,0.109-0.18,0.176-0.306,0.176h-2.66c-0.125,0-0.242-0.067-0.305-0.176l-1.33-2.303
					C1253.092,36.391,1253.076,36.33,1253.076,36.269z"/>
			</g>
		</g>
		<g>
			<g>
				<path fill="#77BA8E" d="M1260.576,34.793c-0.062,0-0.122-0.016-0.177-0.047l-2.306-1.33c-0.106-0.063-0.176-0.179-0.176-0.306
					v-2.659c0-0.126,0.067-0.242,0.176-0.306l2.306-1.33c0.106-0.063,0.241-0.063,0.353,0l2.304,1.33
					c0.108,0.063,0.179,0.179,0.179,0.306v2.659c0,0.126-0.068,0.243-0.179,0.306l-2.304,1.33
					C1260.698,34.778,1260.637,34.793,1260.576,34.793z"/>
			</g>
		</g>
		<g>
			<g>
				<path fill="#77BA8E" d="M1260.576,43.769c-0.062,0-0.122-0.016-0.177-0.047l-2.306-1.33c-0.106-0.063-0.176-0.179-0.176-0.306
					v-2.659c0-0.126,0.067-0.243,0.176-0.306l2.306-1.33c0.106-0.063,0.241-0.063,0.353,0l2.304,1.33
					c0.108,0.063,0.179,0.179,0.179,0.306v2.659c0,0.126-0.068,0.242-0.179,0.306l-2.304,1.33
					C1260.698,43.753,1260.637,43.769,1260.576,43.769z"/>
			</g>
		</g>
	</g>
	<circle fill="#7AD69C" cx="1260.576" cy="36.269" r="2.917"/>
</g>
<g>
	<g>
		<g>
			<g>
				<path fill="#77BA8E" d="M1467.002,153.844c0-0.061,0.018-0.121,0.049-0.176l1.329-2.303c0.062-0.109,0.179-0.178,0.305-0.178
					h2.66c0.126,0,0.242,0.066,0.308,0.178l1.33,2.303c0.062,0.109,0.062,0.243,0,0.354l-1.33,2.305
					c-0.063,0.107-0.182,0.176-0.308,0.176h-2.66c-0.126,0-0.24-0.064-0.305-0.176l-1.329-2.305
					C1467.019,153.967,1467.002,153.904,1467.002,153.844z"/>
			</g>
		</g>
		<g>
			<g>
				<path fill="#77BA8E" d="M1458.027,153.844c0-0.061,0.016-0.121,0.048-0.176l1.329-2.303c0.062-0.109,0.18-0.178,0.305-0.178
					h2.66c0.126,0,0.242,0.066,0.306,0.178l1.329,2.303c0.062,0.109,0.062,0.243,0,0.354l-1.329,2.305
					c-0.062,0.107-0.18,0.176-0.306,0.176h-2.66c-0.125,0-0.242-0.064-0.305-0.176l-1.329-2.305
					C1458.043,153.967,1458.027,153.904,1458.027,153.844z"/>
			</g>
		</g>
		<g>
			<g>
				<path fill="#77BA8E" d="M1465.527,152.369c-0.062,0-0.122-0.016-0.179-0.049l-2.304-1.328c-0.107-0.062-0.176-0.18-0.176-0.307
					v-2.661c0-0.126,0.065-0.242,0.176-0.306l2.304-1.33c0.108-0.063,0.243-0.063,0.354,0l2.304,1.33
					c0.108,0.063,0.177,0.18,0.177,0.306v2.661c0,0.127-0.066,0.241-0.177,0.307l-2.304,1.328
					C1465.649,152.354,1465.588,152.369,1465.527,152.369z"/>
			</g>
		</g>
		<g>
			<g>
				<path fill="#77BA8E" d="M1465.527,161.344c-0.062,0-0.122-0.016-0.179-0.047l-2.304-1.33c-0.107-0.062-0.176-0.179-0.176-0.305
					v-2.66c0-0.126,0.065-0.242,0.176-0.305l2.304-1.33c0.108-0.062,0.243-0.062,0.354,0l2.304,1.33
					c0.108,0.062,0.177,0.179,0.177,0.305v2.66c0,0.126-0.066,0.242-0.177,0.305l-2.304,1.33
					C1465.649,161.328,1465.588,161.344,1465.527,161.344z"/>
			</g>
		</g>
	</g>
	<circle fill="#7AD69C" cx="1465.527" cy="153.844" r="2.917"/>
</g>
<g>
	<g>
		<g>
			<g>
				<path fill="#77BA8E" d="M518.475,162.662c0-0.061,0.016-0.122,0.048-0.176l1.329-2.305c0.063-0.108,0.18-0.178,0.306-0.178h2.66
					c0.126,0,0.242,0.066,0.306,0.178l1.329,2.305c0.063,0.106,0.063,0.242,0,0.352l-1.329,2.305
					c-0.063,0.107-0.18,0.176-0.306,0.176h-2.66c-0.126,0-0.243-0.066-0.306-0.176l-1.329-2.305
					C518.491,162.783,518.475,162.723,518.475,162.662z"/>
			</g>
		</g>
		<g>
			<g>
				<path fill="#77BA8E" d="M509.5,162.662c0-0.061,0.016-0.122,0.048-0.176l1.329-2.305c0.063-0.108,0.18-0.178,0.306-0.178h2.66
					c0.126,0,0.242,0.066,0.306,0.178l1.33,2.305c0.063,0.106,0.063,0.242,0,0.352l-1.33,2.305
					c-0.063,0.107-0.179,0.176-0.306,0.176h-2.66c-0.126,0-0.243-0.066-0.306-0.176l-1.329-2.305
					C509.516,162.783,509.5,162.723,509.5,162.662z"/>
			</g>
		</g>
		<g>
			<g>
				<path fill="#77BA8E" d="M517,161.186c-0.061,0-0.122-0.016-0.177-0.047l-2.303-1.33c-0.109-0.062-0.176-0.179-0.176-0.305v-2.66
					c0-0.126,0.067-0.242,0.176-0.305l2.303-1.33c0.109-0.062,0.243-0.062,0.353,0l2.303,1.33c0.109,0.062,0.176,0.179,0.176,0.305
					v2.66c0,0.126-0.067,0.242-0.176,0.305l-2.303,1.33C517.122,161.17,517.061,161.186,517,161.186z"/>
			</g>
		</g>
		<g>
			<g>
				<path fill="#77BA8E" d="M517,170.162c-0.061,0-0.122-0.018-0.177-0.048l-2.303-1.329c-0.109-0.062-0.176-0.18-0.176-0.307
					v-2.658c0-0.127,0.067-0.243,0.176-0.307l2.303-1.33c0.109-0.062,0.243-0.062,0.353,0l2.303,1.33
					c0.109,0.062,0.176,0.18,0.176,0.307v2.658c0,0.127-0.067,0.242-0.176,0.307l-2.303,1.329
					C517.122,170.146,517.061,170.162,517,170.162z"/>
			</g>
		</g>
	</g>
	<circle fill="#7AD69C" cx="517" cy="162.662" r="2.917"/>
</g>
<g>
	<g>
		<g>
			<g>
				<path fill="#77BA8E" d="M545.475,73.388c0-0.061,0.016-0.122,0.048-0.176l1.329-2.304c0.063-0.109,0.18-0.176,0.306-0.176h2.66
					c0.126,0,0.242,0.067,0.306,0.176l1.329,2.304c0.063,0.109,0.063,0.243,0,0.353l-1.329,2.303
					c-0.063,0.109-0.18,0.176-0.306,0.176h-2.66c-0.126,0-0.243-0.067-0.306-0.176l-1.329-2.303
					C545.491,73.51,545.475,73.449,545.475,73.388z"/>
			</g>
		</g>
		<g>
			<g>
				<path fill="#77BA8E" d="M536.5,73.388c0-0.061,0.016-0.122,0.048-0.176l1.329-2.304c0.063-0.109,0.18-0.176,0.306-0.176h2.66
					c0.126,0,0.242,0.067,0.306,0.176l1.33,2.304c0.063,0.109,0.063,0.243,0,0.353l-1.33,2.303
					c-0.063,0.109-0.179,0.176-0.306,0.176h-2.66c-0.126,0-0.243-0.067-0.306-0.176l-1.329-2.303
					C536.516,73.51,536.5,73.449,536.5,73.388z"/>
			</g>
		</g>
		<g>
			<g>
				<path fill="#77BA8E" d="M544,71.913c-0.061,0-0.122-0.016-0.177-0.047l-2.303-1.33c-0.109-0.063-0.176-0.179-0.176-0.306v-2.659
					c0-0.126,0.067-0.243,0.176-0.306l2.303-1.33c0.109-0.063,0.243-0.063,0.353,0l2.303,1.33c0.109,0.063,0.176,0.179,0.176,0.306
					v2.659c0,0.126-0.067,0.243-0.176,0.306l-2.303,1.33C544.122,71.897,544.061,71.913,544,71.913z"/>
			</g>
		</g>
		<g>
			<g>
				<path fill="#77BA8E" d="M544,80.888c-0.061,0-0.122-0.016-0.177-0.047l-2.303-1.33c-0.109-0.062-0.176-0.179-0.176-0.306v-2.659
					c0-0.126,0.067-0.243,0.176-0.306l2.303-1.33c0.109-0.063,0.243-0.063,0.353,0l2.303,1.33c0.109,0.063,0.176,0.179,0.176,0.306
					v2.659c0,0.126-0.067,0.242-0.176,0.306l-2.303,1.33C544.122,80.872,544.061,80.888,544,80.888z"/>
			</g>
		</g>
	</g>
	<circle fill="#7AD69C" cx="544" cy="73.388" r="2.917"/>
</g>
<g>
	<circle fill="#FFFFFF" stroke="#FFFFFF" stroke-width="30" stroke-miterlimit="10" cx="1000" cy="140.389" r="85"/>
</g>
</svg>
