<?xml version="1.0" encoding="utf-8"?>
<!-- Generator: Adobe Illustrator 16.0.0, SVG Export Plug-In . SVG Version: 6.00 Build 0)  -->
<!DOCTYPE svg PUBLIC "-//W3C//DTD SVG 1.1//EN" "http://www.w3.org/Graphics/SVG/1.1/DTD/svg11.dtd">
<svg version="1.1" id="Layer_1" xmlns="http://www.w3.org/2000/svg" xmlns:xlink="http://www.w3.org/1999/xlink" x="0px" y="0px"
	 width="990px" height="1150px" viewBox="0 0 990 1150" enable-background="new 0 0 990 1150" xml:space="preserve">
<rect y="0" fill="#60A089" width="990" height="1150"/>
<path fill="#3D859F" d="M90.875,504.533c-0.969-0.558-1.965-1.127-2.926-1.678c-4.413-2.531-5.947-3.06-13.475-3.06
	c-2.759,0-16.33,0-32.676,0c-8.095-0.014-14.347-1.762-21.444-5.859c-4.268-2.465-7.293-4.187-11.671-6.703
	c-5.446-3.132-8.068-6.786-8.683-12.042v243.842c10.276,0,20.04,0,22.836,0c5.158,0,8.065-0.445,12.306-2.881
	c1.696-0.971,2.6-1.492,4.029-2.316c3.676-2.123,5.566-3.07,5.566-9.836c0-6.764,0-18.18,0-23.252c0-5.074,0.812-5.682,4.704-7.914
	c1.625-0.932,3.37-1.936,4.703-2.707c3.378-1.949,5.391-2.387,10.888-2.387c5.496,0,7.779,0,11.274,0
	c6.201,0,7.224-0.117,13.104-3.506c1.206-0.695,2.418-1.389,3.454-1.984c3.669-2.107,4.638-3.082,4.638-8.344
	c0-5.26,0-133.104,0-139.229C97.501,508.553,96.523,507.781,90.875,504.533z"/>
<path fill="#3D859F" d="M18.852,260.777c4.417-2.167,8.5-2.723,16.333-2.723h136.866c6.726,0,8.661-1.249,12.56-3.494
	s4.498-2.48,7.147-4.105c4.652-2.852,7.611-5.018,7.611-12.324c0-4.631,0-42.514,0-48.018s-2.656-9.397-7.763-12.358
	c-1.893-1.098-4.186-2.499-6.397-3.696c-7.378-3.992-8.815-4.014-16.753-4.014c-0.625,0.001-2.067,0.001-3.755,0.001
	c-7.683,0-9.12-0.354-16.486-4.511c-1.895-1.068-4.439-2.568-6.816-3.917c-5.818-3.302-7.131-3.989-7.131-10.239v-40.375
	c0-4.833-1.938-6-7.457-9.28s-1.202-0.719-5.772-3.386c-4.57-2.668-7.104-4.285-13.604-4.285H47.352
	c-6.51,0-8.75-0.444-17.083-5.283C26.244,86.432,12.813,78.698,0,71.324v158.064v42.26C7.775,267.154,17.648,261.462,18.852,260.777
	z"/>
<g>
	<path fill="#3D859F" d="M990,217.347c-1.075,1.275-2.442,2.2-3.902,3.049c-3.427,1.993-6.146,3.499-8.008,4.573
		c-3.669,2.117-7.95,4.111-14.617,4.111h-14.5c-5.667,0-10.031-1.217-14.991-4.08c-2.971-1.716-5.076-2.914-8.124-4.666
		c-4.39-2.524-6.147-5.532-6.147-10.199s0-3.086,0-9.166s-2.649-8.924-8.868-12.5c-8.565-4.926-20.479-11.837-23.678-13.685
		c-4.717-2.724-7.877-2.896-12.4-0.29c-6.161,3.549-20.209,11.607-24.456,14.047c-5.497,3.156-8.596,6.254-8.596,12.348v28.083
		c0,8.487,2.264,12.294,8.563,15.905c5.245,3.006,14.389,8.267,17.143,9.846c6.062,3.474,12.234,5.941,23.704,5.941h42.019
		c12,0,17.446,0.322,22.343,3.137c1.71,0.982,29.786,17.192,34.517,19.92V217.347z"/>
	<path fill="#3D859F" d="M986.494,96.785c-1.469,0.848-15.29,8.844-17.646,10.223c-2.822,1.651-5.367,3.446-5.367,7.821
		s-0.129,14.883-0.129,18.445c0,4.875,3.108,6.595,5.395,7.907c2.824,1.622,16.902,9.743,18.804,10.836
		c0.99,0.568,1.797,1.149,2.45,1.795v-59.81C989.049,95.084,987.858,95.998,986.494,96.785z"/>
</g>
<path fill="#60A089" d="M67.557,568.448c1.941-1.12,6.303-3.637,8.916-5.146c1.925-1.11,2.503-1.479,2.503-4.417s0-11.75,0-14.541
	c0-2.792-1.887-3.951-3.763-5.042c-3.381-1.965-7.849-4.548-9.137-5.292c-2.993-1.729-5.292-1.67-8.189-0.002
	c-1.273,0.732-5.933,3.328-9.355,5.294c-1.947,1.118-3.692,2.425-3.692,5.042c0,0,0,11.729,0,14.572s1.053,3.539,2.561,4.396
	c2.667,1.516,6.756,3.846,8.969,5.135C60.439,570.818,63.327,570.889,67.557,568.448z"/>
<g>
	<path fill="#3D859F" d="M990,355.802c-10.191,0-19.829,0-22.604,0c-5.158,0-8.065,0.445-12.307,2.881
		c-1.695,0.972-2.6,1.493-4.028,2.317c-3.677,2.122-5.565,3.07-5.565,9.835s0,18.18,0,23.253c0,5.074-0.812,5.682-4.704,7.913
		c-1.625,0.932-3.37,1.937-4.702,2.707c-2.747,1.585-4.591,2.17-8.137,2.334c-12.919-0.001-29.923-0.001-36.968-0.001
		c-10.452,0-12.182,3.05-16.282,10.153c-0.609,1.056-1.746,3.033-3.05,5.305c-3.16,5.501-7.303,12.721-7.303,24.791
		s0,44.329,0,49.487s0.445,8.065,2.881,12.307c0.972,1.695,1.493,2.6,2.317,4.028c2.122,3.677,3.07,5.565,9.835,5.565
		s18.18,0,23.253,0c5.074,0,5.682,0.812,7.913,4.704c0.932,1.625,1.937,3.37,2.707,4.702c1.95,3.379,2.387,5.392,2.387,10.889
		c0,5.496,0,7.779,0,11.273c0,4.628,0,9.563,0,12.435c0,5.781-1.137,7.012-10.307,12.43c-3.282,1.875-6.842,3.909-9.534,5.448
		c-6.628,3.787-9.873,5.922-9.873,14.34c0,4.91,0,17.982-0.001,30.096c-1.026,18.457-15.987,16.219-15.987,16.219
		c-11.47,0-17.643,2.467-23.704,5.941c-2.754,1.578-11.897,6.84-17.143,9.846c-6.3,3.611-8.563,7.418-8.563,15.904v28.084
		c0,6.094,3.099,9.191,8.596,12.348c4.247,2.439,18.295,10.498,24.456,14.047c4.523,2.605,7.684,2.434,12.4-0.291
		c3.199-1.848,15.112-8.758,23.678-13.684c6.219-3.576,8.868-6.42,8.868-12.5s0-4.5,0-9.166c0-4.668,1.758-7.676,6.147-10.199
		c3.048-1.752,5.153-2.951,8.124-4.666c4.96-2.863,9.324-4.08,14.991-4.08h14.5l-0.009-0.01c8.577,0,32.427,0,47.718,0V355.802z"/>
</g>
<path fill="#3D859F" d="M990,840.039c-1.527,3.361-4.37,4.996-8.773,7.539c-1.056,0.609-3.033,1.746-5.305,3.049
	c-5.352,3.074-12.345,7.068-23.834,7.283c-9.986,0-19.114,0-23.582,0c-12.07,0-19.29,4.143-24.791,7.303
	c-2.271,1.303-4.249,2.439-5.305,3.049c-7.104,4.102-10.153,5.83-10.153,16.283c0,10.451,0.001,42.838,0.001,51.254
	c0,8.418,3.245,10.553,9.873,14.34c3.142,1.795,7.469,4.268,11.151,6.373c4.089,2.336,8.288,4.219,16.051,4.219
	c1.143,0,6.742,0,14.921,0c3.574,0.205,4.283,1.248,6.242,4.664c0.932,1.625,1.937,3.369,2.707,4.701
	c1.95,3.379,2.387,5.393,2.387,10.889s0,60.74,0,64.234c0,6.201,0.118,7.225,3.506,13.104c0.695,1.207,1.39,2.42,1.984,3.455
	c2.107,3.668,3.083,4.637,8.344,4.637s16.688,0,22.813,0c0.648,0,1.226-0.014,1.763-0.039V840.039z"/>
<path fill="#3D859F" d="M189.851,909.6c-1.334-0.766-2.897-1.662-4.452-2.559c-7.578-4.365-8.897-4.518-16.89-4.518
	c-4.503,0-7.446,0-14.529,0c-7.085,0-9.679-0.562-14.034-3.076c-1.717-0.992-3.966-2.289-6.061-3.488
	c-5.016-2.877-6.062-3.66-6.062-10.199s0-53.258,0-61.977s-2.435-9.941-7.173-12.676c-1.842-1.062-3.007-1.734-5.191-2.986
	c-5.467-3.139-9.214-3.713-15.861-3.713c-3.701,0-53.493,0-99.597,0v199.52c3.792-3.49,8.82-6.383,15.212-10.072
	c2.543-1.469,7.305-4.205,12.775-7.346c13.061-7.502,30.15-17.297,58.483-17.574c41.905,0.002,76.079,0.002,79.68,0.002
	c9.701,0,11.68-0.682,17.366-3.943c1.239-0.711,2.522-1.445,3.771-2.164c7.279-4.186,8.54-5.182,8.54-13.074
	c0-7.895,0-22.623,0-29.402C195.828,913.572,194.579,912.316,189.851,909.6z"/>
<path fill="#60A089" d="M177.313,242.253c1.941-1.12,6.303-3.637,8.916-5.146c1.925-1.11,2.503-1.479,2.503-4.417s0-11.75,0-14.541
	c0-2.792-1.887-3.951-3.763-5.042c-3.381-1.965-7.849-4.548-9.137-5.292c-2.993-1.729-5.292-1.67-8.189-0.002
	c-1.273,0.732-5.933,3.328-9.355,5.294c-1.947,1.118-3.692,2.425-3.692,5.042c0,0,0,11.729,0,14.572s1.053,3.539,2.561,4.396
	c2.667,1.516,6.756,3.846,8.969,5.135C170.195,244.624,173.083,244.695,177.313,242.253z"/>
<path fill="#60A089" d="M152.596,206.9c0.933-0.538,3.028-1.748,4.284-2.473c0.925-0.533,1.202-0.711,1.202-2.122s0-5.646,0-6.986
	s-0.906-1.898-1.808-2.423c-1.625-0.943-3.771-2.185-4.391-2.542c-1.438-0.831-2.542-0.803-3.935-0.001
	c-0.612,0.352-2.851,1.6-4.495,2.543c-0.936,0.537-1.774,1.166-1.774,2.423c0,0,0,5.636,0,7.001c0,1.367,0.506,1.701,1.231,2.113
	c1.281,0.729,3.246,1.848,4.309,2.467C149.176,208.039,150.563,208.073,152.596,206.9z"/>
<path fill="#60A089" d="M917.362,894.227c0.933-0.539,3.028-1.748,4.284-2.473c0.925-0.533,1.202-0.711,1.202-2.123
	c0-1.41,0-5.645,0-6.986c0-1.34-0.906-1.898-1.808-2.422c-1.625-0.943-3.771-2.186-4.391-2.543c-1.438-0.83-2.542-0.803-3.935,0
	c-0.612,0.352-2.851,1.6-4.495,2.543c-0.936,0.537-1.773,1.166-1.773,2.422c0,0,0,5.637,0,7.002c0,1.367,0.506,1.701,1.23,2.113
	c1.281,0.729,3.246,1.848,4.309,2.467C913.942,895.365,915.33,895.398,917.362,894.227z"/>
<path fill="#60A089" d="M103.701,152.882c-2.322-1.327-5.52-3.154-8.242-4.71c-3.022-1.728-6.125-3.119-11.864-3.119
	c-3.033,0-55.816-0.001-83.595-0.001v38.088c7.14,0,14.101,0,16,0c4.062,0,5.55,0.322,8.047,1.764
	c0.985,0.569,2.275,1.312,3.476,2.001c2.876,1.649,3.477,2.099,3.477,5.849s0,12.188,0,17.188s1.396,5.701,4.114,7.27
	c1.056,0.609,1.724,0.994,2.978,1.713c3.134,1.8,5.283,2.129,9.096,2.129s25.141,0,34.062,0s14.258-3.062,18.325-5.397
	c1.678-0.964,3.14-1.804,3.921-2.254c5.25-3.031,7.504-4.31,7.504-12.035s0-31.663,0-37.885S108.601,155.682,103.701,152.882z"/>
<g>
	<g>
		<path fill="#406F61" d="M52.653,556.085c3.224,0,3.224-5,0-5S49.429,556.085,52.653,556.085L52.653,556.085z"/>
	</g>
</g>
<g>
	<g>
		<path fill="#406F61" d="M64.153,558.085c3.224,0,3.224-5,0-5S60.929,558.085,64.153,558.085L64.153,558.085z"/>
	</g>
</g>
<g>
	<g>
		<path fill="#406F61" d="M63.153,546.085c3.224,0,3.224-5,0-5S59.929,546.085,63.153,546.085L63.153,546.085z"/>
	</g>
</g>
<g>
	<g>
		<path fill="#406F61" d="M217.604,372.949c3.224,0,3.224-5,0-5S214.38,372.949,217.604,372.949L217.604,372.949z"/>
	</g>
</g>
<g>
	<g>
		<path fill="#406F61" d="M229.104,374.949c3.224,0,3.224-5,0-5S225.88,374.949,229.104,374.949L229.104,374.949z"/>
	</g>
</g>
<g>
	<g>
		<path fill="#406F61" d="M228.104,362.949c3.224,0,3.224-5,0-5S224.88,362.949,228.104,362.949L228.104,362.949z"/>
	</g>
</g>
<g>
	<g>
		<path fill="#406F61" d="M205.605,657.936c3.224,0,3.224-5,0-5S202.381,657.936,205.605,657.936L205.605,657.936z"/>
	</g>
</g>
<g>
	<g>
		<path fill="#406F61" d="M217.105,659.936c3.224,0,3.224-5,0-5S213.881,659.936,217.105,659.936L217.105,659.936z"/>
	</g>
</g>
<g>
	<g>
		<path fill="#406F61" d="M216.105,647.936c3.224,0,3.224-5,0-5S212.881,647.936,216.105,647.936L216.105,647.936z"/>
	</g>
</g>
<g>
	<g>
		<path fill="#406F61" d="M820.075,370.449c3.225,0,3.225-5,0-5S816.851,370.449,820.075,370.449L820.075,370.449z"/>
	</g>
</g>
<g>
	<g>
		<path fill="#406F61" d="M831.575,372.449c3.225,0,3.225-5,0-5S828.351,372.449,831.575,372.449L831.575,372.449z"/>
	</g>
</g>
<g>
	<g>
		<path fill="#406F61" d="M830.575,360.449c3.225,0,3.225-5,0-5S827.351,360.449,830.575,360.449L830.575,360.449z"/>
	</g>
</g>
<g>
	<g>
		<path fill="#406F61" d="M737.58,481.443c3.225,0,3.225-5,0-5S734.355,481.443,737.58,481.443L737.58,481.443z"/>
	</g>
</g>
<g>
	<g>
		<path fill="#406F61" d="M749.08,483.443c3.225,0,3.225-5,0-5S745.855,483.443,749.08,483.443L749.08,483.443z"/>
	</g>
</g>
<g>
	<g>
		<path fill="#406F61" d="M748.08,471.443c3.225,0,3.225-5,0-5S744.855,471.443,748.08,471.443L748.08,471.443z"/>
	</g>
</g>
<g>
	<g>
		<path fill="#406F61" d="M620.586,628.436c3.225,0,3.225-5,0-5S617.361,628.436,620.586,628.436L620.586,628.436z"/>
	</g>
</g>
<g>
	<g>
		<path fill="#406F61" d="M632.086,630.436c3.225,0,3.225-5,0-5S628.861,630.436,632.086,630.436L632.086,630.436z"/>
	</g>
</g>
<g>
	<g>
		<path fill="#406F61" d="M631.086,618.436c3.225,0,3.225-5,0-5S627.861,618.436,631.086,618.436L631.086,618.436z"/>
	</g>
</g>
<g>
	<g>
		<g>
			<path fill="#406F61" d="M860.216,627.234c3.225,0,3.225-5,0-5S856.991,627.234,860.216,627.234L860.216,627.234z"/>
		</g>
	</g>
	<g>
		<g>
			<path fill="#406F61" d="M871.716,629.234c3.225,0,3.225-5,0-5S868.491,629.234,871.716,629.234L871.716,629.234z"/>
		</g>
	</g>
	<g>
		<g>
			<path fill="#406F61" d="M870.716,617.234c3.225,0,3.225-5,0-5S867.491,617.234,870.716,617.234L870.716,617.234z"/>
		</g>
	</g>
</g>
<g>
	<g>
		<path fill="#406F61" d="M769.078,844.426c3.225,0,3.225-5,0-5S765.854,844.426,769.078,844.426L769.078,844.426z"/>
	</g>
</g>
<g>
	<g>
		<path fill="#406F61" d="M780.578,846.426c3.225,0,3.225-5,0-5S777.354,846.426,780.578,846.426L780.578,846.426z"/>
	</g>
</g>
<g>
	<g>
		<path fill="#406F61" d="M779.578,834.426c3.225,0,3.225-5,0-5S776.354,834.426,779.578,834.426L779.578,834.426z"/>
	</g>
</g>
<g>
	<g>
		<path fill="#406F61" d="M598.586,954.918c3.225,0,3.225-5,0-5S595.361,954.918,598.586,954.918L598.586,954.918z"/>
	</g>
</g>
<g>
	<g>
		<path fill="#406F61" d="M610.086,956.918c3.225,0,3.225-5,0-5S606.861,956.918,610.086,956.918L610.086,956.918z"/>
	</g>
</g>
<g>
	<g>
		<path fill="#406F61" d="M609.086,944.918c3.225,0,3.225-5,0-5S605.861,944.918,609.086,944.918L609.086,944.918z"/>
	</g>
</g>
<g>
	<g>
		<path fill="#406F61" d="M70.667,697.887c3.224,0,3.224-5,0-5S67.443,697.887,70.667,697.887L70.667,697.887z"/>
	</g>
</g>
<g>
	<g>
		<path fill="#406F61" d="M82.167,699.887c3.224,0,3.224-5,0-5S78.943,699.887,82.167,699.887L82.167,699.887z"/>
	</g>
</g>
<g>
	<g>
		<path fill="#406F61" d="M81.167,687.887c3.224,0,3.224-5,0-5S77.943,687.887,81.167,687.887L81.167,687.887z"/>
	</g>
</g>
<path fill="#4A7E6C" d="M415.218,807.516c0,0,10.14,0,17.087,0c13.764,5.16,32.01,2.547,31.083-2.375s-4.624-19.482-4.624-19.482
	c-0.352-1.914-1.426-3.184-3.183-3.184s-2.721,1.176-3.183,3.184l-1.13,3.541c-0.548,1.502-1.21,2.703-2.702,2.703
	c-1.493,0-1.969-0.949-2.703-2.703l-7.787-18.76c0-2.047-1.658-3.705-3.705-3.705s-3.705,1.658-3.705,3.705l-4.864,16.211
	c0,2.047-1.659,3.705-3.705,3.705"/>
<path fill="#4A7E6C" d="M416.248,825.377c-2.777,0-5.889-0.51-5.889-0.51s-35.333,0-45.334,0c-7.999,6.25-25.333,3.668-24-3.416
	c1.334-7.084,6.656-28.043,6.656-28.043c0.506-2.756,2.051-4.58,4.58-4.58c2.53,0,3.916,1.691,4.581,4.58l1.627,5.098
	c0.788,2.16,1.741,3.891,3.89,3.891s2.832-1.367,3.891-3.891l7.99-20.389c1.535-3.188,2.387-5.332,5.332-5.332
	c2.946,0,3.891,1.832,5.334,5.332l7,23.334c0,2.945,2.389,5.334,5.334,5.334s5.333-2.389,5.333-5.334l9.667-30.666
	c1.223-3.48,2.388-5.334,5.333-5.334c2.946,0,4.015,1.916,5.333,5.334c0,0,12.248,38.787,14.739,45.486
	C440.137,822.969,430.322,825.377,416.248,825.377z"/>
<path fill="#4A7E6C" d="M415.42,820.682l-9.747-30.082c0-2.947-2.388-5.334-5.333-5.334s-5.334,2.387-5.334,5.334l-9.666,30.666
	C382.673,828.1,419.168,834.264,415.42,820.682z"/>
<g>
	<path fill="#60A089" d="M401.195,810.863c0-1.914-1.551-3.465-3.466-3.465s-3.466,1.551-3.466,3.465l-3.763,11.938l-5.102-15.744
		c0-1.916-1.551-3.467-3.466-3.467s-3.466,1.551-3.466,3.467l-5.083,16.123l-2.498-7.707c0-1.332-1.08-2.412-2.412-2.412
		s-2.412,1.08-2.412,2.412l-4.373,13.871l45.842,1.072L401.195,810.863z"/>
	<path fill="#60A089" d="M463.494,815.555l-4.408-13.607c0-1.332-1.08-2.412-2.413-2.412c-1.332,0-2.412,1.08-2.412,2.412
		l-2.104,6.674l-1.461-4.508c0-1.334-1.08-2.414-2.412-2.414s-2.412,1.08-2.412,2.414l-1.51,4.789l-2.868-8.85
		c0-1.332-1.08-2.412-2.413-2.412c-1.332,0-2.412,1.08-2.412,2.412l-4.373,13.871c-0.077,0.195-0.162,0.5-0.253,0.881l-0.833-2.572
		c0-1.332-1.08-2.412-2.413-2.412c-1.332,0-2.412,1.08-2.412,2.412l-2.639,8.369l-2.01-6.203c0-1.334-1.08-2.414-2.412-2.414
		s-2.412,1.08-2.412,2.414l-4.373,13.871l36.491,3.398L463.494,815.555z"/>
</g>
<path fill="#60A089" d="M359.252,829.277l-2.967-9.158c0-0.896-0.728-1.625-1.625-1.625c-0.896,0-1.623,0.729-1.623,1.625
	l-2.943,9.336C349.281,831.537,360.394,833.414,359.252,829.277z"/>
<path fill="#9DA7AE" d="M424,774.242c-0.662-1.875-1.094-3.457-1.094-3.457c-0.943-3.668-2.387-5.334-5.333-5.334
	c-2.945,0-4.423,1.729-5.333,5.334l-1.162,3.684c-0.678,1.961,1.76,2.586,2.385,1.586s1.75-3.625,2.5-2.75s2,1.875,2.688,0.938
	s2.188-3.062,3.062-1.812S422.85,774.18,424,774.242z"/>
<path fill="#9DA7AE" d="M384.906,778.117c-1.256-4.062-2.388-5.332-5.334-5.332c-2.945,0-3.922,1.832-5.332,5.332l-1.373,3.504
	c1.346,0.684,2.721-1.004,3.158-2.191s1.812,1,2.188,2.5s1.75,0.875,2.438-0.75s2.75-0.812,3.625,1.188
	c0.643,1.467,2.438,1.5,2.438,1.5L384.906,778.117z"/>
<path fill="#9DA7AE" d="M356.843,793.408c-0.665-2.889-2.051-4.58-4.581-4.58c-2.529,0-4.074,1.824-4.58,4.58
	c0,0-0.199,0.791-0.534,2.117c-0.413,1.633,1.004,0.551,1.712-0.783s1.346-2.588,1.416-1.416c0.25,4.166,1.852,5.523,2.5,3.791
	c0.75-2,1.896-4.062,2.562-2.562c0.667,1.5,1.23,2.074,2.438,1.938C357.525,795.408,356.843,793.408,356.843,793.408z"/>
<path fill="#4A7E6C" d="M806.772,306.887c0,0,10.14,0,17.087,0c13.764,5.16,32.01,2.547,31.083-2.375s-4.624-19.482-4.624-19.482
	c-0.352-1.914-1.426-3.184-3.183-3.184s-2.721,1.176-3.183,3.184l-1.13,3.541c-0.548,1.502-1.21,2.703-2.702,2.703
	c-1.493,0-1.969-0.949-2.703-2.703l-7.787-18.76c0-2.047-1.658-3.705-3.705-3.705s-3.705,1.658-3.705,3.705l-4.864,16.211
	c0,2.047-1.659,3.705-3.705,3.705"/>
<path fill="#4A7E6C" d="M807.803,324.749c-2.777,0-5.889-0.51-5.889-0.51s-35.333,0-45.334,0c-7.999,6.25-25.333,3.668-24-3.416
	c1.334-7.084,6.656-28.043,6.656-28.043c0.506-2.756,2.051-4.58,4.58-4.58c2.53,0,3.916,1.691,4.581,4.58l1.627,5.098
	c0.788,2.16,1.741,3.891,3.89,3.891s2.832-1.367,3.891-3.891l7.99-20.389c1.535-3.188,2.387-5.332,5.332-5.332
	c2.946,0,3.891,1.832,5.334,5.332l7,23.334c0,2.945,2.389,5.334,5.334,5.334s5.333-2.389,5.333-5.334l9.667-30.666
	c1.223-3.48,2.388-5.334,5.333-5.334c2.946,0,4.015,1.916,5.333,5.334c0,0,12.248,38.787,14.739,45.486
	C831.691,322.34,821.877,324.749,807.803,324.749z"/>
<path fill="#4A7E6C" d="M806.975,320.053l-9.747-30.082c0-2.947-2.388-5.334-5.333-5.334s-5.334,2.387-5.334,5.334l-9.666,30.666
	C774.228,327.471,810.723,333.635,806.975,320.053z"/>
<g>
	<path fill="#60A089" d="M792.75,310.235c0-1.914-1.551-3.465-3.466-3.465s-3.466,1.551-3.466,3.465l-3.764,11.938l-5.102-15.744
		c0-1.916-1.551-3.467-3.466-3.467s-3.466,1.551-3.466,3.467l-5.082,16.123l-2.498-7.707c0-1.332-1.08-2.412-2.412-2.412
		s-2.412,1.08-2.412,2.412l-4.373,13.871l45.842,1.072L792.75,310.235z"/>
	<path fill="#60A089" d="M855.049,314.926l-4.408-13.607c0-1.332-1.08-2.412-2.413-2.412c-1.332,0-2.412,1.08-2.412,2.412
		l-2.104,6.675l-1.461-4.509c0-1.334-1.08-2.414-2.412-2.414s-2.412,1.08-2.412,2.414l-1.51,4.79l-2.868-8.851
		c0-1.332-1.08-2.412-2.413-2.412c-1.332,0-2.412,1.08-2.412,2.412l-4.373,13.871c-0.076,0.196-0.162,0.501-0.254,0.881
		l-0.833-2.572c0-1.332-1.08-2.412-2.413-2.412c-1.332,0-2.412,1.08-2.412,2.412l-2.639,8.369l-2.01-6.203
		c0-1.334-1.08-2.414-2.412-2.414s-2.412,1.08-2.412,2.414l-4.373,13.871l36.491,3.398L855.049,314.926z"/>
</g>
<path fill="#60A089" d="M750.807,328.649l-2.967-9.158c0-0.896-0.728-1.625-1.625-1.625c-0.896,0-1.623,0.729-1.623,1.625
	l-2.943,9.336C740.836,330.909,751.948,332.786,750.807,328.649z"/>
<path fill="#9DA7AE" d="M815.555,273.614c-0.662-1.875-1.094-3.457-1.094-3.457c-0.943-3.668-2.387-5.334-5.333-5.334
	c-2.945,0-4.423,1.729-5.333,5.334l-1.162,3.684c-0.678,1.961,1.76,2.586,2.385,1.586s1.75-3.625,2.5-2.75s2,1.875,2.688,0.938
	s2.188-3.062,3.062-1.812S814.404,273.551,815.555,273.614z"/>
<path fill="#9DA7AE" d="M776.461,277.489c-1.256-4.062-2.388-5.332-5.334-5.332c-2.945,0-3.922,1.832-5.332,5.332l-1.373,3.504
	c1.346,0.684,2.721-1.004,3.158-2.191s1.812,1,2.188,2.5s1.75,0.875,2.438-0.75s2.75-0.812,3.625,1.188
	c0.643,1.467,2.438,1.5,2.438,1.5L776.461,277.489z"/>
<path fill="#9DA7AE" d="M748.397,292.78c-0.665-2.889-2.051-4.58-4.581-4.58c-2.529,0-4.074,1.824-4.58,4.58
	c0,0-0.199,0.791-0.534,2.117c-0.413,1.633,1.004,0.551,1.712-0.783s1.346-2.588,1.416-1.416c0.25,4.166,1.852,5.523,2.5,3.791
	c0.75-2,1.896-4.062,2.562-2.562c0.667,1.5,1.23,2.074,2.438,1.938C749.08,294.78,748.397,292.78,748.397,292.78z"/>
<path fill="#4A7E6C" d="M228.171,101.923l-9.748-30.082c0-2.945-2.387-5.332-5.333-5.332c-2.945,0-5.333,2.387-5.333,5.332
	l-9.667,30.668C195.424,109.341,231.919,115.505,228.171,101.923z"/>
<path fill="#9DA7AE" d="M219.501,74.986c-0.662-1.875-1.094-3.457-1.094-3.457c-0.943-3.668-2.388-5.334-5.334-5.334
	c-2.944,0-4.422,1.729-5.333,5.334l-1.161,3.684c-0.678,1.961,1.76,2.586,2.385,1.586s1.75-3.625,2.5-2.75s2,1.875,2.688,0.938
	s2.188-3.062,3.062-1.812S218.351,74.923,219.501,74.986z"/>
<path fill="#4A7E6C" d="M97.678,194.919l-9.748-30.082c0-2.945-2.387-5.332-5.333-5.332c-2.945,0-5.333,2.387-5.333,5.332
	l-9.667,30.668C64.93,202.337,101.426,208.501,97.678,194.919z"/>
<path fill="#9DA7AE" d="M89.008,167.982c-0.662-1.875-1.094-3.457-1.094-3.457c-0.943-3.668-2.388-5.334-5.334-5.334
	c-2.944,0-4.422,1.729-5.333,5.334l-1.161,3.684c-0.678,1.961,1.76,2.586,2.385,1.586s1.75-3.625,2.5-2.75s2,1.875,2.688,0.938
	s2.188-3.062,3.062-1.812S87.857,167.919,89.008,167.982z"/>
<path fill="#4A7E6C" d="M181.674,536.902l-9.748-30.082c0-2.945-2.387-5.332-5.333-5.332c-2.945,0-5.333,2.387-5.333,5.332
	l-9.667,30.668C148.926,544.32,185.422,550.484,181.674,536.902z"/>
<path fill="#9DA7AE" d="M173.004,509.964c-0.662-1.875-1.094-3.457-1.094-3.457c-0.943-3.668-2.388-5.334-5.334-5.334
	c-2.944,0-4.422,1.729-5.333,5.334l-1.161,3.684c-0.678,1.961,1.76,2.586,2.385,1.586s1.75-3.625,2.5-2.75s2,1.875,2.688,0.938
	s2.188-3.062,3.062-1.812S171.854,509.902,173.004,509.964z"/>
<path fill="#4A7E6C" d="M940.975,809.053l-9.748-30.082c0-2.945-2.387-5.332-5.332-5.332s-5.334,2.387-5.334,5.332l-9.666,30.668
	C908.228,816.471,944.723,822.635,940.975,809.053z"/>
<path fill="#9DA7AE" d="M932.305,782.115c-0.662-1.875-1.094-3.457-1.094-3.457c-0.943-3.668-2.387-5.334-5.334-5.334
	c-2.943,0-4.422,1.729-5.332,5.334l-1.162,3.684c-0.678,1.961,1.76,2.586,2.385,1.586s1.75-3.625,2.5-2.75s2,1.875,2.688,0.938
	s2.188-3.062,3.062-1.812S931.154,782.053,932.305,782.115z"/>
<path fill="#4A7E6C" d="M950.542,86.128l-9.748-30.082c0-2.947-2.387-5.334-5.332-5.334s-5.334,2.387-5.334,5.334l-9.666,30.666
	C917.795,93.546,954.29,99.71,950.542,86.128z"/>
<path fill="#9DA7AE" d="M941.872,59.189c-0.662-1.875-1.094-3.457-1.094-3.457c-0.943-3.668-2.387-5.334-5.334-5.334
	c-2.943,0-4.422,1.729-5.332,5.334l-1.162,3.684c-0.678,1.961,1.76,2.586,2.385,1.586s1.75-3.625,2.5-2.75s2,1.875,2.688,0.938
	s2.188-3.062,3.062-1.812S940.722,59.126,941.872,59.189z"/>
<path fill="#4A7E6C" d="M630.742,104.113l-9.747-30.082c0-2.947-2.388-5.334-5.333-5.334s-5.334,2.387-5.334,5.334l-9.666,30.666
	C597.995,111.531,634.49,117.695,630.742,104.113z"/>
<path fill="#9DA7AE" d="M622.072,77.173c-0.662-1.875-1.094-3.457-1.094-3.457c-0.943-3.668-2.387-5.334-5.333-5.334
	c-2.945,0-4.423,1.729-5.333,5.334L609.15,77.4c-0.678,1.961,1.76,2.586,2.385,1.586s1.75-3.625,2.5-2.75s2,1.875,2.688,0.938
	s2.188-3.062,3.062-1.812S620.922,77.111,622.072,77.173z"/>
<path fill="#60A089" d="M625.316,111.568l-4.408-13.607c0-1.332-1.08-2.412-2.413-2.412c-1.332,0-2.412,1.08-2.412,2.412
	l-2.104,6.676l-1.461-4.51c0-1.332-1.08-2.412-2.412-2.412s-2.412,1.08-2.412,2.412l-1.511,4.791l-2.867-8.85
	c0-1.334-1.08-2.414-2.413-2.414c-1.332,0-2.412,1.08-2.412,2.414l-4.373,13.871l21.999,8.175L625.316,111.568z"/>
<path fill="#4A7E6C" d="M282.975,973.053l-9.747-30.082c0-2.945-2.388-5.332-5.333-5.332s-5.334,2.387-5.334,5.332l-9.666,30.668
	C250.228,980.471,286.723,986.635,282.975,973.053z"/>
<path fill="#9DA7AE" d="M274.305,946.115c-0.662-1.875-1.094-3.457-1.094-3.457c-0.943-3.668-2.387-5.334-5.333-5.334
	c-2.945,0-4.423,1.729-5.333,5.334l-1.162,3.684c-0.678,1.961,1.76,2.586,2.385,1.586s1.75-3.625,2.5-2.75s2,1.875,2.688,0.938
	s2.188-3.062,3.062-1.812S273.154,946.053,274.305,946.115z"/>
<path fill="#60A089" d="M277.549,980.51l-4.408-13.607c0-1.332-1.08-2.412-2.413-2.412c-1.332,0-2.412,1.08-2.412,2.412
	l-2.104,6.674l-1.461-4.508c0-1.332-1.08-2.412-2.412-2.412s-2.412,1.08-2.412,2.412l-1.51,4.789l-2.868-8.85
	c0-1.332-1.08-2.412-2.413-2.412c-1.332,0-2.412,1.08-2.412,2.412l-4.373,13.873l19.9,7.258L277.549,980.51z"/>
<path fill="#4A7E6C" d="M740.236,611.088l-9.747-30.082c0-2.947-2.388-5.334-5.333-5.334s-5.334,2.387-5.334,5.334l-9.666,30.666
	C707.489,618.506,743.984,624.67,740.236,611.088z"/>
<path fill="#9DA7AE" d="M731.566,584.148c-0.662-1.875-1.094-3.457-1.094-3.457c-0.943-3.668-2.387-5.334-5.333-5.334
	c-2.945,0-4.423,1.729-5.333,5.334l-1.162,3.684c-0.678,1.961,1.76,2.586,2.385,1.586s1.75-3.625,2.5-2.75s2,1.875,2.688,0.938
	s2.188-3.062,3.062-1.812S730.416,584.086,731.566,584.148z"/>
<path fill="#60A089" d="M734.811,618.543l-4.408-13.607c0-1.332-1.08-2.412-2.413-2.412c-1.332,0-2.412,1.08-2.412,2.412
	l-2.104,6.676l-1.461-4.51c0-1.332-1.08-2.412-2.412-2.412s-2.412,1.08-2.412,2.412l-1.511,4.791l-2.867-8.85
	c0-1.334-1.08-2.414-2.413-2.414c-1.332,0-2.412,1.08-2.412,2.414l-4.373,13.871l18.317,8.133L734.811,618.543z"/>
<path fill="#9DA7AE" d="M397.132,623.301c0-8.193-6.641-14.834-14.833-14.834c-1.443,0-2.836,0.211-4.156,0.596
	c-1.66-11.127-11.254-19.662-22.844-19.662c-10.654,0-19.619,7.215-22.287,17.025c-2.562-1.385-5.496-2.172-8.613-2.172
	c-10.021,0-18.145,8.125-18.145,18.146c0,2.104,0.361,4.121,1.02,6h88.959C396.814,626.811,397.132,625.092,397.132,623.301z"/>
<path fill="#9DA7AE" d="M171.132,849.301c0-8.193-6.641-14.834-14.833-14.834c-1.443,0-2.836,0.211-4.156,0.596
	c-1.66-11.127-11.254-19.662-22.844-19.662c-10.654,0-19.619,7.215-22.287,17.025c-2.562-1.385-5.496-2.172-8.613-2.172
	c-10.021,0-18.145,8.125-18.145,18.146c0,2.104,0.361,4.121,1.02,6h88.959C170.814,852.811,171.132,851.092,171.132,849.301z"/>
<path fill="#9DA7AE" d="M537.132,467.3c0-8.193-6.641-14.834-14.833-14.834c-1.443,0-2.836,0.211-4.156,0.596
	c-1.66-11.127-11.254-19.662-22.844-19.662c-10.654,0-19.619,7.215-22.287,17.025c-2.562-1.385-5.496-2.172-8.613-2.172
	c-10.021,0-18.145,8.125-18.145,18.146c0,2.104,0.361,4.121,1.02,6h88.959C536.814,470.81,537.132,469.091,537.132,467.3z"/>
<path fill="#9DA7AE" d="M174.132,349.3c0-8.193-6.641-14.834-14.833-14.834c-1.443,0-2.836,0.211-4.156,0.596
	c-1.66-11.127-11.254-19.662-22.844-19.662c-10.654,0-19.619,7.215-22.287,17.025c-2.562-1.385-5.496-2.172-8.613-2.172
	c-10.021,0-18.145,8.125-18.145,18.146c0,2.104,0.361,4.121,1.02,6h88.959C173.814,352.81,174.132,351.091,174.132,349.3z"/>
<path fill="#9DA7AE" d="M809.132,128.3c0-8.193-6.641-14.834-14.833-14.834c-1.443,0-2.836,0.211-4.156,0.596
	c-1.66-11.127-11.254-19.662-22.844-19.662c-10.654,0-19.619,7.215-22.287,17.025c-2.562-1.385-5.496-2.172-8.613-2.172
	c-10.021,0-18.145,8.125-18.145,18.146c0,2.104,0.361,4.121,1.02,6h88.959C808.814,131.81,809.132,130.091,809.132,128.3z"/>
<path fill="#9DA7AE" d="M392.132,85.3c0-8.193-6.641-14.834-14.833-14.834c-1.443,0-2.836,0.211-4.156,0.596
	c-1.66-11.127-11.254-19.662-22.844-19.662c-10.654,0-19.619,7.215-22.287,17.025c-2.562-1.385-5.496-2.172-8.613-2.172
	c-10.021,0-18.145,8.125-18.145,18.146c0,2.104,0.361,4.121,1.02,6h88.959C391.814,88.81,392.132,87.091,392.132,85.3z"/>
<path fill="#9DA7AE" d="M904.132,482.3c0-8.193-6.641-14.834-14.833-14.834c-1.443,0-2.836,0.211-4.156,0.596
	c-1.66-11.127-11.254-19.662-22.844-19.662c-10.654,0-19.619,7.215-22.287,17.025c-2.562-1.385-5.496-2.172-8.613-2.172
	c-10.021,0-18.145,8.125-18.145,18.146c0,2.104,0.361,4.121,1.02,6h88.959C903.814,485.81,904.132,484.091,904.132,482.3z"/>
<path fill="#9DA7AE" d="M735.132,896.301c0-8.193-6.641-14.834-14.833-14.834c-1.443,0-2.836,0.211-4.156,0.596
	c-1.66-11.127-11.254-19.662-22.844-19.662c-10.654,0-19.619,7.215-22.287,17.025c-2.562-1.385-5.496-2.172-8.613-2.172
	c-10.021,0-18.145,8.125-18.145,18.146c0,2.104,0.361,4.121,1.02,6h88.959C734.814,899.811,735.132,898.092,735.132,896.301z"/>
<g>
	<g>
		<g>
			<g>
				<path fill="#4A7E6C" d="M314.757,134.236c0-0.068,0.018-0.137,0.054-0.197l1.492-2.586c0.071-0.121,0.202-0.197,0.343-0.197
					h2.985c0.141,0,0.271,0.076,0.343,0.197l1.492,2.586c0.071,0.121,0.071,0.271,0,0.395l-1.492,2.586
					c-0.071,0.121-0.202,0.197-0.343,0.197h-2.985c-0.141,0-0.272-0.076-0.343-0.197l-1.492-2.586
					C314.775,134.373,314.757,134.304,314.757,134.236z"/>
			</g>
		</g>
		<g>
			<g>
				<path fill="#4A7E6C" d="M304.685,134.236c0-0.068,0.018-0.137,0.054-0.197l1.492-2.586c0.071-0.121,0.202-0.197,0.343-0.197
					h2.985c0.142,0,0.271,0.076,0.343,0.197l1.492,2.586c0.071,0.121,0.071,0.271,0,0.395l-1.492,2.586
					c-0.071,0.121-0.201,0.197-0.343,0.197h-2.985c-0.141,0-0.272-0.076-0.343-0.197l-1.492-2.586
					C304.703,134.373,304.685,134.304,304.685,134.236z"/>
			</g>
		</g>
		<g>
			<g>
				<path fill="#4A7E6C" d="M313.102,132.58c-0.068,0-0.137-0.018-0.198-0.053l-2.584-1.492c-0.123-0.07-0.198-0.201-0.198-0.344
					v-2.984c0-0.141,0.075-0.271,0.198-0.342l2.584-1.492c0.123-0.07,0.273-0.07,0.396,0l2.585,1.492
					c0.123,0.07,0.198,0.201,0.198,0.342v2.984c0,0.143-0.075,0.273-0.198,0.344l-2.585,1.492
					C313.238,132.562,313.169,132.58,313.102,132.58z"/>
			</g>
		</g>
		<g>
			<g>
				<path fill="#4A7E6C" d="M313.102,142.652c-0.068,0-0.137-0.018-0.198-0.053l-2.584-1.492c-0.123-0.07-0.198-0.201-0.198-0.344
					v-2.984c0-0.141,0.075-0.271,0.198-0.342l2.584-1.492c0.123-0.07,0.273-0.07,0.396,0l2.585,1.492
					c0.123,0.07,0.198,0.201,0.198,0.342v2.984c0,0.143-0.075,0.273-0.198,0.344l-2.585,1.492
					C313.238,142.634,313.169,142.652,313.102,142.652z"/>
			</g>
		</g>
	</g>
	<circle fill="#60A089" cx="313.102" cy="134.236" r="3.273"/>
</g>
<g>
	<g>
		<g>
			<g>
				<path fill="#4A7E6C" d="M700.237,71.238c0-0.068,0.019-0.137,0.054-0.197l1.492-2.584c0.07-0.123,0.201-0.199,0.342-0.199h2.985
					c0.142,0,0.271,0.076,0.343,0.199l1.492,2.584c0.07,0.123,0.07,0.273,0,0.396l-1.492,2.584
					c-0.071,0.123-0.201,0.197-0.343,0.197h-2.985c-0.141,0-0.271-0.074-0.342-0.197l-1.492-2.584
					C700.256,71.375,700.237,71.306,700.237,71.238z"/>
			</g>
		</g>
		<g>
			<g>
				<path fill="#4A7E6C" d="M690.165,71.238c0-0.068,0.019-0.137,0.054-0.197l1.492-2.584c0.07-0.123,0.201-0.199,0.342-0.199h2.985
					c0.142,0,0.271,0.076,0.343,0.199l1.492,2.584c0.07,0.123,0.07,0.273,0,0.396l-1.492,2.584
					c-0.071,0.123-0.201,0.197-0.343,0.197h-2.985c-0.141,0-0.271-0.074-0.342-0.197l-1.492-2.584
					C690.184,71.375,690.165,71.306,690.165,71.238z"/>
			</g>
		</g>
		<g>
			<g>
				<path fill="#4A7E6C" d="M698.582,69.582c-0.068,0-0.137-0.018-0.198-0.053l-2.585-1.492c-0.122-0.07-0.197-0.201-0.197-0.342
					V64.71c0-0.143,0.075-0.273,0.197-0.344l2.585-1.492c0.122-0.07,0.272-0.07,0.396,0l2.585,1.492
					c0.122,0.07,0.198,0.201,0.198,0.344v2.984c0,0.141-0.076,0.271-0.198,0.342l-2.585,1.492
					C698.719,69.564,698.65,69.582,698.582,69.582z"/>
			</g>
		</g>
		<g>
			<g>
				<path fill="#4A7E6C" d="M698.582,79.654c-0.068,0-0.137-0.018-0.198-0.053l-2.585-1.492c-0.122-0.07-0.197-0.201-0.197-0.342
					v-2.984c0-0.143,0.075-0.273,0.197-0.344l2.585-1.492c0.122-0.07,0.272-0.07,0.396,0l2.585,1.492
					c0.122,0.07,0.198,0.201,0.198,0.344v2.984c0,0.141-0.076,0.271-0.198,0.342l-2.585,1.492
					C698.719,79.636,698.65,79.654,698.582,79.654z"/>
			</g>
		</g>
	</g>
	<circle fill="#60A089" cx="698.582" cy="71.238" r="3.273"/>
</g>
<g>
	<g>
		<g>
			<g>
				<path fill="#4A7E6C" d="M586.243,177.734c0-0.068,0.019-0.137,0.054-0.197l1.492-2.586c0.07-0.121,0.201-0.197,0.342-0.197
					h2.985c0.142,0,0.271,0.076,0.343,0.197l1.492,2.586c0.07,0.121,0.07,0.271,0,0.395l-1.492,2.586
					c-0.071,0.121-0.201,0.197-0.343,0.197h-2.985c-0.141,0-0.271-0.076-0.342-0.197l-1.492-2.586
					C586.262,177.871,586.243,177.802,586.243,177.734z"/>
			</g>
		</g>
		<g>
			<g>
				<path fill="#4A7E6C" d="M576.171,177.734c0-0.068,0.019-0.137,0.054-0.197l1.492-2.586c0.07-0.121,0.201-0.197,0.342-0.197
					h2.985c0.142,0,0.271,0.076,0.343,0.197l1.492,2.586c0.07,0.121,0.07,0.271,0,0.395l-1.492,2.586
					c-0.071,0.121-0.201,0.197-0.343,0.197h-2.985c-0.141,0-0.271-0.076-0.342-0.197l-1.492-2.586
					C576.189,177.871,576.171,177.802,576.171,177.734z"/>
			</g>
		</g>
		<g>
			<g>
				<path fill="#4A7E6C" d="M584.588,176.078c-0.068,0-0.137-0.018-0.198-0.053l-2.585-1.492c-0.122-0.07-0.197-0.201-0.197-0.344
					v-2.984c0-0.141,0.075-0.271,0.197-0.342l2.585-1.492c0.122-0.07,0.272-0.07,0.396,0l2.585,1.492
					c0.122,0.07,0.198,0.201,0.198,0.342v2.984c0,0.143-0.076,0.273-0.198,0.344l-2.585,1.492
					C584.725,176.06,584.656,176.078,584.588,176.078z"/>
			</g>
		</g>
		<g>
			<g>
				<path fill="#4A7E6C" d="M584.588,186.15c-0.068,0-0.137-0.018-0.198-0.053l-2.585-1.492c-0.122-0.07-0.197-0.201-0.197-0.344
					v-2.984c0-0.141,0.075-0.271,0.197-0.342l2.585-1.492c0.122-0.07,0.272-0.07,0.396,0l2.585,1.492
					c0.122,0.07,0.198,0.201,0.198,0.342v2.984c0,0.143-0.076,0.273-0.198,0.344l-2.585,1.492
					C584.725,186.132,584.656,186.15,584.588,186.15z"/>
			</g>
		</g>
	</g>
	<circle fill="#60A089" cx="584.588" cy="177.734" r="3.273"/>
</g>
<g>
	<g>
		<g>
			<g>
				<path fill="#4A7E6C" d="M763.234,546.714c0-0.068,0.019-0.137,0.054-0.197l1.492-2.584c0.07-0.123,0.201-0.199,0.342-0.199
					h2.985c0.142,0,0.271,0.076,0.343,0.199l1.492,2.584c0.07,0.123,0.07,0.273,0,0.396l-1.492,2.584
					c-0.071,0.123-0.201,0.197-0.343,0.197h-2.985c-0.141,0-0.271-0.074-0.342-0.197l-1.492-2.584
					C763.253,546.851,763.234,546.783,763.234,546.714z"/>
			</g>
		</g>
		<g>
			<g>
				<path fill="#4A7E6C" d="M753.162,546.714c0-0.068,0.019-0.137,0.054-0.197l1.492-2.584c0.07-0.123,0.201-0.199,0.342-0.199
					h2.985c0.142,0,0.271,0.076,0.343,0.199l1.492,2.584c0.07,0.123,0.07,0.273,0,0.396l-1.492,2.584
					c-0.071,0.123-0.201,0.197-0.343,0.197h-2.985c-0.141,0-0.271-0.074-0.342-0.197l-1.492-2.584
					C753.181,546.851,753.162,546.783,753.162,546.714z"/>
			</g>
		</g>
		<g>
			<g>
				<path fill="#4A7E6C" d="M761.579,545.058c-0.068,0-0.137-0.018-0.198-0.053l-2.585-1.492c-0.122-0.07-0.197-0.201-0.197-0.342
					v-2.984c0-0.143,0.075-0.273,0.197-0.344l2.585-1.492c0.122-0.07,0.272-0.07,0.396,0l2.585,1.492
					c0.122,0.07,0.198,0.201,0.198,0.344v2.984c0,0.141-0.076,0.271-0.198,0.342l-2.585,1.492
					C761.716,545.041,761.647,545.058,761.579,545.058z"/>
			</g>
		</g>
		<g>
			<g>
				<path fill="#4A7E6C" d="M761.579,555.13c-0.068,0-0.137-0.018-0.198-0.053l-2.585-1.492c-0.122-0.07-0.197-0.201-0.197-0.342
					v-2.984c0-0.143,0.075-0.273,0.197-0.344l2.585-1.492c0.122-0.07,0.272-0.07,0.396,0l2.585,1.492
					c0.122,0.07,0.198,0.201,0.198,0.344v2.984c0,0.141-0.076,0.271-0.198,0.342l-2.585,1.492
					C761.716,555.113,761.647,555.13,761.579,555.13z"/>
			</g>
		</g>
	</g>
	<circle fill="#60A089" cx="761.579" cy="546.714" r="3.273"/>
</g>
<g>
	<g>
		<g>
			<g>
				<path fill="#4A7E6C" d="M580.243,863.199c0-0.068,0.019-0.137,0.054-0.197l1.492-2.584c0.07-0.123,0.201-0.199,0.342-0.199
					h2.985c0.142,0,0.271,0.076,0.343,0.199l1.492,2.584c0.07,0.123,0.07,0.273,0,0.396l-1.492,2.584
					c-0.071,0.123-0.201,0.197-0.343,0.197h-2.985c-0.141,0-0.271-0.074-0.342-0.197l-1.492-2.584
					C580.262,863.336,580.243,863.268,580.243,863.199z"/>
			</g>
		</g>
		<g>
			<g>
				<path fill="#4A7E6C" d="M570.171,863.199c0-0.068,0.019-0.137,0.054-0.197l1.492-2.584c0.07-0.123,0.201-0.199,0.342-0.199
					h2.985c0.142,0,0.271,0.076,0.343,0.199l1.492,2.584c0.07,0.123,0.07,0.273,0,0.396l-1.492,2.584
					c-0.071,0.123-0.201,0.197-0.343,0.197h-2.985c-0.141,0-0.271-0.074-0.342-0.197l-1.492-2.584
					C570.189,863.336,570.171,863.268,570.171,863.199z"/>
			</g>
		</g>
		<g>
			<g>
				<path fill="#4A7E6C" d="M578.588,861.543c-0.068,0-0.137-0.018-0.198-0.053l-2.585-1.492c-0.122-0.07-0.197-0.201-0.197-0.342
					v-2.984c0-0.143,0.075-0.273,0.197-0.344l2.585-1.492c0.122-0.07,0.272-0.07,0.396,0l2.585,1.492
					c0.122,0.07,0.198,0.201,0.198,0.344v2.984c0,0.141-0.076,0.271-0.198,0.342l-2.585,1.492
					C578.725,861.525,578.656,861.543,578.588,861.543z"/>
			</g>
		</g>
		<g>
			<g>
				<path fill="#4A7E6C" d="M578.588,871.615c-0.068,0-0.137-0.018-0.198-0.053l-2.585-1.492c-0.122-0.07-0.197-0.201-0.197-0.342
					v-2.984c0-0.143,0.075-0.273,0.197-0.344l2.585-1.492c0.122-0.07,0.272-0.07,0.396,0l2.585,1.492
					c0.122,0.07,0.198,0.201,0.198,0.344v2.984c0,0.141-0.076,0.271-0.198,0.342l-2.585,1.492
					C578.725,871.598,578.656,871.615,578.588,871.615z"/>
			</g>
		</g>
	</g>
	<circle fill="#60A089" cx="578.588" cy="863.199" r="3.273"/>
</g>
<g>
	<g>
		<g>
			<g>
				<path fill="#4A7E6C" d="M158.521,871.096c0-0.068,0.019-0.137,0.054-0.197l1.492-2.586c0.07-0.121,0.201-0.197,0.342-0.197
					h2.985c0.142,0,0.271,0.076,0.343,0.197l1.492,2.586c0.07,0.121,0.07,0.271,0,0.395l-1.492,2.586
					c-0.071,0.121-0.201,0.197-0.343,0.197h-2.985c-0.141,0-0.271-0.076-0.342-0.197l-1.492-2.586
					C158.539,871.232,158.521,871.164,158.521,871.096z"/>
			</g>
		</g>
		<g>
			<g>
				<path fill="#4A7E6C" d="M148.448,871.096c0-0.068,0.019-0.137,0.054-0.197l1.492-2.586c0.07-0.121,0.201-0.197,0.342-0.197
					h2.985c0.142,0,0.271,0.076,0.343,0.197l1.492,2.586c0.07,0.121,0.07,0.271,0,0.395l-1.492,2.586
					c-0.071,0.121-0.201,0.197-0.343,0.197h-2.985c-0.141,0-0.271-0.076-0.342-0.197l-1.492-2.586
					C148.467,871.232,148.448,871.164,148.448,871.096z"/>
			</g>
		</g>
		<g>
			<g>
				<path fill="#4A7E6C" d="M156.865,869.439c-0.068,0-0.137-0.018-0.198-0.053l-2.585-1.492c-0.122-0.07-0.197-0.201-0.197-0.344
					v-2.984c0-0.141,0.075-0.271,0.197-0.342l2.585-1.492c0.122-0.07,0.272-0.07,0.396,0l2.585,1.492
					c0.122,0.07,0.198,0.201,0.198,0.342v2.984c0,0.143-0.076,0.273-0.198,0.344l-2.585,1.492
					C157.002,869.422,156.934,869.439,156.865,869.439z"/>
			</g>
		</g>
		<g>
			<g>
				<path fill="#4A7E6C" d="M156.865,879.512c-0.068,0-0.137-0.018-0.198-0.053l-2.585-1.492c-0.122-0.07-0.197-0.201-0.197-0.344
					v-2.984c0-0.141,0.075-0.271,0.197-0.342l2.585-1.492c0.122-0.07,0.272-0.07,0.396,0l2.585,1.492
					c0.122,0.07,0.198,0.201,0.198,0.342v2.984c0,0.143-0.076,0.273-0.198,0.344l-2.585,1.492
					C157.002,879.494,156.934,879.512,156.865,879.512z"/>
			</g>
		</g>
	</g>
	<circle fill="#60A089" cx="156.865" cy="871.096" r="3.273"/>
</g>
<g>
	<g>
		<g>
			<g>
				<path fill="#4A7E6C" d="M284.758,908.197c0-0.068,0.019-0.137,0.054-0.197l1.492-2.586c0.07-0.121,0.201-0.197,0.342-0.197
					h2.985c0.142,0,0.271,0.076,0.343,0.197l1.492,2.586c0.07,0.121,0.07,0.271,0,0.395l-1.492,2.586
					c-0.071,0.121-0.201,0.197-0.343,0.197h-2.985c-0.141,0-0.271-0.076-0.342-0.197l-1.492-2.586
					C284.776,908.334,284.758,908.266,284.758,908.197z"/>
			</g>
		</g>
		<g>
			<g>
				<path fill="#4A7E6C" d="M274.686,908.197c0-0.068,0.019-0.137,0.054-0.197l1.492-2.586c0.07-0.121,0.201-0.197,0.342-0.197
					h2.985c0.142,0,0.271,0.076,0.343,0.197l1.492,2.586c0.07,0.121,0.07,0.271,0,0.395l-1.492,2.586
					c-0.071,0.121-0.201,0.197-0.343,0.197h-2.985c-0.141,0-0.271-0.076-0.342-0.197l-1.492-2.586
					C274.704,908.334,274.686,908.266,274.686,908.197z"/>
			</g>
		</g>
		<g>
			<g>
				<path fill="#4A7E6C" d="M283.103,906.541c-0.068,0-0.137-0.018-0.198-0.053l-2.585-1.492c-0.122-0.07-0.197-0.201-0.197-0.344
					v-2.984c0-0.141,0.075-0.271,0.197-0.342l2.585-1.492c0.122-0.07,0.272-0.07,0.396,0l2.585,1.492
					c0.122,0.07,0.198,0.201,0.198,0.342v2.984c0,0.143-0.076,0.273-0.198,0.344l-2.585,1.492
					C283.239,906.523,283.171,906.541,283.103,906.541z"/>
			</g>
		</g>
		<g>
			<g>
				<path fill="#4A7E6C" d="M283.103,916.613c-0.068,0-0.137-0.018-0.198-0.053l-2.585-1.492c-0.122-0.07-0.197-0.201-0.197-0.344
					v-2.984c0-0.141,0.075-0.271,0.197-0.342l2.585-1.492c0.122-0.07,0.272-0.07,0.396,0l2.585,1.492
					c0.122,0.07,0.198,0.201,0.198,0.342v2.984c0,0.143-0.076,0.273-0.198,0.344l-2.585,1.492
					C283.239,916.596,283.171,916.613,283.103,916.613z"/>
			</g>
		</g>
	</g>
	<circle fill="#60A089" cx="283.103" cy="908.197" r="3.273"/>
</g>
<g>
	<g>
		<g>
			<g>
				<path fill="#4A7E6C" d="M800.459,951.422c0-0.068,0.019-0.137,0.054-0.197l1.492-2.586c0.07-0.121,0.201-0.197,0.342-0.197
					h2.985c0.142,0,0.271,0.076,0.343,0.197l1.492,2.586c0.07,0.121,0.07,0.271,0,0.395l-1.492,2.586
					c-0.071,0.121-0.201,0.197-0.343,0.197h-2.985c-0.141,0-0.271-0.076-0.342-0.197l-1.492-2.586
					C800.478,951.559,800.459,951.49,800.459,951.422z"/>
			</g>
		</g>
		<g>
			<g>
				<path fill="#4A7E6C" d="M790.387,951.422c0-0.068,0.019-0.137,0.054-0.197l1.492-2.586c0.07-0.121,0.201-0.197,0.342-0.197
					h2.985c0.142,0,0.271,0.076,0.343,0.197l1.492,2.586c0.07,0.121,0.07,0.271,0,0.395l-1.492,2.586
					c-0.071,0.121-0.201,0.197-0.343,0.197h-2.985c-0.141,0-0.271-0.076-0.342-0.197l-1.492-2.586
					C790.405,951.559,790.387,951.49,790.387,951.422z"/>
			</g>
		</g>
		<g>
			<g>
				<path fill="#4A7E6C" d="M798.804,949.766c-0.068,0-0.137-0.018-0.198-0.053l-2.585-1.492c-0.122-0.07-0.197-0.201-0.197-0.344
					v-2.984c0-0.141,0.075-0.271,0.197-0.342l2.585-1.492c0.122-0.07,0.272-0.07,0.396,0l2.585,1.492
					c0.122,0.07,0.198,0.201,0.198,0.342v2.984c0,0.143-0.076,0.273-0.198,0.344l-2.585,1.492
					C798.94,949.748,798.872,949.766,798.804,949.766z"/>
			</g>
		</g>
		<g>
			<g>
				<path fill="#4A7E6C" d="M798.804,959.838c-0.068,0-0.137-0.018-0.198-0.053l-2.585-1.492c-0.122-0.07-0.197-0.201-0.197-0.344
					v-2.984c0-0.141,0.075-0.271,0.197-0.342l2.585-1.492c0.122-0.07,0.272-0.07,0.396,0l2.585,1.492
					c0.122,0.07,0.198,0.201,0.198,0.342v2.984c0,0.143-0.076,0.273-0.198,0.344l-2.585,1.492
					C798.94,959.82,798.872,959.838,798.804,959.838z"/>
			</g>
		</g>
	</g>
	<circle fill="#60A089" cx="798.804" cy="951.422" r="3.273"/>
</g>
</svg>
