<?xml version="1.0" encoding="utf-8"?>
<!-- Generator: Adobe Illustrator 16.0.0, SVG Export Plug-In . SVG Version: 6.00 Build 0)  -->
<!DOCTYPE svg PUBLIC "-//W3C//DTD SVG 1.1//EN" "http://www.w3.org/Graphics/SVG/1.1/DTD/svg11.dtd">
<svg version="1.1" xmlns="http://www.w3.org/2000/svg" xmlns:xlink="http://www.w3.org/1999/xlink" x="0px" y="0px" width="1080px"
	 height="300px" viewBox="0 0 1080 300" enable-background="new 0 0 1080 300" xml:space="preserve">
<g id="header__x2B__bg">
	<rect fill="#0FA1D6" width="1080" height="300"/>
</g>
<g id="pathway_page">
</g>
<g id="HEADER_GREEN">
	<path fill="#7AD69C" d="M92.405,221c-3.812,0-5.961-0.33-9.096-2.129c-1.254-0.72-1.922-1.104-2.978-1.713
		c-2.717-1.569-4.114-2.27-4.114-7.27s0-13.438,0-17.188s-0.601-4.2-3.477-5.849c-1.201-0.689-2.491-1.432-3.476-2
		c-2.497-1.442-3.985-1.764-8.047-1.764s-5.75,0-8.333,0c-4.583,0-5.339-0.088-9.686-2.592c-0.892-0.514-1.788-1.027-2.553-1.467
		c-2.712-1.558-3.428-2.279-3.428-6.167s0-12.335,0-16.862s0.723-5.098,4.897-7.499c0.716-0.412,1.452-0.833,2.163-1.241
		c3.261-1.871,4.396-2.261,9.959-2.261s70.576,0,74.576,0c5.738,0,8.841,1.392,11.864,3.119c2.722,1.555,5.92,3.383,8.242,4.71
		c4.899,2.8,7.298,4.377,7.298,10.599s0,30.16,0,37.885s-2.254,9.004-7.504,12.035c-0.781,0.45-2.243,1.29-3.921,2.254
		c-4.066,2.336-9.403,5.398-18.325,5.398S96.218,221,92.405,221z"/>
	<path fill="#7AD69C" d="M26.531,231.201c1.941-1.12,6.303-3.637,8.916-5.146c1.925-1.11,2.503-1.479,2.503-4.417s0-11.75,0-14.542
		s-1.887-3.951-3.763-5.042c-3.381-1.965-7.849-4.548-9.137-5.292c-2.993-1.728-5.292-1.669-8.189-0.002
		c-1.273,0.733-5.933,3.329-9.355,5.294c-1.947,1.118-3.692,2.425-3.692,5.042c0,0,0,11.729,0,14.573s1.053,3.539,2.561,4.396
		c2.667,1.516,6.756,3.846,8.969,5.135C19.413,233.571,22.301,233.642,26.531,231.201z"/>
	<path fill="#7AD69C" d="M1051.627,99.936c-1.901-1.092-4.167-2.393-6.991-4.016c-2.286-1.312-5.395-3.032-5.395-7.907
		c0-3.562,0-6.5,0-10.875s2.545-6.169,5.367-7.821c2.356-1.379,4.494-2.63,5.963-3.478c3.383-1.953,5.78-4.619,5.78-8.951
		c0-3.333,0-56.888,0-56.888H16.218c0,0,0,41.318,0,48.652s6.289,10.857,14.733,15.715c15.045,8.655,36.929,21.25,42.267,24.349
		C81.551,93.555,83.791,94,90.301,94h60.083c6.5,0,9.034,1.617,13.604,4.284s0.252,0.106,5.772,3.386s7.457,4.447,7.457,9.28v40.375
		c0,6.25,1.312,6.938,7.131,10.239c2.377,1.349,4.921,2.848,6.816,3.917c7.366,4.156,8.803,4.511,16.486,4.511
		c1.688,0,3.13,0,3.755,0c7.938,0,9.375,0.021,16.753,4.013c2.212,1.197,4.505,2.599,6.397,3.696
		c5.107,2.961,7.763,6.854,7.763,12.358s0,31.385,0,36.016c0,7.308-2.959,9.473-7.611,12.325c-2.649,1.624-3.248,1.86-7.147,4.105
		S221.727,246,215.001,246H78.135c-7.833,0-11.917,0.555-16.333,2.722c-1.937,1.104-6.821,3.909-8.797,5.095
		C47.468,257.138,45,260.513,45,270.138C45,272.596,45,300,45,300h990c0,0,0-64.072,0-70.342s0.005-9.046-5.542-12.233
		c-1.717-0.987-8.08-4.661-9.897-5.706c-4.896-2.814-10.343-3.136-22.343-3.136h-42.019c-11.47,0-17.643-2.468-23.704-5.942
		c-2.754-1.579-11.897-6.84-17.143-9.846c-6.3-3.611-8.563-7.418-8.563-15.905v-28.083c0-6.093,3.099-9.191,8.596-12.348
		c4.247-2.439,18.295-10.497,24.456-14.046c4.523-2.606,7.684-2.434,12.4,0.29c3.199,1.848,15.112,8.758,23.678,13.685
		c6.219,3.577,8.868,6.42,8.868,12.5s0,4.499,0,9.166s1.758,7.675,6.147,10.199c3.048,1.752,5.153,2.95,8.124,4.666
		c4.96,2.864,9.324,4.081,14.991,4.081h14.5c6.667,0,10.948-1.994,14.617-4.112c1.861-1.074,4.581-2.58,8.008-4.573
		c3.329-1.936,6.177-4.26,6.177-10.261c0,0,0-44.916,0-49.479S1055.068,101.912,1051.627,99.936z"/>
</g>
<g id="HEADER_details">
	<polygon fill="#0FA1D6" points="873.957,224.216 873.957,226.498 871.676,224.529 	"/>
	<path fill="#E3F9FF" d="M889.489,298.8c0-1.927-1.562-3.489-3.488-3.489c-0.34,0-0.668,0.049-0.979,0.14
		c-0.391-2.618-2.647-4.626-5.375-4.626c-2.506,0-4.615,1.698-5.242,4.005c-0.604-0.326-1.293-0.51-2.027-0.51
		c-2.357,0-4.268,1.911-4.268,4.269c0,0.495,0.084,0.969,0.239,1.411h20.929C889.416,299.626,889.489,299.222,889.489,298.8z"/>
	<path fill="none" stroke="#0FA1D6" stroke-width="2" stroke-miterlimit="10" d="M643.885,121.388c19,0,70.333,0,109.333,0
		s120.037,0,129.9,0c6.934,0,9.697,1.108,15.14,4.117c5.884,3.253,14.062,8.107,21.74,12.7"/>
	<path fill="#77BA8E" d="M215.181,260.786c0,0,10.139,0,17.087,0c13.764,5.161,32.009,2.547,31.083-2.374
		c-0.927-4.921-4.625-19.483-4.625-19.483c-0.352-1.914-1.425-3.183-3.182-3.183s-2.721,1.176-3.182,3.183l-1.13,3.542
		c-0.548,1.501-1.21,2.703-2.703,2.703c-1.493,0-1.968-0.95-2.703-2.703l-7.787-18.76c0-2.046-1.659-3.706-3.705-3.706
		c-2.047,0-3.706,1.659-3.706,3.706l-4.864,16.211c0,2.046-1.659,3.705-3.705,3.705"/>
	<path fill="#7AD69C" d="M245.866,266.931l-4.409-13.607c0-1.333-1.08-2.413-2.413-2.413c-1.332,0-2.412,1.08-2.412,2.413
		l-4.373,13.872C231.053,270.287,247.561,273.075,245.866,266.931z"/>
	<path fill="#7AD69C" d="M255.068,270.991l-4.409-13.607c0-1.333-1.08-2.413-2.413-2.413c-1.332,0-2.412,1.08-2.412,2.413
		l-4.373,13.872C240.255,274.346,256.763,277.134,255.068,270.991z"/>
	<path fill="#7AD69C" d="M263.458,268.825l-4.409-13.607c0-1.333-1.08-2.413-2.413-2.413c-1.332,0-2.412,1.08-2.412,2.413
		l-4.373,13.872C248.645,272.181,265.153,274.969,263.458,268.825z"/>
	<g>
		<g>
			<path fill="#67A17C" d="M732.218,39.888c3.225,0,3.225-5,0-5S728.993,39.888,732.218,39.888L732.218,39.888z"/>
		</g>
	</g>
	<g>
		<g>
			<path fill="#67A17C" d="M743.718,41.888c3.225,0,3.225-5,0-5S740.493,41.888,743.718,41.888L743.718,41.888z"/>
		</g>
	</g>
	<g>
		<g>
			<path fill="#67A17C" d="M742.718,29.888c3.225,0,3.225-5,0-5S739.493,29.888,742.718,29.888L742.718,29.888z"/>
		</g>
	</g>
	<g>
		<g>
			<path fill="#67A17C" d="M1015.784,101.993c3.225,0,3.225-5,0-5S1012.56,101.993,1015.784,101.993L1015.784,101.993z"/>
		</g>
	</g>
	<g>
		<g>
			<path fill="#67A17C" d="M1027.284,103.993c3.225,0,3.225-5,0-5S1024.06,103.993,1027.284,103.993L1027.284,103.993z"/>
		</g>
	</g>
	<g>
		<g>
			<path fill="#67A17C" d="M1026.284,91.993c3.225,0,3.225-5,0-5S1023.06,91.993,1026.284,91.993L1026.284,91.993z"/>
		</g>
	</g>
	<g>
		<g>
			<path fill="#67A17C" d="M834.051,261.222c3.225,0,3.225-5,0-5S830.826,261.222,834.051,261.222L834.051,261.222z"/>
		</g>
	</g>
	<g>
		<g>
			<path fill="#67A17C" d="M845.551,263.222c3.225,0,3.225-5,0-5S842.326,263.222,845.551,263.222L845.551,263.222z"/>
		</g>
	</g>
	<g>
		<g>
			<path fill="#67A17C" d="M844.551,251.222c3.225,0,3.225-5,0-5S841.326,251.222,844.551,251.222L844.551,251.222z"/>
		</g>
	</g>
	<g>
		<g>
			<path fill="#67A17C" d="M655.718,260.388c3.225,0,3.225-5,0-5S652.493,260.388,655.718,260.388L655.718,260.388z"/>
		</g>
	</g>
	<g>
		<g>
			<path fill="#67A17C" d="M667.218,262.388c3.225,0,3.225-5,0-5S663.993,262.388,667.218,262.388L667.218,262.388z"/>
		</g>
	</g>
	<g>
		<g>
			<path fill="#67A17C" d="M666.218,250.388c3.225,0,3.225-5,0-5S662.993,250.388,666.218,250.388L666.218,250.388z"/>
		</g>
	</g>
	<g>
		<g>
			<path fill="#67A17C" d="M80.718,274.888c3.224,0,3.224-5,0-5S77.494,274.888,80.718,274.888L80.718,274.888z"/>
		</g>
	</g>
	<g>
		<g>
			<path fill="#67A17C" d="M92.218,276.888c3.224,0,3.224-5,0-5S88.994,276.888,92.218,276.888L92.218,276.888z"/>
		</g>
	</g>
	<g>
		<g>
			<path fill="#67A17C" d="M91.218,264.888c3.224,0,3.224-5,0-5S87.994,264.888,91.218,264.888L91.218,264.888z"/>
		</g>
	</g>
	<g>
		<g>
			<path fill="#67A17C" d="M15.218,217.888c3.224,0,3.224-5,0-5S11.994,217.888,15.218,217.888L15.218,217.888z"/>
		</g>
	</g>
	<g>
		<g>
			<path fill="#67A17C" d="M26.718,219.888c3.224,0,3.224-5,0-5S23.494,219.888,26.718,219.888L26.718,219.888z"/>
		</g>
	</g>
	<g>
		<g>
			<path fill="#67A17C" d="M25.718,207.888c3.224,0,3.224-5,0-5S22.494,207.888,25.718,207.888L25.718,207.888z"/>
		</g>
	</g>
	<g>
		<g>
			<path fill="#67A17C" d="M356.695,143.869c3.224,0,3.224-5,0-5S353.471,143.869,356.695,143.869L356.695,143.869z"/>
		</g>
	</g>
	<g>
		<g>
			<path fill="#67A17C" d="M368.195,145.869c3.224,0,3.224-5,0-5S364.971,145.869,368.195,145.869L368.195,145.869z"/>
		</g>
	</g>
	<g>
		<g>
			<path fill="#67A17C" d="M367.195,133.869c3.224,0,3.224-5,0-5S363.971,133.869,367.195,133.869L367.195,133.869z"/>
		</g>
	</g>
	<g>
		<g>
			<path fill="#67A17C" d="M228.718,128.888c3.224,0,3.224-5,0-5S225.494,128.888,228.718,128.888L228.718,128.888z"/>
		</g>
	</g>
	<g>
		<g>
			<path fill="#67A17C" d="M240.218,130.888c3.224,0,3.224-5,0-5S236.994,130.888,240.218,130.888L240.218,130.888z"/>
		</g>
	</g>
	<g>
		<g>
			<path fill="#67A17C" d="M239.218,118.888c3.224,0,3.224-5,0-5S235.994,118.888,239.218,118.888L239.218,118.888z"/>
		</g>
	</g>
	<g>
		<g>
			<path fill="#67A17C" d="M310.551,275.555c3.224,0,3.224-5,0-5S307.327,275.555,310.551,275.555L310.551,275.555z"/>
		</g>
	</g>
	<g>
		<g>
			<path fill="#67A17C" d="M322.051,277.555c3.224,0,3.224-5,0-5S318.827,277.555,322.051,277.555L322.051,277.555z"/>
		</g>
	</g>
	<g>
		<g>
			<path fill="#67A17C" d="M321.051,265.555c3.224,0,3.224-5,0-5S317.827,265.555,321.051,265.555L321.051,265.555z"/>
		</g>
	</g>
	<path fill="#FFFFFF" d="M415.854,48.288c0-8.192-6.641-14.833-14.833-14.833c-1.443,0-2.836,0.21-4.156,0.595
		c-1.661-11.127-11.255-19.662-22.844-19.662c-10.655,0-19.62,7.216-22.287,17.026c-2.562-1.385-5.496-2.171-8.613-2.171
		c-10.021,0-18.146,8.124-18.146,18.146c0,2.103,0.362,4.121,1.02,6h88.958C415.536,51.798,415.854,50.08,415.854,48.288z"/>
	<path fill="#75CC95" d="M791.251,155.245c0-6.46-5.237-11.698-11.698-11.698c-1.138,0-2.236,0.166-3.278,0.469
		c-1.309-8.775-8.875-15.506-18.016-15.506c-8.402,0-15.473,5.69-17.577,13.428c-2.021-1.092-4.335-1.713-6.793-1.713
		c-7.903,0-14.31,6.407-14.31,14.312c0,1.658,0.285,3.25,0.804,4.731h70.159C791.001,158.013,791.251,156.658,791.251,155.245z"/>
	<path fill="#75CC95" d="M376.251,104.245c0-6.46-5.237-11.698-11.698-11.698c-1.138,0-2.236,0.166-3.278,0.469
		c-1.309-8.775-8.875-15.506-18.016-15.506c-8.402,0-15.473,5.69-17.577,13.428c-2.021-1.092-4.335-1.713-6.793-1.713
		c-7.903,0-14.31,6.407-14.31,14.312c0,1.658,0.285,3.25,0.804,4.731h70.159C376.001,107.013,376.251,105.658,376.251,104.245z"/>
	<path fill="#FFFFFF" d="M829.854,88.288c0-8.192-6.641-14.833-14.833-14.833c-1.443,0-2.836,0.21-4.156,0.595
		c-1.66-11.127-11.254-19.662-22.844-19.662c-10.654,0-19.619,7.216-22.287,17.026c-2.562-1.385-5.496-2.171-8.613-2.171
		c-10.021,0-18.145,8.124-18.145,18.146c0,2.103,0.361,4.121,1.02,6h88.959C829.536,91.798,829.854,90.08,829.854,88.288z"/>
	<path fill="#71B087" d="M216.211,278.647c-2.778,0-5.889-0.509-5.889-0.509s-35.333,0-45.333,0c-8,6.25-25.333,3.667-24-3.417
		s6.656-28.043,6.656-28.043c0.506-2.755,2.051-4.581,4.58-4.581c2.53,0,3.916,1.692,4.581,4.581l1.627,5.098
		c0.789,2.161,1.742,3.89,3.89,3.89c2.149,0,2.833-1.367,3.89-3.89l7.99-20.388c1.536-3.188,2.388-5.333,5.333-5.333
		c2.946,0,3.891,1.833,5.333,5.333l7,23.333c0,2.945,2.388,5.333,5.333,5.333c2.946,0,5.333-2.388,5.333-5.333l9.667-30.667
		c1.223-3.48,2.388-5.333,5.333-5.333c2.946,0,4.015,1.916,5.333,5.333c0,0,12.248,38.788,14.739,45.486
		S230.286,278.647,216.211,278.647z"/>
	<path fill="#77BA8E" d="M215.384,273.952l-9.748-30.082c0-2.946-2.388-5.333-5.333-5.333c-2.945,0-5.333,2.388-5.333,5.333
		l-9.667,30.667C182.636,281.37,219.131,287.534,215.384,273.952z"/>
	<path fill="#7AD69C" d="M191.698,279.878l-6.335-19.552c0-1.915-1.552-3.466-3.466-3.466s-3.466,1.552-3.466,3.466l-6.283,19.932
		C170.414,284.7,194.133,288.706,191.698,279.878z"/>
	<path fill="#7AD69C" d="M207.495,283.687l-6.335-19.552c0-1.915-1.552-3.466-3.466-3.466s-3.466,1.552-3.466,3.466l-6.283,19.932
		C186.21,288.508,209.93,292.514,207.495,283.687z"/>
	<path fill="#7AD69C" d="M226.107,281.276l-4.409-13.607c0-1.333-1.08-2.413-2.413-2.413c-1.332,0-2.412,1.08-2.412,2.413
		L212.5,281.54C211.294,284.631,227.802,287.419,226.107,281.276z"/>
	<path fill="#7AD69C" d="M235.581,279.111l-4.409-13.607c0-1.333-1.08-2.413-2.413-2.413c-1.332,0-2.412,1.08-2.412,2.413
		l-4.373,13.872C220.768,282.466,237.276,285.254,235.581,279.111z"/>
	<path fill="#7AD69C" d="M175.26,282.351l-4.409-13.607c0-1.333-1.08-2.413-2.413-2.413c-1.332,0-2.412,1.08-2.412,2.413
		l-4.373,13.872C160.447,285.707,176.955,288.495,175.26,282.351z"/>
	<path fill="#7AD69C" d="M159.216,282.549l-2.968-9.159c0-0.897-0.727-1.624-1.624-1.624c-0.896,0-1.624,0.727-1.624,1.624
		l-2.944,9.337C149.245,284.807,160.357,286.684,159.216,282.549z"/>
	<path fill="#FFFFFF" d="M223.964,227.513c-0.662-1.875-1.094-3.458-1.094-3.458c-0.943-3.667-2.388-5.333-5.333-5.333
		c-2.945,0-4.422,1.729-5.333,5.333l-1.162,3.684c-0.678,1.961,1.76,2.586,2.385,1.586s1.75-3.625,2.5-2.75s2,1.875,2.688,0.938
		s2.188-3.062,3.062-1.812S222.813,227.451,223.964,227.513z"/>
	<path fill="#71B087" d="M406.193,213.053l-9.748-30.082c-2.129-2.084-2.388-5.333-5.333-5.333c-2.945,0-3.755,2.526-5.333,5.333
		l-9.667,30.667C373.445,220.471,409.94,226.635,406.193,213.053z"/>
	<path fill="#FFFFFF" d="M184.87,231.389c-1.255-4.063-2.388-5.333-5.333-5.333c-2.945,0-3.922,1.833-5.333,5.333l-1.373,3.503
		c1.346,0.684,2.721-1.003,3.159-2.191s1.812,1,2.188,2.5s1.75,0.875,2.438-0.75s2.75-0.812,3.625,1.188
		c0.642,1.467,2.438,1.5,2.438,1.5L184.87,231.389z"/>
	<path fill="#FFFFFF" d="M156.806,246.679c-0.665-2.888-2.051-4.581-4.581-4.581c-2.529,0-4.074,1.826-4.58,4.581
		c0,0-0.2,0.791-0.535,2.117c-0.413,1.634,1.004,0.551,1.712-0.782s1.346-2.587,1.417-1.417c0.25,4.167,1.851,5.524,2.5,3.792
		c0.75-2,1.896-4.062,2.562-2.562s1.23,2.075,2.438,1.938C157.489,248.68,156.806,246.679,156.806,246.679z"/>
	<path fill="none" stroke="#0FA1D6" stroke-width="2" stroke-linecap="round" stroke-linejoin="round" stroke-miterlimit="10" d="
		M716.551,121.388c12,0,17,9,26,21s41,63,58,88"/>
	
		<path fill="#0FA1D6" stroke="#0FA1D6" stroke-width="2" stroke-linecap="round" stroke-linejoin="round" stroke-miterlimit="10" d="
		M762.806,172.285c3.971,5.957,10.362,10.71,22.281,13.016c21.131,4.087,15.997,24.645,32.464,32.421
		c5.998,2.833,6.001,4.333,17.334,5c-6,1.667-17.497,8-29.667,7.667c-11.696-0.32-31.16-5.599-30.499-20.379
		S762.806,172.285,762.806,172.285z"/>
	<path fill="none" stroke="#0FA1D6" stroke-width="2" stroke-linecap="round" stroke-linejoin="round" stroke-miterlimit="10" d="
		M809.884,216.366c19.667,8,25.746,7.191,34.728,3.786s12.96,2.056,18.283,3.386c2.543,0.635,4.031,0.765,4.922,0.765
		c0.338,0,4.77,0,5.141,0"/>
	<rect x="867.841" y="225.263" fill="#59C0E6" width="6.13" height="69.232"/>
	<polygon fill="#0FA1D6" points="867.841,271.24 867.841,294.496 873.971,294.496 873.971,266.37 	"/>
	
		<line fill="none" stroke="#0FA1D6" stroke-linecap="round" stroke-miterlimit="10" x1="870.884" y1="253.879" x2="870.884" y2="257.796"/>
	
		<line fill="none" stroke="#0FA1D6" stroke-linecap="round" stroke-miterlimit="10" x1="872.155" y1="243.929" x2="872.155" y2="247.846"/>
	
		<line fill="none" stroke="#0FA1D6" stroke-linecap="round" stroke-miterlimit="10" x1="872.155" y1="232.467" x2="872.155" y2="239.733"/>
	
		<line fill="none" stroke="#0FA1D6" stroke-linecap="round" stroke-miterlimit="10" x1="870.884" y1="266.093" x2="870.884" y2="270.01"/>
	
		<line fill="none" stroke="#0FA1D6" stroke-linecap="round" stroke-miterlimit="10" x1="870.884" y1="262.427" x2="870.884" y2="263.844"/>
	<path fill="#FFFFFF" d="M881.385,298.54c0-2.346-1.901-4.248-4.247-4.248c-0.413,0-0.812,0.06-1.19,0.17
		c-0.476-3.187-3.223-5.63-6.542-5.63c-3.051,0-5.618,2.066-6.382,4.875c-0.734-0.396-1.574-0.622-2.467-0.622
		c-2.87,0-5.196,2.327-5.196,5.197c0,0.602,0.104,1.18,0.292,1.718h25.476C881.295,299.545,881.385,299.053,881.385,298.54z"/>
	<path fill="#FFFFFF" d="M397.55,186.358c-0.662-1.875-1.094-3.458-1.094-3.458c-0.943-3.667-2.388-5.333-5.333-5.333
		c-2.945,0-4.422,1.729-5.333,5.333l-1.162,3.684c-0.678,1.961,1.76,2.586,2.385,1.586s1.75-3.625,2.5-2.75s2,1.875,2.688,0.938
		s2.188-3.062,3.062-1.812S396.399,186.295,397.55,186.358z"/>
	<path fill="#71B087" d="M131.884,192.202l-9.748-30.082c0-2.946-2.388-5.333-5.333-5.333c-2.945,0-5.333,2.388-5.333,5.333
		l-9.667,30.667C99.136,199.62,135.631,205.784,131.884,192.202z"/>
	<path fill="#FFFFFF" d="M123.214,165.263c-0.662-1.875-1.094-3.458-1.094-3.458c-0.943-3.667-2.388-5.333-5.333-5.333
		c-2.945,0-4.422,1.729-5.333,5.333l-1.162,3.684c-0.678,1.961,1.76,2.586,2.385,1.586s1.75-3.625,2.5-2.75s2,1.875,2.688,0.938
		s2.188-3.062,3.062-1.812S122.063,165.201,123.214,165.263z"/>
	<path fill="#71B087" d="M294.384,100.702l-9.748-30.082c0-2.946-2.388-5.333-5.333-5.333c-2.945,0-5.333,2.388-5.333,5.333
		l-9.667,30.667C261.636,108.12,298.131,114.284,294.384,100.702z"/>
	<path fill="#FFFFFF" d="M285.714,73.763c-0.662-1.875-1.094-3.458-1.094-3.458c-0.943-3.667-2.388-5.333-5.333-5.333
		c-2.945,0-4.422,1.729-5.333,5.333l-1.162,3.684c-0.678,1.961,1.76,2.586,2.385,1.586s1.75-3.625,2.5-2.75s2,1.875,2.688,0.938
		s2.188-3.062,3.062-1.812S284.563,73.701,285.714,73.763z"/>
	<g>
		<path fill="#71B087" d="M853.69,143.181c0,0-10.479,0-20.479,0c-8,6.25-25.334,3.667-24-3.417s6.656-28.043,6.656-28.043
			c0.506-2.755,2.051-4.581,4.58-4.581s3.916,1.692,4.58,4.581l1.627,5.098c0.789,2.161,1.742,3.89,3.891,3.89
			s2.832-1.367,3.89-3.89l7.99-20.388c1.536-3.188,2.388-5.333,5.333-5.333s3.891,1.833,5.334,5.333l7,23.333l3.598,12.666
			C867.69,143.931,853.69,143.181,853.69,143.181z"/>
		<path fill="#7AD69C" d="M859.921,144.921l-6.336-19.552c0-1.915-1.552-3.466-3.467-3.466c-1.914,0-3.466,1.552-3.466,3.466
			l-6.283,19.932C838.636,149.742,862.356,153.749,859.921,144.921z"/>
		<path fill="#7AD69C" d="M843.482,147.394l-4.409-13.607c0-1.333-1.08-2.413-2.412-2.413s-2.412,1.08-2.412,2.413l-4.373,13.872
			C828.669,150.749,845.178,153.537,843.482,147.394z"/>
		<path fill="#7AD69C" d="M827.438,147.591l-2.968-9.159c0-0.897-0.728-1.624-1.624-1.624s-1.623,0.727-1.623,1.624l-2.944,9.337
			C817.468,149.85,828.579,151.727,827.438,147.591z"/>
		<path fill="#FFFFFF" d="M853.093,96.431c-1.256-4.063-2.389-5.333-5.334-5.333s-3.922,1.833-5.333,5.333l-1.372,3.503
			c1.346,0.684,2.721-1.003,3.158-2.191s1.812,1,2.188,2.5s1.75,0.875,2.438-0.75s2.75-0.812,3.625,1.188
			c0.642,1.467,2.438,1.5,2.438,1.5L853.093,96.431z"/>
		<path fill="#FFFFFF" d="M825.028,111.721c-0.664-2.888-2.051-4.581-4.58-4.581s-4.074,1.826-4.58,4.581
			c0,0-0.199,0.791-0.535,2.117c-0.412,1.634,1.004,0.551,1.713-0.782c0.707-1.333,1.346-2.587,1.416-1.417
			c0.25,4.167,1.851,5.524,2.5,3.792c0.75-2,1.896-4.062,2.562-2.562s1.23,2.075,2.438,1.938
			C825.712,113.722,825.028,111.721,825.028,111.721z"/>
	</g>
	<path fill="#7AD69C" d="M108.866,197.764l-4.409-13.607c0-1.333-1.08-2.413-2.413-2.413c-1.332,0-2.412,1.08-2.412,2.413
		l-4.373,13.872C94.053,201.12,110.561,203.908,108.866,197.764z"/>
	<path fill="#7AD69C" d="M118.068,201.824l-4.409-13.607c0-1.333-1.08-2.413-2.413-2.413c-1.332,0-2.412,1.08-2.412,2.413
		l-4.373,13.872C103.255,205.179,119.763,207.967,118.068,201.824z"/>
	<path fill="#7AD69C" d="M126.458,199.658l-4.409-13.607c0-1.333-1.08-2.413-2.413-2.413c-1.332,0-2.412,1.08-2.412,2.413
		l-4.373,13.872C111.645,203.014,128.153,205.802,126.458,199.658z"/>
	
		<path fill="#0FA1D6" stroke="#0FA1D6" stroke-width="2" stroke-linecap="round" stroke-linejoin="round" stroke-miterlimit="10" d="
		M907.497,130.854c5.488,4.059,4.095,7.541,1.388,11.201c-2.707,3.659,10.333-3.417,10.333-3.417s6.833-3.917,4.333-6.333
		C921.051,133.638,914.031,135.688,907.497,130.854z"/>
	<g>
		<path fill="#71B087" d="M929.779,230.852c0-11.611-2.339-21.025-5.224-21.025s-5.223,9.414-5.223,21.025
			c0,2.393,0.1,4.69,0.282,6.834h9.882C929.679,235.542,929.779,233.244,929.779,230.852z"/>
		<path fill="#71B087" d="M919.615,237.686c0.451,5.272,1.139,12.036,1.139,12.036h7.624c0,0,0.412-3.78,1.119-12.036H919.615z"/>
		<polygon fill="#71B087" points="923.629,221.71 923.57,226.629 927.523,226.629 927.452,221.71 		"/>
		<path fill="#7AD69C" d="M929.261,221.71h-1.809l0.071,4.919h2.148C929.584,224.904,929.446,223.253,929.261,221.71z"/>
		<path fill="#7AD69C" d="M919.85,221.71c-0.184,1.543-0.323,3.194-0.409,4.919h4.13l0.059-4.919H919.85z"/>
		<path fill="#71B087" d="M919.44,226.629c-0.069,1.365-0.107,2.775-0.107,4.223c0,0.132,0.003,0.26,0.003,0.392h4.18l0.055-4.614
			H919.44z"/>
		<polygon fill="#7AD69C" points="923.57,226.629 923.516,231.243 927.59,231.243 927.523,226.629 		"/>
		<path fill="#71B087" d="M929.779,230.852c0-1.448-0.038-2.858-0.107-4.223h-2.148l0.066,4.614h2.185
			C929.776,231.111,929.779,230.984,929.779,230.852z"/>
		<path fill="#7AD69C" d="M919.336,231.243c0.008,1.744,0.069,3.434,0.177,5.049h3.943l0.06-5.049H919.336z"/>
		<polygon fill="#71B087" points="923.516,231.243 923.456,236.292 927.664,236.292 927.59,231.243 		"/>
		<path fill="#7AD69C" d="M929.774,231.243h-2.185l0.074,5.049h1.936C929.705,234.677,929.767,232.987,929.774,231.243z"/>
	</g>
	<g>
		<circle fill="#71B087" cx="924.401" cy="256.717" r="3.02"/>
		<circle fill="#71B087" cx="925.156" cy="262.506" r="5.285"/>
		<circle fill="#71B087" cx="918.603" cy="289.564" r="5.285"/>
		<circle fill="#71B087" cx="920.29" cy="259.485" r="2.433"/>
		<circle fill="#71B087" cx="920.122" cy="279.317" r="2.433"/>
		<circle fill="#71B087" cx="921.968" cy="269.385" r="6.125"/>
		<circle fill="#71B087" cx="926.917" cy="276.013" r="3.524"/>
		<circle fill="#71B087" cx="914.481" cy="283.576" r="3.524"/>
	</g>
	<polygon fill="#71B087" points="917.405,247.763 920.78,247.763 920.78,241.763 918.968,241.763 	"/>
	<polygon fill="#71B087" points="931.718,247.763 928.343,247.763 928.343,241.763 930.155,241.763 	"/>
	<path fill="#71B087" d="M922.426,251.097c-0.436,1.816,1.989,4.625,1.989,4.625s2.705-2.521,2.705-4.551
		C923.885,251.17,922.426,251.097,922.426,251.097z"/>
	
		<path fill="#0FA1D6" stroke="#0FA1D6" stroke-width="2" stroke-linecap="round" stroke-linejoin="round" stroke-miterlimit="10" d="
		M250.617,196.391c-6.827,0-9.303,5.273-9.303,9.825s-4.005-14.539-4.005-14.539l3.89-2.344
		C241.2,189.333,242.489,196.391,250.617,196.391z"/>
	<path fill="none" stroke="#0FA1D6" stroke-width="2" stroke-miterlimit="10" d="M234.218,196.388c0,0,15.77,0,45.77,0
		c22.634,0,25.157,0.527,43.573,11.544c10.95,6.55,29.432,16.936,41.6,24.006c12.825,7.452,26.381,17.45,45.381,17.45
		s-0.326,0,35.674,0c6.81,0,11.638-2.102,18.804-6.066c3.769-2.085,16.481-9.541,21.106-12.336"/>
	<circle fill="none" stroke="#0FA1D6" stroke-width="2" stroke-miterlimit="10" cx="540.218" cy="140.389" r="105.597"/>
	<path fill="#71B087" d="M356.223,236.151l-9.748-30.082c-1.132-3.057-2.388-5.333-5.333-5.333c-2.945,0-3.138,1.525-5.333,5.333
		l-13.189,30.11C319.953,243.013,359.97,249.733,356.223,236.151z"/>
	<path fill="#FFFFFF" d="M347.553,209.213c-0.662-1.875-1.094-3.458-1.094-3.458c-0.943-3.667-2.388-5.333-5.333-5.333
		c-2.945,0-4.038,1.661-5.333,5.333l-1.363,3.48c-0.678,1.961,1.961,2.79,2.586,1.79s1.75-3.625,2.5-2.75s2,1.875,2.688,0.938
		s2.188-3.062,3.062-1.812S346.402,209.15,347.553,209.213z"/>
</g>
<g id="HEADER_pathway_page">
</g>
<g id="HEADER_circle">
	<g>
		<g>
			<g>
				<g>
					<path fill="#77BA8E" d="M304.6,183.388c0-0.068,0.018-0.136,0.054-0.197l1.492-2.585c0.071-0.123,0.202-0.198,0.343-0.198
						h2.985c0.141,0,0.271,0.076,0.343,0.198l1.492,2.585c0.071,0.122,0.071,0.272,0,0.396l-1.492,2.585
						c-0.071,0.122-0.202,0.197-0.343,0.197h-2.985c-0.141,0-0.272-0.075-0.343-0.197l-1.492-2.585
						C304.618,183.525,304.6,183.457,304.6,183.388z"/>
				</g>
			</g>
			<g>
				<g>
					<path fill="#77BA8E" d="M294.527,183.388c0-0.068,0.018-0.136,0.054-0.197l1.492-2.585c0.071-0.123,0.202-0.198,0.343-0.198
						h2.985c0.142,0,0.271,0.076,0.343,0.198l1.492,2.585c0.071,0.122,0.071,0.272,0,0.396l-1.492,2.585
						c-0.071,0.122-0.201,0.197-0.343,0.197h-2.985c-0.141,0-0.272-0.075-0.343-0.197l-1.492-2.585
						C294.545,183.525,294.527,183.457,294.527,183.388z"/>
				</g>
			</g>
			<g>
				<g>
					<path fill="#77BA8E" d="M302.944,181.732c-0.068,0-0.137-0.018-0.198-0.053l-2.584-1.492c-0.123-0.071-0.198-0.201-0.198-0.343
						v-2.984c0-0.142,0.075-0.272,0.198-0.343l2.584-1.492c0.123-0.071,0.273-0.071,0.396,0l2.585,1.492
						c0.123,0.071,0.198,0.201,0.198,0.343v2.984c0,0.142-0.075,0.272-0.198,0.343l-2.585,1.492
						C303.081,181.715,303.012,181.732,302.944,181.732z"/>
				</g>
			</g>
			<g>
				<g>
					<path fill="#77BA8E" d="M302.944,191.805c-0.068,0-0.137-0.018-0.198-0.053l-2.584-1.492c-0.123-0.071-0.198-0.201-0.198-0.343
						v-2.984c0-0.142,0.075-0.272,0.198-0.343l2.584-1.492c0.123-0.071,0.273-0.071,0.396,0l2.585,1.492
						c0.123,0.071,0.198,0.201,0.198,0.343v2.984c0,0.142-0.075,0.272-0.198,0.343l-2.585,1.492
						C303.081,191.787,303.012,191.805,302.944,191.805z"/>
				</g>
			</g>
		</g>
		<circle fill="#7AD69C" cx="302.944" cy="183.388" r="3.273"/>
	</g>
	<g>
		<g>
			<g>
				<g>
					<path fill="#77BA8E" d="M420.928,276.444c0-0.068,0.018-0.136,0.054-0.197l1.492-2.585c0.071-0.123,0.202-0.198,0.343-0.198
						h2.985c0.141,0,0.271,0.076,0.343,0.198l1.492,2.585c0.071,0.122,0.071,0.272,0,0.396l-1.492,2.585
						c-0.071,0.122-0.202,0.197-0.343,0.197h-2.985c-0.141,0-0.272-0.075-0.343-0.197l-1.492-2.585
						C420.946,276.581,420.928,276.512,420.928,276.444z"/>
				</g>
			</g>
			<g>
				<g>
					<path fill="#77BA8E" d="M410.856,276.444c0-0.068,0.018-0.136,0.054-0.197l1.492-2.585c0.071-0.123,0.202-0.198,0.343-0.198
						h2.985c0.142,0,0.271,0.076,0.343,0.198l1.492,2.585c0.071,0.122,0.071,0.272,0,0.396l-1.492,2.585
						c-0.071,0.122-0.201,0.197-0.343,0.197h-2.985c-0.141,0-0.272-0.075-0.343-0.197l-1.492-2.585
						C410.874,276.581,410.856,276.512,410.856,276.444z"/>
				</g>
			</g>
			<g>
				<g>
					<path fill="#77BA8E" d="M419.273,274.788c-0.068,0-0.137-0.018-0.198-0.053l-2.584-1.492c-0.123-0.071-0.198-0.201-0.198-0.343
						v-2.984c0-0.142,0.075-0.272,0.198-0.343l2.584-1.492c0.123-0.071,0.273-0.071,0.396,0l2.585,1.492
						c0.123,0.071,0.198,0.201,0.198,0.343v2.984c0,0.142-0.075,0.272-0.198,0.343l-2.585,1.492
						C419.41,274.771,419.341,274.788,419.273,274.788z"/>
				</g>
			</g>
			<g>
				<g>
					<path fill="#77BA8E" d="M419.273,284.86c-0.068,0-0.137-0.018-0.198-0.053l-2.584-1.492c-0.123-0.071-0.198-0.201-0.198-0.343
						v-2.984c0-0.142,0.075-0.272,0.198-0.343l2.584-1.492c0.123-0.071,0.273-0.071,0.396,0l2.585,1.492
						c0.123,0.071,0.198,0.201,0.198,0.343v2.984c0,0.142-0.075,0.272-0.198,0.343l-2.585,1.492
						C419.41,284.842,419.341,284.86,419.273,284.86z"/>
				</g>
			</g>
		</g>
		<circle fill="#7AD69C" cx="419.273" cy="276.444" r="3.273"/>
	</g>
	<g>
		<g>
			<g>
				<g>
					<path fill="#77BA8E" d="M749.424,271.922c0-0.068,0.019-0.136,0.054-0.197l1.492-2.585c0.07-0.123,0.201-0.198,0.342-0.198
						h2.985c0.142,0,0.271,0.076,0.343,0.198l1.492,2.585c0.07,0.122,0.07,0.272,0,0.396l-1.492,2.585
						c-0.071,0.122-0.201,0.197-0.343,0.197h-2.985c-0.141,0-0.271-0.075-0.342-0.197l-1.492-2.585
						C749.442,272.06,749.424,271.991,749.424,271.922z"/>
				</g>
			</g>
			<g>
				<g>
					<path fill="#77BA8E" d="M739.352,271.922c0-0.068,0.019-0.136,0.054-0.197l1.492-2.585c0.07-0.123,0.201-0.198,0.342-0.198
						h2.985c0.142,0,0.271,0.076,0.343,0.198l1.492,2.585c0.07,0.122,0.07,0.272,0,0.396l-1.492,2.585
						c-0.071,0.122-0.201,0.197-0.343,0.197h-2.985c-0.141,0-0.271-0.075-0.342-0.197l-1.492-2.585
						C739.37,272.06,739.352,271.991,739.352,271.922z"/>
				</g>
			</g>
			<g>
				<g>
					<path fill="#77BA8E" d="M747.769,270.267c-0.068,0-0.137-0.018-0.198-0.053l-2.585-1.492c-0.122-0.071-0.197-0.201-0.197-0.343
						v-2.984c0-0.142,0.075-0.272,0.197-0.343l2.585-1.492c0.122-0.071,0.272-0.071,0.396,0l2.585,1.492
						c0.122,0.071,0.198,0.201,0.198,0.343v2.984c0,0.142-0.076,0.272-0.198,0.343l-2.585,1.492
						C747.905,270.249,747.837,270.267,747.769,270.267z"/>
				</g>
			</g>
			<g>
				<g>
					<path fill="#77BA8E" d="M747.769,280.339c-0.068,0-0.137-0.018-0.198-0.053l-2.585-1.492c-0.122-0.071-0.197-0.201-0.197-0.343
						v-2.984c0-0.142,0.075-0.272,0.197-0.343l2.585-1.492c0.122-0.071,0.272-0.071,0.396,0l2.585,1.492
						c0.122,0.071,0.198,0.201,0.198,0.343v2.984c0,0.142-0.076,0.272-0.198,0.343l-2.585,1.492
						C747.905,280.321,747.837,280.339,747.769,280.339z"/>
				</g>
			</g>
		</g>
		<circle fill="#7AD69C" cx="747.769" cy="271.922" r="3.273"/>
	</g>
	<g>
		<g>
			<g>
				<g>
					<path fill="#77BA8E" d="M468.6,30.388c0-0.068,0.019-0.136,0.054-0.197l1.492-2.585c0.07-0.123,0.201-0.198,0.342-0.198h2.985
						c0.142,0,0.271,0.076,0.343,0.198l1.492,2.585c0.07,0.122,0.07,0.272,0,0.396l-1.492,2.585
						c-0.071,0.122-0.201,0.197-0.343,0.197h-2.985c-0.141,0-0.271-0.075-0.342-0.197l-1.492-2.585
						C468.618,30.525,468.6,30.457,468.6,30.388z"/>
				</g>
			</g>
			<g>
				<g>
					<path fill="#77BA8E" d="M458.527,30.388c0-0.068,0.019-0.136,0.054-0.197l1.492-2.585c0.07-0.123,0.201-0.198,0.342-0.198
						h2.985c0.142,0,0.271,0.076,0.343,0.198l1.492,2.585c0.07,0.122,0.07,0.272,0,0.396l-1.492,2.585
						c-0.071,0.122-0.201,0.197-0.343,0.197h-2.985c-0.141,0-0.271-0.075-0.342-0.197l-1.492-2.585
						C458.546,30.525,458.527,30.457,458.527,30.388z"/>
				</g>
			</g>
			<g>
				<g>
					<path fill="#77BA8E" d="M466.944,28.732c-0.068,0-0.137-0.018-0.198-0.053l-2.585-1.492c-0.122-0.071-0.197-0.201-0.197-0.343
						V23.86c0-0.142,0.075-0.272,0.197-0.343l2.585-1.492c0.122-0.071,0.272-0.071,0.396,0l2.585,1.492
						c0.122,0.071,0.198,0.201,0.198,0.343v2.984c0,0.142-0.076,0.272-0.198,0.343l-2.585,1.492
						C467.081,28.715,467.013,28.732,466.944,28.732z"/>
				</g>
			</g>
			<g>
				<g>
					<path fill="#77BA8E" d="M466.944,38.805c-0.068,0-0.137-0.018-0.198-0.053l-2.585-1.492c-0.122-0.071-0.197-0.201-0.197-0.343
						v-2.984c0-0.142,0.075-0.272,0.197-0.343l2.585-1.492c0.122-0.071,0.272-0.071,0.396,0l2.585,1.492
						c0.122,0.071,0.198,0.201,0.198,0.343v2.984c0,0.142-0.076,0.272-0.198,0.343l-2.585,1.492
						C467.081,38.787,467.013,38.805,466.944,38.805z"/>
				</g>
			</g>
		</g>
		<circle fill="#7AD69C" cx="466.944" cy="30.388" r="3.273"/>
	</g>
	<g>
		<g>
			<g>
				<g>
					<path fill="#77BA8E" d="M802.449,36.269c0-0.068,0.019-0.136,0.054-0.197l1.492-2.585c0.07-0.123,0.201-0.198,0.342-0.198
						h2.985c0.142,0,0.271,0.076,0.343,0.198l1.492,2.585c0.07,0.122,0.07,0.272,0,0.396l-1.492,2.585
						c-0.071,0.122-0.201,0.197-0.343,0.197h-2.985c-0.141,0-0.271-0.075-0.342-0.197l-1.492-2.585
						C802.468,36.406,802.449,36.337,802.449,36.269z"/>
				</g>
			</g>
			<g>
				<g>
					<path fill="#77BA8E" d="M792.377,36.269c0-0.068,0.019-0.136,0.054-0.197l1.492-2.585c0.07-0.123,0.201-0.198,0.342-0.198
						h2.985c0.142,0,0.271,0.076,0.343,0.198l1.492,2.585c0.07,0.122,0.07,0.272,0,0.396l-1.492,2.585
						c-0.071,0.122-0.201,0.197-0.343,0.197h-2.985c-0.141,0-0.271-0.075-0.342-0.197l-1.492-2.585
						C792.396,36.406,792.377,36.337,792.377,36.269z"/>
				</g>
			</g>
			<g>
				<g>
					<path fill="#77BA8E" d="M800.794,34.613c-0.068,0-0.137-0.018-0.198-0.053l-2.585-1.492c-0.122-0.071-0.197-0.201-0.197-0.343
						v-2.984c0-0.142,0.075-0.272,0.197-0.343l2.585-1.492c0.122-0.071,0.272-0.071,0.396,0l2.585,1.492
						c0.122,0.071,0.198,0.201,0.198,0.343v2.984c0,0.142-0.076,0.272-0.198,0.343l-2.585,1.492
						C800.931,34.596,800.862,34.613,800.794,34.613z"/>
				</g>
			</g>
			<g>
				<g>
					<path fill="#77BA8E" d="M800.794,44.686c-0.068,0-0.137-0.018-0.198-0.053l-2.585-1.492c-0.122-0.071-0.197-0.201-0.197-0.343
						v-2.984c0-0.142,0.075-0.272,0.197-0.343l2.585-1.492c0.122-0.071,0.272-0.071,0.396,0l2.585,1.492
						c0.122,0.071,0.198,0.201,0.198,0.343v2.984c0,0.142-0.076,0.272-0.198,0.343l-2.585,1.492
						C800.931,44.667,800.862,44.686,800.794,44.686z"/>
				</g>
			</g>
		</g>
		<circle fill="#7AD69C" cx="800.794" cy="36.269" r="3.273"/>
	</g>
	<g>
		<g>
			<g>
				<g>
					<path fill="#77BA8E" d="M1001.4,153.844c0-0.068,0.019-0.136,0.054-0.197l1.492-2.585c0.07-0.123,0.201-0.198,0.342-0.198
						h2.985c0.142,0,0.271,0.076,0.343,0.198l1.492,2.585c0.07,0.122,0.07,0.272,0,0.396l-1.492,2.585
						c-0.071,0.122-0.201,0.197-0.343,0.197h-2.985c-0.141,0-0.271-0.075-0.342-0.197l-1.492-2.585
						C1001.419,153.981,1001.4,153.913,1001.4,153.844z"/>
				</g>
			</g>
			<g>
				<g>
					<path fill="#77BA8E" d="M991.328,153.844c0-0.068,0.019-0.136,0.054-0.197l1.492-2.585c0.07-0.123,0.201-0.198,0.342-0.198
						h2.985c0.142,0,0.271,0.076,0.343,0.198l1.492,2.585c0.07,0.122,0.07,0.272,0,0.396l-1.492,2.585
						c-0.071,0.122-0.201,0.197-0.343,0.197h-2.985c-0.141,0-0.271-0.075-0.342-0.197l-1.492-2.585
						C991.347,153.981,991.328,153.913,991.328,153.844z"/>
				</g>
			</g>
			<g>
				<g>
					<path fill="#77BA8E" d="M999.745,152.188c-0.068,0-0.137-0.018-0.198-0.053l-2.585-1.492c-0.122-0.071-0.197-0.201-0.197-0.343
						v-2.984c0-0.142,0.075-0.272,0.197-0.343l2.585-1.492c0.122-0.071,0.272-0.071,0.396,0l2.585,1.492
						c0.122,0.071,0.198,0.201,0.198,0.343v2.984c0,0.142-0.076,0.272-0.198,0.343l-2.585,1.492
						C999.882,152.171,999.813,152.188,999.745,152.188z"/>
				</g>
			</g>
			<g>
				<g>
					<path fill="#77BA8E" d="M999.745,162.261c-0.068,0-0.137-0.018-0.198-0.053l-2.585-1.492c-0.122-0.071-0.197-0.201-0.197-0.343
						v-2.984c0-0.142,0.075-0.272,0.197-0.343l2.585-1.492c0.122-0.071,0.272-0.071,0.396,0l2.585,1.492
						c0.122,0.071,0.198,0.201,0.198,0.343v2.984c0,0.142-0.076,0.272-0.198,0.343l-2.585,1.492
						C999.882,162.243,999.813,162.261,999.745,162.261z"/>
				</g>
			</g>
		</g>
		<circle fill="#7AD69C" cx="999.745" cy="153.844" r="3.273"/>
	</g>
	<g>
		<g>
			<g>
				<g>
					<path fill="#77BA8E" d="M58.873,162.662c0-0.068,0.018-0.136,0.054-0.197l1.492-2.585c0.071-0.123,0.202-0.198,0.343-0.198
						h2.985c0.141,0,0.271,0.076,0.343,0.198l1.492,2.585c0.071,0.122,0.071,0.272,0,0.396l-1.492,2.585
						c-0.071,0.122-0.202,0.197-0.343,0.197h-2.985c-0.141,0-0.272-0.075-0.343-0.197l-1.492-2.585
						C58.891,162.799,58.873,162.73,58.873,162.662z"/>
				</g>
			</g>
			<g>
				<g>
					<path fill="#77BA8E" d="M48.801,162.662c0-0.068,0.018-0.136,0.054-0.197l1.492-2.585c0.071-0.123,0.202-0.198,0.343-0.198
						h2.985c0.142,0,0.271,0.076,0.343,0.198l1.492,2.585c0.071,0.122,0.071,0.272,0,0.396l-1.492,2.585
						c-0.071,0.122-0.201,0.197-0.343,0.197h-2.985c-0.141,0-0.272-0.075-0.343-0.197l-1.492-2.585
						C48.819,162.799,48.801,162.73,48.801,162.662z"/>
				</g>
			</g>
			<g>
				<g>
					<path fill="#77BA8E" d="M57.218,161.006c-0.068,0-0.137-0.018-0.198-0.053l-2.584-1.492c-0.123-0.071-0.198-0.201-0.198-0.343
						v-2.984c0-0.142,0.075-0.272,0.198-0.343l2.584-1.492c0.123-0.071,0.273-0.071,0.396,0L60,155.791
						c0.123,0.071,0.198,0.201,0.198,0.343v2.984c0,0.142-0.075,0.272-0.198,0.343l-2.585,1.492
						C57.354,160.988,57.286,161.006,57.218,161.006z"/>
				</g>
			</g>
			<g>
				<g>
					<path fill="#77BA8E" d="M57.218,171.078c-0.068,0-0.137-0.018-0.198-0.053l-2.584-1.492c-0.123-0.071-0.198-0.201-0.198-0.343
						v-2.984c0-0.142,0.075-0.272,0.198-0.343l2.584-1.492c0.123-0.071,0.273-0.071,0.396,0L60,165.863
						c0.123,0.071,0.198,0.201,0.198,0.343v2.984c0,0.142-0.075,0.272-0.198,0.343l-2.585,1.492
						C57.354,171.06,57.286,171.078,57.218,171.078z"/>
				</g>
			</g>
		</g>
		<circle fill="#7AD69C" cx="57.218" cy="162.662" r="3.273"/>
	</g>
	<g>
		<g>
			<g>
				<g>
					<path fill="#77BA8E" d="M85.873,73.388c0-0.068,0.018-0.136,0.054-0.197l1.492-2.585c0.071-0.123,0.202-0.198,0.343-0.198
						h2.985c0.141,0,0.271,0.076,0.343,0.198l1.492,2.585c0.071,0.122,0.071,0.272,0,0.396l-1.492,2.585
						c-0.071,0.122-0.202,0.197-0.343,0.197h-2.985c-0.141,0-0.272-0.075-0.343-0.197l-1.492-2.585
						C85.891,73.525,85.873,73.457,85.873,73.388z"/>
				</g>
			</g>
			<g>
				<g>
					<path fill="#77BA8E" d="M75.801,73.388c0-0.068,0.018-0.136,0.054-0.197l1.492-2.585c0.071-0.123,0.202-0.198,0.343-0.198
						h2.985c0.142,0,0.271,0.076,0.343,0.198l1.492,2.585c0.071,0.122,0.071,0.272,0,0.396l-1.492,2.585
						c-0.071,0.122-0.201,0.197-0.343,0.197h-2.985c-0.141,0-0.272-0.075-0.343-0.197l-1.492-2.585
						C75.819,73.525,75.801,73.457,75.801,73.388z"/>
				</g>
			</g>
			<g>
				<g>
					<path fill="#77BA8E" d="M84.218,71.732c-0.068,0-0.137-0.018-0.198-0.053l-2.584-1.492c-0.123-0.071-0.198-0.201-0.198-0.343
						V66.86c0-0.142,0.075-0.272,0.198-0.343l2.584-1.492c0.123-0.071,0.273-0.071,0.396,0L87,66.517
						c0.123,0.071,0.198,0.201,0.198,0.343v2.984c0,0.142-0.075,0.272-0.198,0.343l-2.585,1.492
						C84.354,71.715,84.286,71.732,84.218,71.732z"/>
				</g>
			</g>
			<g>
				<g>
					<path fill="#77BA8E" d="M84.218,81.805c-0.068,0-0.137-0.018-0.198-0.053l-2.584-1.492c-0.123-0.071-0.198-0.201-0.198-0.343
						v-2.984c0-0.142,0.075-0.272,0.198-0.343l2.584-1.492c0.123-0.071,0.273-0.071,0.396,0L87,76.589
						c0.123,0.071,0.198,0.201,0.198,0.343v2.984c0,0.142-0.075,0.272-0.198,0.343l-2.585,1.492
						C84.354,81.787,84.286,81.805,84.218,81.805z"/>
				</g>
			</g>
		</g>
		<circle fill="#7AD69C" cx="84.218" cy="73.388" r="3.273"/>
	</g>
	<g>
		<circle fill="#FFFFFF" stroke="#FFFFFF" stroke-width="30" stroke-miterlimit="10" cx="540.218" cy="140.389" r="85"/>
		<g>
			<defs>
				<polygon id="SVGID_1_" points="537.218,155.389 628.218,269.389 663.218,18.389 537.218,18.389 				"/>
			</defs>
			<clipPath id="SVGID_2_">
				<use xlink:href="#SVGID_1_"  overflow="visible"/>
			</clipPath>
		</g>
	</g>
</g>
</svg>
