<?xml version="1.0" encoding="utf-8"?>
<!-- Generator: Adobe Illustrator 16.0.0, SVG Export Plug-In . SVG Version: 6.00 Build 0)  -->
<!DOCTYPE svg PUBLIC "-//W3C//DTD SVG 1.1//EN" "http://www.w3.org/Graphics/SVG/1.1/DTD/svg11.dtd">
<svg version="1.1" id="Layer_1" xmlns="http://www.w3.org/2000/svg" xmlns:xlink="http://www.w3.org/1999/xlink" x="0px" y="0px"
	 width="120px" height="120px" viewBox="0 0 120 120" enable-background="new 0 0 120 120" xml:space="preserve">
<circle fill="#F2DE6D" cx="60" cy="60" r="60"/>
<path opacity="0.5" fill="#D9C136" d="M81.667,18.389l35.333,37c0,0,5.001,28.666-19.333,50c-19.167,15-41.667,12-41.667,12
	L36.688,97.951l3.25-6.875l10.266-12.594l5.234-2.594l2-1.438l14.82-14.976l4.309-6.395l3.36-6.222l2.896-6.963L81.667,18.389z"/>
<g>
	<path fill="#FFFFFF" d="M60,3c31.43,0,57,25.57,57,57s-25.57,57-57,57S3,91.43,3,60S28.57,3,60,3 M60,0C26.863,0,0,26.863,0,60
		s26.863,60,60,60s60-26.863,60-60S93.137,0,60,0L60,0z"/>
</g>
<path opacity="0.15" fill="#8C8C8C" d="M50.15,46.379c2.267-4.324,2.028-4.188,3.522-6.84c1.494-2.65,2.185-3.827,3.798-5.906
	c1.613-2.078,3.226-4.153,4.711-5.907s8.282,4.898,8.282,4.898L58.797,51.492L50.15,46.379z"/>
<g>
	<g>
		<path fill="#FFFFFF" d="M57.471,33.633c0.008-0.01,0.011-0.022,0.019-0.033c-1.216,1.705-2.396,3.518-3.522,5.422
			c-0.103,0.173-0.193,0.346-0.294,0.518l9.164,5.42l3.691-5.971L57.471,33.633z"/>
		<path fill="#FFFFFF" d="M58.797,51.492l-8.646-5.113c0.003-0.008,0.005-0.017,0.008-0.024c-0.299,0.663-0.591,1.325-0.861,1.981
			l21.668,12.812c0.814-1.018,1.085-1.403,1.304-1.691l-4.244-2.509l3.746-6.707l-8.934-5.282L58.797,51.492z"/>
		<path fill="#FFFFFF" d="M78.848,37.582l3.967,2.346c3.591-10.303,3.423-18.974-1.119-21.658
			c-4.54-2.686-12.218,1.346-19.514,9.456l8.282,4.898l-3.936,6.364l8.668,5.127L78.848,37.582z"/>
		<path fill="#FFFFFF" d="M79.908,46.9l-4.712-2.785l-3.426,6.126l4.791,2.833c-0.001,0.002-0.002,0.004-0.002,0.006
			c0.104-0.174,0.211-0.338,0.314-0.513c1.125-1.902,2.143-3.807,3.051-5.69C79.92,46.886,79.912,46.892,79.908,46.9z"/>
	</g>
	<path fill="#FFFFFF" d="M49.297,48.336c-3.093,7.488-4.861,18.43-4.861,18.43l12.917,7.667c0,0,5.672-3.392,13.612-13.284
		L49.297,48.336z"/>
</g>
<polygon fill="#FFFFFF" points="26.91,62.764 35.613,67.625 45.864,61.986 50.15,46.379 47.338,48.406 "/>
<polygon fill="#FFFFFF" points="70.618,87.915 61.905,83.07 61.308,71.388 72.269,59.457 72.082,62.989 "/>
<path fill="#F0F0F0" d="M45.249,69.862c-2.479,2.038,0.395,9.157,0.395,9.157s7.983-0.143,9.7-3.046
	C48.344,71.834,45.249,69.862,45.249,69.862z"/>
<g>
	<circle fill="#F0F0F0" cx="47.335" cy="77.727" r="3.02"/>
	<circle fill="#F0F0F0" cx="44.706" cy="82.939" r="5.285"/>
	<circle fill="#F0F0F0" cx="42.378" cy="77.705" r="2.433"/>
	<circle fill="#F0F0F0" cx="31.093" cy="94.013" r="2.433"/>
	<circle fill="#F0F0F0" cx="38.202" cy="86.837" r="6.124"/>
	<circle fill="#F0F0F0" cx="38.57" cy="95.101" r="3.524"/>
</g>
<path opacity="0.15" fill="#8C8C8C" d="M81.893,18.41c0,0-3.68,17.201-30.721,52.354c3.272,2.071,6.181,3.669,6.181,3.669
	s1.471-0.884,3.955-3.044l0.598,11.682l8.713,4.845l1.464-24.926l0.187-3.532l4.293-6.383c-0.001,0.002-0.002,0.004-0.002,0.006
	c0.104-0.174,0.211-0.338,0.314-0.513c1.125-1.902,2.143-3.807,3.051-5.69c-0.005,0.009-0.013,0.015-0.017,0.023l2.906-6.973
	C86.35,29.784,86.232,21.234,81.893,18.41z"/>
<polygon opacity="0.15" fill="#8C8C8C" points="71.084,41.68 66.501,38.972 62.792,44.972 67.417,47.722 "/>
</svg>
