<?xml version="1.0" encoding="utf-8"?>
<!-- Generator: Adobe Illustrator 16.0.0, SVG Export Plug-In . SVG Version: 6.00 Build 0)  -->
<!DOCTYPE svg PUBLIC "-//W3C//DTD SVG 1.1//EN" "http://www.w3.org/Graphics/SVG/1.1/DTD/svg11.dtd">
<svg version="1.1" xmlns="http://www.w3.org/2000/svg" xmlns:xlink="http://www.w3.org/1999/xlink" x="0px" y="0px" width="200px"
	 height="200px" viewBox="0 0 200 200" enable-background="new 0 0 200 200" xml:space="preserve">
<g id="Layer_2">
	<g>
		<path fill="#7AD69C" d="M100,7.407L100,7.407C48.862,7.407,7.407,48.864,7.407,100c0,51.141,41.455,92.594,92.593,92.594
			s92.593-41.453,92.593-92.594C192.593,48.864,151.138,7.407,100,7.407"/>
	</g>
</g>
<g id="Layer_3">
	<g>
		<g>
			<g>
				<g>
					<path fill="#7AD69C" d="M63.767,143.644c-0.49,0-0.98-0.124-1.426-0.377l-18.594-10.737c-0.885-0.518-1.426-1.457-1.426-2.475
						v-21.474c0-1.018,0.541-1.957,1.426-2.464l18.594-10.737c0.885-0.511,1.972-0.511,2.853,0l18.601,10.737
						c0.877,0.507,1.423,1.447,1.423,2.464v21.474c0,1.018-0.546,1.957-1.423,2.475l-18.601,10.737
						C64.751,143.52,64.261,143.644,63.767,143.644z"/>
					<path fill="#FFFFFF" d="M63.767,146.144c-0.931,0-1.851-0.243-2.661-0.703l-18.609-10.746c-1.655-0.968-2.676-2.743-2.676-4.64
						v-21.474c0-1.909,1.028-3.685,2.682-4.633l18.587-10.733c1.629-0.941,3.732-0.939,5.356,0.002l18.597,10.735
						c1.649,0.954,2.673,2.728,2.673,4.629v21.474c0,1.889-1.016,3.662-2.652,4.628l-18.621,10.749
						C65.625,145.899,64.703,146.144,63.767,146.144z M63.769,97.496c-0.043,0-0.109,0.009-0.178,0.048l-18.594,10.737
						c-0.112,0.064-0.176,0.175-0.176,0.299v21.474c0,0.13,0.07,0.248,0.188,0.316l18.582,10.73c0.09,0.051,0.251,0.057,0.362-0.005
						l18.591-10.732c0.099-0.059,0.173-0.182,0.173-0.31v-21.474c0-0.123-0.067-0.238-0.175-0.3L63.943,97.544
						C63.887,97.512,63.83,97.496,63.769,97.496z"/>
				</g>
			</g>
			<g>
				<g>
					<path fill="#7AD69C" d="M136.229,143.644c-0.49,0-0.98-0.124-1.418-0.377l-18.604-10.737c-0.882-0.518-1.423-1.457-1.423-2.475
						v-21.474c0-1.018,0.541-1.957,1.423-2.464l18.604-10.737c0.874-0.511,1.963-0.511,2.845,0l18.601,10.737
						c0.878,0.507,1.423,1.447,1.423,2.464v21.474c0,1.018-0.545,1.957-1.423,2.475l-18.601,10.737
						C137.213,143.52,136.72,143.644,136.229,143.644z"/>
					<path fill="#FFFFFF" d="M136.229,146.144c-0.939,0-1.863-0.246-2.669-0.713l-18.604-10.736
						c-1.654-0.971-2.673-2.745-2.673-4.64v-21.474c0-1.907,1.025-3.682,2.676-4.631l18.602-10.735
						c1.596-0.932,3.718-0.942,5.348,0.001l18.598,10.736c1.649,0.953,2.673,2.727,2.673,4.629v21.474
						c0,1.89-1.017,3.663-2.653,4.628l-18.62,10.749C138.088,145.899,137.165,146.144,136.229,146.144z M136.23,97.496
						c-0.04,0-0.1,0.007-0.158,0.042l-18.616,10.744c-0.109,0.063-0.173,0.174-0.173,0.299v21.474c0,0.13,0.07,0.249,0.188,0.318
						l18.589,10.729c0.126,0.073,0.222,0.071,0.354-0.005l18.592-10.732c0.099-0.059,0.173-0.182,0.173-0.31v-21.474
						c0-0.123-0.066-0.238-0.174-0.3l-18.6-10.737C136.336,97.504,136.272,97.496,136.23,97.496z"/>
				</g>
			</g>
			<g>
				<g>
					<path fill="#7AD69C" d="M100.188,86c-0.494,0-0.984-0.12-1.423-0.377L80.164,74.887c-0.881-0.518-1.427-1.454-1.427-2.472
						V50.938c0-1.015,0.546-1.954,1.427-2.465l18.601-10.737c0.877-0.507,1.964-0.507,2.845,0l18.604,10.737
						c0.875,0.511,1.42,1.45,1.42,2.465v21.477c0,1.018-0.545,1.954-1.42,2.472l-18.604,10.737C101.168,85.88,100.678,86,100.188,86
						z"/>
					<path fill="#FFFFFF" d="M100.188,88.5c-0.954,0-1.882-0.249-2.687-0.72L78.914,77.052c-1.657-0.974-2.677-2.747-2.677-4.637
						V50.938c0-1.898,1.024-3.672,2.673-4.627l18.604-10.739c1.616-0.935,3.718-0.936,5.343-0.001l18.605,10.738
						c1.65,0.963,2.67,2.735,2.67,4.63v21.477c0,1.886-1.015,3.658-2.647,4.624l-18.626,10.75
						C102.062,88.253,101.135,88.5,100.188,88.5z M100.186,39.856c-0.042,0-0.105,0.008-0.169,0.044L81.414,50.639
						c-0.107,0.062-0.177,0.178-0.177,0.3v21.477c0,0.127,0.072,0.245,0.193,0.316l18.584,10.727
						c0.151,0.089,0.265,0.047,0.337,0.004l18.611-10.741c0.096-0.057,0.17-0.18,0.17-0.307V50.938c0-0.122-0.07-0.242-0.181-0.306
						L100.36,39.902C100.294,39.864,100.229,39.856,100.186,39.856z"/>
				</g>
			</g>
		</g>
		<g>
			
				<rect x="79.023" y="77.576" transform="matrix(0.7953 0.6062 -0.6062 0.7953 71.3676 -30.9578)" fill="#FFFFFF" width="5" height="25.238"/>
		</g>
		<g>
			
				<rect x="106.18" y="87.695" transform="matrix(0.6063 0.7953 -0.7953 0.6063 118.5061 -58.9634)" fill="#FFFFFF" width="25.238" height="5"/>
		</g>
	</g>
</g>
<g id="Layer_1">
	<g>
		<g>
			<path fill="#7AD69C" d="M100,200.001C44.859,200.001,0,155.141,0,100S44.859,0,100,0c55.14,0,100,44.859,100,100
				S155.14,200.001,100,200.001z M100,11.927c-48.563,0-88.073,39.51-88.073,88.073c0,48.565,39.51,88.076,88.073,88.076
				s88.074-39.511,88.074-88.076C188.074,51.437,148.563,11.927,100,11.927z"/>
		</g>
	</g>
	<g>
		<g>
			<path fill="#FFFFFF" d="M100,14.815c46.971,0,85.186,38.214,85.186,85.185c0,46.972-38.215,85.187-85.186,85.187
				S14.815,146.972,14.815,100C14.815,53.029,53.029,14.815,100,14.815 M100,7.407C48.862,7.407,7.407,48.864,7.407,100
				c0,51.141,41.455,92.594,92.593,92.594s92.593-41.453,92.593-92.594C192.593,48.864,151.138,7.407,100,7.407L100,7.407z"/>
		</g>
	</g>
</g>
</svg>
