<?xml version="1.0" encoding="utf-8"?>
<!-- Generator: Adobe Illustrator 16.0.0, SVG Export Plug-In . SVG Version: 6.00 Build 0)  -->
<!DOCTYPE svg PUBLIC "-//W3C//DTD SVG 1.1//EN" "http://www.w3.org/Graphics/SVG/1.1/DTD/svg11.dtd">
<svg version="1.1" id="Layer_1" xmlns="http://www.w3.org/2000/svg" xmlns:xlink="http://www.w3.org/1999/xlink" x="0px" y="0px"
	 width="459px" height="150px" viewBox="0 0 459 150" enable-background="new 0 0 459 150" xml:space="preserve">
<g>
	<path fill="#4E4F53" d="M154.957,17.867c0.31,0.477,0.446,0.906,0.616,1.807c1.219-1.184,2.716-1.807,4.346-1.807
		c1.472,0,2.684,0.477,3.62,1.454c0.247,0.244,0.494,0.563,0.704,0.872c1.63-1.673,3.087-2.326,5.044-2.326
		c1.39,0,2.709,0.414,3.518,1.108c1.001,0.87,1.325,1.915,1.325,4.351v12.66h-4.526V24.234c0-2.134-0.251-2.546-1.46-2.546
		c-0.876,0-2.097,0.595-3.094,1.498v12.8h-4.414V24.398c0-2.222-0.324-2.743-1.622-2.743c-0.862,0-2.05,0.444-3.056,1.353v12.978
		h-4.549V23.565c0-2.572-0.18-3.681-0.666-4.556L154.957,17.867z"/>
	<path fill="#4E4F53" d="M190.776,20.511c1.421,1.666,2.061,3.613,2.061,6.503c0,3.055-0.705,5.147-2.238,6.886
		c-1.346,1.525-3.129,2.467-5.87,2.467c-4.839,0-8-3.618-8-9.212c0-5.605,3.192-9.327,8-9.327
		C187.269,17.828,189.252,18.702,190.776,20.511z M182.396,23.081c-0.316,0.94-0.483,2.192-0.483,3.965
		c0,2.052,0.208,3.587,0.586,4.49c0.424,0.97,1.469,1.458,2.365,1.458c2.017,0,2.884-1.808,2.884-6.014
		c0-2.402-0.313-3.972-0.937-4.774c-0.446-0.583-1.176-0.935-2.016-0.935C183.681,21.271,182.781,21.964,182.396,23.081z"/>
	<path fill="#4E4F53" d="M207.829,18.174v3.203l-7.866,11.372h8.171l-1.115,3.237h-13.11v-2.885l8.376-11.654h-7.673v-3.273H207.829
		z"/>
	<path fill="#4E4F53" d="M215.71,13.271c0,1.606-1.279,2.883-2.888,2.883c-1.556,0-2.841-1.277-2.841-2.883
		c0-1.593,1.325-2.886,2.92-2.886C214.468,10.385,215.71,11.678,215.71,13.271z M215.159,17.761v18.225h-4.655V18.49L215.159,17.761
		z"/>
	<path fill="#4E4F53" d="M223.646,14.877V28.75c0,3.067,0.037,3.479,0.317,3.965c0.175,0.319,0.553,0.487,0.942,0.487
		c0.168,0,0.268,0,0.521-0.068l0.796,2.785c-0.796,0.312-1.77,0.485-2.783,0.485c-1.985,0-3.581-0.937-4.14-2.43
		c-0.351-0.906-0.424-1.467-0.424-4.004V16.678c0-2.331-0.059-3.752-0.232-5.358l4.763-1.08
		C223.575,11.214,223.646,12.365,223.646,14.877z"/>
	<path fill="#4E4F53" d="M233.316,14.877V28.75c0,3.067,0.039,3.479,0.327,3.965c0.162,0.319,0.535,0.487,0.928,0.487
		c0.171,0,0.278,0,0.527-0.068l0.795,2.785c-0.795,0.312-1.773,0.485-2.786,0.485c-1.985,0-3.583-0.937-4.142-2.43
		c-0.354-0.906-0.415-1.467-0.415-4.004V16.678c0-2.331-0.068-3.752-0.244-5.358l4.76-1.08
		C233.258,11.214,233.316,12.365,233.316,14.877z"/>
	<path fill="#4E4F53" d="M240.627,18.839c1.732-0.729,3.222-1.044,4.859-1.044c3.006,0,5.051,1.11,5.75,3.095
		c0.23,0.732,0.341,1.286,0.317,3.2l-0.11,5.978c0,0.106,0,0.215,0,0.316c0,1.915,0.312,2.649,1.677,3.651l-2.472,2.859
		c-1.091-0.456-2.061-1.259-2.512-2.161c-0.342,0.35-0.73,0.691-1.079,0.939c-0.87,0.625-2.125,0.975-3.587,0.975
		c-3.968,0-6.122-2.019-6.122-5.562c0-4.181,2.895-6.13,8.556-6.13c0.343,0,0.665,0,1.052,0.038v-0.727
		c0-1.984-0.387-2.644-2.101-2.644c-1.479,0-3.234,0.72-5.143,2.012l-1.982-3.337C238.673,19.706,239.372,19.357,240.627,18.839z
		 M246.665,28.195c-3.224,0-4.352,0.588-4.352,2.717c0,1.387,0.883,2.323,2.063,2.323c0.867,0,1.744-0.454,2.431-1.213l0.073-3.827
		H246.665z"/>
</g>
<g>
	<path fill="#4E4F53" d="M190.711,104.366c-5.471,6.98-11.129,9.146-23.295,9.146h-16.128V48.25h13.581
		c12.261,0,19.522,2.264,25.654,9.243c4.812,5.563,7.074,13.39,7.074,23.577C197.597,90.975,195.145,98.706,190.711,104.366z
		 M181.372,62.487c-3.018-4.147-6.413-5.656-12.26-5.656h-6.884v47.816h7.17c11.502,0,16.124-7.638,16.124-22.445
		C185.521,73.807,184.766,67.11,181.372,62.487z"/>
	<path fill="#4E4F53" d="M201.832,51.833c0-3.87,3.018-6.982,6.885-6.982c3.679,0,6.792,3.02,6.792,6.982
		c0,3.771-3.112,6.885-6.978,6.885C204.758,58.718,201.832,55.604,201.832,51.833z M203.342,113.513v-48.84l10.467-0.009v48.849
		H203.342z"/>
	<path fill="#4E4F53" d="M235.974,114.838c-5.846,0-12.168-1.89-18.301-5.286l3.682-7.448c4.241,2.453,10.089,4.996,15.463,4.996
		c4.531,0,7.737-2.733,7.737-6.695c0-3.678-2.359-5.563-7.737-6.693l-5.749-1.229c-7.171-1.508-11.412-6.414-11.412-13.111
		c0-8.958,7.167-15.187,17.729-15.187c6.507,0,11.696,1.985,15.753,4.152l-3.397,7.17c-4.432-2.359-7.921-3.494-11.697-3.494
		c-4.431,0-7.26,2.456-7.26,6.134c0,2.923,1.603,4.434,6.417,5.659l5.938,1.509c9.626,2.449,12.17,7.733,12.17,13.299
		C255.309,108.229,247.478,114.838,235.974,114.838z"/>
	<path fill="#4E4F53" d="M278.785,114.739c-13.018,0-20.275-9.148-20.275-24.521c0-17.353,10.373-25.652,21.028-25.652
		c5.188,0,8.964,1.226,13.207,5.187l-5.189,6.885c-2.829-2.545-5.282-3.681-8.018-3.681c-3.301,0-6.034,1.702-7.542,4.811
		c-1.414,2.927-1.979,7.357-1.979,13.3c0,6.507,1.037,10.658,3.203,13.016c1.508,1.699,3.772,2.733,6.318,2.733
		c3.302,0,6.51-1.604,9.621-4.713l4.904,6.318C289.728,112.759,285.2,114.739,278.785,114.739z"/>
	<path fill="#4E4F53" d="M335.273,89.842c0,15.371-8.205,24.897-21.124,24.897s-21.03-9.71-21.03-24.991
		c0-15.28,8.201-25.084,20.839-25.084C327.542,64.664,335.273,74.75,335.273,89.842z M304.623,89.086
		c0,13.863,3.488,17.92,9.715,17.92c6.13,0,9.525-4.997,9.525-16.978c0-13.488-3.771-17.541-9.808-17.541
		C307.453,72.487,304.623,77.485,304.623,89.086z"/>
	<path fill="#4E4F53" d="M359.415,113.703h-9.147l-17.732-49.04h11.226l8.297,25.746c1.603,4.996,2.926,10.655,2.926,10.655h0.187
		c0,0,1.037-5.659,2.832-11.036l8.343-25.365h10.848L359.415,113.703z"/>
	<path fill="#4E4F53" d="M387.044,92.482v0.754c0,6.604,2.45,13.58,11.79,13.58c4.436,0,8.297-1.604,11.884-4.713l4.056,6.318
		c-4.999,4.243-10.754,6.317-17.167,6.317c-13.486,0-21.976-9.71-21.976-24.991c0-8.395,1.791-13.961,5.939-18.676
		c3.868-4.433,8.585-6.409,14.622-6.409c4.715,0,9.054,1.22,13.11,4.898c4.15,3.777,6.224,9.624,6.224,20.75v2.171H387.044z
		 M396.192,72.487c-5.851,0-9.056,4.621-9.056,12.354h17.638C404.774,77.108,401.378,72.487,396.192,72.487z"/>
	<path fill="#4E4F53" d="M442.497,74.843c-1.039-0.375-1.793-0.66-2.928-0.66c-4.339,0-8.017,3.209-8.957,7.075v32.255h-10.374
		V79.846c0-6.039-0.663-9.906-1.697-12.829l9.526-2.452c1.128,2.168,1.792,4.904,1.792,7.544c3.771-5.188,7.543-7.637,12.162-7.637
		c1.511,0,2.452,0.191,3.677,0.753L442.497,74.843z"/>
</g>
<g>
	<linearGradient id="SVGID_1_" gradientUnits="userSpaceOnUse" x1="14.0918" y1="80.0596" x2="118.5024" y2="80.0596">
		<stop  offset="0" style="stop-color:#5BC0A4"/>
		<stop  offset="1" style="stop-color:#009FDA"/>
	</linearGradient>
	<polygon fill="url(#SVGID_1_)" points="14.092,110.197 14.092,49.915 66.293,19.773 118.502,49.915 118.502,110.197 
		66.293,140.347 	"/>
</g>
<g>
	<defs>
		<polygon id="SVGID_2_" points="14.094,110.197 14.094,49.915 66.296,19.773 118.505,49.915 118.505,110.197 66.296,140.347 		"/>
	</defs>
	<clipPath id="SVGID_3_">
		<use xlink:href="#SVGID_2_"  overflow="visible"/>
	</clipPath>
	<polyline opacity="0.3" clip-path="url(#SVGID_3_)" fill="#4E4F53" points="90.09,44.101 146.361,77.556 100.266,150.707 
		43.997,117.251 	"/>
</g>
<path fill="#D7D2C8" d="M68.518,48.142C60.765,48.142,52,50.878,50,55.431V63h-9.523c-3.896,7-6.203,11.129-6.203,18.246
	c0,17.85,14.275,31.931,32.121,31.931c6.579,0,13.604-2.365,17.604-5.739V98h8.587c3.976-3,7.292-11.18,7.292-18.372
	C99.879,61.776,86.366,48.142,68.518,48.142z"/>
<polyline opacity="0.3" fill="#4E4F53" points="48.155,98.628 82.51,119.052 106.924,75.086 84.83,61.95 "/>
<g>
	<polygon fill="#FFFFFF" points="48.056,98.504 61.437,75.086 71.598,85.245 	"/>
	<path fill="#E36124" d="M84.773,62.035l-16.518,9.301c-2.988-0.597-6.209,0.259-8.523,2.578c-3.679,3.675-3.679,9.642,0,13.32
		c3.682,3.68,9.642,3.679,13.322,0c2.44-2.441,3.262-5.886,2.464-9.002L84.773,62.035z"/>
	<path fill="#FFFFFF" d="M68.67,82.406c-1.136,1.135-2.982,1.135-4.122-0.007c-1.134-1.131-1.134-2.979,0.003-4.117
		c1.137-1.138,2.983-1.134,4.116,0C69.808,79.423,69.808,81.265,68.67,82.406z"/>
</g>
<path fill="#00549E" d="M97.063,49.992c-16.825-16.83-44.111-16.83-60.943,0c-16.826,16.83-16.826,44.114,0.002,60.943
	c16.83,16.828,44.116,16.828,60.941,0C113.896,94.11,113.896,66.822,97.063,49.992z M92.587,98H84v9.438
	c-4,3.374-11.026,5.342-17.604,5.342c-17.846,0-32.222-13.684-32.222-31.533c0-7.117,2.408-11.246,6.303-18.246H50v-7.569
	c2-4.553,10.765-7.289,18.518-7.289c17.848,0,31.361,13.634,31.361,31.486C99.879,86.82,96.563,95,92.587,98z"/>
</svg>
