<?xml version="1.0" encoding="utf-8"?>
<!-- Generator: Adobe Illustrator 16.0.0, SVG Export Plug-In . SVG Version: 6.00 Build 0)  -->
<!DOCTYPE svg PUBLIC "-//W3C//DTD SVG 1.1//EN" "http://www.w3.org/Graphics/SVG/1.1/DTD/svg11.dtd">
<svg version="1.1" id="Layer_1" xmlns="http://www.w3.org/2000/svg" xmlns:xlink="http://www.w3.org/1999/xlink" x="0px" y="0px"
	 width="40px" height="30px" viewBox="0 0 40 30" style="enable-background:new 0 0 40 30;" xml:space="preserve">
<style type="text/css">
<![CDATA[
	.st0{fill:#FFFFFF;}
]]>
</style>
<path class="st0" d="M36.525,19.398c1.21,0.147,1.563,0.298,2.169-0.798c0.604-1.099,1.058-2.293,1.261-2.943
	c0.201-0.646-0.354-1.494-0.253-2.938c0.103-1.449-0.201-2.398-1.111-2.795c-0.908-0.397-6.103-2.344-7.312-3.091
	c-1.212-0.747-2.02-1.596-2.02-1.596s0.304-1.695-0.856-2.791c-1.161-1.098-2.02-1.796-5.802-0.848
	c-1.866-0.548-4.538-1.646-6.206-1.596c-1.664,0.05-5.244,0.897-8.726,3.689C4.188,6.484,0.405,9.774,0.405,9.774l5.599-1.296
	c0,0-4.943,3.589-6.003,5.335c0.455,0.05,2.675-1.247,4.896-1.846c-0.204,0.399-3.482,3.091-4.139,4.138
	c0.454,0.052,2.927-1.596,4.44-1.795c-0.756,0.849-3.076,3.39-3.431,4.588c0.658-0.25,3.278-1.695,4.338-2.095
	c-0.303,0.7-2.405,3.167-2.774,4.04c0.302,0.051,1.867-1.346,2.876-1.795c-0.152,0.548-1.211,1.895-1.464,2.792
	c0.556-0.25,2.017-0.946,2.675-1.147c-0.658,0.599-1.665,1.596-1.665,1.596l1.362,0.1l-1.917,1.048c0,0,3.179,4.089,7.263,5.335
	c4.087,1.247,7.317,1.396,8.528,1.096c-0.205-1.047-0.457-1.446-0.457-1.446s0.757-0.999,1.011-3.041
	c0.2-1.647,1.279-3.399,2.168-3.839c0.808-0.4,2.572-1.695,3.835-1.545c1.259,0.15,2.925,0.795,4.184,1.045
	c1.264,0.25,1.918,0.199,3.178-0.548C36.171,19.747,36.525,19.398,36.525,19.398z"/>
</svg>
