<?xml version="1.0" encoding="utf-8"?>
<!-- Generator: Adobe Illustrator 16.0.0, SVG Export Plug-In . SVG Version: 6.00 Build 0)  -->
<!DOCTYPE svg PUBLIC "-//W3C//DTD SVG 1.1//EN" "http://www.w3.org/Graphics/SVG/1.1/DTD/svg11.dtd">
<svg version="1.1" id="Layer_9" xmlns="http://www.w3.org/2000/svg" xmlns:xlink="http://www.w3.org/1999/xlink" x="0px" y="0px"
	 width="640px" height="600px" viewBox="0 0 640 600" enable-background="new 0 0 640 600" xml:space="preserve">
<rect fill="#7AD69C" width="640" height="600"/>
<rect x="525.496" y="240.776" fill="#0FA1D6" width="114.504" height="4"/>
<path fill="#0FA1D6" d="M208.944,460.261c-3.309,2-7.097,4.354-10.943,6.744c-6.873,4.273-13.979,8.689-18.78,11.346
	c-14.553,8.052-23.747,11.884-36.64,11.884H95.442c-32.244,0-56.062-14.375-79.096-28.273c-3.598-2.172-7.145-4.312-10.663-6.357
	c-1.745-1.014-3.65-2.135-5.684-3.342v4.646c1.28,0.756,2.521,1.485,3.674,2.153c3.5,2.033,7.027,4.162,10.606,6.322
	c22.407,13.521,47.805,28.851,81.162,28.851h47.139c13.771,0,23.411-3.992,38.575-12.384c4.892-2.705,12.041-7.149,18.956-11.446
	c3.832-2.384,7.604-4.728,10.9-6.72L208.944,460.261z"/>
<g>
	<g>
		<path fill="#67A17C" d="M563.021,291.776c6.448,0,6.448-10,0-10C556.572,281.776,556.572,291.776,563.021,291.776L563.021,291.776
			z"/>
	</g>
</g>
<g>
	<g>
		<path fill="#67A17C" d="M586.021,295.776c6.448,0,6.448-10,0-10C579.572,285.776,579.572,295.776,586.021,295.776L586.021,295.776
			z"/>
	</g>
</g>
<g>
	<g>
		<path fill="#67A17C" d="M584.021,271.776c6.448,0,6.448-10,0-10C577.572,261.776,577.572,271.776,584.021,271.776L584.021,271.776
			z"/>
	</g>
</g>
<path fill="#77BA8E" d="M43.641,520.128c0,0,18.142,0,30.574,0c24.626,9.234,57.271,4.56,55.615-4.25
	c-1.659-8.805-8.275-34.856-8.275-34.856c-0.63-3.427-2.55-5.695-5.693-5.695c-3.146,0-4.868,2.104-5.694,5.695l-2.021,6.336
	c-0.981,2.686-2.168,4.836-4.838,4.836s-3.521-1.699-4.835-4.836l-13.933-33.566c0-3.662-2.97-6.633-6.631-6.633
	c-3.661,0-6.629,2.971-6.629,6.633l-8.703,29.006c0,3.66-2.969,6.631-6.629,6.631l-12.082,31.697"/>
<path fill="#7AD69C" d="M98.544,531.125l-7.89-24.348c0-2.386-1.933-4.316-4.318-4.316c-2.382,0-4.314,1.932-4.314,4.316
	l-7.824,24.819C72.039,537.128,101.577,542.117,98.544,531.125z"/>
<path fill="#7AD69C" d="M115.01,538.388l-7.89-24.348c0-2.385-1.933-4.316-4.317-4.316c-2.384,0-4.317,1.933-4.317,4.316
	l-7.824,24.818C88.504,544.392,118.043,549.38,115.01,538.388z"/>
<path fill="#7AD69C" d="M130.02,534.513l-7.89-24.348c0-2.385-1.932-4.316-4.314-4.316c-2.384,0-4.316,1.933-4.316,4.316
	l-7.824,24.82C103.516,540.515,133.053,545.505,130.02,534.513z"/>
<path fill="#71B087" d="M83.77,535.794c-4.457-11.986-26.371-81.385-26.371-81.385c-2.359-6.115-4.272-9.545-9.543-9.545
	s-7.354,3.315-9.541,9.545l-17.298,54.869c0,5.27-4.273,9.541-9.544,9.541s-9.541-4.271-9.541-9.541L0,502.841v48.334
	c18.493,0,34.948,0,34.948,0s5.565,0.912,10.536,0.912C70.668,552.087,88.229,547.779,83.77,535.794z"/>
<path fill="#77BA8E" d="M44.003,543.688l-17.439-53.826c0-5.271-4.273-9.543-9.545-9.543c-5.271,0-9.542,4.271-9.542,9.543
	L0,513.578v40.559C16.922,560.373,48.788,561.027,44.003,543.688z"/>
<path fill="#7AD69C" d="M29.889,561.104l-11.337-34.982c0-3.426-2.776-6.203-6.202-6.203c-3.426,0-6.203,2.777-6.203,6.203
	L0,545.619v21.766C10.565,571.896,33.124,572.832,29.889,561.104z"/>
<path fill="#7AD69C" d="M63.191,556.791l-7.89-24.348c0-2.384-1.934-4.316-4.318-4.316c-2.384,0-4.316,1.934-4.316,4.316
	l-7.824,24.819C36.685,562.792,66.225,567.783,63.191,556.791z"/>
<path fill="#7AD69C" d="M80.141,552.916l-7.888-24.346c0-2.386-1.934-4.318-4.318-4.318c-2.384,0-4.315,1.934-4.315,4.318
	l-7.826,24.819C53.636,558.921,83.175,563.91,80.141,552.916z"/>
<path fill="#FFFFFF" d="M59.354,460.593c-1.185-3.354-1.956-6.184-1.956-6.184c-1.688-6.562-4.272-9.545-9.543-9.545
	s-7.914,3.094-9.541,9.545l-2.08,6.59c-1.213,3.508,3.148,4.629,4.267,2.838c1.118-1.789,3.132-6.486,4.474-4.92
	c1.342,1.564,3.578,3.355,4.809,1.676c1.229-1.676,3.913-5.479,5.479-3.242C56.828,459.587,57.297,460.482,59.354,460.593z"/>
<path fill="#0FA1D6" d="M318.162,493.972c-56.946,0-110.483-22.176-150.75-62.442c-40.267-40.268-62.443-93.805-62.443-150.751
	c0-117.555,95.638-213.193,213.193-213.193c117.555,0,213.193,95.638,213.193,213.193c0,56.947-22.177,110.486-62.443,150.751
	C428.646,471.796,375.108,493.972,318.162,493.972z M318.162,71.584c-115.35,0-209.193,93.844-209.193,209.193
	c0,115.351,93.844,209.195,209.193,209.195c115.349,0,209.193-93.844,209.193-209.195
	C527.355,165.428,433.512,71.584,318.162,71.584z"/>
<path fill="#71B087" d="M572.831,519.101l-19.494-60.163c0-5.892-4.775-10.666-10.668-10.666c-5.891,0-10.666,4.774-10.666,10.666
	l-19.334,61.334C507.337,533.938,580.327,546.265,572.831,519.101z"/>
<path fill="#FFFFFF" d="M555.491,465.224c-1.324-3.75-2.188-6.914-2.188-6.914c-1.887-7.336-4.774-10.668-10.666-10.668
	c-5.891,0-8.846,3.457-10.666,10.668l-2.323,7.367c-1.355,3.922,3.52,5.172,4.77,3.172s3.5-7.25,5-5.5s4,3.75,5.375,1.875
	s4.375-6.125,6.125-3.625S553.19,465.099,555.491,465.224z"/>
<g>
	<g>
		<g>
			<g>
				<path fill="#77BA8E" d="M59.332,358.775c0-0.135,0.037-0.271,0.107-0.395l2.984-5.17c0.141-0.245,0.402-0.396,0.686-0.396h5.969
					c0.283,0,0.543,0.151,0.686,0.396l2.984,5.17c0.141,0.244,0.141,0.545,0,0.791l-2.984,5.17
					c-0.143,0.244-0.402,0.395-0.686,0.395h-5.969c-0.283,0-0.545-0.149-0.686-0.395l-2.984-5.17
					C59.369,359.051,59.332,358.913,59.332,358.775z"/>
			</g>
		</g>
		<g>
			<g>
				<path fill="#77BA8E" d="M39.188,358.775c0-0.135,0.037-0.271,0.107-0.395l2.984-5.17c0.141-0.245,0.402-0.396,0.686-0.396h5.969
					c0.283,0,0.543,0.151,0.686,0.396l2.984,5.17c0.143,0.244,0.143,0.545,0,0.791l-2.984,5.17
					c-0.143,0.244-0.402,0.395-0.686,0.395h-5.969c-0.283,0-0.545-0.149-0.686-0.395l-2.984-5.17
					C39.225,359.051,39.188,358.913,39.188,358.775z"/>
			</g>
		</g>
		<g>
			<g>
				<path fill="#77BA8E" d="M56.021,355.465c-0.137,0-0.273-0.035-0.396-0.105l-5.168-2.984c-0.246-0.143-0.396-0.402-0.396-0.686
					v-5.969c0-0.283,0.15-0.545,0.396-0.687l5.168-2.984c0.246-0.142,0.547-0.142,0.791,0l5.17,2.984
					c0.246,0.142,0.396,0.401,0.396,0.687v5.969c0,0.283-0.15,0.543-0.396,0.686l-5.17,2.984
					C56.295,355.43,56.158,355.465,56.021,355.465z"/>
			</g>
		</g>
		<g>
			<g>
				<path fill="#77BA8E" d="M56.021,375.609c-0.137,0-0.273-0.036-0.396-0.106l-5.168-2.983c-0.246-0.143-0.396-0.402-0.396-0.687
					v-5.969c0-0.283,0.15-0.544,0.396-0.687l5.168-2.984c0.246-0.142,0.547-0.142,0.791,0l5.17,2.984
					c0.246,0.143,0.396,0.402,0.396,0.687v5.969c0,0.283-0.15,0.544-0.396,0.687l-5.17,2.983
					C56.295,375.573,56.158,375.609,56.021,375.609z"/>
			</g>
		</g>
	</g>
	<circle fill="#7AD69C" cx="56.021" cy="358.776" r="6.547"/>
</g>
<g>
	<g>
		<g>
			<g>
				<path fill="#77BA8E" d="M174.926,60.776c0-0.136,0.037-0.272,0.107-0.395l2.984-5.17c0.141-0.245,0.402-0.396,0.684-0.396h5.971
					c0.283,0,0.543,0.151,0.686,0.396l2.984,5.17c0.141,0.244,0.141,0.545,0,0.791l-2.984,5.17
					c-0.143,0.244-0.402,0.395-0.686,0.395h-5.971c-0.281,0-0.543-0.15-0.684-0.395l-2.984-5.17
					C174.963,61.051,174.926,60.913,174.926,60.776z"/>
			</g>
		</g>
		<g>
			<g>
				<path fill="#77BA8E" d="M154.781,60.776c0-0.136,0.037-0.272,0.107-0.395l2.984-5.17c0.141-0.245,0.402-0.396,0.684-0.396h5.971
					c0.283,0,0.543,0.151,0.686,0.396l2.984,5.17c0.141,0.244,0.141,0.545,0,0.791l-2.984,5.17
					c-0.143,0.244-0.402,0.395-0.686,0.395h-5.971c-0.281,0-0.543-0.15-0.684-0.395l-2.984-5.17
					C154.818,61.051,154.781,60.913,154.781,60.776z"/>
			</g>
		</g>
		<g>
			<g>
				<path fill="#77BA8E" d="M171.615,57.465c-0.137,0-0.273-0.035-0.396-0.106l-5.17-2.984c-0.244-0.142-0.395-0.402-0.395-0.686
					V47.72c0-0.283,0.15-0.544,0.395-0.686l5.17-2.984c0.244-0.142,0.545-0.142,0.791,0l5.17,2.984
					c0.244,0.142,0.396,0.402,0.396,0.686v5.969c0,0.283-0.152,0.544-0.396,0.686l-5.17,2.984
					C171.889,57.43,171.752,57.465,171.615,57.465z"/>
			</g>
		</g>
		<g>
			<g>
				<path fill="#77BA8E" d="M171.615,77.609c-0.137,0-0.273-0.036-0.396-0.106l-5.17-2.984c-0.244-0.142-0.395-0.402-0.395-0.686
					v-5.969c0-0.283,0.15-0.544,0.395-0.686l5.17-2.984c0.244-0.142,0.545-0.142,0.791,0l5.17,2.984
					c0.244,0.142,0.396,0.402,0.396,0.686v5.969c0,0.283-0.152,0.544-0.396,0.686l-5.17,2.984
					C171.889,77.573,171.752,77.609,171.615,77.609z"/>
			</g>
		</g>
	</g>
	<circle fill="#7AD69C" cx="171.615" cy="60.776" r="6.547"/>
</g>
<g>
	<g>
		<g>
			<g>
				<path fill="#77BA8E" d="M547.59,155.21c0-0.136,0.037-0.272,0.107-0.395l2.983-5.17c0.142-0.245,0.402-0.396,0.685-0.396h5.971
					c0.283,0,0.543,0.151,0.687,0.396l2.983,5.17c0.142,0.244,0.142,0.545,0,0.791l-2.983,5.17
					c-0.144,0.244-0.402,0.395-0.687,0.395h-5.971c-0.281,0-0.543-0.15-0.685-0.395l-2.983-5.17
					C547.627,155.484,547.59,155.347,547.59,155.21z"/>
			</g>
		</g>
		<g>
			<g>
				<path fill="#77BA8E" d="M527.445,155.21c0-0.136,0.037-0.272,0.106-0.395l2.984-5.17c0.141-0.245,0.401-0.396,0.684-0.396h5.972
					c0.282,0,0.543,0.151,0.686,0.396l2.984,5.17c0.141,0.244,0.141,0.545,0,0.791l-2.984,5.17
					c-0.143,0.244-0.402,0.395-0.686,0.395h-5.972c-0.28,0-0.543-0.15-0.684-0.395l-2.984-5.17
					C527.482,155.484,527.445,155.347,527.445,155.21z"/>
			</g>
		</g>
		<g>
			<g>
				<path fill="#77BA8E" d="M544.279,151.898c-0.138,0-0.273-0.035-0.396-0.106l-5.17-2.984c-0.244-0.142-0.395-0.402-0.395-0.686
					v-5.969c0-0.283,0.149-0.544,0.395-0.686l5.17-2.984c0.244-0.142,0.545-0.142,0.791,0l5.17,2.984
					c0.244,0.142,0.396,0.402,0.396,0.686v5.969c0,0.283-0.152,0.544-0.396,0.686l-5.17,2.984
					C544.553,151.863,544.416,151.898,544.279,151.898z"/>
			</g>
		</g>
		<g>
			<g>
				<path fill="#77BA8E" d="M544.279,172.043c-0.138,0-0.273-0.036-0.396-0.106l-5.17-2.984c-0.244-0.142-0.395-0.402-0.395-0.686
					v-5.969c0-0.283,0.149-0.544,0.395-0.686l5.17-2.984c0.244-0.142,0.545-0.142,0.791,0l5.17,2.984
					c0.244,0.142,0.396,0.402,0.396,0.686v5.969c0,0.283-0.152,0.544-0.396,0.686l-5.17,2.984
					C544.553,172.007,544.416,172.043,544.279,172.043z"/>
			</g>
		</g>
	</g>
	<circle fill="#7AD69C" cx="544.279" cy="155.21" r="6.547"/>
</g>
<g>
	<circle fill="#FFFFFF" stroke="#FFFFFF" stroke-width="60" stroke-miterlimit="10" cx="318.146" cy="280.777" r="169.999"/>
</g>
</svg>
