<?xml version="1.0" encoding="utf-8"?>
<!-- Generator: Adobe Illustrator 16.0.0, SVG Export Plug-In . SVG Version: 6.00 Build 0)  -->
<!DOCTYPE svg PUBLIC "-//W3C//DTD SVG 1.1//EN" "http://www.w3.org/Graphics/SVG/1.1/DTD/svg11.dtd">
<svg version="1.1" id="Layer_2" xmlns="http://www.w3.org/2000/svg" xmlns:xlink="http://www.w3.org/1999/xlink" x="0px" y="0px"
	 width="2000px" height="230px" viewBox="0 0 2000 230" enable-background="new 0 0 2000 230" xml:space="preserve">
<g id="header__x2B__bg">
	<rect fill="#0FA1D6" width="2000" height="230"/>
</g>
<g id="HEADER_pathway_page">
</g>
<g>
	<g>
		<path fill="#7AD69C" d="M1495,133.382c-0.33,0-0.66-0.085-0.955-0.255l-12.465-7.196c-0.588-0.341-0.953-0.971-0.953-1.653
			v-14.392c0-0.683,0.365-1.312,0.953-1.652l12.465-7.196c0.592-0.341,1.318-0.341,1.908,0l12.467,7.196
			c0.588,0.34,0.953,0.97,0.953,1.652v14.392c0,0.682-0.365,1.312-0.953,1.653l-12.467,7.196
			C1495.658,133.297,1495.33,133.382,1495,133.382z"/>
	</g>
</g>
<g>
	<g>
		<path fill="#7AD69C" d="M1502.188,160.738c-0.166,0-0.33-0.043-0.479-0.127l-6.232-3.599c-0.293-0.171-0.477-0.485-0.477-0.827
			v-7.195c0-0.341,0.184-0.656,0.477-0.826l6.232-3.598c0.297-0.171,0.66-0.171,0.955,0l6.232,3.598
			c0.295,0.17,0.477,0.485,0.477,0.826v7.195c0,0.342-0.182,0.656-0.477,0.827l-6.232,3.599
			C1502.516,160.695,1502.352,160.738,1502.188,160.738z"/>
	</g>
</g>
<path fill="#7AD69C" d="M505,230h990c0,0,0-3.519,0-5.168c0-5.112-0.144-7.902-3.202-10.484l-15.717-9.074
	c-1.158-0.67-1.874-1.91-1.874-3.252c0,0,0-10.678,0-17.658c0-5.818-2.117-8.027-5.708-10.101
	c-2.204-1.272-17.201-9.931-17.201-9.931c-4.636-2.678-6.419-5.387-6.419-11.127V99.138c0-3.875,0.74-6.293,4.434-8.426
	l12.433-7.178c3.347-1.933,5.922-2.812,8.588-2.812c4.292,0,18.128,0,22.522,0s7.989-0.332,11.535-2.405
	c2.357-1.378,4.494-2.63,5.963-3.478c3.383-1.953,5.78-4.619,5.78-8.951c0-3.333,0-65.888,0-65.888H476c0,0,0,44.836,0,52.17
	s6.289,10.857,14.733,15.715c0,0,1.248,0.732,6.283,3.688s9.086,5.075,15.313,5.075c4.35,0,8.044-0.002,8.044-0.002
	c3.254,0,6.834,0.082,12.508,3.354l5.661,3.423c2.713,1.686,4.278,4.297,4.278,7.32v51.124c0,3.022-1.508,6.268-4.221,7.954
	c0,0-13.647,8.54-17.354,10.681s-6.002,3.465-9.473,5.469S505,171.912,505,176.412S505,230,505,230z"/>
<path fill="#7AD69C" d="M518.533,127.069c1.237-0.714,4.018-2.318,5.684-3.28c1.227-0.708,1.595-0.943,1.595-2.816
	s0-13.209,0-14.989c0-1.78-1.203-2.519-2.399-3.214c-2.155-1.252-5.004-2.899-5.825-3.374c-1.908-1.102-3.373-1.064-5.221-0.001
	c-0.812,0.467-3.782,2.122-5.964,3.375c-1.242,0.713-2.354,1.546-2.354,3.214c0,0,0,13.196,0,15.009s0.671,2.256,1.632,2.803
	c1.7,0.966,4.308,2.452,5.718,3.273C513.995,128.58,515.836,128.625,518.533,127.069z"/>
<path fill="#75CC95" d="M1389.463,115.92c0-5.859-4.75-10.609-10.609-10.609c-1.032,0-2.028,0.149-2.973,0.425
	c-1.188-7.958-8.049-14.062-16.339-14.062c-7.619,0-14.033,5.161-15.941,12.178c-1.832-0.991-3.931-1.554-6.16-1.554
	c-7.168,0-12.978,5.812-12.978,12.979c0,1.504,0.259,2.947,0.729,4.291h63.628C1389.237,118.431,1389.463,117.202,1389.463,115.92z"
	/>
<g>
	<path fill="#77BA8E" d="M642.543,125.847c0,0,8.266,0,13.93,0c11.221,4.208,26.095,2.077,25.34-1.935
		c-0.756-4.012-3.771-15.883-3.771-15.883c-0.287-1.56-1.161-2.594-2.594-2.594s-2.218,0.958-2.595,2.594l-0.921,2.887
		c-0.447,1.225-0.987,2.204-2.204,2.204c-1.216,0-1.604-0.774-2.203-2.204l-6.348-15.293c0-1.668-1.352-3.021-3.021-3.021
		s-3.021,1.353-3.021,3.021l-3.965,13.216c0,1.668-1.353,3.021-3.021,3.021"/>
	<path fill="#7AD69C" d="M667.558,130.857l-3.594-11.093c0-1.086-0.881-1.967-1.967-1.967c-1.086,0-1.966,0.881-1.966,1.967
		l-3.565,11.309C655.482,133.593,668.94,135.866,667.558,130.857z"/>
	<path fill="#7AD69C" d="M675.061,134.167l-3.595-11.093c0-1.086-0.88-1.967-1.967-1.967c-1.086,0-1.966,0.88-1.966,1.967
		l-3.565,11.309C662.984,136.903,676.442,139.175,675.061,134.167z"/>
	<path fill="#7AD69C" d="M681.9,132.402l-3.595-11.093c0-1.086-0.88-1.967-1.967-1.967c-1.085,0-1.966,0.881-1.966,1.967
		l-3.565,11.308C669.824,135.137,683.283,137.41,681.9,132.402z"/>
	<path fill="#71B087" d="M643.383,140.409c-2.265,0-4.801-0.415-4.801-0.415s-28.805,0-36.958,0
		c-6.522,5.095-20.653,2.989-19.565-2.786c1.087-5.774,5.426-22.861,5.426-22.861c0.413-2.246,1.672-3.734,3.734-3.734
		c2.062,0,3.193,1.379,3.734,3.734l1.326,4.156c0.643,1.761,1.42,3.171,3.171,3.171c1.752,0,2.309-1.115,3.171-3.171l6.514-16.621
		c1.252-2.599,1.946-4.348,4.347-4.348c2.401,0,3.172,1.494,4.348,4.348l5.707,19.022c0,2.401,1.947,4.348,4.348,4.348
		c2.402,0,4.348-1.947,4.348-4.348l7.881-25c0.997-2.837,1.947-4.348,4.348-4.348c2.401,0,3.273,1.562,4.348,4.348
		c0,0,9.985,31.621,12.016,37.082C662.858,138.446,654.857,140.409,643.383,140.409z"/>
	<path fill="#77BA8E" d="M642.708,136.581l-7.946-24.524c0-2.402-1.947-4.349-4.349-4.349c-2.401,0-4.348,1.947-4.348,4.349
		l-7.881,25C616.011,142.628,645.764,147.654,642.708,136.581z"/>
	<path fill="#7AD69C" d="M623.398,141.413l-5.165-15.939c0-1.561-1.265-2.826-2.826-2.826c-1.561,0-2.826,1.265-2.826,2.826
		l-5.123,16.249C606.047,145.343,625.384,148.609,623.398,141.413z"/>
	<path fill="#7AD69C" d="M636.277,144.517l-5.165-15.939c0-1.561-1.265-2.826-2.826-2.826c-1.561,0-2.826,1.265-2.826,2.826
		l-5.122,16.249C618.925,148.448,638.262,151.714,636.277,144.517z"/>
	<path fill="#7AD69C" d="M651.45,142.552l-3.594-11.094c0-1.086-0.881-1.967-1.967-1.967c-1.086,0-1.966,0.881-1.966,1.967
		l-3.565,11.309C639.375,145.287,652.833,147.561,651.45,142.552z"/>
	<path fill="#7AD69C" d="M659.174,140.787l-3.595-11.093c0-1.086-0.88-1.967-1.967-1.967c-1.086,0-1.967,0.88-1.967,1.967
		l-3.565,11.309C647.097,143.522,660.556,145.795,659.174,140.787z"/>
	<path fill="#7AD69C" d="M609.998,143.428l-3.595-11.093c0-1.086-0.88-1.967-1.967-1.967c-1.086,0-1.967,0.881-1.967,1.967
		l-3.565,11.309C597.921,146.164,611.38,148.437,609.998,143.428z"/>
	<path fill="#7AD69C" d="M596.918,143.589l-2.419-7.467c0-0.731-0.593-1.324-1.324-1.324s-1.324,0.592-1.324,1.324l-2.4,7.612
		C588.79,145.431,597.849,146.961,596.918,143.589z"/>
	<path fill="#FFFFFF" d="M649.703,98.723c-0.54-1.529-0.892-2.819-0.892-2.819c-0.769-2.99-1.947-4.348-4.348-4.348
		c-2.401,0-3.605,1.409-4.348,4.348l-0.947,3.003c-0.553,1.599,1.435,2.108,1.944,1.293c0.51-0.815,1.427-2.955,2.038-2.241
		c0.612,0.713,1.631,1.528,2.191,0.764c0.561-0.764,1.783-2.497,2.497-1.478S648.765,98.671,649.703,98.723z"/>
	<path fill="#FFFFFF" d="M617.832,101.882c-1.023-3.312-1.947-4.348-4.348-4.348c-2.401,0-3.197,1.494-4.347,4.348l-1.119,2.856
		c1.098,0.558,2.218-0.818,2.575-1.787c0.357-0.968,1.478,0.815,1.784,2.038c0.306,1.223,1.426,0.713,1.987-0.611
		c0.561-1.325,2.242-0.663,2.955,0.968c0.523,1.196,1.987,1.223,1.987,1.223L617.832,101.882z"/>
	<path fill="#FFFFFF" d="M594.954,114.347c-0.542-2.355-1.672-3.734-3.734-3.734c-2.062,0-3.321,1.488-3.734,3.734
		c0,0-0.163,0.645-0.436,1.726c-0.336,1.332,0.819,0.449,1.396-0.638c0.577-1.087,1.097-2.11,1.155-1.155
		c0.204,3.397,1.509,4.503,2.038,3.091c0.611-1.63,1.545-3.312,2.089-2.089s1.002,1.691,1.987,1.58
		C595.51,115.979,594.954,114.347,594.954,114.347z"/>
</g>
<path fill="none" stroke="#0FA1D6" stroke-width="2" stroke-miterlimit="10" d="M497,186.612c41.333,0,83.647,0.056,108.667,0.056"
	/>
<g>
	<path fill="#71B087" d="M1413.77,153.086c0,0-7.584,0-14.821,0c-5.789,4.523-18.334,2.654-17.368-2.473
		c0.965-5.126,4.816-20.295,4.816-20.295c0.366-1.994,1.484-3.315,3.315-3.315c1.83,0,2.834,1.225,3.314,3.315l1.177,3.689
		c0.572,1.563,1.262,2.815,2.816,2.815s2.05-0.99,2.814-2.815l5.784-14.755c1.11-2.307,1.728-3.86,3.858-3.86
		c2.132,0,2.816,1.327,3.861,3.86l5.065,16.887l2.604,9.167C1423.901,153.629,1413.77,153.086,1413.77,153.086z"/>
	<path fill="#7AD69C" d="M1418.279,154.346l-4.586-14.15c0-1.386-1.123-2.509-2.509-2.509c-1.385,0-2.508,1.123-2.508,2.509
		l-4.548,14.426C1402.874,157.834,1420.042,160.734,1418.279,154.346z"/>
	<path fill="#7AD69C" d="M1406.382,156.135l-3.191-9.848c0-0.964-0.781-1.746-1.745-1.746s-1.746,0.782-1.746,1.746l-3.165,10.039
		C1395.661,158.563,1407.609,160.581,1406.382,156.135z"/>
	<path fill="#7AD69C" d="M1394.771,156.278l-2.149-6.629c0-0.649-0.526-1.176-1.175-1.176s-1.174,0.526-1.174,1.176l-2.132,6.757
		C1387.555,157.912,1395.597,159.271,1394.771,156.278z"/>
	<path fill="#FFFFFF" d="M1413.338,119.252c-0.91-2.94-1.729-3.86-3.861-3.86c-2.131,0-2.838,1.327-3.858,3.86l-0.994,2.535
		c0.975,0.496,1.97-0.726,2.286-1.585s1.312,0.724,1.583,1.81c0.271,1.085,1.267,0.633,1.765-0.543
		c0.496-1.176,1.989-0.587,2.623,0.86c0.465,1.061,1.764,1.085,1.764,1.085L1413.338,119.252z"/>
	<path fill="#FFFFFF" d="M1393.026,130.318c-0.48-2.09-1.484-3.315-3.314-3.315c-1.831,0-2.949,1.321-3.315,3.315
		c0,0-0.144,0.573-0.388,1.532c-0.298,1.183,0.728,0.399,1.241-0.566c0.511-0.964,0.974-1.872,1.024-1.024
		c0.181,3.015,1.339,3.998,1.809,2.744c0.544-1.448,1.373-2.94,1.854-1.855c0.482,1.085,0.892,1.501,1.765,1.402
		C1393.521,131.766,1393.026,130.318,1393.026,130.318z"/>
</g>
<g>
	<path fill="#71B087" d="M1081.491,70.6c0,0-7.583,0-14.819,0c-5.789,4.523-18.335,2.654-17.369-2.473
		c0.966-5.126,4.816-20.295,4.816-20.295c0.367-1.993,1.484-3.314,3.314-3.314c1.832,0,2.836,1.225,3.316,3.314l1.177,3.689
		c0.57,1.563,1.26,2.815,2.815,2.815s2.049-0.99,2.815-2.815l5.782-14.754c1.111-2.308,1.728-3.86,3.858-3.86
		c2.133,0,2.818,1.327,3.862,3.86l5.065,16.886l2.604,9.167C1091.624,71.143,1081.491,70.6,1081.491,70.6z"/>
	<path fill="#7AD69C" d="M1086.001,71.859l-4.585-14.149c0-1.386-1.123-2.509-2.509-2.509c-1.385,0-2.508,1.123-2.508,2.509
		l-4.549,14.424C1070.597,75.348,1087.764,78.248,1086.001,71.859z"/>
	<path fill="#7AD69C" d="M1074.104,73.649l-3.191-9.848c0-0.965-0.781-1.747-1.744-1.747c-0.965,0-1.747,0.782-1.747,1.747
		l-3.164,10.039C1063.385,76.077,1075.332,78.094,1074.104,73.649z"/>
	<path fill="#7AD69C" d="M1062.493,73.792l-2.147-6.628c0-0.649-0.527-1.176-1.177-1.176c-0.647,0-1.173,0.526-1.173,1.176
		l-2.131,6.758C1055.277,75.426,1063.319,76.785,1062.493,73.792z"/>
	<path fill="#FFFFFF" d="M1081.061,36.767c-0.91-2.941-1.729-3.86-3.862-3.86c-2.131,0-2.838,1.327-3.858,3.86l-0.994,2.535
		c0.976,0.495,1.971-0.727,2.287-1.585c0.316-0.86,1.311,0.724,1.584,1.809c0.271,1.085,1.265,0.633,1.764-0.543
		c0.496-1.176,1.989-0.587,2.622,0.86c0.466,1.061,1.765,1.085,1.765,1.085L1081.061,36.767z"/>
	<path fill="#FFFFFF" d="M1060.75,47.832c-0.48-2.09-1.484-3.314-3.316-3.314c-1.83,0-2.947,1.321-3.314,3.314
		c0,0-0.144,0.573-0.387,1.532c-0.297,1.183,0.726,0.399,1.24-0.566c0.511-0.965,0.974-1.873,1.024-1.025
		c0.182,3.015,1.339,3.998,1.809,2.744c0.544-1.447,1.373-2.94,1.855-1.855c0.482,1.086,0.891,1.502,1.764,1.402
		C1061.244,49.281,1060.75,47.832,1060.75,47.832z"/>
</g>
<path fill="#FFFFFF" d="M857.184,55.672c0-7.211-5.845-13.058-13.057-13.058c-1.271,0-2.497,0.185-3.658,0.524
	c-1.462-9.795-9.908-17.309-20.11-17.309c-9.38,0-17.271,6.353-19.62,14.988c-2.256-1.219-4.837-1.912-7.582-1.912
	c-8.822,0-15.974,7.152-15.974,15.975c0,1.851,0.319,3.627,0.898,5.281h78.31C856.904,58.762,857.184,57.25,857.184,55.672z"/>
<path fill="#75CC95" d="M824.88,100.011c0-5.859-4.75-10.609-10.609-10.609c-1.031,0-2.028,0.149-2.973,0.425
	c-1.187-7.958-8.049-14.062-16.339-14.062c-7.62,0-14.032,5.161-15.941,12.178c-1.833-0.991-3.932-1.554-6.161-1.554
	c-7.168,0-12.978,5.812-12.978,12.979c0,1.504,0.259,2.947,0.729,4.291h63.628C824.653,102.521,824.88,101.292,824.88,100.011z"/>
<path fill="#75CC95" d="M819.037,209.722c0-5.772-4.679-10.452-10.452-10.452c-1.016,0-1.998,0.147-2.929,0.419
	c-1.169-7.841-7.93-13.854-16.097-13.854c-7.507,0-13.825,5.084-15.705,11.998c-1.805-0.977-3.873-1.531-6.069-1.531
	c-7.062,0-12.785,5.725-12.785,12.787c0,1.481,0.255,2.904,0.718,4.228h62.686C818.814,212.195,819.037,210.984,819.037,209.722z"/>
<path fill="#FFFFFF" d="M1421.527,89.45c0-7.211-5.846-13.058-13.058-13.058c-1.271,0-2.496,0.185-3.658,0.524
	c-1.463-9.795-9.907-17.308-20.109-17.308c-9.38,0-17.271,6.352-19.62,14.988c-2.255-1.219-4.838-1.912-7.582-1.912
	c-8.82,0-15.973,7.152-15.973,15.974c0,1.852,0.319,3.628,0.898,5.281h78.31C1421.247,92.54,1421.527,91.028,1421.527,89.45z"/>
<g>
	<path fill="#71B087" d="M567.822,197.957l-6.393-19.732c-1.396-1.367-1.567-3.499-3.499-3.499s-2.463,1.657-3.499,3.499
		l-6.341,20.115C546.342,202.822,570.281,206.866,567.822,197.957z"/>
	<path fill="#FFFFFF" d="M562.153,180.446c-0.434-1.229-0.717-2.268-0.717-2.268c-0.619-2.406-1.566-3.499-3.499-3.499
		c-1.932,0-2.9,1.134-3.498,3.499l-0.762,2.415c-0.445,1.287,1.154,1.697,1.564,1.041s1.148-2.377,1.64-1.803
		c0.492,0.572,1.312,1.229,1.763,0.614c0.451-0.614,1.435-2.009,2.009-1.188C561.227,180.077,561.399,180.404,562.153,180.446z"/>
</g>
<g>
	<g>
		<path fill="#0FA1D6" d="M1309,142.084c-0.33,0-0.66-0.085-0.955-0.255l-12.465-7.196c-0.588-0.341-0.953-0.971-0.953-1.653
			v-14.392c0-0.683,0.365-1.312,0.953-1.652l12.465-7.196c0.592-0.341,1.318-0.341,1.908,0l12.467,7.196
			c0.588,0.34,0.953,0.97,0.953,1.652v14.392c0,0.682-0.365,1.312-0.953,1.653l-12.467,7.196
			C1309.658,141.999,1309.33,142.084,1309,142.084z"/>
	</g>
</g>
<g>
	<g>
		<path fill="none" stroke="#0FA1D6" stroke-width="2" stroke-miterlimit="10" d="M1262.251,68.971
			c10.582,0,11.994,0.486,20.188,5.217s19.152,11.057,19.152,11.057c7.053,4.11,7.408,5.785,7.408,10.654v33.414"/>
	</g>
</g>
<g>
	<g>
		<path fill="#0FA1D6" d="M831.871,144.054c-0.329,0-0.659-0.085-0.954-0.255l-12.466-7.196c-0.588-0.341-0.952-0.971-0.952-1.653
			v-14.392c0-0.683,0.364-1.312,0.952-1.652l12.466-7.196c0.591-0.341,1.318-0.341,1.908,0l12.466,7.196
			c0.589,0.34,0.953,0.97,0.953,1.652v14.392c0,0.682-0.364,1.312-0.953,1.653l-12.466,7.196
			C832.529,143.969,832.201,144.054,831.871,144.054z"/>
	</g>
</g>
<g>
	<g>
		<path fill="none" stroke="#0FA1D6" stroke-width="2" stroke-miterlimit="10" d="M1020.648,162.84c0,0-23.707,13.688-28.8,16.627
			c-9.009,5.201-15.385,3.672-24.154-1.391c-5.172-2.986-52.13-30.095-52.13-30.095"/>
	</g>
</g>
<path fill="none" stroke="#0FA1D6" stroke-width="2" stroke-linecap="round" stroke-linejoin="round" stroke-miterlimit="10" d="
	M922.5,69.722c5.926-7.901,26.232-39.36,39.412-59.928"/>
<path fill="none" stroke="#0FA1D6" stroke-width="2" stroke-miterlimit="10" d="M913.849,147.981
	c-24.521-11.523-25.599-12.203-46.849-12.203h-31.335"/>
<path fill="none" stroke="#0FA1D6" stroke-width="2" stroke-miterlimit="10" d="M1032.443,132.891"/>
<path fill="none" stroke="#0FA1D6" stroke-width="2" stroke-miterlimit="10" d="M1456.994,106.509h-42.35
	c-10.087,0-18.204,0.424-23.174,3.294s-9.989,6.752-15.822,6.752c-8.647,0-13.147,0-13.147,0c-8.002,0-10.296,0.082-28.712-10.935
	l-30.462-19.328"/>
<path fill="none" stroke="#0FA1D6" stroke-width="2" stroke-miterlimit="10" d="M1309,125.751v16.093
	c0,22.634,0.815,24.988,11.544,43.573c3.195,5.535,3.044,6.559,14.812,16.205c9.601,7.868,12.645,6.611,15.849,6.611h38.126
	c8.664,0,12.196-3.268,21.903-9.084l64.324-42.184"/>
<path fill="#0FA1D6" stroke="#0FA1D6" stroke-width="2" stroke-linejoin="round" stroke-miterlimit="10" d="M1454.2,170.974
	c2.184-1.421,2.213-4.397,0.024-6.079c-2.003-1.539,3.868-0.42,6.344,1.77s2.797,3.514,2.797,3.514
	C1461.067,168.851,1456.279,169.62,1454.2,170.974z"/>
<path fill="#0FA1D6" stroke="#0FA1D6" stroke-width="2" stroke-linejoin="round" stroke-miterlimit="10" d="M1445.862,165.745
	c3.228-2.323,1.357-5.739,0.983-7.608c-0.506-2.525,3.055,1.021,5.53,3.211s2.405,3.84,2.405,3.84
	C1451.859,163.115,1447.941,164.392,1445.862,165.745z"/>
<path fill="none" stroke="#0FA1D6" stroke-width="2" stroke-miterlimit="10" d="M1424.47,190.471
	c7.483-4.907,13.808-4.047,22.029-4.047c8.066,0,29.574,0,29.574,0"/>
<path fill="none" stroke="#0FA1D6" stroke-width="2" stroke-miterlimit="10" d="M1432.89,184.949
	c8.226-5.355-0.026-10.406,6.356-14.581s14.803-10.841,14.803-10.841"/>
<path fill="none" stroke="#0FA1D6" stroke-width="2" stroke-miterlimit="10" d="M1454.117,186.424c8.289,0,8.881-7.394,14.114-7.394
	s12.547,0,12.547,0"/>
<path fill="none" stroke="#0FA1D6" stroke-width="2" stroke-miterlimit="10" d="M1442.402,186.424c7.71,0,5.252,13.254,15,13.254
	s23.376,0,23.376,0"/>
<path fill="none" stroke="#0FA1D6" stroke-width="2" stroke-miterlimit="10" d="M1457.402,199.678c7.817,0,4.053,8.059,17.202,8.059
	"/>
<path fill="#0FA1D6" stroke="#0FA1D6" stroke-width="2" stroke-linejoin="round" stroke-miterlimit="10" d="M1469.48,199.678
	c3.83,0,4.658,1.568,6.078,4.351c0.938,1.84,1.57-4.696,1.57-4.696l-2.686-5.866C1474.443,196.133,1473.144,199.678,1469.48,199.678
	z"/>
<path fill="#0FA1D6" stroke="#0FA1D6" stroke-width="2" stroke-linejoin="round" stroke-miterlimit="10" d="M1469.235,186.424
	c3.83,0,5.223,4.977,5.223,7.042s6.792-16.64,6.792-16.64l-11.375-2.891c2.661,1.641,2.089,5.095-0.64,5.095
	c2.562,0,4.705,2.026,4.488,3.981S1471.675,186.424,1469.235,186.424z"/>
<path fill="#0FA1D6" stroke="#0FA1D6" stroke-width="2" stroke-linejoin="round" stroke-miterlimit="10" d="M1472.752,207.73
	c4.162,0,9.427,0.006,12.373,1.527c1.835,0.948-4.513-6.559-4.513-6.559l-6.889-1.483
	C1476.073,204.199,1475.626,207.73,1472.752,207.73z"/>
<path fill="#0FA1D6" stroke="#0FA1D6" stroke-width="2" stroke-linejoin="round" stroke-miterlimit="10" d="M1433.853,106.509
	c6,0,12.057,1.272,12.057,10.292c0,0,2.775-4.812,2.775-11.062s-2.7-7.793-2.7-7.793
	C1445.984,106.751,1439.479,106.509,1433.853,106.509z"/>
<path fill="#FFFFFF" d="M839.973,191.438c0-6.479-5.252-11.732-11.731-11.732c-1.142,0-2.244,0.166-3.287,0.471
	c-1.314-8.801-8.901-15.551-18.068-15.551c-8.427,0-15.518,5.707-17.627,13.467c-2.026-1.096-4.346-1.719-6.812-1.719
	c-7.926,0-14.352,6.426-14.352,14.353c0,1.663,0.286,3.26,0.807,4.745h70.358C839.721,194.213,839.973,192.854,839.973,191.438z"/>
<path fill="none" stroke="#0FA1D6" stroke-width="2" stroke-linecap="round" stroke-linejoin="round" stroke-miterlimit="10" d="
	M925.799,65.086c-10.333,13.5-17.916,18.901-30.741,26.353c-12.168,7.07-57.108,32.731-68.058,39.282
	c-18.416,11.017-20.939,11.544-43.573,11.544c0,0-3.713,0-11.63,0H766.9c0,0-51.253,0-68.9,0c-17.648,0-22.99,1.542-30.821,13.724
	c-2.463,3.851-2.836,4.406-8.862,13.365c-8.372,12.445-11.48,17.313-23.48,17.313"/>
<path fill="#0FA1D6" stroke="#0FA1D6" stroke-width="2" stroke-linejoin="round" stroke-miterlimit="10" d="M504,175.037
	c0,7.135-0.8,11.575,4.826,11.575c-5.626,0-4.826,4.44-4.826,11.575c0,0-2.667-7.604-2.667-11.854S504,175.037,504,175.037z"/>
<path fill="#0FA1D6" stroke="#0FA1D6" stroke-width="2" stroke-linejoin="round" stroke-miterlimit="10" d="M812.166,138.832
	c4.781-2.76,8.056-2.289,12.489,0.27s0-8.074,0-8.074s-6.068-8.5-6.068-2.75S816.97,136.058,812.166,138.832z"/>
<path fill="#0FA1D6" stroke="#0FA1D6" stroke-width="2" stroke-linejoin="round" stroke-miterlimit="10" d="M848.871,118.007
	c-3.174,1.833-3.65,4.734-3.65,8.426c0,3.399-4.715-3.244-4.715-3.244S845.681,119.849,848.871,118.007z"/>
<path fill="#0FA1D6" stroke="#0FA1D6" stroke-width="2" stroke-linejoin="round" stroke-miterlimit="10" d="M853.75,135.763
	c-13.813,0-17.634,0.305-17.634,0.305s-2.792,6.497,2.072,3.431C843.479,136.164,847.631,135.763,853.75,135.763z"/>
<path fill="#0FA1D6" stroke="#0FA1D6" stroke-width="2" stroke-linejoin="round" stroke-miterlimit="10" d="M1309,105.621
	c-0.097,3.338-1.381,5.688-4.106,7.157c-2.726,1.47,4.157,1.752,4.157,1.752s7.098,0.032,4.136-1.794
	C1310.226,110.909,1308.902,108.976,1309,105.621z"/>
<path fill="#0FA1D6" stroke="#0FA1D6" stroke-width="2" stroke-linejoin="round" stroke-miterlimit="10" d="M1309,146
	c-0.097-3.338-1.381-5.688-4.106-7.157c-2.726-1.47,4.157-1.752,4.157-1.752s7.178-0.17,4.216,1.656
	C1310.306,140.574,1308.902,142.645,1309,146z"/>
<path fill="#0FA1D6" d="M966.989,0c-11.9,18.629-38.431,59.978-45.289,69.122c-0.332,0.442-0.242,1.069,0.2,1.4
	c0.18,0.135,0.391,0.2,0.599,0.2c0.304,0,0.604-0.138,0.801-0.4c7.03-9.373,34.519-52.245,46.062-70.322H966.989z"/>
<g>
	<g>
		<path fill="#7AD69C" d="M927.458,138.358c-1.332-1.513-2.045-2.922-2.045-2.922l-12.447-0.175l-6.252,14.493
			c0,0-0.235,2.57,0.875,3.506c1.111,0.935,13.674,0.817,14.727,0.525s1.402-0.467,2.57-4.324
			C926.055,145.604,928.745,139.82,927.458,138.358z"/>
	</g>
	<polygon fill="#7AD69C" points="920.822,155.807 925.104,143.34 912.637,143.466 909.866,155.052 	"/>
	<g>
		<text transform="matrix(1 0 0 1 903.0073 155.4922)" fill="#FFFFFF" font-family="'FontAwesome'" font-size="24.3876"></text>
	</g>
</g>
<path fill="none" stroke="#0FA1D6" stroke-width="2" stroke-miterlimit="10" d="M1104.836,150.027
	c24.997,0,41.736-3.596,45.683-18.511c4.158-15.717-6.283-23.744-32.452-38.308C1083,73.694,1110.813,42.198,1131.378,0"/>
<path fill="none" stroke="#0FA1D6" stroke-width="2" stroke-miterlimit="10" d="M1258.5,94.388
	c-4.294,7.438-35.019,60.659-39.919,68.225c-6.17,9.526-9.206,12.828-21.331,12.828h-18.625c-11.5,0-14.503-1.434-21.526-6.516
	c-3.918-2.836-11.668-8.352-13.432-9.689c-11.276-8.553-12.413-9.209-38.831-9.209c-14.914,0-35.586,0-35.586,0"/>
<path fill="none" stroke="#0FA1D6" stroke-width="2" stroke-miterlimit="10" d="M1255.954,57.47c0-11.082,0.421-16.582,7.296-28.457
	l15.934-26.659"/>
<polygon fill="#0FA1D6" points="1279.344,0 1277.08,4.089 1278.83,5.058 1281.631,0 "/>
<g>
	<path fill="#71B087" d="M1167.51,101.754c0,0-7.583,0-14.82,0c-5.79,4.523-18.335,2.653-17.369-2.473
		c0.965-5.126,4.816-20.295,4.816-20.295c0.367-1.994,1.484-3.315,3.315-3.315c1.83,0,2.834,1.225,3.314,3.315l1.178,3.689
		c0.571,1.563,1.261,2.815,2.815,2.815s2.05-0.99,2.815-2.815l5.782-14.755c1.111-2.308,1.729-3.86,3.859-3.86
		c2.132,0,2.816,1.326,3.861,3.86l5.065,16.887l2.604,9.167C1177.643,102.296,1167.51,101.754,1167.51,101.754z"/>
	<path fill="#7AD69C" d="M1172.02,103.013l-4.586-14.15c0-1.386-1.123-2.509-2.51-2.509c-1.384,0-2.507,1.123-2.507,2.509
		l-4.548,14.425C1156.614,106.502,1173.781,109.402,1172.02,103.013z"/>
	<path fill="#7AD69C" d="M1160.123,104.803l-3.192-9.848c0-0.964-0.781-1.747-1.745-1.747s-1.745,0.782-1.745,1.747l-3.165,10.039
		C1149.401,107.231,1161.35,109.249,1160.123,104.803z"/>
	<path fill="#7AD69C" d="M1148.511,104.946l-2.147-6.629c0-0.649-0.527-1.175-1.176-1.175s-1.174,0.526-1.174,1.175l-2.132,6.758
		C1141.295,106.58,1149.337,107.939,1148.511,104.946z"/>
	<path fill="#FFFFFF" d="M1167.078,67.92c-0.91-2.94-1.729-3.86-3.861-3.86c-2.131,0-2.838,1.326-3.859,3.86l-0.993,2.535
		c0.975,0.495,1.97-0.726,2.286-1.586c0.316-0.859,1.312,0.724,1.583,1.81s1.267,0.633,1.765-0.543
		c0.497-1.176,1.989-0.588,2.623,0.859c0.465,1.062,1.764,1.085,1.764,1.085L1167.078,67.92z"/>
	<path fill="#FFFFFF" d="M1146.767,78.986c-0.48-2.09-1.484-3.315-3.314-3.315c-1.831,0-2.948,1.321-3.315,3.315
		c0,0-0.144,0.573-0.387,1.532c-0.298,1.183,0.727,0.399,1.24-0.566c0.511-0.965,0.974-1.873,1.024-1.025
		c0.181,3.015,1.339,3.998,1.809,2.744c0.544-1.448,1.373-2.94,1.855-1.855c0.481,1.085,0.891,1.502,1.764,1.402
		C1147.262,80.434,1146.767,78.986,1146.767,78.986z"/>
</g>
<g>
	<path fill="#71B087" d="M1141.2,115.68l-6.394-19.733c-1.396-1.367-1.566-3.499-3.498-3.499s-2.463,1.657-3.498,3.499
		l-6.341,20.117C1119.719,120.545,1143.66,124.589,1141.2,115.68z"/>
	<path fill="#FFFFFF" d="M1135.531,98.169c-0.435-1.23-0.718-2.269-0.718-2.269c-0.618-2.406-1.565-3.498-3.498-3.498
		s-2.901,1.134-3.498,3.498l-0.763,2.417c-0.444,1.287,1.155,1.696,1.565,1.041c0.409-0.656,1.147-2.378,1.64-1.804
		c0.492,0.574,1.312,1.23,1.763,0.615c0.451-0.615,1.435-2.009,2.009-1.189C1134.604,97.8,1134.776,98.127,1135.531,98.169z"/>
</g>
<g>
	<path fill="#7AD69C" d="M1121.411,29.091c-1.332-1.513-2.045-2.922-2.045-2.922l-12.447-0.175l-6.252,14.493
		c0,0-0.235,2.57,0.875,3.505c1.111,0.935,13.674,0.818,14.727,0.526c1.053-0.292,1.402-0.468,2.57-4.324
		C1120.008,36.337,1122.697,30.552,1121.411,29.091z"/>
	<g>
		<text transform="matrix(1 0 0 1 1099.96 44.2241)" fill="#FFFFFF" font-family="'FontAwesome'" font-size="24.3876"></text>
	</g>
</g>
<g>
	<path fill="#7AD69C" d="M1230.009,149.805c-1.332-1.514-2.045-2.923-2.045-2.923l-12.447-0.175l-6.252,14.493
		c0,0-0.235,2.57,0.875,3.506c1.111,0.936,13.674,0.818,14.727,0.526s1.402-0.468,2.57-4.324
		C1228.605,157.051,1231.295,151.266,1230.009,149.805z"/>
	<g>
		<text transform="matrix(1 0 0 1 1208.5576 164.9375)" fill="#FFFFFF" font-family="'FontAwesome'" font-size="24.3876"></text>
	</g>
</g>
<g>
	<path fill="#7AD69C" d="M918.462,95.647c-14.612,0-26.499-11.888-26.499-26.501c0-14.611,11.887-26.498,26.499-26.498
		c14.613,0,26.501,11.887,26.501,26.498C944.963,83.759,933.075,95.647,918.462,95.647z"/>
	<path fill="#0FA1D6" d="M918.462,43.648c14.084,0,25.501,11.416,25.501,25.498c0,14.085-11.417,25.501-25.501,25.501
		c-14.083,0-25.499-11.416-25.499-25.501C892.963,55.064,904.379,43.648,918.462,43.648 M918.462,41.648
		c-15.163,0-27.499,12.335-27.499,27.498c0,15.164,12.336,27.501,27.499,27.501c15.164,0,27.501-12.337,27.501-27.501
		C945.963,53.983,933.626,41.648,918.462,41.648L918.462,41.648z"/>
</g>
<g>
	<path fill="#7AD69C" d="M1042.788,176.695c-14.611,0-26.499-11.889-26.499-26.502c0-14.611,11.888-26.498,26.499-26.498
		c14.612,0,26.501,11.887,26.501,26.498C1069.289,164.807,1057.4,176.695,1042.788,176.695z"/>
	<path fill="#0FA1D6" d="M1042.788,124.696c14.084,0,25.501,11.416,25.501,25.498c0,14.086-11.417,25.502-25.501,25.502
		c-14.083,0-25.499-11.416-25.499-25.502C1017.289,136.112,1028.705,124.696,1042.788,124.696 M1042.788,122.696
		c-15.163,0-27.499,12.335-27.499,27.498c0,15.165,12.336,27.502,27.499,27.502c15.164,0,27.501-12.337,27.501-27.502
		C1070.289,135.031,1057.952,122.696,1042.788,122.696L1042.788,122.696z"/>
</g>
<g>
	<path fill="#7AD69C" d="M1331.462,217.677c-14.611,0-26.499-11.889-26.499-26.501c0-14.611,11.888-26.498,26.499-26.498
		c14.612,0,26.501,11.887,26.501,26.498C1357.963,205.788,1346.074,217.677,1331.462,217.677z"/>
	<path fill="#0FA1D6" d="M1331.462,165.678c14.084,0,25.501,11.416,25.501,25.498c0,14.085-11.417,25.501-25.501,25.501
		c-14.083,0-25.499-11.416-25.499-25.501C1305.963,177.094,1317.379,165.678,1331.462,165.678 M1331.462,163.678
		c-15.163,0-27.499,12.336-27.499,27.498c0,15.164,12.336,27.501,27.499,27.501c15.164,0,27.501-12.337,27.501-27.501
		C1358.963,176.014,1346.626,163.678,1331.462,163.678L1331.462,163.678z"/>
</g>
<g>
	<path fill="#7AD69C" d="M748.658,168.678c-14.612,0-26.499-11.888-26.499-26.5c0-14.611,11.887-26.499,26.499-26.499
		c14.613,0,26.501,11.887,26.501,26.499C775.159,156.79,763.271,168.678,748.658,168.678z"/>
	<path fill="#0FA1D6" d="M748.658,116.679c14.083,0,25.501,11.416,25.501,25.499c0,14.084-11.417,25.5-25.501,25.5
		c-14.083,0-25.499-11.416-25.499-25.5C723.159,128.094,734.575,116.679,748.658,116.679 M748.658,114.679
		c-15.163,0-27.499,12.336-27.499,27.499c0,15.164,12.336,27.5,27.499,27.5c15.164,0,27.501-12.337,27.501-27.5
		C776.159,127.015,763.822,114.679,748.658,114.679L748.658,114.679z"/>
</g>
<g>
	<path fill="#7AD69C" d="M608.658,211.586c-14.612,0-26.499-11.888-26.499-26.5c0-14.611,11.887-26.498,26.499-26.498
		c14.613,0,26.501,11.887,26.501,26.498C635.159,199.698,623.271,211.586,608.658,211.586z"/>
	<path fill="#0FA1D6" d="M608.658,159.588c14.084,0,25.501,11.416,25.501,25.498c0,14.084-11.417,25.5-25.501,25.5
		c-14.083,0-25.499-11.416-25.499-25.5C583.159,171.004,594.575,159.588,608.658,159.588 M608.658,157.588
		c-15.163,0-27.499,12.336-27.499,27.498c0,15.163,12.336,27.5,27.499,27.5c15.164,0,27.501-12.337,27.501-27.5
		C636.159,169.924,623.822,157.588,608.658,157.588L608.658,157.588z"/>
</g>
<g>
	<path fill="#7AD69C" d="M1255.874,110.325c-14.611,0-26.499-11.888-26.499-26.501c0-14.611,11.888-26.498,26.499-26.498
		c14.612,0,26.501,11.887,26.501,26.498C1282.375,98.437,1270.486,110.325,1255.874,110.325z"/>
	<path fill="#0FA1D6" d="M1255.874,58.326c14.084,0,25.501,11.416,25.501,25.498c0,14.085-11.417,25.501-25.501,25.501
		c-14.083,0-25.499-11.416-25.499-25.501C1230.375,69.742,1241.791,58.326,1255.874,58.326 M1255.874,56.326
		c-15.163,0-27.499,12.335-27.499,27.498c0,15.164,12.336,27.501,27.499,27.501c15.164,0,27.501-12.337,27.501-27.501
		C1283.375,68.661,1271.038,56.326,1255.874,56.326L1255.874,56.326z"/>
</g>
<g>
	<circle fill="#FFFFFF" cx="1255.873" cy="83.825" r="22"/>
</g>
<g>
	<circle fill="#FFFFFF" cx="918.462" cy="69.147" r="22"/>
</g>
<g>
	<circle fill="#FFFFFF" cx="1042.787" cy="150.195" r="22"/>
</g>
<g>
	<circle fill="#FFFFFF" cx="1331.461" cy="191.177" r="22"/>
</g>
<g>
	<circle fill="#FFFFFF" cx="748.657" cy="142.178" r="22"/>
</g>
<g>
	<circle fill="#FFFFFF" cx="608.657" cy="185.086" r="22"/>
</g>
<polygon fill="#7AD69C" stroke="#FFFFFF" stroke-width="0.5" stroke-miterlimit="10" points="1319.54,179.324 1322.142,188.477
	1328.347,182.273 "/>
<polygon fill="#7AD69C" stroke="#FFFFFF" stroke-width="0.5" stroke-miterlimit="10" points="1343.066,179.527 1339.993,188.478
	1333.789,182.273 "/>
<g>

		<line fill="none" stroke="#79D49A" stroke-width="2" stroke-linecap="round" stroke-miterlimit="10" x1="596.963" y1="186.834" x2="598.915" y2="176.791"/>

		<line fill="none" stroke="#79D49A" stroke-width="2" stroke-linecap="round" stroke-miterlimit="10" x1="601.259" y1="186.834" x2="599.306" y2="176.791"/>

		<line fill="none" stroke="#79D49A" stroke-width="2" stroke-linecap="round" stroke-miterlimit="10" x1="599.111" y1="176.842" x2="599.111" y2="173.139"/>
	<g>
		<circle fill="#FFFFFF" cx="599.188" cy="176.79" r="2.125"/>
		<g>
			<path fill="#79D49A" d="M599.188,175.664c0.621,0,1.125,0.505,1.125,1.125c0,0.622-0.504,1.126-1.125,1.126
				c-0.622,0-1.125-0.504-1.125-1.126C598.063,176.169,598.567,175.664,599.188,175.664 M599.188,173.664
				c-1.724,0-3.125,1.402-3.125,3.125c0,1.724,1.402,3.126,3.125,3.126c1.723,0,3.125-1.402,3.125-3.126
				C602.313,175.066,600.912,173.664,599.188,173.664L599.188,173.664z"/>
		</g>
	</g>
</g>
<g>
	<g>
		<path fill="#79D49A" d="M599.793,192.435l6.762,3.01h-6.762V192.435 M597.543,188.971v8.724h19.601L597.543,188.971
			L597.543,188.971z"/>
	</g>
</g>
<path fill="#79D49A" d="M615.015,190.753c-0.972,0-1.759-0.788-1.759-1.76v-4.134l0.914-2.902v-4.16l-0.604-2.947v-1.705
	c0-0.801,0.649-1.45,1.45-1.45c0.801,0,1.45,0.649,1.45,1.45v1.585l-0.605,3.138v3.984l0.914,3.154v3.987
	C616.773,189.965,615.986,190.753,615.015,190.753z"/>
<polygon fill="#79D49A" stroke="#79D49A" stroke-width="0.811" stroke-linejoin="round" stroke-miterlimit="10" points="
	620.11,178.07 617.965,178.07 616.646,176.697 615.053,176.697 614.197,176.602 609.919,175.352 609.919,173.922 612.861,173.922
	615.106,173.318 620.11,173.318 "/>
<line fill="#79D49A" stroke="#79D49A" stroke-width="2" stroke-miterlimit="10" x1="606.248" y1="172.428" x2="606.248" y2="183.059"/>
<path fill="#79D49A" stroke="#79D49A" stroke-width="2" stroke-linecap="round" stroke-miterlimit="10" d="M607.603,188.998
	c0,0.748-0.607,1.355-1.355,1.355l0,0c-0.749,0-1.354-0.607-1.354-1.355v-5.523h2.709V188.998z"/>
<line fill="#79D49A" stroke="#79D49A" stroke-width="2" stroke-linecap="round" stroke-miterlimit="10" x1="604.164" y1="183.475" x2="608.333" y2="183.475"/>
<circle fill="#7AD69C" cx="1331.214" cy="188.171" r="3.636"/>
<path fill="#7AD69C" d="M1327.516,207.721c-0.509-3.078-0.87-6.098-0.87-6.098l2.788-8.189h3.135l2.788,8.189
	c0,0-0.506,4.089-0.87,6.098C1332.07,208.635,1330.235,208.732,1327.516,207.721z"/>
<path fill="#7AD69C" d="M1319.842,179.66c3.025-1.814,14.318-4.032,22.789,0.203c-1.147,0.82-1.576,1.391-1.576,1.391
	s-5.689-3.28-9.911-3.28c-4.991,0-9.198,2.78-9.198,2.78L1319.842,179.66z"/>
<path fill="none" stroke="#79D49A" stroke-width="2.5" stroke-linecap="round" stroke-miterlimit="10" d="M754.004,128.66
	c0.908,0,2.743,0.687,2.743,1.648c0,8.38-5.964,9.878-5.964,12.364c0,2.484-1.373,2.186-1.373-0.138
	c0-2.323-6.376-5.22-6.376-12.226c0-1.099,1.837-1.648,2.745-1.648"/>
<path fill="none" stroke="#79D49A" stroke-width="2.5" stroke-linecap="round" stroke-miterlimit="10" d="M750.078,143.062
	c-0.05,8.218,4.095,8.198,1.099,11.196c-2.746,2.744-15.661,2.059-12.285-7.492"/>
<circle fill="#FFFFFF" stroke="#79D49A" stroke-width="2.5" stroke-linecap="round" stroke-miterlimit="10" cx="740.403" cy="143.951" r="3.091"/>
<circle fill="#79D49A" cx="750.078" cy="143.061" r="2.754"/>
<path fill="#79D49A" stroke="#79D49A" stroke-width="1.25" stroke-linecap="round" stroke-linejoin="round" stroke-miterlimit="10" d="
	M908.045,79.238l20.93-20.931c0,0,0.286,3.47-4.538,9.044c-2.863,3.307-5.084-0.333-7.271,3.767
	c-2.287,4.291-5.737,7.738-7.169,9.169C908.563,81.721,906.293,80.99,908.045,79.238z"/>
<g>
	<path fill="none" stroke="#79D49A" stroke-width="1.5" stroke-linecap="round" stroke-miterlimit="10" d="M909.213,58.048
		l3.619,3.618c1.107,1.107,1.453,2.557,0.772,3.238l-1.693,1.694c-0.681,0.681-2.132,0.335-3.239-0.772l-3.618-3.618"/>

		<line fill="none" stroke="#79D49A" stroke-width="1.5" stroke-linecap="round" stroke-miterlimit="10" x1="927.792" y1="80.59" x2="906.701" y2="59.539"/>
	<path fill="#79D49A" stroke="#79D49A" stroke-width="1.5" stroke-miterlimit="10" d="M906.959,64.032
		c1.754,1.753,4.498,0.261,2.306-1.929c2.192,2.19,4.055,0.202,1.737-2.115c0,0,4.13,3.512,2.048,5.593
		C910.97,67.662,908.4,65.473,906.959,64.032z"/>
	<path fill="none" stroke="#79D49A" stroke-width="1.5" stroke-linecap="round" stroke-linejoin="round" stroke-miterlimit="10" d="
		M915.234,68.033c-2.004-2.003-2.409-0.974-3.839-1.146l2.558-2.9C913.916,65.154,913.146,65.944,915.234,68.033z"/>

		<line fill="none" stroke="#79D49A" stroke-width="3" stroke-linecap="round" stroke-miterlimit="10" x1="927.792" y1="80.59" x2="920.893" y2="73.694"/>
</g>
<g>

		<line fill="none" stroke="#79D49A" stroke-width="2" stroke-linecap="round" stroke-linejoin="round" stroke-miterlimit="10" x1="1031.496" y1="154.168" x2="1033.391" y2="154.168"/>

		<line fill="none" stroke="#79D49A" stroke-width="2" stroke-linecap="round" stroke-linejoin="round" stroke-miterlimit="10" x1="1031.496" y1="146.427" x2="1033.391" y2="146.427"/>

		<polyline fill="none" stroke="#79D49A" stroke-width="2" stroke-linecap="round" stroke-linejoin="round" stroke-miterlimit="10" points="
		1033.391,139.77 1031.496,139.77 1031.496,160.77 1054.496,160.77 	"/>

		<line fill="none" stroke="#79D49A" stroke-width="3" stroke-miterlimit="10" x1="1036.886" y1="151.094" x2="1036.886" y2="158.097"/>

		<line fill="none" stroke="#79D49A" stroke-width="3" stroke-miterlimit="10" x1="1042.53" y1="145.621" x2="1042.53" y2="158.097"/>

		<line fill="none" stroke="#79D49A" stroke-width="3" stroke-miterlimit="10" x1="1048.175" y1="139.866" x2="1048.175" y2="158.097"/>

		<line fill="none" stroke="#79D49A" stroke-width="3" stroke-miterlimit="10" x1="1053.818" y1="142.52" x2="1053.818" y2="158.097"/>
</g>
<g>
	<g>
		<path fill="#FFFFFF" d="M1255.158,76.774h-12.101c-0.917,0-1.661,0.744-1.661,1.662v7.686c0,0.917,0.744,1.661,1.661,1.661h2.493
			v6.647l5.229-6.647h4.379c0.918,0,1.661-0.744,1.661-1.661v-7.686C1256.819,77.518,1256.076,76.774,1255.158,76.774z"/>
	</g>
	<g>
		<path fill="none" stroke="#79D49A" stroke-width="2" stroke-linecap="round" stroke-linejoin="round" stroke-miterlimit="10" d="
			M1255.158,76.774h-12.101c-0.917,0-1.661,0.744-1.661,1.662v7.686c0,0.917,0.744,1.661,1.661,1.661h2.493v6.647l5.229-6.647h4.379
			c0.918,0,1.661-0.744,1.661-1.661v-7.686C1256.819,77.518,1256.076,76.774,1255.158,76.774z"/>
	</g>
</g>
<g>
	<g>
		<path fill="#FFFFFF" d="M1267.826,73.572h-13.673c-0.917,0-1.662,0.744-1.662,1.662v7.686c0,0.917,0.745,1.662,1.662,1.662h4.91
			l5.514,6.646v-6.646h3.249c0.919,0,1.663-0.745,1.663-1.662v-7.686C1269.489,74.316,1268.745,73.572,1267.826,73.572z"/>
	</g>
	<g>
		<path fill="none" stroke="#79D49A" stroke-width="2" stroke-linecap="round" stroke-linejoin="round" stroke-miterlimit="10" d="
			M1267.826,73.572h-13.673c-0.917,0-1.662,0.744-1.662,1.662v7.686c0,0.917,0.745,1.662,1.662,1.662h4.91l5.514,6.646v-6.646h3.249
			c0.919,0,1.663-0.745,1.663-1.662v-7.686C1269.489,74.316,1268.745,73.572,1267.826,73.572z"/>
	</g>
</g>
</svg>
