<?xml version="1.0" encoding="utf-8"?>
<!-- Generator: Adobe Illustrator 16.0.0, SVG Export Plug-In . SVG Version: 6.00 Build 0)  -->
<!DOCTYPE svg PUBLIC "-//W3C//DTD SVG 1.1//EN" "http://www.w3.org/Graphics/SVG/1.1/DTD/svg11.dtd">
<svg version="1.1" id="Layer_1" xmlns="http://www.w3.org/2000/svg" xmlns:xlink="http://www.w3.org/1999/xlink" x="0px" y="0px"
	 width="1040px" height="230px" viewBox="0 0 1040 230" enable-background="new 0 0 1040 230" xml:space="preserve">
<g id="bg">
	<g id="BG">
		<g id="header__x2B__bg">
			<rect fill="#0FA1D6" width="1040" height="230"/>
		</g>
		<g id="HEADER_pathway_page">
		</g>
		<g>
			<g>
				<path fill="#7AD69C" d="M1019,133.382c-0.33,0-0.66-0.085-0.955-0.255l-12.465-7.195c-0.588-0.342-0.953-0.972-0.953-1.654
					v-14.388c0-0.683,0.365-1.312,0.953-1.652l12.465-7.196c0.592-0.341,1.318-0.341,1.908,0l12.467,7.196
					c0.588,0.34,0.953,0.97,0.953,1.652v14.388c0,0.688-0.365,1.312-0.953,1.654l-12.467,7.195
					C1019.658,133.297,1019.33,133.382,1019,133.382z"/>
			</g>
		</g>
		<g>
			<g>
				<path fill="#7AD69C" d="M1026.188,160.738c-0.166,0-0.324-0.043-0.479-0.127l-6.232-3.604c-0.293-0.171-0.477-0.479-0.477-0.821
					v-7.195c0-0.342,0.184-0.656,0.477-0.826l6.232-3.598c0.297-0.172,0.66-0.172,0.955,0l6.232,3.598
					c0.295,0.17,0.477,0.484,0.477,0.826v7.195c0,0.342-0.182,0.65-0.477,0.821l-6.232,3.604
					C1026.516,160.695,1026.352,160.738,1026.188,160.738z"/>
			</g>
		</g>
		<path fill="#7AD69C" d="M24,230h1000c0,0,0-3.52,0-5.168c0-5.111-0.145-5.309-3.202-7.891l-20.725-12.586
			c-1.158-0.67-1.866-0.992-1.866-2.334c0,0,0-10.683,0-17.658c0-5.817-2.117-8.026-5.708-10.1
			c-2.204-1.272-17.201-9.937-17.201-9.937c-4.636-2.683-6.419-5.392-6.419-11.127V99.138c0-3.875,0.74-6.293,4.434-8.426
			l12.438-7.178c3.347-1.933,5.922-2.812,8.588-2.812c4.292,0,18.128,0,22.521,0c4.396,0,7.985-0.332,11.531-2.405
			c2.357-1.378,4.494-2.63,5.964-3.478c3.388-1.953,5.779-4.619,5.779-8.951c0-3.333,0-65.888,0-65.888H0c0,0,0,44.836,0,52.17
			s6.289,10.857,14.733,15.715c0,0,1.248,0.732,6.281,3.688c5.035,2.956,9.086,5.075,15.313,5.075c4.35,0,8.044-0.002,8.044-0.002
			c3.254,0,6.834,0.082,12.508,3.354l5.661,3.423c2.713,1.686,4.278,4.297,4.278,7.32v47.646c0,3.021-1.509,6.271-4.223,7.953
			c0,0-13.646,8.541-17.354,10.682c-3.708,2.146-11.002,6.942-14.473,8.947c-3.473,2.004-6.772,5.94-6.772,10.44S24,230,24,230z"/>
		<path fill="#7AD69C" d="M42.533,127.068c1.236-0.713,4.018-2.317,5.684-3.279c1.229-0.708,1.597-0.943,1.597-2.816
			s0-13.208,0-14.989c0-1.78-1.203-2.519-2.399-3.214c-2.155-1.252-5.004-2.899-5.825-3.374c-1.908-1.102-3.373-1.064-5.221-0.001
			c-0.812,0.467-3.782,2.122-5.964,3.375c-1.242,0.713-2.354,1.546-2.354,3.214c0,0,0,13.196,0,15.009s0.671,2.256,1.632,2.803
			c1.7,0.966,4.31,2.452,5.72,3.272C37.995,128.58,39.836,128.625,42.533,127.068z"/>
		<path fill="none" stroke="#0FA1D6" stroke-width="2" stroke-miterlimit="10" d="M21,186.611c41.333,0,83.646,0.057,108.667,0.057"
			/>
		<g>
			<g>
				<path fill="#0FA1D6" d="M833,142.084c-0.33,0-0.66-0.085-0.955-0.255l-12.465-7.196c-0.588-0.341-0.953-0.971-0.953-1.652
					v-14.393c0-0.684,0.365-1.312,0.953-1.652l12.465-7.19c0.592-0.341,1.318-0.341,1.908,0l12.467,7.19
					c0.588,0.34,0.953,0.976,0.953,1.652v14.393c0,0.687-0.365,1.312-0.953,1.652l-12.467,7.196
					C833.658,141.999,833.33,142.084,833,142.084z"/>
			</g>
		</g>
		<g>
			<g>
				<path fill="none" stroke="#0FA1D6" stroke-width="2" stroke-miterlimit="10" d="M786.251,68.971
					c10.582,0,11.994,0.486,20.188,5.217c8.188,4.731,19.146,11.057,19.146,11.057c7.053,4.11,7.408,5.785,7.408,10.654v33.414"/>
			</g>
		</g>
		<g>
			<g>
				<path fill="#0FA1D6" d="M355.871,144.055c-0.329,0-0.659-0.086-0.954-0.256l-12.466-7.195c-0.588-0.342-0.952-0.972-0.952-1.648
					v-14.396c0-0.684,0.364-1.312,0.952-1.647l12.466-7.196c0.591-0.341,1.318-0.341,1.908,0l12.466,7.196
					c0.589,0.34,0.953,0.97,0.953,1.647v14.396c0,0.682-0.364,1.312-0.953,1.648l-12.466,7.195
					C356.529,143.969,356.201,144.055,355.871,144.055z"/>
			</g>
		</g>
		<path fill="none" stroke="#0FA1D6" stroke-width="2" stroke-linecap="round" stroke-linejoin="round" stroke-miterlimit="10" d="
			M446.5,69.722c5.926-7.901,26.232-39.36,39.412-59.928"/>
		<path fill="none" stroke="#0FA1D6" stroke-width="2" stroke-miterlimit="10" d="M544.648,162.84c0,0-23.707,13.688-28.806,16.627
			c-9.009,5.201-15.385,3.672-24.148-1.391c-5.173-2.986-52.13-30.096-52.13-30.096c-20.397-11.522-27.314-12.203-48.564-12.203
			h-31.335"/>
		<path fill="none" stroke="#0FA1D6" stroke-width="2" stroke-miterlimit="10" d="M556.443,132.891"/>
		<path fill="none" stroke="#0FA1D6" stroke-width="2" stroke-miterlimit="10" d="M980.994,106.509h-42.35
			c-10.093,0-18.204,0.424-23.18,3.294c-4.97,2.87-9.984,6.751-15.816,6.751c-8.647,0-13.147,0-13.147,0
			c-8.002,0-10.296,0.077-28.712-10.938L827.327,86.29"/>
		<path fill="none" stroke="#0FA1D6" stroke-width="2" stroke-miterlimit="10" d="M833,125.751v16.093
			c0,22.635,0.814,24.988,11.544,43.573c3.195,5.535,3.044,6.56,14.812,16.205c9.603,7.868,12.646,6.61,15.851,6.61h38.126
			c8.664,0,12.196-3.271,21.902-9.084l64.319-42.188"/>
		<path fill="#0FA1D6" stroke="#0FA1D6" stroke-width="2" stroke-linejoin="round" stroke-miterlimit="10" d="M978.2,170.975
			c2.184-1.422,2.213-4.396,0.021-6.08c-2.003-1.539,3.868-0.42,6.35,1.771c2.476,2.189,2.797,3.516,2.797,3.516
			C985.067,168.852,980.279,169.62,978.2,170.975z"/>
		<path fill="#0FA1D6" stroke="#0FA1D6" stroke-width="2" stroke-linejoin="round" stroke-miterlimit="10" d="M969.862,165.745
			c3.228-2.323,1.354-5.739,0.979-7.608c-0.506-2.525,3.061,1.021,5.53,3.211c2.476,2.19,2.405,3.84,2.405,3.84
			C975.859,163.115,971.941,164.393,969.862,165.745z"/>
		<path fill="none" stroke="#0FA1D6" stroke-width="2" stroke-miterlimit="10" d="M948.47,190.471
			c7.483-4.906,13.812-4.047,22.029-4.047c8.065,0,29.574,0,29.574,0"/>
		<path fill="none" stroke="#0FA1D6" stroke-width="2" stroke-miterlimit="10" d="M956.89,184.949
			c8.229-5.355-0.021-10.406,6.356-14.581s14.803-10.841,14.803-10.841"/>
		<path fill="none" stroke="#0FA1D6" stroke-width="2" stroke-miterlimit="10" d="M978.117,186.424
			c8.289,0,8.881-7.395,14.113-7.395c5.229,0,12.548,0,12.548,0"/>
		<path fill="none" stroke="#0FA1D6" stroke-width="2" stroke-miterlimit="10" d="M966.402,186.424c7.71,0,5.252,13.254,15,13.254
			s23.376,0,23.376,0"/>
		<path fill="none" stroke="#0FA1D6" stroke-width="2" stroke-miterlimit="10" d="M981.402,199.678
			c7.812,0,4.053,8.059,17.197,8.059"/>
		<path fill="#0FA1D6" stroke="#0FA1D6" stroke-width="2" stroke-linejoin="round" stroke-miterlimit="10" d="M993.48,199.678
			c3.824,0,4.652,1.568,6.072,4.352c0.938,1.845,1.57-4.691,1.57-4.691l-2.688-5.863
			C998.443,196.133,997.145,199.678,993.48,199.678z"/>
		<path fill="#0FA1D6" stroke="#0FA1D6" stroke-width="2" stroke-linejoin="round" stroke-miterlimit="10" d="M993.235,186.424
			c3.829,0,5.223,4.977,5.223,7.042s6.792-16.64,6.792-16.64l-11.375-2.891c2.661,1.641,2.089,5.094-0.64,5.094
			c2.562,0,4.704,2.027,4.482,3.979C997.506,184.966,995.675,186.424,993.235,186.424z"/>
		<path fill="#0FA1D6" stroke="#0FA1D6" stroke-width="2" stroke-linejoin="round" stroke-miterlimit="10" d="M997.167,207.7
			c4.162,0,10.262,0.118,13.208,1.64c1.835,0.948-5.763-6.643-5.763-6.643l-6.895-1.482
			C1000.073,204.199,1000.041,207.7,997.167,207.7z"/>
		<path fill="#0FA1D6" stroke="#0FA1D6" stroke-width="2" stroke-linejoin="round" stroke-miterlimit="10" d="M957.854,106.509
			c6,0,12.062,1.272,12.062,10.292c0,0,2.771-4.812,2.771-11.062s-2.695-7.793-2.695-7.793
			C969.984,106.751,963.479,106.509,957.854,106.509z"/>
		<path fill="none" stroke="#0FA1D6" stroke-width="2" stroke-linecap="round" stroke-linejoin="round" stroke-miterlimit="10" d="
			M449.799,65.086c-10.333,13.5-17.916,18.901-30.741,26.353C406.89,98.509,361.95,124.17,351,130.721
			c-18.416,11.021-20.939,11.545-43.573,11.545c0,0-3.713,0-11.63,0H290.9c0,0-51.253,0-68.9,0c-17.648,0-22.99,1.541-30.821,13.729
			c-2.463,3.851-2.836,4.4-8.86,13.359c-8.372,12.445-11.48,17.313-23.48,17.313"/>
		<path fill="#0FA1D6" stroke="#0FA1D6" stroke-width="2" stroke-linejoin="round" stroke-miterlimit="10" d="M23,175.037
			c0,7.135-0.8,11.574,4.826,11.574c-5.626,0-4.826,4.438-4.826,11.576c0,0-2.667-7.604-2.667-11.854S23,175.037,23,175.037z"/>
		<path fill="#0FA1D6" stroke="#0FA1D6" stroke-width="2" stroke-linejoin="round" stroke-miterlimit="10" d="M336.166,138.832
			c4.781-2.76,8.056-2.289,12.489,0.27c4.433,2.562,0-8.074,0-8.074s-6.068-8.5-6.068-2.75S340.97,136.059,336.166,138.832z"/>
		<path fill="#0FA1D6" stroke="#0FA1D6" stroke-width="2" stroke-linejoin="round" stroke-miterlimit="10" d="M372.871,118.007
			c-3.174,1.833-3.65,4.734-3.65,8.427c0,3.398-4.715-3.244-4.715-3.244S369.681,119.85,372.871,118.007z"/>
		<path fill="#0FA1D6" stroke="#0FA1D6" stroke-width="2" stroke-linejoin="round" stroke-miterlimit="10" d="M377.75,135.764
			c-13.812,0-17.634,0.305-17.634,0.305s-2.792,6.496,2.071,3.436C367.479,136.164,371.631,135.764,377.75,135.764z"/>
		<path fill="#0FA1D6" stroke="#0FA1D6" stroke-width="2" stroke-linejoin="round" stroke-miterlimit="10" d="M833,105.621
			c-0.097,3.338-1.381,5.688-4.105,7.157c-2.727,1.47,4.156,1.752,4.156,1.752s7.104,0.032,4.141-1.794
			C834.226,110.909,832.902,108.976,833,105.621z"/>
		<path fill="#0FA1D6" stroke="#0FA1D6" stroke-width="2" stroke-linejoin="round" stroke-miterlimit="10" d="M833,146
			c-0.097-3.338-1.381-5.688-4.105-7.157c-2.727-1.47,4.156-1.752,4.156-1.752s7.178-0.17,4.216,1.656
			C834.306,140.574,832.902,142.645,833,146z"/>
		<path fill="#0FA1D6" d="M490.989,0c-11.9,18.629-38.437,59.978-45.289,69.122c-0.332,0.442-0.242,1.069,0.2,1.4
			c0.18,0.135,0.391,0.2,0.599,0.2c0.304,0,0.604-0.138,0.801-0.4C454.33,60.949,481.82,18.077,493.362,0H490.989z"/>
		<path fill="none" stroke="#0FA1D6" stroke-width="2" stroke-miterlimit="10" d="M628.836,150.027
			c24.997,0,41.736-3.596,45.684-18.512c4.157-15.722-6.278-23.749-32.447-38.312C607,73.694,634.812,42.198,655.378,0"/>
		<path fill="none" stroke="#0FA1D6" stroke-width="2" stroke-miterlimit="10" d="M782.5,94.388
			c-4.294,7.438-35.02,60.659-39.919,68.225c-6.17,9.525-9.206,12.828-21.331,12.828h-18.625c-11.5,0-14.503-1.438-21.526-6.521
			c-3.918-2.836-11.668-8.354-13.432-9.688c-11.276-8.553-12.413-9.209-38.831-9.209c-14.914,0-35.586,0-35.586,0"/>
		<path fill="none" stroke="#0FA1D6" stroke-width="2" stroke-miterlimit="10" d="M779.954,57.47
			c0-11.082,0.421-16.582,7.296-28.457l15.934-26.659"/>
		<polygon fill="#0FA1D6" points="803.344,0 801.08,4.089 802.83,5.058 805.631,0 		"/>
		<g>
			<path fill="#7AD69C" d="M441.999,95.5c-14.612,0-26.499-11.888-26.499-26.501c0-14.611,11.887-26.498,26.499-26.498
				c14.613,0,26.501,11.887,26.501,26.498C468.5,83.611,456.612,95.5,441.999,95.5z"/>
			<path fill="#0FA1D6" d="M441.999,43.5c14.084,0,25.501,11.416,25.501,25.498c0,14.085-11.417,25.501-25.501,25.501
				c-14.083,0-25.499-11.416-25.499-25.501C416.5,54.917,427.916,43.5,441.999,43.5 M441.999,41.5
				c-15.163,0-27.499,12.335-27.499,27.498c0,15.164,12.336,27.501,27.499,27.501c15.164,0,27.501-12.337,27.501-27.501
				C469.5,53.835,457.163,41.5,441.999,41.5L441.999,41.5z"/>
		</g>
		<g>
			<path fill="#7AD69C" d="M566.999,176.5c-14.611,0-26.499-11.889-26.499-26.502c0-14.611,11.888-26.498,26.499-26.498
				c14.612,0,26.501,11.887,26.501,26.498C593.5,164.611,581.611,176.5,566.999,176.5z"/>
			<path fill="#0FA1D6" d="M566.999,124.5c14.084,0,25.501,11.416,25.501,25.498c0,14.086-11.417,25.502-25.501,25.502
				c-14.083,0-25.499-11.416-25.499-25.502C541.5,135.916,552.916,124.5,566.999,124.5 M566.999,122.5
				c-15.163,0-27.499,12.336-27.499,27.498c0,15.166,12.336,27.502,27.499,27.502c15.164,0,27.501-12.336,27.501-27.502
				C594.5,134.836,582.163,122.5,566.999,122.5L566.999,122.5z"/>
		</g>
		<g>
			<path fill="#7AD69C" d="M854.999,217.5c-14.61,0-26.499-11.889-26.499-26.502c0-14.611,11.888-26.498,26.499-26.498
				c14.612,0,26.501,11.887,26.501,26.498C881.5,205.611,869.611,217.5,854.999,217.5z"/>
			<path fill="#0FA1D6" d="M854.999,165.5c14.084,0,25.501,11.416,25.501,25.498c0,14.086-11.417,25.502-25.501,25.502
				c-14.083,0-25.499-11.416-25.499-25.502C829.5,176.916,840.916,165.5,854.999,165.5 M854.999,163.5
				c-15.163,0-27.499,12.336-27.499,27.498c0,15.164,12.336,27.502,27.499,27.502c15.164,0,27.501-12.338,27.501-27.502
				C882.5,175.836,870.163,163.5,854.999,163.5L854.999,163.5z"/>
		</g>
		<g>
			<path fill="#7AD69C" d="M271.999,168.499c-14.612,0-26.499-11.888-26.499-26.5c0-14.61,11.887-26.498,26.499-26.498
				c14.613,0,26.501,11.888,26.501,26.498C298.5,156.611,286.612,168.499,271.999,168.499z"/>
			<path fill="#0FA1D6" d="M271.999,116.501c14.083,0,25.501,11.416,25.501,25.498c0,14.084-11.417,25.5-25.501,25.5
				c-14.083,0-25.499-11.416-25.499-25.5S257.916,116.501,271.999,116.501 M271.999,114.501c-15.163,0-27.499,12.336-27.499,27.498
				c0,15.164,12.336,27.5,27.499,27.5c15.164,0,27.501-12.337,27.501-27.5C299.5,126.837,287.163,114.501,271.999,114.501
				L271.999,114.501z"/>
		</g>
		<g>
			<path fill="#7AD69C" d="M131.999,211.499c-14.612,0-26.499-11.888-26.499-26.5c0-14.61,11.887-26.498,26.499-26.498
				c14.613,0,26.501,11.888,26.501,26.498C158.5,199.611,146.612,211.499,131.999,211.499z"/>
			<path fill="#0FA1D6" d="M131.999,159.501c14.084,0,25.501,11.416,25.501,25.498c0,14.084-11.417,25.5-25.501,25.5
				c-14.083,0-25.499-11.416-25.499-25.5C106.5,170.917,117.916,159.501,131.999,159.501 M131.999,157.501
				c-15.163,0-27.499,12.336-27.499,27.498c0,15.163,12.336,27.5,27.499,27.5c15.164,0,27.501-12.337,27.501-27.5
				C159.5,169.837,147.163,157.501,131.999,157.501L131.999,157.501z"/>
		</g>
		<g>
			<path fill="#7AD69C" d="M779.999,110.5c-14.611,0-26.499-11.888-26.499-26.501c0-14.611,11.888-26.498,26.499-26.498
				c14.612,0,26.501,11.887,26.501,26.498C806.5,98.611,794.611,110.5,779.999,110.5z"/>
			<path fill="#0FA1D6" d="M779.999,58.5c14.084,0,25.501,11.416,25.501,25.498c0,14.085-11.417,25.501-25.501,25.501
				c-14.083,0-25.499-11.416-25.499-25.501C754.5,69.917,765.916,58.5,779.999,58.5 M779.999,56.5
				c-15.163,0-27.499,12.335-27.499,27.498c0,15.164,12.336,27.501,27.499,27.501c15.164,0,27.501-12.337,27.501-27.501
				C807.5,68.835,795.163,56.5,779.999,56.5L779.999,56.5z"/>
		</g>
	</g>
	<g id="storybits" display="none">
		<g display="inline">
			<g>
				<g>
					<path fill="#7AD69C" d="M451.458,138.357c-1.332-1.512-2.045-2.922-2.045-2.922l-12.447-0.18l-6.252,14.493
						c0,0-0.235,2.567,0.875,3.506c1.111,0.938,13.674,0.817,14.729,0.524c1.053-0.293,1.396-0.471,2.564-4.323
						C450.055,145.604,452.745,139.82,451.458,138.357z"/>
				</g>
			</g>
			<g>
				<polygon fill="#7AD69C" points="444.822,155.807 449.104,143.34 436.637,143.466 433.866,155.052 				"/>
			</g>
			<g>
				<g enable-background="new    ">
					<path fill="#FFFFFF" d="M427.144,152.988c0-0.036,0.017-0.159,0.041-0.367c0.027-0.209,0.048-0.377,0.058-0.504
						c0.009-0.072-0.005-0.17-0.041-0.293c-0.036-0.122-0.05-0.211-0.041-0.266c0.018-0.103,0.054-0.194,0.106-0.285
						c0.057-0.092,0.132-0.197,0.227-0.32c0.096-0.122,0.17-0.229,0.225-0.319c0.209-0.345,0.413-0.76,0.613-1.245
						c0.199-0.484,0.335-0.897,0.408-1.244c0.024-0.092,0.026-0.228,0.007-0.408c-0.023-0.182-0.025-0.31-0.007-0.383
						c0.024-0.1,0.104-0.227,0.229-0.381s0.204-0.259,0.231-0.312c0.188-0.327,0.381-0.744,0.572-1.252
						c0.188-0.509,0.304-0.916,0.34-1.226c0.009-0.082-0.002-0.229-0.034-0.438s-0.03-0.336,0.007-0.382
						c0.036-0.118,0.136-0.259,0.299-0.415c0.164-0.158,0.266-0.264,0.299-0.309c0.174-0.233,0.365-0.619,0.579-1.147
						c0.213-0.53,0.338-0.97,0.374-1.312c0.011-0.072-0.004-0.188-0.041-0.349s-0.045-0.276-0.024-0.358
						c0.018-0.072,0.059-0.154,0.123-0.244c0.062-0.092,0.145-0.195,0.243-0.313c0.102-0.117,0.179-0.213,0.23-0.285
						c0.073-0.108,0.146-0.248,0.225-0.416c0.079-0.168,0.146-0.325,0.204-0.476c0.062-0.15,0.132-0.313,0.22-0.49
						c0.088-0.178,0.176-0.32,0.267-0.436c0.09-0.113,0.211-0.223,0.36-0.319c0.147-0.101,0.312-0.152,0.487-0.156
						c0.179-0.005,0.395,0.021,0.646,0.074l-0.017,0.041c0.348-0.082,0.576-0.123,0.694-0.123h10.354
						c0.671,0,1.188,0.254,1.551,0.763c0.363,0.51,0.441,1.098,0.245,1.771l-3.729,12.329c-0.326,1.08-0.647,1.775-0.973,2.091
						c-0.322,0.312-0.905,0.47-1.749,0.47H429.13c-0.245,0-0.417,0.066-0.517,0.204c-0.103,0.146-0.104,0.341-0.017,0.585
						c0.221,0.637,0.871,0.953,1.959,0.953h12.562c0.263,0,0.518-0.07,0.762-0.211c0.245-0.143,0.404-0.329,0.479-0.564
						l4.083-13.433c0.062-0.199,0.086-0.458,0.065-0.776c0.348,0.139,0.612,0.332,0.807,0.588c0.36,0.519,0.441,1.104,0.242,1.756
						l-3.746,12.328c-0.173,0.58-0.52,1.067-1.037,1.465c-0.521,0.395-1.076,0.592-1.666,0.592h-12.562
						c-0.699,0-1.373-0.242-2.021-0.729c-0.649-0.483-1.104-1.081-1.354-1.788C426.953,154.107,426.944,153.532,427.144,152.988z
						 M433.703,144.605c-0.037,0.117-0.027,0.22,0.027,0.306c0.054,0.087,0.145,0.13,0.271,0.13h8.274
						c0.115,0,0.23-0.043,0.347-0.13c0.113-0.086,0.188-0.188,0.225-0.306l0.286-0.871c0.036-0.118,0.027-0.221-0.024-0.31
						c-0.057-0.086-0.146-0.129-0.272-0.129h-8.273c-0.116,0-0.232,0.043-0.348,0.129c-0.114,0.089-0.188,0.188-0.225,0.31
						L433.703,144.605z M434.833,141.121c-0.036,0.117-0.027,0.22,0.027,0.307c0.054,0.086,0.145,0.129,0.271,0.129h8.275
						c0.117,0,0.23-0.043,0.347-0.129c0.113-0.087,0.188-0.188,0.225-0.307l0.286-0.871c0.036-0.117,0.026-0.221-0.024-0.307
						c-0.058-0.086-0.146-0.129-0.272-0.129h-8.271c-0.118,0-0.234,0.043-0.35,0.129c-0.11,0.086-0.188,0.188-0.225,0.307
						L434.833,141.121z"/>
				</g>
			</g>
		</g>
		<g display="inline">
			<g>
				<path fill="#7AD69C" d="M645.411,29.091c-1.332-1.513-2.045-2.922-2.045-2.922l-12.447-0.175l-6.252,14.493
					c0,0-0.235,2.57,0.875,3.505c1.111,0.935,13.674,0.818,14.728,0.526c1.058-0.292,1.401-0.468,2.569-4.324
					C644.008,36.337,646.697,30.552,645.411,29.091z"/>
			</g>
			<g>
				<g enable-background="new    ">
					<path fill="#FFFFFF" d="M624.096,41.72c0-0.036,0.017-0.159,0.041-0.367c0.027-0.209,0.045-0.377,0.058-0.504
						c0.009-0.072-0.005-0.17-0.041-0.293c-0.036-0.122-0.053-0.211-0.041-0.265c0.019-0.101,0.055-0.195,0.106-0.286
						c0.057-0.091,0.129-0.197,0.228-0.32c0.096-0.122,0.17-0.229,0.225-0.319c0.209-0.345,0.412-0.76,0.612-1.245
						c0.197-0.485,0.335-0.9,0.408-1.245c0.023-0.091,0.026-0.227,0.007-0.408c-0.023-0.182-0.025-0.309-0.007-0.382
						c0.023-0.1,0.104-0.227,0.229-0.381c0.127-0.154,0.204-0.259,0.23-0.312c0.188-0.327,0.382-0.744,0.569-1.252
						c0.19-0.508,0.307-0.916,0.341-1.225c0.012-0.082-0.003-0.227-0.031-0.436c-0.032-0.208-0.03-0.335,0.006-0.381
						c0.037-0.118,0.137-0.256,0.3-0.415c0.163-0.159,0.263-0.261,0.3-0.306c0.172-0.236,0.365-0.619,0.578-1.15
						c0.213-0.531,0.338-0.968,0.374-1.313c0.009-0.073-0.005-0.188-0.04-0.347c-0.037-0.159-0.046-0.279-0.027-0.361
						c0.021-0.072,0.062-0.154,0.122-0.245c0.063-0.091,0.146-0.195,0.245-0.313c0.103-0.118,0.179-0.213,0.23-0.286
						c0.072-0.109,0.146-0.247,0.225-0.415c0.078-0.168,0.146-0.327,0.205-0.476c0.062-0.15,0.131-0.313,0.217-0.49
						c0.087-0.177,0.179-0.322,0.269-0.436c0.091-0.113,0.211-0.22,0.358-0.32c0.149-0.1,0.312-0.152,0.49-0.156
						c0.176-0.004,0.394,0.021,0.646,0.075l-0.017,0.041c0.345-0.082,0.575-0.123,0.693-0.123h10.354
						c0.673,0,1.188,0.254,1.554,0.762c0.36,0.508,0.441,1.098,0.244,1.769l-3.728,12.33c-0.326,1.08-0.649,1.776-0.973,2.089
						c-0.322,0.313-0.905,0.47-1.749,0.47H626.08c-0.245,0-0.417,0.068-0.52,0.204c-0.101,0.146-0.104,0.341-0.014,0.585
						c0.217,0.636,0.871,0.953,1.959,0.953h12.562c0.263,0,0.518-0.07,0.762-0.211c0.245-0.141,0.404-0.329,0.477-0.564
						l4.083-13.433c0.063-0.199,0.087-0.458,0.068-0.776c0.345,0.136,0.612,0.332,0.804,0.585c0.363,0.517,0.444,1.103,0.245,1.756
						L642.76,43.91c-0.172,0.581-0.519,1.069-1.039,1.464c-0.52,0.395-1.074,0.593-1.666,0.593h-12.562
						c-0.698,0-1.372-0.243-2.021-0.729c-0.646-0.485-1.101-1.082-1.354-1.789C623.906,42.84,623.896,42.264,624.096,41.72z
						 M630.656,33.336c-0.037,0.118-0.027,0.22,0.024,0.306c0.057,0.086,0.146,0.129,0.271,0.129h8.271
						c0.118,0,0.233-0.043,0.35-0.129c0.11-0.086,0.188-0.188,0.225-0.306l0.286-0.871c0.036-0.118,0.027-0.22-0.027-0.306
						c-0.054-0.086-0.146-0.129-0.271-0.129h-8.273c-0.119,0-0.231,0.043-0.348,0.129c-0.113,0.086-0.188,0.188-0.225,0.306
						L630.656,33.336z M631.785,29.853c-0.036,0.118-0.027,0.22,0.024,0.306c0.057,0.086,0.146,0.129,0.271,0.129h8.275
						c0.114,0,0.23-0.043,0.347-0.129s0.188-0.188,0.225-0.306l0.286-0.871c0.036-0.118,0.026-0.22-0.024-0.306
						c-0.058-0.086-0.146-0.129-0.272-0.129h-8.274c-0.115,0-0.231,0.043-0.348,0.129c-0.114,0.086-0.188,0.188-0.225,0.306
						L631.785,29.853z"/>
				</g>
			</g>
		</g>
		<g display="inline">
			<g>
				<path fill="#7AD69C" d="M754.009,149.805c-1.332-1.514-2.045-2.923-2.045-2.923l-12.447-0.175l-6.252,14.493
					c0,0-0.229,2.569,0.875,3.506c1.111,0.937,13.68,0.817,14.729,0.526c1.053-0.293,1.397-0.469,2.565-4.324
					C752.605,157.051,755.295,151.266,754.009,149.805z"/>
			</g>
			<g>
				<g enable-background="new    ">
					<path fill="#FFFFFF" d="M732.693,162.434c0-0.035,0.014-0.158,0.041-0.367c0.024-0.209,0.045-0.377,0.055-0.504
						c0.009-0.069-0.005-0.17-0.041-0.293c-0.036-0.121-0.05-0.211-0.041-0.265c0.019-0.101,0.055-0.194,0.109-0.286
						c0.054-0.091,0.129-0.197,0.225-0.32c0.096-0.121,0.17-0.229,0.225-0.316c0.209-0.348,0.412-0.762,0.612-1.245
						c0.199-0.483,0.335-0.897,0.408-1.245c0.023-0.091,0.028-0.227,0.007-0.406c-0.023-0.184-0.025-0.311-0.007-0.384
						c0.023-0.1,0.104-0.227,0.229-0.381c0.127-0.151,0.204-0.259,0.23-0.312c0.188-0.326,0.382-0.743,0.572-1.252
						c0.188-0.508,0.304-0.916,0.34-1.227c0.01-0.082-0.002-0.229-0.033-0.438c-0.032-0.209-0.03-0.336,0.006-0.381
						c0.037-0.119,0.137-0.256,0.3-0.416c0.163-0.156,0.266-0.262,0.303-0.308c0.172-0.233,0.362-0.618,0.575-1.147
						c0.216-0.529,0.341-0.969,0.374-1.312c0.012-0.07-0.005-0.188-0.04-0.347c-0.034-0.159-0.046-0.279-0.024-0.36
						c0.018-0.07,0.059-0.152,0.122-0.244c0.062-0.092,0.146-0.195,0.245-0.312c0.099-0.117,0.177-0.215,0.229-0.285
						c0.073-0.107,0.148-0.248,0.227-0.416c0.077-0.168,0.146-0.326,0.203-0.479c0.062-0.146,0.134-0.312,0.22-0.489
						c0.087-0.177,0.176-0.319,0.266-0.437c0.091-0.113,0.211-0.22,0.361-0.318c0.146-0.101,0.312-0.15,0.487-0.154
						c0.179-0.006,0.395,0.021,0.646,0.072l-0.014,0.041c0.344-0.082,0.572-0.123,0.69-0.123h10.354
						c0.671,0,1.188,0.256,1.551,0.765s0.443,1.101,0.245,1.771l-3.728,12.33c-0.324,1.08-0.648,1.774-0.974,2.09
						c-0.322,0.312-0.905,0.469-1.749,0.469h-11.826c-0.245,0-0.417,0.068-0.517,0.205c-0.104,0.146-0.105,0.341-0.015,0.584
						c0.218,0.637,0.869,0.953,1.959,0.953h12.562c0.263,0,0.518-0.069,0.762-0.211c0.245-0.143,0.404-0.328,0.479-0.563
						l4.083-13.433c0.062-0.199,0.086-0.459,0.066-0.776c0.347,0.138,0.611,0.332,0.806,0.586c0.36,0.519,0.441,1.103,0.245,1.757
						l-3.747,12.327c-0.173,0.581-0.521,1.069-1.039,1.464c-0.521,0.396-1.076,0.594-1.666,0.594h-12.562
						c-0.697,0-1.372-0.244-2.021-0.729c-0.649-0.484-1.104-1.082-1.354-1.789C732.504,163.555,732.494,162.979,732.693,162.434z
						 M739.254,154.051c-0.037,0.117-0.027,0.221,0.027,0.307c0.054,0.086,0.145,0.129,0.271,0.129h8.274
						c0.118,0,0.23-0.043,0.347-0.129c0.113-0.086,0.188-0.188,0.228-0.307l0.283-0.871c0.036-0.117,0.027-0.221-0.024-0.307
						s-0.146-0.129-0.272-0.129h-8.271c-0.119,0-0.234,0.043-0.351,0.129c-0.111,0.086-0.188,0.188-0.225,0.307L739.254,154.051z
						 M740.383,150.566c-0.036,0.117-0.024,0.22,0.027,0.307c0.055,0.086,0.145,0.129,0.271,0.129h8.275
						c0.117,0,0.233-0.043,0.347-0.129c0.113-0.087,0.188-0.189,0.228-0.307l0.286-0.871c0.033-0.117,0.023-0.221-0.027-0.307
						c-0.055-0.089-0.146-0.132-0.272-0.132h-8.271c-0.118,0-0.234,0.043-0.349,0.132c-0.112,0.086-0.188,0.188-0.227,0.307
						L740.383,150.566z"/>
				</g>
			</g>
		</g>
	</g>
	<g id="badges" display="none">
		<g display="inline">
			<g>
				<circle fill="#FFFFFF" cx="779.873" cy="83.825" r="22"/>
			</g>
			<g>
				<g>
					<path fill="#FFFFFF" d="M779.158,76.774h-12.104c-0.917,0-1.659,0.744-1.659,1.662v7.686c0,0.917,0.742,1.661,1.659,1.661
						h2.493v6.647l5.229-6.647h4.379c0.918,0,1.661-0.744,1.661-1.661v-7.686C780.819,77.518,780.076,76.774,779.158,76.774z"/>
				</g>
				<g>
					
						<path fill="none" stroke="#79D49A" stroke-width="2" stroke-linecap="round" stroke-linejoin="round" stroke-miterlimit="10" d="
						M779.158,76.774h-12.104c-0.917,0-1.659,0.744-1.659,1.662v7.686c0,0.917,0.742,1.661,1.659,1.661h2.493v6.647l5.229-6.647
						h4.379c0.918,0,1.661-0.744,1.661-1.661v-7.686C780.819,77.518,780.076,76.774,779.158,76.774z"/>
				</g>
			</g>
			<g>
				<g>
					<path fill="#FFFFFF" d="M791.826,73.572h-13.673c-0.917,0-1.662,0.744-1.662,1.662v7.686c0,0.917,0.745,1.662,1.662,1.662
						h4.909l5.515,6.646v-6.646h3.249c0.919,0,1.663-0.745,1.663-1.662v-7.686C793.489,74.316,792.745,73.572,791.826,73.572z"/>
				</g>
				<g>
					
						<path fill="none" stroke="#79D49A" stroke-width="2" stroke-linecap="round" stroke-linejoin="round" stroke-miterlimit="10" d="
						M791.826,73.572h-13.673c-0.917,0-1.662,0.744-1.662,1.662v7.686c0,0.917,0.745,1.662,1.662,1.662h4.909l5.515,6.646v-6.646
						h3.249c0.919,0,1.663-0.745,1.663-1.662v-7.686C793.489,74.316,792.745,73.572,791.826,73.572z"/>
				</g>
			</g>
		</g>
		<g display="inline">
			<circle fill="#FFFFFF" cx="855.461" cy="191.177" r="22"/>
		</g>
		<polygon display="inline" fill="#7AD69C" stroke="#FFFFFF" stroke-width="0.5" stroke-miterlimit="10" points="843.54,179.324 
			846.142,188.477 852.347,182.273 		"/>
		<polygon display="inline" fill="#7AD69C" stroke="#FFFFFF" stroke-width="0.5" stroke-miterlimit="10" points="867.066,179.527 
			863.993,188.479 857.789,182.273 		"/>
		<circle display="inline" fill="#7AD69C" cx="855.214" cy="188.171" r="3.636"/>
		<path display="inline" fill="#7AD69C" d="M851.516,207.721c-0.509-3.078-0.869-6.098-0.869-6.098l2.787-8.189h3.141l2.787,8.189
			c0,0-0.511,4.089-0.869,6.098C856.07,208.635,854.235,208.732,851.516,207.721z"/>
		<path display="inline" fill="#7AD69C" d="M843.842,179.66c3.025-1.814,14.318-4.032,22.789,0.203
			c-1.146,0.82-1.576,1.391-1.576,1.391s-5.688-3.279-9.911-3.279c-4.985,0-9.192,2.779-9.192,2.779L843.842,179.66z"/>
		<g display="inline">
			<circle fill="#FFFFFF" cx="566.787" cy="150.195" r="22"/>
		</g>
		<g display="inline">
			<g>
				<path fill="#79D49A" d="M557.391,155.168h-1.895c-0.553,0-1-0.447-1-1s0.447-1,1-1h1.895c0.556,0,1,0.447,1,1
					S557.943,155.168,557.391,155.168z"/>
			</g>
			<g>
				<path fill="#79D49A" d="M557.391,147.427h-1.895c-0.553,0-1-0.446-1-1c0-0.553,0.447-1,1-1h1.895c0.556,0,1,0.447,1,1
					C558.391,146.98,557.943,147.427,557.391,147.427z"/>
			</g>
			<g>
				<path fill="#79D49A" d="M578.496,161.77h-23c-0.553,0-1-0.444-1-1v-21c0-0.553,0.447-1,1-1h1.895c0.556,0,1,0.447,1,1
					c0,0.556-0.444,1-1,1h-0.895v19h22c0.553,0,1,0.447,1,1C579.496,161.323,579.049,161.77,578.496,161.77z"/>
			</g>
			<g>
				<rect x="559.386" y="151.094" fill="#79D49A" width="3" height="7.004"/>
			</g>
			<g>
				<rect x="565.03" y="145.621" fill="#79D49A" width="3" height="12.477"/>
			</g>
			<g>
				<rect x="570.675" y="139.866" fill="#79D49A" width="3" height="18.231"/>
			</g>
			<g>
				<rect x="576.318" y="142.52" fill="#79D49A" width="3" height="15.578"/>
			</g>
		</g>
		<g display="inline">
			<circle fill="#FFFFFF" cx="442.462" cy="69.147" r="22"/>
		</g>
		<path display="inline" fill="#79D49A" d="M445.953,72.633c-0.391-0.39-0.939-0.496-1.438-0.365l-1.997-1.993
			c0.686-0.69,1.371-0.707,2.23-0.714c1.169-0.01,2.624-0.023,4.162-1.8c4.938-5.708,4.7-9.352,4.688-9.504
			c-0.02-0.243-0.179-0.452-0.405-0.536c-0.229-0.083-0.485-0.027-0.657,0.145L441.32,69.078l-1.417-1.414
			c-0.06-0.1-0.137-0.188-0.229-0.252c-1.29-1.319-1.196-1.864-1.064-2.611c0.02-0.115,0.023-0.238,0.042-0.355
			c0.021-0.101,0.027-0.207,0.036-0.314c0.005-0.042,0.015-0.079,0.017-0.121c0-0.007-0.002-0.013-0.002-0.02
			c0-0.01,0.002-0.018,0.002-0.028c0.001-0.931-0.5-1.988-1.34-2.828l-3.619-3.618c-0.293-0.293-0.771-0.293-1.062,0
			s-0.293,0.768,0,1.061l1.862,1.862l-0.073,0.079c0.785,0.784,0.92,1.429,0.82,1.672c-0.016,0.039-0.045,0.11-0.223,0.11
			c-0.124,0-0.569-0.055-1.208-0.667l-2.63-2.625c-0.297-0.293-0.771-0.293-1.062,0.001c-0.292,0.293-0.292,0.768,0.001,1.061
			l2.566,2.561l-0.002,0.003c0.543,0.543,0.646,0.953,0.567,1.139c-0.066,0.167-0.316,0.28-0.621,0.28
			c-0.406,0-0.844-0.201-1.191-0.551l-0.041,0.041l-1.865-1.865c-0.293-0.293-0.768-0.293-1.061,0c-0.294,0.293-0.294,0.768,0,1.061
			l3.615,3.618c0.873,0.873,1.923,1.337,2.831,1.337c0.176,0,0.342-0.023,0.503-0.058c0.417,0.028,0.774-0.008,1.1-0.06
			c0.416-0.065,0.676-0.333,1.718,0.598l1.969,1.965l-8.657,8.657c-0.97,0.97-0.872,1.702-0.727,2.052
			c0.214,0.517,0.754,0.825,1.445,0.825c0.732,0,1.523-0.353,2.123-0.948c1.466-1.466,4.88-4.884,7.207-9.197l1.812,1.808
			c-0.123,0.494-0.017,1.033,0.37,1.419l6.897,6.896c0.293,0.292,0.679,0.439,1.062,0.439s0.768-0.146,1.061-0.439
			c0.586-0.586,0.586-1.536,0-2.122L445.953,72.633z"/>
		<g display="inline">
			<g>
				<circle fill="#FFFFFF" cx="271.998" cy="141.999" r="22"/>
			</g>
			<g>
				<path fill="#79D49A" d="M273.484,145.479c-0.915,0-1.983-0.815-1.983-3.125c0-0.359-0.965-1.41-1.603-2.104
					c-1.9-2.064-4.773-5.188-4.773-10.122c0-2.047,2.602-2.896,3.995-2.896c0.69,0,1.25,0.561,1.25,1.25
					c0,0.688-0.56,1.25-1.25,1.25c-0.53,0-1.283,0.272-1.494,0.485c0.035,3.905,2.294,6.362,4.113,8.341
					c0.703,0.766,1.324,1.438,1.736,2.116c0.378-0.562,0.899-1.095,1.459-1.661c1.722-1.75,3.859-3.925,3.903-8.729
					c-0.249-0.232-1.026-0.55-1.493-0.55c-0.69,0-1.25-0.562-1.25-1.25c0-0.689,0.56-1.25,1.25-1.25
					c1.394,0,3.993,0.996,3.993,2.896c0,5.938-2.781,8.766-4.622,10.637c-0.66,0.67-1.342,1.36-1.342,1.728
					c0,0.723-0.099,1.325-0.293,1.794C274.769,145.032,274.172,145.479,273.484,145.479z"/>
			</g>
			<g>
				<path fill="#79D49A" d="M269.606,156.734c-2.082,0-4.295-0.483-6.038-1.584c-1.737-1.096-4.374-3.719-2.514-8.98
					c0.23-0.65,0.944-0.993,1.595-0.762c0.651,0.23,0.992,0.943,0.762,1.596c-0.977,2.764-0.476,4.793,1.49,6.033
					c2.755,1.738,7.526,1.361,8.732,0.156c0.921-0.922,0.908-0.948,0.25-2.352c-0.693-1.473-1.74-3.695-1.714-7.969
					c0.004-0.688,0.563-1.242,1.25-1.242c0.002,0,0.005,0,0.008,0c0.69,0.004,1.247,0.567,1.242,1.26
					c-0.022,3.705,0.844,5.545,1.476,6.889c0.73,1.552,1.42,3.017-0.743,5.182C274.287,156.075,272.036,156.734,269.606,156.734z"/>
			</g>
			<g>
				<path fill="#79D49A" d="M263.744,148.113c-2.394,0-4.341-1.947-4.341-4.342c0-2.396,1.947-4.342,4.341-4.342
					s4.341,1.945,4.341,4.342C268.085,146.166,266.138,148.113,263.744,148.113z M263.744,141.932c-1.015,0-1.841,0.825-1.841,1.842
					s0.826,1.843,1.841,1.843c1.015,0,1.841-0.826,1.841-1.843S264.759,141.932,263.744,141.932z"/>
			</g>
			<circle fill="#79D49A" cx="273.419" cy="142.882" r="2.754"/>
		</g>
		<g display="inline">
			<g>
				<circle fill="#FFFFFF" cx="132" cy="184.999" r="22"/>
			</g>
			<g>
				<g>
					<g>
						<path fill="#79D49A" d="M123.136,192.35l6.762,3.01h-6.762V192.35 M120.886,188.884v8.726h19.602L120.886,188.884
							L120.886,188.884z"/>
					</g>
				</g>
			</g>
			<path fill="#79D49A" d="M143.453,172.826h-3.669c-0.111-0.689-0.703-1.219-1.426-1.219c-0.801,0-1.448,0.646-1.448,1.449v0.168
				l-0.759,0.205h-2.888c-0.224,0-0.405,0.182-0.405,0.402v1.432c0,0.18,0.119,0.34,0.292,0.391l4.193,1.219l0.171,0.837v4.16
				l-0.914,2.901v4.135c0,0.972,0.787,1.76,1.759,1.76c0.971,0,1.758-0.788,1.759-1.76v-3.987l-0.914-3.153v-3.979l0.147-0.771
				h0.466l1.199,1.25c0.077,0.078,0.182,0.123,0.292,0.123h2.145c0.224,0,0.405-0.182,0.405-0.404v-4.752
				C143.858,173.008,143.677,172.826,143.453,172.826z"/>
			<path fill="#79D49A" d="M132.676,183.389c0-0.457-0.311-0.826-0.728-0.945v-0.055h-0.272h-1.085v-10.048h-2v10.048h-1.084h-0.268
				v0.053c-0.419,0.119-0.732,0.488-0.732,0.947c0,0.457,0.313,0.826,0.732,0.945v4.577c0,1.299,1.056,2.354,2.354,2.354
				c1.297,0,2.354-1.058,2.355-2.354v-4.578C132.365,184.213,132.676,183.844,132.676,183.389z"/>
			<path fill="#79D49A" d="M125.656,176.702c-0.001-1.399-0.931-2.573-2.202-2.97v-0.684c0-0.553-0.448-1-1-1c-0.552,0-1,0.447-1,1
				v0.729c-1.192,0.44-2.048,1.58-2.048,2.924c0,1.06,0.531,1.99,1.337,2.557l-1.418,7.299c-0.105,0.543,0.249,1.065,0.791,1.172
				c0.064,0.015,0.129,0.021,0.192,0.021c0.469,0,0.888-0.331,0.98-0.812l1.167-6l1.167,6c0.093,0.479,0.511,0.812,0.98,0.812
				c0.063,0,0.127-0.006,0.192-0.021c0.542-0.104,0.896-0.629,0.791-1.172l-1.402-7.209
				C125.063,178.793,125.656,177.818,125.656,176.702z M122.531,177.828c-0.62,0-1.125-0.504-1.125-1.126
				c-0.001-0.62,0.504-1.125,1.125-1.125c0.621,0,1.125,0.505,1.125,1.125C123.656,177.324,123.152,177.828,122.531,177.828z"/>
		</g>
	</g>
	<g id="mountains">
		<g>
			<path fill="#77BA8E" d="M166.543,125.848c0,0,8.266,0,13.93,0c11.223,4.207,26.097,2.076,25.342-1.936
				c-0.758-4.012-3.771-15.883-3.771-15.883c-0.287-1.56-1.161-2.594-2.594-2.594c-1.435,0-2.218,0.958-2.595,2.594l-0.923,2.887
				c-0.445,1.225-0.985,2.204-2.202,2.204c-1.218,0-1.604-0.774-2.203-2.204l-6.35-15.293c0-1.668-1.352-3.021-3.021-3.021
				c-1.669,0-3.021,1.353-3.021,3.021l-3.965,13.216c0,1.668-1.353,3.021-3.021,3.021"/>
			<path fill="#7AD69C" d="M191.558,130.857l-3.594-11.094c0-1.091-0.881-1.972-1.967-1.972s-1.966,0.881-1.966,1.972l-3.565,11.31
				C179.482,133.593,192.94,135.866,191.558,130.857z"/>
			<path fill="#7AD69C" d="M199.061,134.167l-3.595-11.093c0-1.086-0.88-1.967-1.967-1.967c-1.086,0-1.966,0.879-1.966,1.967
				l-3.565,11.309C186.984,136.902,200.442,139.175,199.061,134.167z"/>
			<path fill="#7AD69C" d="M205.9,132.402l-3.597-11.094c0-1.086-0.88-1.972-1.967-1.972c-1.085,0-1.966,0.886-1.966,1.972
				l-3.565,11.309C193.824,135.137,207.283,137.41,205.9,132.402z"/>
			<path fill="#71B087" d="M167.383,140.409c-2.265,0-4.801-0.415-4.801-0.415s-28.805,0-36.958,0
				c-6.522,5.095-20.653,2.988-19.565-2.786c1.087-5.774,5.428-22.861,5.428-22.861c0.413-2.246,1.672-3.734,3.732-3.734
				c2.062,0,3.193,1.379,3.734,3.734l1.326,4.156c0.643,1.761,1.42,3.171,3.171,3.171c1.752,0,2.309-1.115,3.171-3.171l6.514-16.621
				c1.252-2.599,1.946-4.348,4.349-4.348c2.399,0,3.172,1.494,4.348,4.348l5.707,19.022c0,2.4,1.947,4.348,4.348,4.348
				c2.402,0,4.35-1.947,4.35-4.348l7.881-25c0.997-2.837,1.945-4.348,4.348-4.348c2.403,0,3.273,1.562,4.349,4.348
				c0,0,9.984,31.622,12.017,37.083C186.858,138.445,178.857,140.409,167.383,140.409z"/>
			<path fill="#77BA8E" d="M166.708,136.581l-7.946-24.524c0-2.402-1.945-4.349-4.349-4.349c-2.401,0-4.348,1.947-4.348,4.349
				l-7.883,25C140.011,142.628,169.764,147.654,166.708,136.581z"/>
			<path fill="#7AD69C" d="M147.398,141.413l-5.165-15.938c0-1.562-1.267-2.826-2.826-2.826c-1.562,0-2.826,1.27-2.826,2.826
				l-5.123,16.248C130.047,145.343,149.384,148.609,147.398,141.413z"/>
			<path fill="#7AD69C" d="M160.277,144.518l-5.165-15.938c0-1.562-1.267-2.826-2.826-2.826c-1.562,0-2.826,1.268-2.826,2.826
				l-5.122,16.249C142.925,148.448,162.262,151.714,160.277,144.518z"/>
			<path fill="#7AD69C" d="M175.45,142.552l-3.594-11.094c0-1.086-0.883-1.967-1.969-1.967c-1.086,0-1.966,0.881-1.966,1.967
				l-3.563,11.31C163.375,145.287,176.833,147.561,175.45,142.552z"/>
			<path fill="#7AD69C" d="M183.174,140.787l-3.595-11.094c0-1.086-0.88-1.967-1.967-1.967c-1.086,0-1.967,0.881-1.967,1.967
				l-3.565,11.31C171.097,143.521,184.556,145.795,183.174,140.787z"/>
			<path fill="#7AD69C" d="M133.998,143.428l-3.595-11.093c0-1.086-0.88-1.967-1.969-1.967c-1.086,0-1.967,0.881-1.967,1.967
				l-3.563,11.31C121.921,146.164,135.38,148.438,133.998,143.428z"/>
			<path fill="#7AD69C" d="M120.918,143.589l-2.419-7.467c0-0.731-0.593-1.324-1.324-1.324c-0.729,0-1.323,0.593-1.323,1.324
				l-2.399,7.612C112.79,145.432,121.849,146.961,120.918,143.589z"/>
			<path fill="#FFFFFF" d="M173.703,98.723c-0.54-1.529-0.894-2.819-0.894-2.819c-0.769-2.99-1.945-4.348-4.348-4.348
				s-3.604,1.409-4.348,4.348l-0.947,3.003c-0.553,1.599,1.435,2.108,1.944,1.293c0.51-0.815,1.427-2.955,2.037-2.241
				c0.611,0.713,1.632,1.528,2.19,0.764c0.562-0.764,1.783-2.497,2.497-1.478S172.765,98.671,173.703,98.723z"/>
			<path fill="#FFFFFF" d="M141.832,101.882c-1.023-3.312-1.947-4.348-4.348-4.348s-3.197,1.494-4.349,4.348l-1.119,2.856
				c1.1,0.558,2.22-0.818,2.575-1.787c0.357-0.968,1.479,0.815,1.784,2.038c0.306,1.223,1.426,0.713,1.987-0.611
				c0.561-1.325,2.24-0.663,2.955,0.968c0.521,1.196,1.985,1.223,1.985,1.223L141.832,101.882z"/>
			<path fill="#FFFFFF" d="M118.954,114.347c-0.542-2.355-1.672-3.734-3.734-3.734s-3.319,1.488-3.732,3.734
				c0,0-0.163,0.645-0.438,1.726c-0.336,1.331,0.819,0.448,1.396-0.638c0.577-1.087,1.097-2.11,1.153-1.155
				c0.204,3.397,1.511,4.503,2.038,3.091c0.611-1.63,1.545-3.312,2.091-2.089c0.544,1.223,1.002,1.69,1.985,1.579
				C119.51,115.979,118.954,114.347,118.954,114.347z"/>
		</g>
		<g>
			<path fill="#71B087" d="M937.77,153.086c0,0-7.584,0-14.815,0c-5.789,4.523-18.334,2.654-17.368-2.473
				c0.965-5.127,4.814-20.295,4.814-20.295c0.362-1.994,1.48-3.315,3.312-3.315c1.83,0,2.834,1.226,3.313,3.315l1.178,3.688
				c0.572,1.562,1.262,2.814,2.812,2.814c1.558,0,2.053-0.989,2.812-2.814l5.784-14.755c1.104-2.308,1.728-3.86,3.854-3.86
				c2.136,0,2.816,1.327,3.861,3.86l5.062,16.888l2.604,9.168C947.901,153.629,937.77,153.086,937.77,153.086z"/>
			<path fill="#7AD69C" d="M942.279,154.346l-4.586-14.15c0-1.385-1.123-2.508-2.515-2.508c-1.385,0-2.508,1.123-2.508,2.508
				l-4.548,14.432C926.874,157.834,944.042,160.734,942.279,154.346z"/>
			<path fill="#7AD69C" d="M930.382,156.135l-3.188-9.848c0-0.965-0.781-1.746-1.745-1.746s-1.746,0.781-1.746,1.746l-3.165,10.039
				C919.661,158.562,931.609,160.581,930.382,156.135z"/>
			<path fill="#7AD69C" d="M918.771,156.277l-2.149-6.629c0-0.648-0.526-1.176-1.175-1.176c-0.649,0-1.174,0.521-1.174,1.176
				l-2.138,6.758C911.555,157.912,919.597,159.271,918.771,156.277z"/>
			<path fill="#FFFFFF" d="M937.338,119.252c-0.91-2.939-1.729-3.86-3.861-3.86c-2.131,0-2.838,1.327-3.854,3.86l-0.994,2.535
				c0.975,0.496,1.97-0.727,2.286-1.585c0.312-0.859,1.312,0.724,1.583,1.81c0.271,1.086,1.267,0.633,1.765-0.543
				c0.496-1.176,1.989-0.587,2.623,0.86c0.465,1.062,1.77,1.085,1.77,1.085L937.338,119.252z"/>
			<path fill="#FFFFFF" d="M917.026,130.318c-0.48-2.09-1.484-3.315-3.314-3.315c-1.831,0-2.949,1.321-3.312,3.315
				c0,0-0.146,0.572-0.394,1.531c-0.298,1.184,0.729,0.396,1.241-0.565c0.511-0.964,0.975-1.872,1.023-1.024
				c0.182,3.016,1.34,3.998,1.81,2.744c0.544-1.447,1.373-2.939,1.854-1.855c0.479,1.086,0.894,1.502,1.767,1.402
				C917.521,131.766,917.026,130.318,917.026,130.318z"/>
		</g>
		<g>
			<path fill="#71B087" d="M605.491,70.6c0,0-7.583,0-14.819,0c-5.789,4.523-18.335,2.654-17.369-2.473
				c0.966-5.126,4.816-20.295,4.816-20.295c0.367-1.993,1.48-3.314,3.312-3.314c1.832,0,2.838,1.225,3.316,3.314l1.177,3.689
				c0.57,1.563,1.261,2.815,2.815,2.815c1.554,0,2.049-0.99,2.812-2.815l5.782-14.754c1.111-2.308,1.729-3.86,3.856-3.86
				c2.135,0,2.814,1.327,3.858,3.86l5.065,16.886l2.604,9.167C615.624,71.143,605.491,70.6,605.491,70.6z"/>
			<path fill="#7AD69C" d="M610.001,71.859l-4.585-14.149c0-1.386-1.123-2.509-2.509-2.509s-2.509,1.123-2.509,2.509l-4.554,14.424
				C594.597,75.348,611.764,78.248,610.001,71.859z"/>
			<path fill="#7AD69C" d="M598.104,73.649l-3.188-9.848c0-0.965-0.781-1.747-1.744-1.747c-0.965,0-1.747,0.782-1.747,1.747
				L588.26,73.84C587.385,76.077,599.332,78.094,598.104,73.649z"/>
			<path fill="#7AD69C" d="M586.493,73.792l-2.147-6.628c0-0.649-0.521-1.176-1.177-1.176c-0.646,0-1.173,0.526-1.173,1.176
				l-2.131,6.758C579.277,75.426,587.319,76.785,586.493,73.792z"/>
			<path fill="#FFFFFF" d="M605.061,36.767c-0.904-2.941-1.729-3.86-3.856-3.86s-2.838,1.327-3.858,3.86l-0.994,2.535
				c0.979,0.495,1.977-0.727,2.287-1.585c0.316-0.86,1.312,0.724,1.584,1.809c0.272,1.085,1.27,0.633,1.77-0.543
				c0.494-1.176,1.983-0.587,2.621,0.86c0.467,1.061,1.766,1.085,1.766,1.085L605.061,36.767z"/>
			<path fill="#FFFFFF" d="M584.75,47.832c-0.48-2.09-1.484-3.314-3.316-3.314c-1.83,0-2.941,1.321-3.312,3.314
				c0,0-0.146,0.573-0.387,1.532c-0.303,1.183,0.726,0.399,1.234-0.566c0.517-0.965,0.979-1.873,1.024-1.025
				c0.182,3.015,1.339,3.998,1.809,2.744c0.544-1.447,1.373-2.94,1.855-1.855c0.479,1.086,0.891,1.502,1.764,1.402
				C585.244,49.281,584.75,47.832,584.75,47.832z"/>
		</g>
		<g>
			<path fill="#71B087" d="M91.822,197.957l-6.395-19.732c-1.396-1.367-1.565-3.498-3.499-3.498c-1.932,0-2.463,1.656-3.499,3.498
				l-6.341,20.115C70.342,202.822,94.281,206.866,91.822,197.957z"/>
			<path fill="#FFFFFF" d="M86.153,180.445c-0.436-1.229-0.719-2.271-0.719-2.271c-0.617-2.402-1.564-3.494-3.497-3.494
				c-1.934,0-2.9,1.133-3.498,3.494l-0.764,2.415c-0.443,1.287,1.154,1.697,1.564,1.041c0.41-0.651,1.146-2.377,1.64-1.803
				c0.492,0.567,1.312,1.229,1.765,0.61c0.449-0.61,1.435-2.011,2.009-1.188C85.227,180.077,85.399,180.404,86.153,180.445z"/>
		</g>
		<g>
			<path fill="#71B087" d="M691.51,101.754c0,0-7.583,0-14.814,0c-5.79,4.523-18.335,2.653-17.369-2.473
				c0.965-5.126,4.812-20.295,4.812-20.295c0.367-1.994,1.484-3.315,3.315-3.315c1.83,0,2.834,1.225,3.312,3.315l1.183,3.689
				c0.566,1.563,1.262,2.815,2.812,2.815s2.05-0.99,2.814-2.815l5.78-14.755c1.108-2.308,1.729-3.86,3.856-3.86
				c2.132,0,2.816,1.326,3.861,3.86l5.062,16.887l2.604,9.167C701.643,102.296,691.51,101.754,691.51,101.754z"/>
			<path fill="#7AD69C" d="M696.02,103.013l-4.586-14.15c0-1.386-1.123-2.509-2.51-2.509c-1.384,0-2.507,1.123-2.507,2.509
				l-4.548,14.425C680.614,106.502,697.781,109.402,696.02,103.013z"/>
			<path fill="#7AD69C" d="M684.123,104.803l-3.192-9.848c0-0.964-0.775-1.747-1.745-1.747c-0.964,0-1.739,0.782-1.739,1.747
				l-3.165,10.039C673.401,107.231,685.35,109.249,684.123,104.803z"/>
			<path fill="#7AD69C" d="M672.511,104.946l-2.146-6.629c0-0.649-0.527-1.175-1.178-1.175c-0.647,0-1.178,0.526-1.178,1.175
				l-2.132,6.758C665.295,106.58,673.337,107.939,672.511,104.946z"/>
			<path fill="#FFFFFF" d="M691.078,67.92c-0.91-2.94-1.729-3.86-3.861-3.86c-2.131,0-2.838,1.326-3.854,3.86l-0.993,2.535
				c0.975,0.495,1.97-0.726,2.286-1.586c0.312-0.859,1.312,0.724,1.583,1.81c0.271,1.086,1.267,0.633,1.765-0.543
				c0.497-1.176,1.989-0.588,2.623,0.859c0.465,1.062,1.764,1.085,1.764,1.085L691.078,67.92z"/>
			<path fill="#FFFFFF" d="M670.767,78.986c-0.479-2.09-1.479-3.315-3.312-3.315s-2.948,1.321-3.315,3.315
				c0,0-0.144,0.573-0.387,1.532c-0.298,1.183,0.729,0.399,1.24-0.566c0.511-0.965,0.974-1.873,1.021-1.025
				c0.186,3.015,1.342,3.998,1.812,2.744c0.544-1.448,1.373-2.94,1.854-1.855c0.481,1.085,0.896,1.502,1.77,1.402
				C671.262,80.434,670.767,78.986,670.767,78.986z"/>
		</g>
		<g>
			<path fill="#71B087" d="M665.2,115.68l-6.396-19.733c-1.396-1.367-1.562-3.499-3.498-3.499c-1.932,0-2.463,1.657-3.498,3.499
				l-6.341,20.118C643.719,120.545,667.66,124.589,665.2,115.68z"/>
			<path fill="#FFFFFF" d="M659.531,98.169c-0.438-1.23-0.719-2.269-0.719-2.269c-0.617-2.406-1.564-3.498-3.498-3.498
				c-1.938,0-2.9,1.134-3.498,3.498l-0.768,2.417c-0.438,1.287,1.155,1.696,1.565,1.041c0.409-0.656,1.146-2.378,1.64-1.804
				c0.492,0.574,1.312,1.23,1.766,0.615c0.448-0.615,1.438-2.009,2.012-1.189C658.604,97.8,658.776,98.127,659.531,98.169z"/>
		</g>
	</g>
	<g>
		<circle fill="#FFFFFF" cx="779.214" cy="83.738" r="22"/>
	</g>
	<g>
		<circle fill="#FFFFFF" cx="441.803" cy="69.06" r="22"/>
	</g>
	<g>
		<circle fill="#FFFFFF" cx="566.128" cy="150.107" r="22"/>
	</g>
	<g>
		<circle fill="#FFFFFF" cx="854.802" cy="191.09" r="22"/>
	</g>
	<g>
		<circle fill="#FFFFFF" cx="271.998" cy="142.091" r="22"/>
	</g>
	<g>
		<circle fill="#FFFFFF" cx="131.998" cy="184.999" r="22"/>
	</g>
	<polygon fill="#7AD69C" points="857.604,182.307 863.229,187.932 866.014,179.816 	"/>
	<g>
		
			<line fill="none" stroke="#79D49A" stroke-width="2" stroke-linecap="round" stroke-miterlimit="10" x1="120.304" y1="186.747" x2="122.256" y2="176.704"/>
		
			<line fill="none" stroke="#79D49A" stroke-width="2" stroke-linecap="round" stroke-miterlimit="10" x1="124.6" y1="186.747" x2="122.646" y2="176.704"/>
		
			<line fill="none" stroke="#79D49A" stroke-width="2" stroke-linecap="round" stroke-miterlimit="10" x1="122.452" y1="176.755" x2="122.452" y2="173.052"/>
		<g>
			<circle fill="#FFFFFF" cx="122.528" cy="176.703" r="2.125"/>
			<g>
				<path fill="#79D49A" d="M122.528,175.577c0.621,0,1.125,0.505,1.125,1.125c0,0.622-0.504,1.126-1.125,1.126
					c-0.62,0-1.125-0.504-1.125-1.126C121.403,176.082,121.908,175.577,122.528,175.577 M122.528,173.577
					c-1.724,0-3.125,1.401-3.125,3.125c0,1.725,1.402,3.126,3.125,3.126c1.725,0,3.125-1.401,3.125-3.126
					C125.653,174.979,124.253,173.577,122.528,173.577L122.528,173.577z"/>
			</g>
		</g>
	</g>
	<g>
		<g>
			<path fill="#79D49A" d="M123.134,192.35l6.762,3.01h-6.762V192.35 M120.884,188.884v8.726h19.602L120.884,188.884
				L120.884,188.884z"/>
		</g>
	</g>
	<path fill="#79D49A" d="M138.355,190.666c-0.972,0-1.759-0.788-1.759-1.76v-4.135l0.914-2.901v-4.16l-0.604-2.946v-1.705
		c0-0.802,0.647-1.449,1.448-1.449c0.803,0,1.45,0.647,1.45,1.449v1.586l-0.604,3.139v3.982l0.914,3.153v3.987
		C140.114,189.878,139.327,190.666,138.355,190.666z"/>
	<polygon fill="#79D49A" stroke="#79D49A" stroke-width="0.811" stroke-linejoin="round" stroke-miterlimit="10" points="
		143.451,177.982 141.306,177.982 139.987,176.609 138.394,176.609 137.538,176.516 133.26,175.266 133.26,173.835 136.202,173.835 
		138.447,173.23 143.451,173.23 	"/>
	
		<line fill="none" stroke="#79D49A" stroke-width="2" stroke-miterlimit="10" x1="129.589" y1="172.341" x2="129.589" y2="182.973"/>
	<path fill="#79D49A" stroke="#79D49A" stroke-width="2" stroke-linecap="round" stroke-miterlimit="10" d="M130.944,188.911
		c0,0.748-0.606,1.354-1.354,1.354l0,0c-0.749,0-1.354-0.606-1.354-1.354v-5.522h2.709L130.944,188.911L130.944,188.911z"/>
	
		<line fill="none" stroke="#79D49A" stroke-width="2" stroke-linecap="round" stroke-miterlimit="10" x1="127.505" y1="183.389" x2="131.674" y2="183.389"/>
	<g>
		<circle fill="#7AD69C" cx="854.555" cy="188.084" r="3.636"/>
	</g>
	<g>
		<path fill="#7AD69C" d="M850.856,207.634c-0.51-3.077-0.869-6.098-0.869-6.098l2.787-8.188h3.137l2.787,8.188
			c0,0-0.507,4.089-0.869,6.098C855.411,208.548,853.576,208.646,850.856,207.634z"/>
	</g>
	<path fill="none" stroke="#79D49A" stroke-width="2.5" stroke-linecap="round" stroke-miterlimit="10" d="M277.345,128.573
		c0.908,0,2.743,0.688,2.743,1.647c0,8.379-5.964,9.877-5.964,12.362c0,2.483-1.373,2.187-1.373-0.138
		c0-2.325-6.376-5.221-6.376-12.228c0-1.1,1.837-1.647,2.745-1.647"/>
	<path fill="none" stroke="#79D49A" stroke-width="2.5" stroke-linecap="round" stroke-miterlimit="10" d="M273.419,142.977
		c-0.05,8.217,4.095,8.195,1.099,11.193c-2.746,2.744-15.661,2.061-12.285-7.49"/>
	
		<circle fill="#FFFFFF" stroke="#79D49A" stroke-width="2.5" stroke-linecap="round" stroke-miterlimit="10" cx="263.744" cy="143.864" r="3.091"/>
	<circle fill="#79D49A" cx="273.419" cy="142.975" r="2.754"/>
	
		<path fill="#79D49A" stroke="#79D49A" stroke-width="1.25" stroke-linecap="round" stroke-linejoin="round" stroke-miterlimit="10" d="
		M431.386,79.151l20.931-20.932c0,0,0.285,3.471-4.538,9.045c-2.861,3.307-5.084-0.334-7.271,3.767
		c-2.287,4.291-5.737,7.737-7.169,9.169C431.903,81.634,429.634,80.903,431.386,79.151z"/>
	<g>
		<path fill="none" stroke="#79D49A" stroke-width="1.5" stroke-linecap="round" stroke-miterlimit="10" d="M432.554,57.961
			l3.619,3.618c1.107,1.107,1.453,2.557,0.771,3.238l-1.692,1.693c-0.681,0.682-2.132,0.336-3.239-0.771l-3.618-3.618"/>
		
			<line fill="none" stroke="#79D49A" stroke-width="1.5" stroke-linecap="round" stroke-miterlimit="10" x1="451.133" y1="80.503" x2="430.042" y2="59.452"/>
		<path fill="#79D49A" stroke="#79D49A" stroke-width="1.5" stroke-miterlimit="10" d="M430.3,63.945
			c1.754,1.753,4.498,0.261,2.307-1.929c2.191,2.189,4.057,0.201,1.736-2.115c0,0,4.13,3.512,2.048,5.593
			C434.311,67.575,431.741,65.386,430.3,63.945z"/>
		
			<path fill="none" stroke="#79D49A" stroke-width="1.5" stroke-linecap="round" stroke-linejoin="round" stroke-miterlimit="10" d="
			M438.575,67.946c-2.004-2.004-2.409-0.975-3.841-1.146l2.56-2.9C437.257,65.067,436.487,65.856,438.575,67.946z"/>
		
			<line fill="none" stroke="#79D49A" stroke-width="3" stroke-linecap="round" stroke-miterlimit="10" x1="451.133" y1="80.503" x2="444.233" y2="73.606"/>
	</g>
	<g>
		
			<line fill="none" stroke="#79D49A" stroke-width="2" stroke-linecap="round" stroke-linejoin="round" stroke-miterlimit="10" x1="554.837" y1="154.081" x2="556.731" y2="154.081"/>
		
			<line fill="none" stroke="#79D49A" stroke-width="2" stroke-linecap="round" stroke-linejoin="round" stroke-miterlimit="10" x1="554.837" y1="146.34" x2="556.731" y2="146.34"/>
		
			<polyline fill="none" stroke="#79D49A" stroke-width="2" stroke-linecap="round" stroke-linejoin="round" stroke-miterlimit="10" points="
			556.731,139.684 554.837,139.684 554.837,160.684 577.837,160.684 		"/>
		
			<line fill="none" stroke="#79D49A" stroke-width="3" stroke-miterlimit="10" x1="560.227" y1="151.007" x2="560.227" y2="158.011"/>
		
			<line fill="none" stroke="#79D49A" stroke-width="3" stroke-miterlimit="10" x1="565.871" y1="145.534" x2="565.871" y2="158.011"/>
		
			<line fill="none" stroke="#79D49A" stroke-width="3" stroke-miterlimit="10" x1="571.516" y1="139.779" x2="571.516" y2="158.011"/>
		
			<line fill="none" stroke="#79D49A" stroke-width="3" stroke-miterlimit="10" x1="577.159" y1="142.434" x2="577.159" y2="158.011"/>
	</g>
	<g>
		<g>
			<path fill="#FFFFFF" d="M778.499,76.687h-12.103c-0.918,0-1.66,0.744-1.66,1.662v7.687c0,0.917,0.742,1.661,1.66,1.661h2.492
				v6.646l5.229-6.646h4.379c0.918,0,1.661-0.744,1.661-1.661v-7.687C780.16,77.431,779.417,76.687,778.499,76.687z"/>
		</g>
		<g>
			<path fill="none" stroke="#79D49A" stroke-width="2" stroke-linecap="round" stroke-linejoin="round" stroke-miterlimit="10" d="
				M778.499,76.687h-12.103c-0.918,0-1.66,0.744-1.66,1.662v7.687c0,0.917,0.742,1.661,1.66,1.661h2.492v6.646l5.229-6.646h4.379
				c0.918,0,1.661-0.744,1.661-1.661v-7.687C780.16,77.431,779.417,76.687,778.499,76.687z"/>
		</g>
	</g>
	<g>
		<g>
			<path fill="#FFFFFF" d="M791.167,73.485h-13.673c-0.917,0-1.662,0.744-1.662,1.662v7.686c0,0.917,0.745,1.662,1.662,1.662h4.91
				l5.514,6.646v-6.646h3.249c0.919,0,1.663-0.745,1.663-1.662v-7.686C792.83,74.229,792.086,73.485,791.167,73.485z"/>
		</g>
		<g>
			<path fill="none" stroke="#79D49A" stroke-width="2" stroke-linecap="round" stroke-linejoin="round" stroke-miterlimit="10" d="
				M791.167,73.485h-13.673c-0.917,0-1.662,0.744-1.662,1.662v7.686c0,0.917,0.745,1.662,1.662,1.662h4.91l5.514,6.646v-6.646h3.249
				c0.919,0,1.663-0.745,1.663-1.662v-7.686C792.83,74.229,792.086,73.485,791.167,73.485z"/>
		</g>
	</g>
	<polygon fill="#7AD69C" points="851.225,182.295 843.251,179.625 845.606,187.912 	"/>
	<g>
		<path fill="#7AD69C" d="M843.183,179.573c3.025-1.814,14.318-4.032,22.789,0.202c-1.146,0.82-1.575,1.392-1.575,1.392
			s-5.688-3.278-9.911-3.278c-4.989,0-9.196,2.778-9.196,2.778L843.183,179.573z"/>
	</g>
</g>
<g id="clouds_old" display="none">
	<path display="inline" opacity="0.05" enable-background="new    " d="M912.804,115.833c0-5.859-4.75-10.609-10.608-10.609
		c-1.03,0-2.026,0.149-2.974,0.426c-1.188-7.959-8.049-14.062-16.339-14.062c-7.619,0-14.033,5.161-15.94,12.178
		c-1.832-0.99-3.932-1.554-6.159-1.554c-7.168,0-12.979,5.812-12.979,12.979c0,1.504,0.259,2.948,0.729,4.292h63.63
		C912.578,118.346,912.804,117.115,912.804,115.833z"/>
	<path display="inline" fill="#FFFFFF" d="M380.524,55.585c0-7.211-5.846-13.058-13.058-13.058c-1.271,0-2.497,0.185-3.658,0.524
		c-1.462-9.796-9.907-17.31-20.107-17.31c-9.382,0-17.271,6.353-19.62,14.987c-2.256-1.219-4.837-1.912-7.582-1.912
		c-8.822,0-15.976,7.152-15.976,15.976c0,1.851,0.319,3.627,0.898,5.281h78.311C380.245,58.675,380.524,57.163,380.524,55.585z"/>
	<path display="inline" fill="#75CC95" d="M348.221,99.924c0-5.858-4.75-10.608-10.606-10.608c-1.031,0-2.028,0.148-2.976,0.425
		c-1.187-7.958-8.049-14.062-16.339-14.062c-7.62,0-14.032,5.16-15.941,12.178c-1.832-0.991-3.932-1.555-6.159-1.555
		c-7.168,0-12.979,5.812-12.979,12.979c0,1.504,0.259,2.946,0.729,4.291h63.628C347.994,102.435,348.221,101.205,348.221,99.924z"/>
	<path display="inline" fill="#75CC95" d="M342.378,209.636c0-5.771-4.679-10.452-10.452-10.452c-1.016,0-1.998,0.146-2.929,0.42
		c-1.169-7.843-7.932-13.854-16.099-13.854c-7.507,0-13.823,5.084-15.706,11.998c-1.805-0.979-3.873-1.531-6.067-1.531
		c-7.062,0-12.785,5.728-12.785,12.787c0,1.479,0.255,2.904,0.718,4.229h62.688C342.155,212.107,342.378,210.896,342.378,209.636z"
		/>
	<path display="inline" fill="#FFFFFF" d="M944.868,89.363c0-7.211-5.849-13.058-13.061-13.058c-1.271,0-2.495,0.185-3.656,0.523
		c-1.464-9.795-9.906-17.309-20.108-17.309c-9.38,0-17.271,6.353-19.62,14.988c-2.255-1.219-4.838-1.912-7.582-1.912
		c-8.819,0-15.973,7.152-15.973,15.975c0,1.852,0.317,3.628,0.896,5.281h78.312C944.588,92.453,944.868,90.94,944.868,89.363z"/>
	<path display="inline" fill="#FFFFFF" d="M363.312,191.352c0-6.479-5.252-11.73-11.729-11.73c-1.144,0-2.244,0.166-3.287,0.471
		c-1.313-8.801-8.9-15.551-18.068-15.551c-8.427,0-15.518,5.707-17.627,13.467c-2.023-1.096-4.346-1.719-6.812-1.719
		c-7.927,0-14.354,6.426-14.354,14.354c0,1.664,0.286,3.26,0.809,4.746h70.355C363.062,194.126,363.312,192.768,363.312,191.352z"/>
</g>
<g id="clouds_new" display="none">
	<path display="inline" fill="#FFFFFF" d="M376.027,175.376c0-7.211-5.846-13.058-13.058-13.058c-1.271,0-2.497,0.185-3.657,0.523
		c-1.463-9.796-9.908-17.31-20.108-17.31c-9.382,0-17.271,6.353-19.62,14.987c-2.256-1.22-4.837-1.912-7.582-1.912
		c-8.822,0-15.976,7.151-15.976,15.976c0,1.851,0.319,3.627,0.898,5.281h78.311C375.748,178.466,376.027,176.954,376.027,175.376z"
		/>
	<path display="inline" opacity="0.05" enable-background="new    " d="M343.724,219.715c0-5.857-4.75-10.607-10.606-10.607
		c-1.031,0-2.028,0.147-2.976,0.425c-1.187-7.958-8.049-14.062-16.339-14.062c-7.62,0-14.032,5.159-15.941,12.178
		c-1.832-0.991-3.932-1.556-6.159-1.556c-7.168,0-12.979,5.812-12.979,12.979c0,1.504,0.259,2.945,0.729,4.291h63.628
		C343.497,222.227,343.724,220.996,343.724,219.715z"/>
	<path display="inline" fill="#FFFFFF" d="M945.108,88.874c0-7.211-5.846-13.058-13.058-13.058c-1.271,0-2.497,0.185-3.658,0.524
		c-1.462-9.796-9.907-17.31-20.107-17.31c-9.382,0-17.271,6.353-19.62,14.987c-2.256-1.219-4.837-1.912-7.582-1.912
		c-8.822,0-15.976,7.152-15.976,15.976c0,1.851,0.318,3.627,0.897,5.281h78.311C944.829,91.963,945.108,90.452,945.108,88.874z"/>
	<path display="inline" opacity="0.05" enable-background="new    " d="M912.805,133.213c0-5.859-4.75-10.609-10.606-10.609
		c-1.031,0-2.028,0.148-2.976,0.426c-1.187-7.958-8.049-14.062-16.339-14.062c-7.62,0-14.032,5.16-15.94,12.177
		c-1.832-0.99-3.933-1.555-6.159-1.555c-7.168,0-12.979,5.812-12.979,12.98c0,1.504,0.26,2.945,0.729,4.291h63.628
		C912.578,135.723,912.805,134.494,912.805,133.213z"/>
	<path display="inline" fill="#FFFFFF" d="M380.524,55.585c0-7.211-5.846-13.058-13.058-13.058c-1.271,0-2.497,0.185-3.658,0.524
		c-1.462-9.796-9.907-17.31-20.107-17.31c-9.382,0-17.271,6.353-19.62,14.987c-2.256-1.219-4.837-1.912-7.582-1.912
		c-8.822,0-15.976,7.152-15.976,15.976c0,1.851,0.319,3.627,0.898,5.281h78.311C380.245,58.675,380.524,57.163,380.524,55.585z"/>
	<path display="inline" opacity="0.05" enable-background="new    " d="M348.221,99.924c0-5.858-4.75-10.608-10.606-10.608
		c-1.031,0-2.028,0.148-2.976,0.425c-1.187-7.958-8.049-14.062-16.339-14.062c-7.62,0-14.032,5.16-15.941,12.178
		c-1.832-0.991-3.932-1.555-6.159-1.555c-7.168,0-12.979,5.812-12.979,12.979c0,1.504,0.259,2.946,0.729,4.291h63.628
		C347.994,102.435,348.221,101.205,348.221,99.924z"/>
</g>
<g>
	<g>
		<path fill="#7AD69C" d="M451.457,138.357c-1.332-1.512-2.045-2.922-2.045-2.922l-12.447-0.176l-6.252,14.493
			c0,0-0.235,2.57,0.875,3.506c1.111,0.937,13.674,0.817,14.729,0.525c1.053-0.292,1.4-0.468,2.568-4.324
			C450.054,145.604,452.744,139.82,451.457,138.357z"/>
	</g>
	<polygon fill="#7AD69C" points="444.821,155.807 449.103,143.34 436.636,143.466 433.865,155.052 	"/>
	<g>
		<g enable-background="new    ">
			<path fill="#FFFFFF" d="M427.143,152.988c0-0.036,0.014-0.159,0.04-0.367c0.027-0.209,0.046-0.377,0.055-0.504
				c0.01-0.072-0.004-0.17-0.041-0.293c-0.035-0.122-0.049-0.211-0.04-0.265c0.019-0.101,0.054-0.195,0.108-0.286
				s0.129-0.197,0.225-0.32c0.096-0.122,0.17-0.229,0.225-0.319c0.209-0.345,0.413-0.76,0.613-1.245
				c0.199-0.485,0.335-0.9,0.408-1.245c0.026-0.091,0.029-0.227,0.006-0.408c-0.022-0.182-0.025-0.309-0.006-0.382
				c0.026-0.1,0.104-0.227,0.23-0.381s0.205-0.259,0.231-0.312c0.19-0.327,0.382-0.744,0.571-1.252
				c0.191-0.509,0.305-0.917,0.341-1.226c0.009-0.081-0.003-0.227-0.034-0.436c-0.031-0.208-0.029-0.335,0.007-0.381
				c0.036-0.117,0.136-0.256,0.3-0.415c0.163-0.158,0.263-0.261,0.299-0.306c0.172-0.236,0.365-0.619,0.578-1.15
				c0.213-0.53,0.338-0.969,0.375-1.313c0.009-0.072-0.005-0.188-0.041-0.347c-0.037-0.159-0.045-0.279-0.027-0.36
				c0.018-0.073,0.059-0.154,0.123-0.245c0.062-0.091,0.145-0.195,0.244-0.313c0.1-0.117,0.178-0.213,0.231-0.285
				c0.073-0.109,0.147-0.247,0.225-0.415s0.146-0.327,0.204-0.477c0.059-0.15,0.131-0.313,0.218-0.49s0.175-0.322,0.266-0.436
				s0.211-0.22,0.36-0.319c0.15-0.1,0.312-0.152,0.49-0.157c0.177-0.004,0.393,0.021,0.646,0.075l-0.014,0.041
				c0.345-0.082,0.576-0.123,0.693-0.123h10.354c0.672,0,1.188,0.255,1.552,0.763c0.362,0.508,0.444,1.098,0.245,1.769l-3.726,12.33
				c-0.327,1.08-0.651,1.776-0.974,2.089c-0.322,0.313-0.904,0.47-1.748,0.47H429.13c-0.246,0-0.418,0.068-0.518,0.204
				c-0.1,0.146-0.104,0.341-0.014,0.585c0.218,0.636,0.871,0.953,1.959,0.953h12.562c0.263,0,0.517-0.07,0.762-0.211
				c0.244-0.141,0.403-0.329,0.477-0.564l4.082-13.433c0.064-0.199,0.087-0.458,0.068-0.775c0.346,0.136,0.613,0.331,0.805,0.585
				c0.362,0.518,0.444,1.103,0.244,1.756l-3.746,12.328c-0.173,0.581-0.52,1.069-1.04,1.464s-1.075,0.593-1.665,0.593h-12.562
				c-0.698,0-1.372-0.243-2.021-0.729c-0.649-0.485-1.102-1.082-1.355-1.789C426.952,154.108,426.942,153.532,427.143,152.988z
				 M433.702,144.604c-0.037,0.118-0.027,0.221,0.027,0.307s0.145,0.129,0.271,0.129h8.275c0.117,0,0.232-0.043,0.347-0.129
				c0.113-0.086,0.188-0.188,0.224-0.307l0.287-0.871c0.035-0.117,0.027-0.22-0.027-0.306s-0.146-0.129-0.272-0.129h-8.274
				c-0.118,0-0.234,0.043-0.348,0.129s-0.188,0.188-0.225,0.306L433.702,144.604z M434.831,141.121
				c-0.035,0.118-0.027,0.22,0.027,0.306c0.055,0.087,0.146,0.13,0.272,0.13h8.274c0.117,0,0.233-0.043,0.348-0.13
				c0.113-0.086,0.188-0.188,0.225-0.306l0.285-0.871c0.036-0.118,0.027-0.22-0.027-0.307c-0.055-0.086-0.145-0.129-0.271-0.129
				h-8.275c-0.117,0-0.233,0.043-0.347,0.129c-0.113,0.087-0.188,0.188-0.225,0.307L434.831,141.121z"/>
		</g>
	</g>
</g>
<g>
	<path fill="#7AD69C" d="M645.41,29.091c-1.332-1.513-2.045-2.922-2.045-2.922l-12.447-0.175l-6.252,14.493
		c0,0-0.235,2.57,0.875,3.505c1.111,0.935,13.674,0.818,14.728,0.526s1.401-0.468,2.569-4.324
		C644.007,36.337,646.696,30.552,645.41,29.091z"/>
	<g>
		<g enable-background="new    ">
			<path fill="#FFFFFF" d="M624.095,41.72c0-0.036,0.014-0.159,0.041-0.367c0.027-0.209,0.045-0.377,0.055-0.504
				c0.009-0.072-0.005-0.17-0.041-0.293c-0.036-0.122-0.05-0.211-0.041-0.265c0.019-0.101,0.055-0.195,0.109-0.286
				s0.129-0.197,0.225-0.32c0.096-0.122,0.17-0.229,0.225-0.319c0.209-0.345,0.412-0.76,0.612-1.245
				c0.199-0.485,0.335-0.9,0.408-1.245c0.026-0.091,0.029-0.227,0.007-0.408c-0.023-0.182-0.025-0.309-0.007-0.382
				c0.026-0.1,0.104-0.227,0.231-0.381s0.204-0.259,0.23-0.312c0.191-0.327,0.382-0.744,0.572-1.252
				c0.19-0.509,0.304-0.917,0.34-1.226c0.01-0.081-0.002-0.227-0.033-0.436c-0.032-0.208-0.03-0.335,0.006-0.381
				c0.037-0.117,0.137-0.256,0.3-0.415c0.163-0.158,0.263-0.261,0.3-0.306c0.172-0.236,0.365-0.619,0.578-1.15
				c0.213-0.53,0.338-0.969,0.374-1.313c0.009-0.072-0.005-0.188-0.04-0.347c-0.037-0.159-0.046-0.279-0.027-0.36
				c0.018-0.073,0.059-0.154,0.122-0.245s0.146-0.195,0.245-0.313c0.1-0.117,0.177-0.213,0.23-0.285
				c0.073-0.109,0.148-0.247,0.225-0.415c0.078-0.168,0.146-0.327,0.205-0.477c0.059-0.15,0.131-0.313,0.217-0.49
				c0.087-0.177,0.176-0.322,0.266-0.436c0.091-0.113,0.211-0.22,0.361-0.319c0.149-0.1,0.312-0.152,0.49-0.157
				c0.176-0.004,0.392,0.021,0.646,0.075l-0.014,0.041c0.344-0.082,0.575-0.123,0.693-0.123h10.354c0.672,0,1.188,0.255,1.551,0.763
				s0.445,1.098,0.245,1.769l-3.726,12.33c-0.326,1.08-0.65,1.776-0.973,2.089c-0.322,0.313-0.905,0.47-1.749,0.47h-11.826
				c-0.245,0-0.417,0.068-0.517,0.204c-0.101,0.146-0.105,0.341-0.014,0.585c0.217,0.636,0.871,0.953,1.959,0.953h12.562
				c0.263,0,0.517-0.07,0.763-0.211c0.244-0.141,0.402-0.329,0.476-0.564l4.083-13.433c0.063-0.199,0.086-0.458,0.068-0.775
				c0.345,0.136,0.613,0.331,0.804,0.585c0.362,0.518,0.444,1.103,0.245,1.756l-3.747,12.328c-0.173,0.581-0.519,1.069-1.04,1.464
				c-0.52,0.395-1.075,0.593-1.665,0.593h-12.562c-0.698,0-1.372-0.243-2.021-0.729c-0.649-0.485-1.101-1.082-1.354-1.789
				C623.905,42.84,623.896,42.264,624.095,41.72z M630.655,33.336c-0.037,0.118-0.027,0.221,0.027,0.307
				c0.054,0.086,0.145,0.129,0.271,0.129h8.274c0.118,0,0.233-0.043,0.347-0.129s0.188-0.188,0.225-0.307l0.286-0.871
				c0.036-0.117,0.027-0.22-0.027-0.306c-0.054-0.086-0.146-0.129-0.272-0.129h-8.273c-0.119,0-0.234,0.043-0.348,0.129
				s-0.188,0.188-0.225,0.306L630.655,33.336z M631.784,29.853c-0.036,0.118-0.027,0.22,0.027,0.306
				c0.055,0.087,0.145,0.13,0.271,0.13h8.275c0.117,0,0.232-0.043,0.347-0.13c0.113-0.086,0.188-0.188,0.225-0.306l0.286-0.871
				c0.035-0.118,0.027-0.22-0.027-0.307c-0.055-0.086-0.146-0.129-0.272-0.129h-8.274c-0.118,0-0.234,0.043-0.348,0.129
				c-0.113,0.087-0.188,0.188-0.225,0.307L631.784,29.853z"/>
		</g>
	</g>
</g>
<g>
	<path fill="#7AD69C" d="M754.008,149.805c-1.332-1.514-2.045-2.923-2.045-2.923l-12.447-0.175l-6.252,14.493
		c0,0-0.233,2.569,0.875,3.506c1.111,0.937,13.676,0.817,14.729,0.526c1.053-0.293,1.401-0.469,2.569-4.324
		C752.604,157.051,755.294,151.266,754.008,149.805z"/>
	<g>
		<g enable-background="new    ">
			<path fill="#FFFFFF" d="M732.692,162.434c0-0.036,0.014-0.159,0.041-0.367c0.027-0.209,0.045-0.377,0.055-0.504
				c0.009-0.072-0.005-0.17-0.041-0.293c-0.036-0.122-0.05-0.211-0.041-0.265c0.019-0.101,0.055-0.195,0.109-0.286
				s0.129-0.197,0.225-0.32c0.096-0.122,0.17-0.229,0.225-0.319c0.209-0.345,0.412-0.76,0.612-1.245
				c0.199-0.485,0.335-0.9,0.408-1.245c0.026-0.091,0.029-0.227,0.007-0.408c-0.023-0.182-0.025-0.309-0.007-0.382
				c0.026-0.1,0.104-0.227,0.231-0.381s0.204-0.259,0.23-0.312c0.191-0.327,0.382-0.744,0.572-1.252
				c0.19-0.509,0.304-0.917,0.34-1.226c0.01-0.081-0.002-0.227-0.033-0.436c-0.032-0.208-0.03-0.335,0.006-0.381
				c0.037-0.117,0.137-0.256,0.3-0.415c0.163-0.158,0.263-0.261,0.3-0.306c0.172-0.236,0.365-0.619,0.578-1.15
				c0.213-0.53,0.338-0.969,0.374-1.313c0.009-0.072-0.005-0.188-0.04-0.347c-0.037-0.159-0.046-0.279-0.027-0.36
				c0.018-0.073,0.059-0.154,0.122-0.245s0.146-0.195,0.245-0.313c0.1-0.117,0.177-0.213,0.23-0.285
				c0.073-0.109,0.148-0.247,0.225-0.415c0.078-0.168,0.146-0.327,0.205-0.477c0.059-0.15,0.131-0.313,0.217-0.49
				c0.087-0.177,0.176-0.322,0.266-0.436c0.091-0.113,0.211-0.22,0.361-0.319c0.149-0.1,0.312-0.152,0.49-0.157
				c0.176-0.004,0.392,0.021,0.646,0.075l-0.014,0.041c0.344-0.082,0.575-0.123,0.693-0.123h10.354c0.672,0,1.188,0.255,1.551,0.763
				s0.445,1.098,0.245,1.769l-3.726,12.33c-0.326,1.08-0.65,1.776-0.973,2.089c-0.322,0.313-0.905,0.47-1.749,0.47H734.68
				c-0.245,0-0.417,0.068-0.517,0.204c-0.101,0.146-0.105,0.341-0.014,0.585c0.217,0.636,0.871,0.953,1.959,0.953h12.562
				c0.263,0,0.517-0.07,0.763-0.211c0.244-0.141,0.402-0.329,0.476-0.564l4.083-13.433c0.063-0.199,0.086-0.458,0.068-0.775
				c0.345,0.136,0.613,0.331,0.804,0.585c0.362,0.518,0.444,1.103,0.245,1.756l-3.747,12.328c-0.173,0.581-0.519,1.069-1.04,1.464
				c-0.52,0.395-1.075,0.593-1.665,0.593h-12.562c-0.698,0-1.372-0.243-2.021-0.729c-0.649-0.485-1.101-1.082-1.354-1.789
				C732.503,163.554,732.493,162.978,732.692,162.434z M739.253,154.05c-0.037,0.118-0.027,0.221,0.027,0.307
				c0.054,0.086,0.145,0.129,0.271,0.129h8.274c0.118,0,0.233-0.043,0.347-0.129s0.188-0.188,0.225-0.307l0.286-0.871
				c0.036-0.117,0.027-0.22-0.027-0.306c-0.054-0.086-0.146-0.129-0.272-0.129h-8.273c-0.119,0-0.234,0.043-0.348,0.129
				s-0.188,0.188-0.225,0.306L739.253,154.05z M740.382,150.566c-0.036,0.118-0.027,0.22,0.027,0.306
				c0.055,0.087,0.145,0.13,0.271,0.13h8.275c0.117,0,0.232-0.043,0.347-0.13c0.113-0.086,0.188-0.188,0.225-0.306l0.286-0.871
				c0.035-0.118,0.027-0.22-0.027-0.307c-0.055-0.086-0.146-0.129-0.272-0.129h-8.274c-0.118,0-0.234,0.043-0.348,0.129
				c-0.113,0.087-0.188,0.188-0.225,0.307L740.382,150.566z"/>
		</g>
	</g>
</g>
</svg>
