<?xml version="1.0" encoding="utf-8"?>
<!-- Generator: Adobe Illustrator 16.0.0, SVG Export Plug-In . SVG Version: 6.00 Build 0)  -->
<!DOCTYPE svg PUBLIC "-//W3C//DTD SVG 1.1//EN" "http://www.w3.org/Graphics/SVG/1.1/DTD/svg11.dtd">
<svg version="1.1" id="Layer_1" xmlns="http://www.w3.org/2000/svg" xmlns:xlink="http://www.w3.org/1999/xlink" x="0px" y="0px"
	 width="100px" height="30px" viewBox="0 0 100 30" enable-background="new 0 0 100 30" xml:space="preserve">
<g id="Layer_1_copy_3">
	<rect x="7.709" y="9.865" fill="#71B087" width="4.54" height="1.5"/>
	<rect x="1" y="7.638" fill="#71B087" width="7.928" height="4.41"/>
	<rect x="10.031" y="6.526" fill="#71B087" width="5.887" height="2.782"/>
	<polygon fill="#71B087" points="28.943,7.941 10.031,7.941 10.031,11.1 28.943,11.1 28.943,9.521 	"/>
	<polygon fill="#71B087" points="28.943,13.012 10.031,13.012 10.031,10.275 15.877,10.275 15.877,11.1 28.943,11.1 	"/>
	<rect x="2.147" y="12.701" fill="#71B087" width="5.405" height="0.872"/>
	<ellipse fill="#71B087" cx="2.378" cy="13.416" rx="0.9" ry="0.523"/>
	<ellipse fill="#71B087" cx="7.307" cy="13.416" rx="0.9" ry="0.523"/>
	<rect x="1" y="11.848" fill="#528062" width="7.928" height="1.43"/>
	<rect x="11.273" y="12.576" fill="#71B087" width="16.696" height="0.872"/>
	<ellipse fill="#71B087" cx="11.381" cy="13.416" rx="0.9" ry="0.523"/>
	<ellipse fill="#71B087" cx="28.101" cy="13.416" rx="0.899" ry="0.523"/>
	<ellipse fill="#71B087" cx="15.373" cy="12.894" rx="1.799" ry="1.046"/>
	<ellipse fill="#71B087" cx="20.004" cy="12.894" rx="1.799" ry="1.046"/>
	<ellipse fill="#71B087" cx="24.221" cy="12.894" rx="1.799" ry="1.046"/>
	<polygon fill="#528062" points="28.943,13.241 26.863,13.241 26.356,12.325 13.573,12.325 12.505,13.045 10.031,13.045 
		10.031,10.173 15.918,10.173 15.918,11.215 28.943,11.215 	"/>
	<rect x="37.709" y="9.865" fill="#71B087" width="4.539" height="1.5"/>
	<rect x="31" y="7.638" fill="#71B087" width="7.928" height="4.41"/>
	<rect x="40.031" y="6.526" fill="#71B087" width="5.887" height="2.782"/>
	<polygon fill="#71B087" points="58.943,7.941 40.031,7.941 40.031,11.1 58.943,11.1 58.943,9.521 	"/>
	<polygon fill="#71B087" points="58.943,13.012 40.031,13.012 40.031,10.275 45.877,10.275 45.877,11.1 58.943,11.1 	"/>
	<rect x="32.147" y="12.701" fill="#71B087" width="5.405" height="0.872"/>
	<ellipse fill="#71B087" cx="32.378" cy="13.416" rx="0.899" ry="0.523"/>
	<ellipse fill="#71B087" cx="37.307" cy="13.416" rx="0.9" ry="0.523"/>
	<rect x="31" y="11.848" fill="#528062" width="7.928" height="1.43"/>
	<rect x="41.273" y="12.576" fill="#71B087" width="16.695" height="0.872"/>
	<ellipse fill="#71B087" cx="41.38" cy="13.416" rx="0.9" ry="0.523"/>
	<ellipse fill="#71B087" cx="58.102" cy="13.416" rx="0.898" ry="0.523"/>
	<ellipse fill="#71B087" cx="45.373" cy="12.894" rx="1.799" ry="1.046"/>
	<ellipse fill="#71B087" cx="50.004" cy="12.894" rx="1.799" ry="1.046"/>
	<ellipse fill="#71B087" cx="54.221" cy="12.894" rx="1.799" ry="1.046"/>
	<polygon fill="#528062" points="58.943,13.241 56.863,13.241 56.355,12.325 43.572,12.325 42.506,13.045 40.031,13.045 
		40.031,10.173 45.918,10.173 45.918,11.215 58.943,11.215 	"/>
	<rect x="67.709" y="9.865" fill="#71B087" width="4.539" height="1.5"/>
	<rect x="61" y="7.638" fill="#71B087" width="7.928" height="4.41"/>
	<rect x="70.031" y="6.526" fill="#71B087" width="5.887" height="2.782"/>
	<polygon fill="#71B087" points="88.943,7.941 70.031,7.941 70.031,11.1 88.943,11.1 88.943,9.521 	"/>
	<polygon fill="#71B087" points="88.943,13.012 70.031,13.012 70.031,10.275 75.877,10.275 75.877,11.1 88.943,11.1 	"/>
	<rect x="62.146" y="12.701" fill="#71B087" width="5.405" height="0.872"/>
	<ellipse fill="#71B087" cx="62.378" cy="13.416" rx="0.899" ry="0.523"/>
	<ellipse fill="#71B087" cx="67.307" cy="13.416" rx="0.9" ry="0.523"/>
	<rect x="61" y="11.848" fill="#528062" width="7.928" height="1.43"/>
	<rect x="71.273" y="12.576" fill="#71B087" width="16.694" height="0.872"/>
	<ellipse fill="#71B087" cx="71.38" cy="13.416" rx="0.899" ry="0.523"/>
	<ellipse fill="#71B087" cx="88.102" cy="13.416" rx="0.898" ry="0.523"/>
	<ellipse fill="#71B087" cx="75.373" cy="12.894" rx="1.799" ry="1.046"/>
	<ellipse fill="#71B087" cx="80.004" cy="12.894" rx="1.799" ry="1.046"/>
	<ellipse fill="#71B087" cx="84.221" cy="12.894" rx="1.799" ry="1.046"/>
	<polygon fill="#528062" points="88.943,13.241 86.863,13.241 86.355,12.325 73.572,12.325 72.506,13.045 70.031,13.045 
		70.031,10.173 75.918,10.173 75.918,11.215 88.943,11.215 	"/>
</g>
<g id="Layer_2">
	<circle fill="#FFFFFF" cx="86.042" cy="9.417" r="0.911"/>
	<circle fill="#FFFFFF" cx="86.896" cy="9.646" r="0.911"/>
	<circle fill="#FFFFFF" cx="83.938" cy="7.354" r="0.911"/>
	<circle fill="#FFFFFF" cx="84.438" cy="8.938" r="1.527"/>
	<circle fill="#FFFFFF" cx="81.792" cy="7" r="2.026"/>
	<circle fill="#FFFFFF" cx="74" cy="6.042" r="2.026"/>
	<circle fill="#FFFFFF" cx="75.917" cy="6.917" r="2.026"/>
	<circle fill="#FFFFFF" cx="77.666" cy="6.145" r="2.777"/>
</g>
<g id="Layer_2_copy_2">
	<circle fill="#FFFFFF" cx="56.084" cy="8.833" r="0.911"/>
	<circle fill="#FFFFFF" cx="56.938" cy="9.938" r="0.911"/>
	<circle fill="#FFFFFF" cx="54.604" cy="7.688" r="1.527"/>
	<circle fill="#FFFFFF" cx="52.125" cy="8.042" r="2.026"/>
	<circle fill="#FFFFFF" cx="45.375" cy="7.292" r="2.026"/>
	<circle fill="#FFFFFF" cx="48.833" cy="6.395" r="2.777"/>
</g>
<g id="Layer_2_copy">
	<circle fill="#FFFFFF" cx="26.334" cy="9.208" r="0.911"/>
	<circle fill="#FFFFFF" cx="24.666" cy="8.25" r="1.527"/>
	<circle fill="#FFFFFF" cx="21.5" cy="7.333" r="2.026"/>
	<circle fill="#FFFFFF" cx="17.833" cy="6.583" r="2.777"/>
</g>
</svg>
