<?xml version="1.0" encoding="utf-8"?>
<!-- Generator: Adobe Illustrator 16.0.0, SVG Export Plug-In . SVG Version: 6.00 Build 0)  -->
<!DOCTYPE svg PUBLIC "-//W3C//DTD SVG 1.1//EN" "http://www.w3.org/Graphics/SVG/1.1/DTD/svg11.dtd">
<svg version="1.1" id="Layer_1" xmlns="http://www.w3.org/2000/svg" xmlns:xlink="http://www.w3.org/1999/xlink" x="0px" y="0px"
	 width="640px" height="280px" viewBox="0 0 640 280" enable-background="new 0 0 640 280" xml:space="preserve">
<g id="cloud_100_x25_">
	<g>
		<path fill="#FFFFFF" d="M100.685,38c0.471-1.377,0.739-2.849,0.739-4.385c0-7.483-6.068-13.552-13.551-13.552
			c-1.251,0-2.457,0.183-3.607,0.5C82.838,10.637,74.322,3,64,3c-9.481,0-17.438,6.446-19.78,15.189
			c-2.317-1.19-4.936-1.875-7.72-1.875c-9.354,0-16.936,7.583-16.936,16.936c0,1.653,0.252,3.242,0.697,4.75H100.685z"/>
	</g>
	<g>
		<path fill="#FFFFFF" d="M127.081,38h80.649c0.008-0.185,0.028-0.365,0.028-0.552c0-7.172-5.578-13.029-12.63-13.505
			c0.01-0.26,0.039-0.514,0.039-0.776c0-11.322-9.178-20.5-20.5-20.5c-8.607,0-15.964,5.311-19.002,12.83
			c-2.304-1.173-4.903-1.848-7.665-1.848c-9.354,0-16.936,7.583-16.936,16.936c0,0.24,0.026,0.474,0.036,0.712
			C129.359,33.233,127.991,35.507,127.081,38z"/>
	</g>
	<g>
		<path fill="#FFFFFF" d="M312.396,38c-0.559-4.459-3.283-8.245-7.089-10.27c0.139-0.962,0.234-1.938,0.234-2.939
			c0-11.322-9.179-20.5-20.5-20.5c-7.469,0-13.986,4.008-17.569,9.978c-2.377-1.271-5.09-1.996-7.973-1.996
			c-8.23,0-15.084,5.874-16.612,13.656c-5.555,2.086-9.956,6.51-12.02,12.071H312.396z"/>
	</g>
	<g>
		<path fill="#FFFFFF" d="M415.521,38c-0.727-1.896-1.85-3.594-3.29-4.972c0.653-2.004,1.019-4.139,1.019-6.361
			c0-11.322-9.179-20.5-20.5-20.5c-7.15,0-13.438,3.666-17.105,9.216c-2.418-1.329-5.191-2.087-8.145-2.087
			c-7.42,0-13.71,4.78-15.999,11.422c-7.606,1.054-13.871,6.274-16.425,13.282H415.521z"/>
	</g>
	<g>
		<path fill="#FFFFFF" d="M519.854,38c-0.111-0.146-0.217-0.298-0.332-0.44c0.89-2.296,1.396-4.783,1.396-7.393
			c0-11.322-9.179-20.5-20.5-20.5c-5.604,0-10.682,2.255-14.382,5.901c-2.966-2.553-6.815-4.106-11.035-4.106
			c-7.097,0-13.166,4.37-15.685,10.562C459.153,22.02,458.996,22,458.833,22c-9.772,0-17.936,6.846-19.988,16H519.854z"/>
	</g>
	<g>
		<path fill="#FFFFFF" d="M626.849,38c0.357-1.5,0.568-3.056,0.568-4.667c0-11.322-9.179-20.5-20.5-20.5
			c-4.029,0-7.775,1.179-10.944,3.187c-3.106-3.701-7.763-6.058-12.973-6.058c-6.664,0-12.412,3.859-15.177,9.455
			c-0.548-0.044-1.098-0.083-1.656-0.083c-10.702,0-19.479,8.205-20.407,18.667L626.849,38L626.849,38z"/>
	</g>
	<g>
		<path fill="#FFFFFF" d="M102.084,128c0.101-0.82,0.166-1.652,0.166-2.5c0-11.322-9.179-20.5-20.5-20.5
			c-2.915,0-5.683,0.618-8.194,1.714c-3.001-4.742-8.28-7.9-14.306-7.9c-6.066,0-11.372,3.2-14.363,7.993
			c-0.379-0.021-0.753-0.058-1.137-0.058c-11.321,0-20.5,9.178-20.5,20.5c0,0.253,0.029,0.499,0.038,0.75L102.084,128L102.084,128z"
			/>
	</g>
	<g>
		<path fill="#FFFFFF" d="M129.752,128h77.464c-0.355-11.011-9.371-19.833-20.467-19.833c-1.053,0-2.079,0.104-3.088,0.257
			c-2.664-5.86-8.556-9.943-15.412-9.943c-5.825,0-10.962,2.943-14.009,7.421c-1.137-0.195-2.298-0.319-3.491-0.319
			c-11.321,0-20.5,9.178-20.5,20.5c0,0.109,0.015,0.214,0.016,0.322C130.068,126.925,129.901,127.458,129.752,128z"/>
	</g>
	<g>
		<path fill="#FFFFFF" d="M311.874,128c-1.739-8.977-9.344-15.851-18.665-16.51c-1.773-7.456-8.461-13.009-16.459-13.009
			c-5.748,0-10.818,2.87-13.88,7.249c-1.896-0.58-3.908-0.896-5.995-0.896c-10.847,0-19.703,8.431-20.429,19.093
			c-0.735,1.264-1.313,2.631-1.706,4.073H311.874z"/>
	</g>
	<g>
		<path fill="#FFFFFF" d="M415.513,128c-2.289-6.279-7.562-11.121-14.105-12.82c-0.304-9.086-7.746-16.366-16.906-16.366
			c-5.496,0-10.366,2.63-13.46,6.687c-2.667-1.27-5.641-2.001-8.79-2.001c-10.949,0-19.869,8.592-20.444,19.399
			c-1.059,1.535-1.861,3.257-2.371,5.101H415.513z"/>
	</g>
	<g>
		<path fill="#FFFFFF" d="M519.812,128c-2.296-4.889-6.456-8.727-11.575-10.585c0.008-0.222,0.032-0.44,0.032-0.665
			c0-9.353-7.583-16.936-16.936-16.936c-4.175,0-7.99,1.518-10.942,4.022c-3.104-1.893-6.738-3.003-10.642-3.003
			c-9.978,0-18.282,7.132-20.115,16.575c-3.71,2.377-6.43,6.157-7.413,10.592H519.812z"/>
	</g>
	<g>
		<path fill="#FFFFFF" d="M624.152,128c-2.038-3.958-5.321-7.172-9.341-9.114c0.075-0.646,0.124-1.302,0.124-1.97
			c0-9.353-7.583-16.936-16.936-16.936c-3.492,0-6.736,1.059-9.432,2.87c-3.403-2.514-7.599-4.018-12.152-4.018
			c-9.975,0-18.277,7.127-20.113,16.566c-5.059,2.28-8.792,6.965-9.744,12.601L624.152,128L624.152,128z"/>
	</g>
	<g>
		<path fill="#FFFFFF" d="M98.298,218c-1.849-3.293-4.573-6.027-7.867-7.878c0.22-1.09,0.338-2.218,0.338-3.372
			c0-9.354-7.583-16.936-16.936-16.936c-2.686,0-5.216,0.642-7.472,1.754c-3.453-2.646-7.758-4.235-12.445-4.235
			c-9.458,0-17.398,6.413-19.763,15.123c-7.308,1.581-12.847,7.877-13.295,15.544H98.298L98.298,218z"/>
	</g>
	<g>
		<path fill="#FFFFFF" d="M201.249,218c-0.277-0.329-0.549-0.662-0.846-0.973c0.657-1.805,1.033-3.745,1.033-5.777
			c0-9.354-7.583-16.936-16.935-16.936c-1.667,0-3.274,0.25-4.795,0.699c-3.639-5.714-10.013-9.515-17.288-9.515
			c-9.326,0-17.184,6.233-19.669,14.757c-0.167-0.005-0.33-0.025-0.498-0.025c-9.354,0-16.936,7.584-16.936,16.937
			c0,0.281,0.028,0.556,0.042,0.833H201.249z"/>
	</g>
	<g>
		<path fill="#FFFFFF" d="M310.137,218c0.302-1.257,0.465-2.566,0.465-3.917c0-9.353-7.582-16.937-16.936-16.937
			c-0.864,0-1.707,0.086-2.537,0.211c-2.762-8.058-10.385-13.857-19.378-13.857c-9.741,0-17.877,6.8-19.965,15.907
			c-1.494-0.433-3.068-0.677-4.702-0.677c-9.354,0-16.936,7.584-16.936,16.937c0,0.794,0.073,1.567,0.18,2.333H310.137z"/>
	</g>
</g>
<g opacity="0.1">
	<path d="M67.748,77.2c0.377-1.102,0.591-2.279,0.591-3.508c0-5.987-4.854-10.841-10.842-10.841c-1,0-1.965,0.146-2.885,0.4
		C53.471,55.309,46.658,49.2,38.4,49.2c-7.585,0-13.95,5.157-15.824,12.151c-1.853-0.952-3.949-1.5-6.176-1.5
		c-7.483,0-13.548,6.066-13.548,13.548c0,1.322,0.202,2.594,0.558,3.8H67.748z"/>
</g>
<g opacity="0.1">
	<path d="M109.865,77.2h64.521c0.006-0.147,0.022-0.292,0.022-0.441c0-5.738-4.464-10.424-10.105-10.804
		c0.008-0.208,0.031-0.412,0.031-0.621c0-9.058-7.342-16.4-16.398-16.4c-6.887,0-12.771,4.249-15.202,10.264
		c-1.843-0.939-3.922-1.479-6.132-1.479c-7.484,0-13.549,6.066-13.549,13.549c0,0.192,0.021,0.379,0.029,0.569
		C111.688,73.387,110.594,75.206,109.865,77.2z"/>
</g>
<g opacity="0.1">
	<path d="M279.108,77.2c-0.447-3.567-2.62-6.597-5.665-8.216c0.111-0.77,0.188-1.551,0.188-2.351c0-9.058-7.342-16.4-16.4-16.4
		c-5.975,0-11.188,3.207-14.055,7.982c-1.901-1.017-4.071-1.597-6.377-1.597c-6.584,0-12.067,4.699-13.29,10.925
		c-4.443,1.669-7.964,5.208-9.615,9.657H279.108z"/>
</g>
<g opacity="0.1">
	<path d="M382.616,77.2c-0.58-1.516-1.479-2.875-2.632-3.978c0.522-1.603,0.814-3.311,0.814-5.088c0-9.058-7.342-16.4-16.398-16.4
		c-5.722,0-10.752,2.933-13.687,7.373c-1.934-1.063-4.152-1.67-6.515-1.67c-5.936,0-10.968,3.824-12.8,9.138
		c-6.085,0.843-11.097,5.019-13.14,10.625H382.616z"/>
</g>
<g opacity="0.1">
	<path d="M487.081,77.2c-0.089-0.117-0.172-0.238-0.265-0.352c0.712-1.837,1.117-3.827,1.117-5.915c0-9.057-7.344-16.4-16.4-16.4
		c-4.484,0-8.545,1.804-11.506,4.721c-2.372-2.042-5.452-3.285-8.828-3.285c-5.678,0-10.532,3.496-12.548,8.449
		c-0.13-0.003-0.256-0.02-0.386-0.02c-7.818,0-14.349,5.477-15.991,12.8H487.081z"/>
</g>
<g opacity="0.1">
	<path d="M593.678,77.2c0.286-1.2,0.455-2.445,0.455-3.733c0-9.057-7.342-16.4-16.4-16.4c-3.223,0-6.22,0.943-8.755,2.549
		c-2.485-2.96-6.21-4.846-10.378-4.846c-5.331,0-9.93,3.087-12.142,7.564c-0.438-0.035-0.878-0.067-1.325-0.067
		c-8.562,0-15.583,6.564-16.326,14.933H593.678z"/>
</g>
<g opacity="0.1">
	<path d="M68.867,167.2c0.081-0.656,0.133-1.321,0.133-2c0-9.057-7.342-16.399-16.399-16.399c-2.332,0-4.546,0.494-6.555,1.372
		c-2.401-3.794-6.624-6.32-11.445-6.32c-4.853,0-9.097,2.56-11.49,6.394c-0.303-0.017-0.603-0.046-0.91-0.046
		c-9.057,0-16.4,7.343-16.4,16.4c0,0.202,0.023,0.399,0.03,0.6H68.867z"/>
</g>
<g opacity="0.1">
	<path d="M112.003,167.201h61.972c-0.284-8.81-7.497-15.867-16.374-15.867c-0.842,0-1.663,0.083-2.471,0.206
		c-2.131-4.688-6.844-7.954-12.33-7.954c-4.66,0-8.769,2.354-11.207,5.937c-0.91-0.156-1.839-0.255-2.793-0.255
		c-9.057,0-16.4,7.342-16.4,16.4c0,0.088,0.012,0.172,0.013,0.259C112.256,166.342,112.122,166.769,112.003,167.201z"/>
</g>
<g opacity="0.1">
	<path d="M278.697,167.201c-1.392-7.182-7.475-12.682-14.932-13.209c-1.419-5.964-6.769-10.406-13.168-10.406
		c-4.598,0-8.654,2.296-11.103,5.799c-1.518-0.464-3.127-0.717-4.796-0.717c-8.677,0-15.763,6.744-16.344,15.274
		c-0.588,1.012-1.05,2.104-1.365,3.259H278.697z"/>
</g>
<g opacity="0.1">
	<path d="M382.609,167.201c-1.831-5.023-6.05-8.897-11.285-10.257c-0.242-7.27-6.197-13.093-13.525-13.093
		c-4.396,0-8.293,2.104-10.768,5.35c-2.133-1.016-4.511-1.601-7.031-1.601c-8.76,0-15.896,6.875-16.355,15.52
		c-0.847,1.229-1.489,2.606-1.896,4.081H382.609z"/>
</g>
<g opacity="0.1">
	<path d="M487.049,167.201c-1.836-3.911-5.165-6.982-9.261-8.469c0.007-0.178,0.026-0.352,0.026-0.531
		c0-7.482-6.066-13.549-13.547-13.549c-3.34,0-6.393,1.214-8.754,3.217c-2.484-1.514-5.392-2.402-8.514-2.402
		c-7.982,0-14.626,5.707-16.093,13.261c-2.969,1.901-5.145,4.926-5.931,8.474H487.049z"/>
</g>
<g opacity="0.1">
	<path d="M591.522,167.201c-1.631-3.167-4.258-5.738-7.473-7.292c0.06-0.518,0.099-1.042,0.099-1.575
		c0-7.482-6.066-13.549-13.549-13.549c-2.794,0-5.389,0.847-7.545,2.296c-2.722-2.011-6.077-3.214-9.721-3.214
		c-7.98,0-14.622,5.701-16.091,13.252c-4.046,1.824-7.033,5.573-7.795,10.082H591.522z"/>
</g>
<g opacity="0.1">
	<path d="M65.838,257.199c-1.479-2.634-3.658-4.822-6.293-6.302c0.176-0.872,0.271-1.774,0.271-2.698
		c0-7.481-6.066-13.548-13.549-13.548c-2.148,0-4.172,0.514-5.977,1.403c-2.762-2.117-6.207-3.389-9.956-3.389
		c-7.566,0-13.918,5.131-15.811,12.098c-5.846,1.266-10.277,6.302-10.636,12.436H65.838z"/>
</g>
<g opacity="0.1">
	<path d="M169.2,257.199c-0.222-0.263-0.439-0.529-0.677-0.777c0.525-1.444,0.826-2.996,0.826-4.622
		c0-7.482-6.066-13.549-13.549-13.549c-1.333,0-2.619,0.2-3.836,0.56c-2.911-4.57-8.01-7.611-13.83-7.611
		c-7.46,0-13.747,4.986-15.735,11.806c-0.134-0.004-0.265-0.021-0.399-0.021c-7.482,0-13.547,6.066-13.547,13.549
		c0,0.225,0.023,0.443,0.034,0.666H169.2z"/>
</g>
<g opacity="0.1">
	<path d="M277.306,257.199c0.242-1.005,0.374-2.053,0.374-3.133c0-7.482-6.066-13.549-13.549-13.549
		c-0.692,0-1.366,0.068-2.03,0.168c-2.21-6.446-8.309-11.086-15.503-11.086c-7.79,0-14.3,5.439-15.97,12.726
		c-1.195-0.345-2.454-0.54-3.76-0.54c-7.484,0-13.549,6.066-13.549,13.548c0,0.635,0.059,1.255,0.144,1.866H277.306z"/>
</g>
</svg>
