<?xml version="1.0" encoding="utf-8"?>
<!-- Generator: Adobe Illustrator 16.0.0, SVG Export Plug-In . SVG Version: 6.00 Build 0)  -->
<!DOCTYPE svg PUBLIC "-//W3C//DTD SVG 1.1//EN" "http://www.w3.org/Graphics/SVG/1.1/DTD/svg11.dtd">
<svg version="1.1" id="Layer_1" xmlns="http://www.w3.org/2000/svg" xmlns:xlink="http://www.w3.org/1999/xlink" x="0px" y="0px"
	 width="260px" height="30px" viewBox="0 0 260 30" enable-background="new 0 0 260 30" xml:space="preserve">
<g id="lichaam">
	<ellipse fill="#F8AC6B" cx="18" cy="2.943" rx="0.408" ry="1.061"/>
	<ellipse fill="#FFFFFF" cx="18" cy="12.145" rx="2.55" ry="3"/>
	<ellipse fill="#FFFFFF" cx="18" cy="3.895" rx="0.902" ry="1.062"/>
	<path fill="#F8933C" d="M20.4,16.945c0,0.646-1.141,1.174-2.551,1.174c-1.408,0-2.55-0.525-2.55-1.174
		c0-0.49,0.546-2.172,0.776-2.859c-0.298-0.262-0.504-0.93-0.504-0.93L18,11.545l2.4,1.611c0,0-0.096,0.547-0.582,1.09
		C20.004,14.996,20.4,16.633,20.4,16.945z"/>
	<path fill="#FFFFFF" d="M16.523,9.711c0.529-0.602,1.078-1.266,1.078-3.092c0-1.824-0.092-1.273-0.443-2.393h1.695
		c-0.354,1.118-0.445,0.567-0.445,2.393c0,1.826,0.551,2.49,1.078,3.092H16.523z"/>
	<ellipse fill="#F8AC6B" cx="54" cy="2.943" rx="0.408" ry="1.061"/>
	<ellipse fill="#FFFFFF" cx="54" cy="12.145" rx="2.55" ry="3"/>
	<ellipse fill="#FFFFFF" cx="54" cy="3.895" rx="0.902" ry="1.062"/>
	<path fill="#F8933C" d="M56.4,16.945c0,0.646-1.141,1.174-2.551,1.174c-1.408,0-2.55-0.525-2.55-1.174
		c0-0.49,0.546-2.172,0.776-2.859c-0.298-0.262-0.504-0.93-0.504-0.93L54,11.545l2.4,1.611c0,0-0.096,0.547-0.582,1.09
		C56.004,14.996,56.4,16.633,56.4,16.945z"/>
	<path fill="#FFFFFF" d="M52.523,9.711c0.529-0.602,1.078-1.266,1.078-3.092c0-1.824-0.092-1.273-0.443-2.393h1.695
		c-0.354,1.118-0.445,0.567-0.445,2.393c0,1.826,0.551,2.49,1.078,3.092H52.523z"/>
	<ellipse fill="#F8AC6B" cx="90" cy="2.943" rx="0.408" ry="1.061"/>
	<ellipse fill="#FFFFFF" cx="90" cy="12.145" rx="2.55" ry="3"/>
	<ellipse fill="#FFFFFF" cx="90" cy="3.895" rx="0.902" ry="1.062"/>
	<path fill="#F8933C" d="M92.4,16.945c0,0.646-1.141,1.174-2.551,1.174c-1.408,0-2.55-0.525-2.55-1.174
		c0-0.49,0.546-2.172,0.776-2.859c-0.298-0.262-0.504-0.93-0.504-0.93L90,11.545l2.4,1.611c0,0-0.096,0.547-0.582,1.09
		C92.004,14.996,92.4,16.633,92.4,16.945z"/>
	<path fill="#FFFFFF" d="M88.523,9.711c0.529-0.602,1.078-1.266,1.078-3.092c0-1.824-0.092-1.273-0.443-2.393h1.695
		c-0.354,1.118-0.445,0.567-0.445,2.393c0,1.826,0.551,2.49,1.078,3.092H88.523z"/>
	<ellipse fill="#F8AC6B" cx="126" cy="2.943" rx="0.408" ry="1.061"/>
	<ellipse fill="#FFFFFF" cx="126" cy="12.145" rx="2.55" ry="3"/>
	<ellipse fill="#FFFFFF" cx="126" cy="3.895" rx="0.902" ry="1.062"/>
	<path fill="#F8933C" d="M128.4,16.945c0,0.646-1.141,1.174-2.551,1.174c-1.408,0-2.55-0.525-2.55-1.174
		c0-0.49,0.546-2.172,0.776-2.859c-0.298-0.262-0.504-0.93-0.504-0.93l2.428-1.611l2.4,1.611c0,0-0.096,0.547-0.582,1.09
		C128.004,14.996,128.4,16.633,128.4,16.945z"/>
	<path fill="#FFFFFF" d="M124.523,9.711c0.529-0.602,1.078-1.266,1.078-3.092c0-1.824-0.092-1.273-0.443-2.393h1.695
		c-0.354,1.118-0.445,0.567-0.445,2.393c0,1.826,0.551,2.49,1.078,3.092H124.523z"/>
	<ellipse fill="#F8AC6B" cx="162" cy="2.943" rx="0.408" ry="1.061"/>
	<ellipse fill="#FFFFFF" cx="162" cy="12.145" rx="2.55" ry="3"/>
	<ellipse fill="#FFFFFF" cx="162" cy="3.895" rx="0.902" ry="1.062"/>
	<path fill="#F8933C" d="M164.4,16.945c0,0.646-1.143,1.174-2.551,1.174s-2.552-0.525-2.552-1.174c0-0.49,0.548-2.172,0.776-2.859
		c-0.299-0.262-0.506-0.93-0.506-0.93l2.43-1.611l2.398,1.611c0,0-0.096,0.547-0.582,1.09C164.004,14.996,164.4,16.633,164.4,16.945
		z"/>
	<path fill="#FFFFFF" d="M160.523,9.711c0.527-0.602,1.078-1.266,1.078-3.092c0-1.824-0.094-1.273-0.443-2.393h1.695
		c-0.354,1.118-0.445,0.567-0.445,2.393c0,1.826,0.551,2.49,1.078,3.092H160.523z"/>
	<ellipse fill="#F8AC6B" cx="198" cy="2.943" rx="0.408" ry="1.061"/>
	<ellipse fill="#FFFFFF" cx="198" cy="12.145" rx="2.55" ry="3"/>
	<ellipse fill="#FFFFFF" cx="198" cy="3.895" rx="0.902" ry="1.062"/>
	<path fill="#F8933C" d="M200.4,16.945c0,0.646-1.143,1.174-2.551,1.174s-2.552-0.525-2.552-1.174c0-0.49,0.548-2.172,0.776-2.859
		c-0.299-0.262-0.506-0.93-0.506-0.93l2.43-1.611l2.398,1.611c0,0-0.096,0.547-0.582,1.09C200.004,14.996,200.4,16.633,200.4,16.945
		z"/>
	<path fill="#FFFFFF" d="M196.523,9.711c0.527-0.602,1.078-1.266,1.078-3.092c0-1.824-0.094-1.273-0.443-2.393h1.695
		c-0.354,1.118-0.445,0.567-0.445,2.393c0,1.826,0.551,2.49,1.078,3.092H196.523z"/>
	<ellipse fill="#F8AC6B" cx="234" cy="2.943" rx="0.408" ry="1.061"/>
	<ellipse fill="#FFFFFF" cx="234" cy="12.145" rx="2.55" ry="3"/>
	<ellipse fill="#FFFFFF" cx="234" cy="3.895" rx="0.902" ry="1.062"/>
	<path fill="#F8933C" d="M236.4,16.945c0,0.646-1.143,1.174-2.551,1.174s-2.552-0.525-2.552-1.174c0-0.49,0.548-2.172,0.776-2.859
		c-0.299-0.262-0.506-0.93-0.506-0.93l2.43-1.611l2.398,1.611c0,0-0.096,0.547-0.582,1.09C236.004,14.996,236.4,16.633,236.4,16.945
		z"/>
	<path fill="#FFFFFF" d="M232.523,9.711c0.527-0.602,1.078-1.266,1.078-3.092c0-1.824-0.094-1.273-0.443-2.393h1.695
		c-0.354,1.118-0.445,0.567-0.445,2.393c0,1.826,0.551,2.49,1.078,3.092H232.523z"/>
</g>
<g id="vleugels">
	<polygon fill="#F8933C" points="10.873,14.377 16.523,13.715 18,11.545 16.523,9.711 10.873,10.312 	"/>
	<polygon fill="#F8AC6B" points="10.873,10.312 4.54,14.939 4.54,17.252 10.873,14.377 	"/>
	<polygon fill="#F8933C" points="25.127,14.377 19.477,13.715 18,11.545 19.477,9.711 25.127,10.312 	"/>
	<polygon fill="#F8AC6B" points="25.127,10.312 31.46,14.939 31.46,17.252 25.127,14.377 	"/>
	<polygon fill="#F8933C" points="46.915,13.752 52.523,13.715 54,11.545 52.523,9.711 46.915,9.688 	"/>
	<polygon fill="#F8AC6B" points="46.915,9.688 39.873,13.814 39.29,16.336 46.915,13.752 	"/>
	<polygon fill="#F8933C" points="61.085,13.752 55.477,13.715 54,11.545 55.477,9.711 61.085,9.688 	"/>
	<polygon fill="#F8AC6B" points="61.085,9.688 68.127,13.814 68.71,16.336 61.085,13.752 	"/>
	<polygon fill="#F8933C" points="82.748,13.4 88.523,13.715 90,11.545 88.523,9.711 82.748,9.336 	"/>
	<polygon fill="#F8AC6B" points="82.748,9.336 75.707,12.127 74.04,14.961 82.748,13.4 	"/>
	<polygon fill="#F8933C" points="97.252,13.4 91.477,13.715 90,11.545 91.477,9.711 97.252,9.336 	"/>
	<polygon fill="#F8AC6B" points="97.252,9.336 104.293,12.127 105.96,14.961 97.252,13.4 	"/>
	<polygon fill="#F8933C" points="118.542,13.191 124.523,13.715 126,11.545 124.523,9.711 118.542,9.127 	"/>
	<polygon fill="#F8AC6B" points="118.542,9.127 111.334,11.086 109.542,13.734 118.542,13.191 	"/>
	<polygon fill="#F8933C" points="133.458,13.191 127.477,13.715 126,11.545 127.477,9.711 133.458,9.127 	"/>
	<polygon fill="#F8AC6B" points="133.458,9.127 140.666,11.086 142.458,13.734 133.458,13.191 	"/>
	<polygon fill="#F8933C" points="155.082,12.336 160.523,13.715 162,11.545 160.523,9.711 155.082,8.67 	"/>
	<polygon fill="#F8AC6B" points="155.082,8.67 147.707,9.461 146.79,11.67 155.082,12.336 	"/>
	<polygon fill="#F8933C" points="168.918,12.336 163.477,13.715 162,11.545 163.477,9.711 168.918,8.67 	"/>
	<polygon fill="#F8AC6B" points="168.918,8.67 176.293,9.461 177.21,11.67 168.918,12.336 	"/>
	<polygon fill="#F8933C" points="191.498,11.877 196.523,13.715 198,11.545 196.523,9.711 191.498,8.211 	"/>
	<polygon fill="#F8AC6B" points="191.498,8.211 184.207,8.043 183.29,10.252 191.498,11.877 	"/>
	<polygon fill="#F8933C" points="204.502,11.877 199.477,13.715 198,11.545 199.477,9.711 204.502,8.211 	"/>
	<polygon fill="#F8AC6B" points="204.502,8.211 211.793,8.043 212.71,10.252 204.502,11.877 	"/>
	<polygon fill="#F8933C" points="228,11.766 232.523,13.715 234,11.545 232.523,9.711 228,7.701 	"/>
	<polygon fill="#F8AC6B" points="228,7.701 219.748,7.439 218.915,9.67 228,11.766 	"/>
	<polygon fill="#F8933C" points="240,11.766 235.477,13.715 234,11.545 235.477,9.711 240,7.701 	"/>
	<polygon fill="#F8AC6B" points="240,7.701 248.252,7.439 249.085,9.67 240,11.766 	"/>
</g>
</svg>
