<?xml version="1.0" encoding="utf-8"?>
<!-- Generator: Adobe Illustrator 16.0.0, SVG Export Plug-In . SVG Version: 6.00 Build 0)  -->
<!DOCTYPE svg PUBLIC "-//W3C//DTD SVG 1.1//EN" "http://www.w3.org/Graphics/SVG/1.1/DTD/svg11.dtd">
<svg version="1.1" xmlns="http://www.w3.org/2000/svg" xmlns:xlink="http://www.w3.org/1999/xlink" x="0px" y="0px" width="640px"
	 height="360px" viewBox="0 0 640 360" enable-background="new 0 0 640 360" xml:space="preserve">
<g id="lichaam">
	<ellipse fill="#C9D6DB" cx="18" cy="272.943" rx="0.408" ry="1.061"/>
	<ellipse fill="#697073" cx="18" cy="282.145" rx="2.55" ry="3"/>
	<ellipse fill="#697073" cx="18" cy="273.895" rx="0.902" ry="1.062"/>
	<path fill="#A2ACB0" d="M20.4,286.945c0,0.648-1.141,1.174-2.551,1.174c-1.408,0-2.55-0.525-2.55-1.174
		c0-0.49,0.546-2.172,0.776-2.859c-0.298-0.262-0.504-0.93-0.504-0.93L18,281.545l2.4,1.611c0,0-0.096,0.547-0.582,1.09
		C20.004,284.996,20.4,286.633,20.4,286.945z"/>
	<path fill="#697073" d="M16.523,279.711c0.529-0.602,1.078-1.266,1.078-3.092c0-1.824-0.092-1.273-0.443-2.393h1.695
		c-0.354,1.119-0.445,0.568-0.445,2.393c0,1.826,0.551,2.49,1.078,3.092H16.523z"/>
	<ellipse fill="#C9D6DB" cx="54" cy="272.943" rx="0.408" ry="1.061"/>
	<ellipse fill="#697073" cx="54" cy="282.145" rx="2.55" ry="3"/>
	<ellipse fill="#697073" cx="54" cy="273.895" rx="0.902" ry="1.062"/>
	<path fill="#A2ACB0" d="M56.4,286.945c0,0.648-1.141,1.174-2.551,1.174c-1.408,0-2.55-0.525-2.55-1.174
		c0-0.49,0.546-2.172,0.776-2.859c-0.298-0.262-0.504-0.93-0.504-0.93L54,281.545l2.4,1.611c0,0-0.096,0.547-0.582,1.09
		C56.004,284.996,56.4,286.633,56.4,286.945z"/>
	<path fill="#697073" d="M52.523,279.711c0.529-0.602,1.078-1.266,1.078-3.092c0-1.824-0.092-1.273-0.443-2.393h1.695
		c-0.354,1.119-0.445,0.568-0.445,2.393c0,1.826,0.551,2.49,1.078,3.092H52.523z"/>
	<ellipse fill="#C9D6DB" cx="90" cy="272.943" rx="0.408" ry="1.061"/>
	<ellipse fill="#697073" cx="90" cy="282.145" rx="2.55" ry="3"/>
	<ellipse fill="#697073" cx="90" cy="273.895" rx="0.902" ry="1.062"/>
	<path fill="#A2ACB0" d="M92.4,286.945c0,0.648-1.141,1.174-2.551,1.174c-1.408,0-2.55-0.525-2.55-1.174
		c0-0.49,0.546-2.172,0.776-2.859c-0.298-0.262-0.504-0.93-0.504-0.93L90,281.545l2.4,1.611c0,0-0.096,0.547-0.582,1.09
		C92.004,284.996,92.4,286.633,92.4,286.945z"/>
	<path fill="#697073" d="M88.523,279.711c0.529-0.602,1.078-1.266,1.078-3.092c0-1.824-0.092-1.273-0.443-2.393h1.695
		c-0.354,1.119-0.445,0.568-0.445,2.393c0,1.826,0.551,2.49,1.078,3.092H88.523z"/>
	<ellipse fill="#C9D6DB" cx="126" cy="272.943" rx="0.408" ry="1.061"/>
	<ellipse fill="#697073" cx="126" cy="282.145" rx="2.55" ry="3"/>
	<ellipse fill="#697073" cx="126" cy="273.895" rx="0.902" ry="1.062"/>
	<path fill="#A2ACB0" d="M128.4,286.945c0,0.648-1.141,1.174-2.551,1.174c-1.408,0-2.55-0.525-2.55-1.174
		c0-0.49,0.546-2.172,0.776-2.859c-0.298-0.262-0.504-0.93-0.504-0.93l2.428-1.611l2.4,1.611c0,0-0.096,0.547-0.582,1.09
		C128.004,284.996,128.4,286.633,128.4,286.945z"/>
	<path fill="#697073" d="M124.523,279.711c0.529-0.602,1.078-1.266,1.078-3.092c0-1.824-0.092-1.273-0.443-2.393h1.695
		c-0.354,1.119-0.445,0.568-0.445,2.393c0,1.826,0.551,2.49,1.078,3.092H124.523z"/>
	<ellipse fill="#C9D6DB" cx="162" cy="272.943" rx="0.408" ry="1.061"/>
	<ellipse fill="#697073" cx="162" cy="282.145" rx="2.55" ry="3"/>
	<ellipse fill="#697073" cx="162" cy="273.895" rx="0.902" ry="1.062"/>
	<path fill="#A2ACB0" d="M164.4,286.945c0,0.648-1.141,1.174-2.551,1.174c-1.408,0-2.55-0.525-2.55-1.174
		c0-0.49,0.546-2.172,0.776-2.859c-0.298-0.262-0.504-0.93-0.504-0.93l2.428-1.611l2.4,1.611c0,0-0.096,0.547-0.582,1.09
		C164.004,284.996,164.4,286.633,164.4,286.945z"/>
	<path fill="#697073" d="M160.523,279.711c0.529-0.602,1.078-1.266,1.078-3.092c0-1.824-0.092-1.273-0.443-2.393h1.695
		c-0.354,1.119-0.445,0.568-0.445,2.393c0,1.826,0.551,2.49,1.078,3.092H160.523z"/>
	<ellipse fill="#C9D6DB" cx="198" cy="272.943" rx="0.408" ry="1.061"/>
	<ellipse fill="#697073" cx="198" cy="282.145" rx="2.55" ry="3"/>
	<ellipse fill="#697073" cx="198" cy="273.895" rx="0.902" ry="1.062"/>
	<path fill="#A2ACB0" d="M200.4,286.945c0,0.648-1.141,1.174-2.551,1.174c-1.408,0-2.55-0.525-2.55-1.174
		c0-0.49,0.546-2.172,0.776-2.859c-0.298-0.262-0.504-0.93-0.504-0.93l2.428-1.611l2.4,1.611c0,0-0.096,0.547-0.582,1.09
		C200.004,284.996,200.4,286.633,200.4,286.945z"/>
	<path fill="#697073" d="M196.523,279.711c0.529-0.602,1.078-1.266,1.078-3.092c0-1.824-0.092-1.273-0.443-2.393h1.695
		c-0.354,1.119-0.445,0.568-0.445,2.393c0,1.826,0.551,2.49,1.078,3.092H196.523z"/>
	<ellipse fill="#C9D6DB" cx="234" cy="272.943" rx="0.408" ry="1.061"/>
	<ellipse fill="#697073" cx="234" cy="282.145" rx="2.55" ry="3"/>
	<ellipse fill="#697073" cx="234" cy="273.895" rx="0.902" ry="1.062"/>
	<path fill="#A2ACB0" d="M236.4,286.945c0,0.648-1.141,1.174-2.551,1.174c-1.408,0-2.55-0.525-2.55-1.174
		c0-0.49,0.546-2.172,0.776-2.859c-0.298-0.262-0.504-0.93-0.504-0.93l2.428-1.611l2.4,1.611c0,0-0.096,0.547-0.582,1.09
		C236.004,284.996,236.4,286.633,236.4,286.945z"/>
	<path fill="#697073" d="M232.523,279.711c0.529-0.602,1.078-1.266,1.078-3.092c0-1.824-0.092-1.273-0.443-2.393h1.695
		c-0.354,1.119-0.445,0.568-0.445,2.393c0,1.826,0.551,2.49,1.078,3.092H232.523z"/>
</g>
<g id="vleugels">
	<polygon fill="#A2ACB0" points="10.873,284.377 16.523,283.715 18,281.545 16.523,279.711 10.873,280.312 	"/>
	<polygon fill="#C9D6DB" points="10.873,280.312 4.54,284.939 4.54,287.252 10.873,284.377 	"/>
	<polygon fill="#A2ACB0" points="25.127,284.377 19.477,283.715 18,281.545 19.477,279.711 25.127,280.312 	"/>
	<polygon fill="#C9D6DB" points="25.127,280.312 31.46,284.939 31.46,287.252 25.127,284.377 	"/>
	<polygon fill="#A2ACB0" points="46.915,283.752 52.523,283.715 54,281.545 52.523,279.711 46.915,279.688 	"/>
	<polygon fill="#C9D6DB" points="46.915,279.688 39.873,283.814 39.29,286.336 46.915,283.752 	"/>
	<polygon fill="#A2ACB0" points="61.085,283.752 55.477,283.715 54,281.545 55.477,279.711 61.085,279.688 	"/>
	<polygon fill="#C9D6DB" points="61.085,279.688 68.127,283.814 68.71,286.336 61.085,283.752 	"/>
	<polygon fill="#A2ACB0" points="82.748,283.4 88.523,283.715 90,281.545 88.523,279.711 82.748,279.336 	"/>
	<polygon fill="#C9D6DB" points="82.748,279.336 75.707,282.127 74.04,284.961 82.748,283.4 	"/>
	<polygon fill="#A2ACB0" points="97.252,283.4 91.477,283.715 90,281.545 91.477,279.711 97.252,279.336 	"/>
	<polygon fill="#C9D6DB" points="97.252,279.336 104.293,282.127 105.96,284.961 97.252,283.4 	"/>
	<polygon fill="#A2ACB0" points="118.542,283.191 124.523,283.715 126,281.545 124.523,279.711 118.542,279.127 	"/>
	<polygon fill="#C9D6DB" points="118.542,279.127 111.334,281.086 109.542,283.734 118.542,283.191 	"/>
	<polygon fill="#A2ACB0" points="133.458,283.191 127.477,283.715 126,281.545 127.477,279.711 133.458,279.127 	"/>
	<polygon fill="#C9D6DB" points="133.458,279.127 140.666,281.086 142.458,283.734 133.458,283.191 	"/>
	<polygon fill="#A2ACB0" points="155.082,282.336 160.523,283.715 162,281.545 160.523,279.711 155.082,278.67 	"/>
	<polygon fill="#C9D6DB" points="155.082,278.67 147.707,279.461 146.79,281.67 155.082,282.336 	"/>
	<polygon fill="#A2ACB0" points="168.918,282.336 163.477,283.715 162,281.545 163.477,279.711 168.918,278.67 	"/>
	<polygon fill="#C9D6DB" points="168.918,278.67 176.293,279.461 177.21,281.67 168.918,282.336 	"/>
	<polygon fill="#A2ACB0" points="191.498,281.877 196.523,283.715 198,281.545 196.523,279.711 191.498,278.211 	"/>
	<polygon fill="#C9D6DB" points="191.498,278.211 184.207,278.043 183.29,280.252 191.498,281.877 	"/>
	<polygon fill="#A2ACB0" points="204.502,281.877 199.477,283.715 198,281.545 199.477,279.711 204.502,278.211 	"/>
	<polygon fill="#C9D6DB" points="204.502,278.211 211.793,278.043 212.71,280.252 204.502,281.877 	"/>
	<polygon fill="#A2ACB0" points="228,281.766 232.523,283.715 234,281.545 232.523,279.711 228,277.701 	"/>
	<polygon fill="#C9D6DB" points="228,277.701 219.748,277.439 218.915,279.67 228,281.766 	"/>
	<polygon fill="#A2ACB0" points="240,281.766 235.477,283.715 234,281.545 235.477,279.711 240,277.701 	"/>
	<polygon fill="#C9D6DB" points="240,277.701 248.252,277.439 249.085,279.67 240,281.766 	"/>
</g>
<g id="cloud_100_x25_">
	<g>
		<path fill="#FFFFFF" d="M100.685,38c0.471-1.377,0.739-2.849,0.739-4.385c0-7.483-6.068-13.552-13.551-13.552
			c-1.251,0-2.457,0.183-3.607,0.5C82.838,10.637,74.322,3,64,3c-9.481,0-17.438,6.446-19.78,15.189
			c-2.317-1.19-4.936-1.875-7.72-1.875c-9.354,0-16.936,7.583-16.936,16.936c0,1.653,0.252,3.242,0.697,4.75H100.685z"/>
	</g>
	<g>
		<path fill="#FFFFFF" d="M127.081,38h80.649c0.008-0.185,0.028-0.365,0.028-0.552c0-7.172-5.578-13.029-12.63-13.505
			c0.01-0.26,0.039-0.514,0.039-0.776c0-11.322-9.178-20.5-20.5-20.5c-8.607,0-15.964,5.311-19.002,12.83
			c-2.304-1.173-4.903-1.848-7.665-1.848c-9.354,0-16.936,7.583-16.936,16.936c0,0.24,0.026,0.474,0.036,0.712
			C129.359,33.233,127.991,35.507,127.081,38z"/>
	</g>
	<g>
		<path fill="#FFFFFF" d="M312.396,38c-0.559-4.459-3.283-8.245-7.089-10.27c0.139-0.962,0.234-1.938,0.234-2.939
			c0-11.322-9.179-20.5-20.5-20.5c-7.469,0-13.986,4.008-17.569,9.978c-2.377-1.271-5.09-1.996-7.973-1.996
			c-8.23,0-15.084,5.874-16.612,13.656c-5.555,2.086-9.956,6.51-12.02,12.071H312.396z"/>
	</g>
	<g>
		<path fill="#FFFFFF" d="M415.521,38c-0.726-1.896-1.849-3.594-3.29-4.972c0.654-2.004,1.019-4.139,1.019-6.361
			c0-11.322-9.179-20.5-20.5-20.5c-7.15,0-13.438,3.666-17.106,9.216c-2.417-1.329-5.191-2.087-8.144-2.087
			c-7.42,0-13.71,4.78-15.999,11.422c-7.606,1.054-13.871,6.274-16.425,13.282H415.521z"/>
	</g>
	<g>
		<path fill="#FFFFFF" d="M519.853,38c-0.111-0.146-0.216-0.298-0.332-0.44c0.89-2.296,1.396-4.783,1.396-7.393
			c0-11.322-9.179-20.5-20.5-20.5c-5.605,0-10.682,2.255-14.382,5.901c-2.966-2.553-6.815-4.106-11.035-4.106
			c-7.097,0-13.166,4.37-15.685,10.562c-0.162-0.004-0.319-0.024-0.482-0.024c-9.773,0-17.936,6.846-19.988,16H519.853z"/>
	</g>
	<g>
		<path fill="#FFFFFF" d="M626.849,38c0.357-1.5,0.568-3.056,0.568-4.667c0-11.322-9.179-20.5-20.5-20.5
			c-4.029,0-7.775,1.179-10.944,3.187c-3.107-3.701-7.763-6.058-12.973-6.058c-6.664,0-12.412,3.859-15.177,9.455
			c-0.548-0.044-1.097-0.083-1.656-0.083c-10.702,0-19.479,8.205-20.407,18.667H626.849z"/>
	</g>
	<g>
		<path fill="#FFFFFF" d="M102.084,128c0.101-0.82,0.166-1.652,0.166-2.5c0-11.322-9.179-20.5-20.5-20.5
			c-2.915,0-5.683,0.618-8.194,1.714c-3.001-4.742-8.28-7.9-14.306-7.9c-6.066,0-11.372,3.2-14.363,7.993
			c-0.379-0.021-0.753-0.058-1.137-0.058c-11.321,0-20.5,9.178-20.5,20.5c0,0.253,0.029,0.499,0.038,0.75H102.084z"/>
	</g>
	<g>
		<path fill="#FFFFFF" d="M129.752,128h77.464c-0.355-11.011-9.371-19.833-20.467-19.833c-1.053,0-2.079,0.104-3.088,0.257
			c-2.664-5.86-8.556-9.943-15.412-9.943c-5.825,0-10.962,2.943-14.009,7.421c-1.137-0.195-2.298-0.319-3.491-0.319
			c-11.321,0-20.5,9.178-20.5,20.5c0,0.109,0.015,0.214,0.016,0.322C130.068,126.925,129.901,127.458,129.752,128z"/>
	</g>
	<g>
		<path fill="#FFFFFF" d="M311.874,128c-1.739-8.977-9.344-15.851-18.665-16.51c-1.773-7.456-8.461-13.009-16.459-13.009
			c-5.748,0-10.818,2.87-13.88,7.249c-1.896-0.58-3.908-0.896-5.995-0.896c-10.847,0-19.703,8.431-20.429,19.093
			c-0.735,1.264-1.313,2.631-1.706,4.073H311.874z"/>
	</g>
	<g>
		<path fill="#FFFFFF" d="M415.513,128c-2.289-6.279-7.562-11.121-14.106-12.82c-0.303-9.086-7.746-16.366-16.906-16.366
			c-5.496,0-10.366,2.63-13.46,6.687c-2.667-1.27-5.64-2.001-8.79-2.001c-10.949,0-19.869,8.592-20.444,19.399
			c-1.059,1.535-1.861,3.257-2.371,5.101H415.513z"/>
	</g>
	<g>
		<path fill="#FFFFFF" d="M519.812,128c-2.295-4.889-6.456-8.727-11.575-10.585c0.008-0.222,0.033-0.44,0.033-0.665
			c0-9.353-7.583-16.936-16.936-16.936c-4.175,0-7.99,1.518-10.942,4.022c-3.105-1.893-6.739-3.003-10.642-3.003
			c-9.978,0-18.282,7.132-20.115,16.575c-3.71,2.377-6.43,6.157-7.413,10.592H519.812z"/>
	</g>
	<g>
		<path fill="#FFFFFF" d="M624.152,128c-2.038-3.958-5.321-7.172-9.34-9.114c0.075-0.647,0.124-1.302,0.124-1.97
			c0-9.353-7.583-16.936-16.936-16.936c-3.492,0-6.736,1.059-9.432,2.87c-3.403-2.514-7.598-4.018-12.152-4.018
			c-9.975,0-18.277,7.127-20.113,16.566c-5.059,2.28-8.792,6.965-9.744,12.601H624.152z"/>
	</g>
	<g>
		<path fill="#FFFFFF" d="M98.298,218c-1.849-3.293-4.573-6.028-7.867-7.878c0.22-1.09,0.338-2.217,0.338-3.372
			c0-9.353-7.583-16.936-16.936-16.936c-2.686,0-5.216,0.642-7.472,1.755c-3.453-2.646-7.758-4.236-12.445-4.236
			c-9.458,0-17.398,6.413-19.763,15.123c-7.308,1.581-12.847,7.877-13.295,15.544H98.298z"/>
	</g>
	<g>
		<path fill="#FFFFFF" d="M201.249,218c-0.277-0.329-0.549-0.662-0.846-0.973c0.657-1.805,1.033-3.745,1.033-5.777
			c0-9.353-7.583-16.936-16.935-16.936c-1.667,0-3.274,0.251-4.795,0.699c-3.639-5.713-10.013-9.514-17.288-9.514
			c-9.326,0-17.184,6.233-19.669,14.757c-0.167-0.005-0.33-0.025-0.498-0.025c-9.354,0-16.936,7.583-16.936,16.936
			c0,0.281,0.028,0.556,0.042,0.833H201.249z"/>
	</g>
	<g>
		<path fill="#FFFFFF" d="M310.137,218c0.302-1.257,0.465-2.567,0.465-3.917c0-9.353-7.582-16.936-16.936-16.936
			c-0.864,0-1.707,0.085-2.537,0.21c-2.762-8.057-10.385-13.857-19.378-13.857c-9.741,0-17.877,6.8-19.965,15.907
			c-1.494-0.432-3.068-0.676-4.702-0.676c-9.354,0-16.936,7.583-16.936,16.936c0,0.794,0.073,1.568,0.18,2.333H310.137z"/>
	</g>
</g>
<g id="cloud_80_x25_">
	<g opacity="0.1">
		<path d="M67.748,75.201c0.377-1.102,0.591-2.279,0.591-3.508c0-5.987-4.854-10.841-10.842-10.841c-1,0-1.965,0.146-2.885,0.4
			C53.47,53.311,46.657,47.201,38.4,47.201c-7.585,0-13.95,5.157-15.824,12.151c-1.854-0.952-3.949-1.5-6.176-1.5
			c-7.483,0-13.548,6.066-13.548,13.548c0,1.322,0.202,2.594,0.558,3.8H67.748z"/>
	</g>
	<g opacity="0.1">
		<path d="M109.865,77.2h64.521c0.006-0.147,0.022-0.292,0.022-0.441c0-5.738-4.463-10.423-10.105-10.804
			c0.008-0.208,0.031-0.412,0.031-0.621c0-9.058-7.342-16.4-16.398-16.4c-6.887,0-12.771,4.249-15.203,10.264
			c-1.842-0.938-3.922-1.479-6.131-1.479c-7.484,0-13.549,6.066-13.549,13.549c0,0.192,0.02,0.379,0.029,0.57
			C111.688,73.387,110.595,75.206,109.865,77.2z"/>
	</g>
	<g opacity="0.1">
		<path d="M279.108,77.2c-0.448-3.567-2.62-6.597-5.665-8.216c0.111-0.77,0.188-1.551,0.188-2.351c0-9.058-7.342-16.4-16.4-16.4
			c-5.975,0-11.188,3.206-14.055,7.982c-1.9-1.017-4.07-1.597-6.377-1.597c-6.584,0-12.066,4.699-13.289,10.925
			c-4.443,1.668-7.965,5.208-9.615,9.657H279.108z"/>
	</g>
	<g opacity="0.1">
		<path d="M382.616,77.2c-0.579-1.516-1.479-2.875-2.632-3.978c0.523-1.603,0.814-3.311,0.814-5.088c0-9.058-7.342-16.4-16.398-16.4
			c-5.721,0-10.752,2.933-13.686,7.373c-1.934-1.063-4.154-1.67-6.516-1.67c-5.936,0-10.967,3.824-12.799,9.138
			c-6.085,0.844-11.098,5.019-13.141,10.625H382.616z"/>
	</g>
	<g opacity="0.1">
		<path d="M487.082,77.2c-0.089-0.118-0.173-0.239-0.266-0.353c0.711-1.836,1.117-3.826,1.117-5.914c0-9.057-7.344-16.4-16.4-16.4
			c-4.484,0-8.545,1.804-11.506,4.721c-2.373-2.042-5.451-3.285-8.828-3.285c-5.678,0-10.533,3.496-12.547,8.449
			c-0.131-0.003-0.256-0.02-0.387-0.02c-7.818,0-14.349,5.477-15.991,12.8H487.082z"/>
	</g>
	<g opacity="0.1">
		<path d="M593.679,77.2c0.286-1.2,0.454-2.445,0.454-3.733c0-9.057-7.342-16.4-16.4-16.4c-3.223,0-6.219,0.943-8.754,2.55
			c-2.486-2.961-6.211-4.847-10.379-4.847c-5.332,0-9.93,3.087-12.141,7.563c-0.439-0.035-0.879-0.066-1.326-0.066
			c-8.562,0-15.583,6.564-16.326,14.933H593.679z"/>
	</g>
	<g opacity="0.1">
		<path d="M68.867,166.535c0.081-0.656,0.133-1.321,0.133-2c0-9.057-7.342-16.399-16.399-16.399c-2.332,0-4.546,0.494-6.555,1.371
			c-2.401-3.793-6.624-6.32-11.445-6.32c-4.853,0-9.098,2.56-11.49,6.395c-0.303-0.017-0.603-0.046-0.91-0.046
			c-9.057,0-16.4,7.342-16.4,16.4c0,0.203,0.023,0.399,0.03,0.6H68.867z"/>
	</g>
	<g opacity="0.1">
		<path d="M112.003,167.201h61.972c-0.283-8.809-7.496-15.867-16.373-15.867c-0.842,0-1.664,0.083-2.471,0.205
			c-2.131-4.688-6.846-7.954-12.33-7.954c-4.66,0-8.77,2.354-11.207,5.937c-0.91-0.156-1.84-0.255-2.793-0.255
			c-9.057,0-16.4,7.342-16.4,16.4c0,0.086,0.012,0.17,0.014,0.257C112.256,166.34,112.121,166.768,112.003,167.201z"/>
	</g>
	<g opacity="0.1">
		<path d="M278.697,167.201c-1.392-7.183-7.475-12.682-14.932-13.209c-1.42-5.964-6.77-10.407-13.168-10.407
			c-4.598,0-8.652,2.296-11.102,5.799c-1.518-0.464-3.127-0.717-4.797-0.717c-8.678,0-15.762,6.745-16.344,15.274
			c-0.587,1.012-1.05,2.105-1.364,3.26H278.697z"/>
	</g>
	<g opacity="0.1">
		<path d="M382.609,167.201c-1.831-5.023-6.05-8.896-11.285-10.256c-0.242-7.27-6.197-13.093-13.525-13.093
			c-4.396,0-8.293,2.104-10.768,5.35c-2.133-1.016-4.512-1.601-7.031-1.601c-8.76,0-15.896,6.874-16.355,15.52
			c-0.847,1.229-1.489,2.606-1.896,4.081H382.609z"/>
	</g>
	<g opacity="0.1">
		<path d="M487.049,167.201c-1.836-3.912-5.164-6.982-9.26-8.469c0.006-0.178,0.025-0.353,0.025-0.531
			c0-7.482-6.066-13.549-13.547-13.549c-3.34,0-6.393,1.214-8.754,3.217c-2.484-1.514-5.393-2.402-8.514-2.402
			c-7.982,0-14.627,5.707-16.092,13.259c-2.969,1.902-5.146,4.926-5.932,8.475H487.049z"/>
	</g>
	<g opacity="0.1">
		<path d="M591.521,167.201c-1.631-3.167-4.258-5.738-7.473-7.291c0.061-0.518,0.1-1.043,0.1-1.576
			c0-7.482-6.066-13.549-13.549-13.549c-2.793,0-5.389,0.847-7.545,2.296c-2.723-2.011-6.078-3.214-9.721-3.214
			c-7.98,0-14.623,5.702-16.092,13.253c-4.047,1.824-7.033,5.572-7.794,10.081H591.521z"/>
	</g>
	<g opacity="0.1">
		<path d="M65.838,257.199c-1.479-2.634-3.658-4.822-6.294-6.302c0.177-0.872,0.271-1.773,0.271-2.698
			c0-7.481-6.066-13.548-13.549-13.548c-2.148,0-4.172,0.513-5.977,1.403c-2.763-2.117-6.207-3.389-9.956-3.389
			c-7.566,0-13.918,5.131-15.811,12.099c-5.846,1.265-10.277,6.301-10.636,12.435H65.838z"/>
	</g>
	<g opacity="0.1">
		<path d="M169.2,257.199c-0.222-0.263-0.439-0.529-0.677-0.777c0.525-1.444,0.826-2.996,0.826-4.622
			c0-7.482-6.066-13.549-13.549-13.549c-1.332,0-2.619,0.201-3.836,0.56c-2.91-4.57-8.01-7.611-13.83-7.611
			c-7.461,0-13.748,4.987-15.736,11.806c-0.133-0.004-0.264-0.021-0.398-0.021c-7.482,0-13.547,6.066-13.547,13.549
			c0,0.225,0.022,0.443,0.033,0.666H169.2z"/>
	</g>
	<g opacity="0.1">
		<path d="M277.306,257.199c0.241-1.006,0.374-2.053,0.374-3.133c0-7.482-6.066-13.549-13.549-13.549
			c-0.691,0-1.365,0.068-2.029,0.168c-2.211-6.445-8.309-11.086-15.504-11.086c-7.791,0-14.299,5.439-15.969,12.726
			c-1.195-0.345-2.455-0.54-3.762-0.54c-7.484,0-13.549,6.066-13.549,13.548c0,0.635,0.059,1.255,0.144,1.866H277.306z"/>
	</g>
</g>
</svg>
